ISO-10303-21;
HEADER;
/* Generated by software containing ST-Developer
 * from STEP Tools, Inc. (www.steptools.com) 
 */
/* OPTION: using custom renumber hook */

FILE_DESCRIPTION(
/* description */ ('STEP AP242 Edition 2',
'CAx-IF Rec.Pracs.---Representation and Presentation of Product Manufa
cturing Information (PMI)---4.0---2014-10-13',
'CAx-IF Rec.Pracs.---3D Tessellated Geometry---0.4---2014-09-14','2;1',
'CAx-IF Rec.Pracs.---User Defined Attributes---1.5---2016-08-15'),
/* implementation_level */ '2;1');

FILE_NAME(
/* name */ 'psDisplayCase with Lens - DisplayCase',
/* time_stamp */ '2026-08-08T13:10:03Z',
/* author */ (''),
/* organization */ (''),
/* preprocessor_version */ 'ST-DEVELOPER v20',
/* originating_system */ 'ONSHAPE BY PTC INC, 1.219',
/* authorisation */ '  ');

FILE_SCHEMA (('AP242_MANAGED_MODEL_BASED_3D_ENGINEERING_MIM_LF { 1 0 10303 442 3 1 4 }'));
ENDSEC;

DATA;
#10=SHAPE_REPRESENTATION_RELATIONSHIP('','',#736,#11);
#11=ADVANCED_BREP_SHAPE_REPRESENTATION('',(#734),#1215);
#12=PLANE('',#749);
#13=PLANE('',#751);
#14=PLANE('',#752);
#15=PLANE('',#753);
#16=PLANE('',#754);
#17=PLANE('',#755);
#18=PLANE('',#756);
#19=PLANE('',#757);
#20=PLANE('',#758);
#21=PLANE('',#764);
#22=PLANE('',#768);
#23=PLANE('',#769);
#24=PLANE('',#773);
#25=PLANE('',#774);
#26=PLANE('',#778);
#27=PLANE('',#788);
#28=PLANE('',#789);
#29=PLANE('',#793);
#30=PLANE('',#794);
#31=PLANE('',#795);
#32=PLANE('',#796);
#33=PLANE('',#797);
#34=PLANE('',#798);
#35=PLANE('',#799);
#36=PLANE('',#800);
#37=PLANE('',#801);
#38=PLANE('',#802);
#39=PLANE('',#803);
#40=LINE('',#1013,#110);
#41=LINE('',#1017,#111);
#42=LINE('',#1018,#112);
#43=LINE('',#1023,#113);
#44=LINE('',#1027,#114);
#45=LINE('',#1031,#115);
#46=LINE('',#1035,#116);
#47=LINE('',#1039,#117);
#48=LINE('',#1043,#118);
#49=LINE('',#1047,#119);
#50=LINE('',#1051,#120);
#51=LINE('',#1054,#121);
#52=LINE('',#1056,#122);
#53=LINE('',#1058,#123);
#54=LINE('',#1060,#124);
#55=LINE('',#1061,#125);
#56=LINE('',#1063,#126);
#57=LINE('',#1065,#127);
#58=LINE('',#1067,#128);
#59=LINE('',#1069,#129);
#60=LINE('',#1071,#130);
#61=LINE('',#1075,#131);
#62=LINE('',#1077,#132);
#63=LINE('',#1079,#133);
#64=LINE('',#1081,#134);
#65=LINE('',#1082,#135);
#66=LINE('',#1084,#136);
#67=LINE('',#1086,#137);
#68=LINE('',#1088,#138);
#69=LINE('',#1091,#139);
#70=LINE('',#1092,#140);
#71=LINE('',#1094,#141);
#72=LINE('',#1096,#142);
#73=LINE('',#1098,#143);
#74=LINE('',#1099,#144);
#75=LINE('',#1101,#145);
#76=LINE('',#1103,#146);
#77=LINE('',#1105,#147);
#78=LINE('',#1107,#148);
#79=LINE('',#1109,#149);
#80=LINE('',#1111,#150);
#81=LINE('',#1113,#151);
#82=LINE('',#1115,#152);
#83=LINE('',#1117,#153);
#84=LINE('',#1119,#154);
#85=LINE('',#1124,#155);
#86=LINE('',#1131,#156);
#87=LINE('',#1134,#157);
#88=LINE('',#1135,#158);
#89=LINE('',#1137,#159);
#90=LINE('',#1143,#160);
#91=LINE('',#1144,#161);
#92=LINE('',#1146,#162);
#93=LINE('',#1149,#163);
#94=LINE('',#1150,#164);
#95=LINE('',#1152,#165);
#96=LINE('',#1158,#166);
#97=LINE('',#1159,#167);
#98=LINE('',#1161,#168);
#99=LINE('',#1164,#169);
#100=LINE('',#1165,#170);
#101=LINE('',#1167,#171);
#102=LINE('',#1173,#172);
#103=LINE('',#1174,#173);
#104=LINE('',#1199,#174);
#105=LINE('',#1200,#175);
#106=LINE('',#1204,#176);
#107=LINE('',#1205,#177);
#108=LINE('',#1207,#178);
#109=LINE('',#1209,#179);
#110=VECTOR('',#810,1.);
#111=VECTOR('',#813,1.);
#112=VECTOR('',#814,1.);
#113=VECTOR('',#817,1.);
#114=VECTOR('',#820,1.);
#115=VECTOR('',#823,1.);
#116=VECTOR('',#826,1.);
#117=VECTOR('',#829,1.);
#118=VECTOR('',#832,1.);
#119=VECTOR('',#835,1.);
#120=VECTOR('',#840,1.);
#121=VECTOR('',#841,1.);
#122=VECTOR('',#842,1.);
#123=VECTOR('',#843,1.);
#124=VECTOR('',#844,1.);
#125=VECTOR('',#845,1.);
#126=VECTOR('',#846,1.);
#127=VECTOR('',#847,1.);
#128=VECTOR('',#848,1.);
#129=VECTOR('',#849,1.);
#130=VECTOR('',#850,1.);
#131=VECTOR('',#853,1.);
#132=VECTOR('',#856,1.);
#133=VECTOR('',#857,1.);
#134=VECTOR('',#858,1.);
#135=VECTOR('',#859,1.);
#136=VECTOR('',#860,1.);
#137=VECTOR('',#861,1.);
#138=VECTOR('',#864,1.);
#139=VECTOR('',#865,1.);
#140=VECTOR('',#866,1.);
#141=VECTOR('',#869,1.);
#142=VECTOR('',#870,1.);
#143=VECTOR('',#871,1.);
#144=VECTOR('',#872,1.);
#145=VECTOR('',#873,1.);
#146=VECTOR('',#876,1.);
#147=VECTOR('',#877,1.);
#148=VECTOR('',#880,1.);
#149=VECTOR('',#881,1.);
#150=VECTOR('',#884,1.);
#151=VECTOR('',#887,1.);
#152=VECTOR('',#888,1.);
#153=VECTOR('',#891,1.);
#154=VECTOR('',#894,1.);
#155=VECTOR('',#897,1.);
#156=VECTOR('',#906,1.);
#157=VECTOR('',#907,1.);
#158=VECTOR('',#908,1.);
#159=VECTOR('',#911,1.);
#160=VECTOR('',#918,1.);
#161=VECTOR('',#919,1.);
#162=VECTOR('',#922,1.);
#163=VECTOR('',#923,1.);
#164=VECTOR('',#924,1.);
#165=VECTOR('',#927,1.);
#166=VECTOR('',#934,1.);
#167=VECTOR('',#935,1.);
#168=VECTOR('',#938,1.);
#169=VECTOR('',#939,1.);
#170=VECTOR('',#940,1.);
#171=VECTOR('',#943,1.);
#172=VECTOR('',#950,1.);
#173=VECTOR('',#951,1.);
#174=VECTOR('',#984,1.);
#175=VECTOR('',#985,1.);
#176=VECTOR('',#992,1.);
#177=VECTOR('',#993,1.);
#178=VECTOR('',#996,1.);
#179=VECTOR('',#999,1.);
#180=ORIENTED_EDGE('',*,*,#378,.F.);
#181=ORIENTED_EDGE('',*,*,#379,.T.);
#182=ORIENTED_EDGE('',*,*,#380,.T.);
#183=ORIENTED_EDGE('',*,*,#381,.F.);
#184=ORIENTED_EDGE('',*,*,#382,.F.);
#185=ORIENTED_EDGE('',*,*,#383,.T.);
#186=ORIENTED_EDGE('',*,*,#384,.F.);
#187=ORIENTED_EDGE('',*,*,#385,.F.);
#188=ORIENTED_EDGE('',*,*,#386,.T.);
#189=ORIENTED_EDGE('',*,*,#387,.T.);
#190=ORIENTED_EDGE('',*,*,#388,.T.);
#191=ORIENTED_EDGE('',*,*,#389,.T.);
#192=ORIENTED_EDGE('',*,*,#390,.F.);
#193=ORIENTED_EDGE('',*,*,#391,.T.);
#194=ORIENTED_EDGE('',*,*,#392,.T.);
#195=ORIENTED_EDGE('',*,*,#393,.T.);
#196=ORIENTED_EDGE('',*,*,#394,.F.);
#197=ORIENTED_EDGE('',*,*,#395,.T.);
#198=ORIENTED_EDGE('',*,*,#396,.T.);
#199=ORIENTED_EDGE('',*,*,#397,.T.);
#200=ORIENTED_EDGE('',*,*,#398,.F.);
#201=ORIENTED_EDGE('',*,*,#399,.T.);
#202=ORIENTED_EDGE('',*,*,#400,.F.);
#203=ORIENTED_EDGE('',*,*,#401,.F.);
#204=ORIENTED_EDGE('',*,*,#402,.T.);
#205=ORIENTED_EDGE('',*,*,#385,.T.);
#206=ORIENTED_EDGE('',*,*,#403,.F.);
#207=ORIENTED_EDGE('',*,*,#404,.T.);
#208=ORIENTED_EDGE('',*,*,#405,.F.);
#209=ORIENTED_EDGE('',*,*,#406,.F.);
#210=ORIENTED_EDGE('',*,*,#407,.F.);
#211=ORIENTED_EDGE('',*,*,#408,.T.);
#212=ORIENTED_EDGE('',*,*,#409,.F.);
#213=ORIENTED_EDGE('',*,*,#410,.F.);
#214=ORIENTED_EDGE('',*,*,#400,.T.);
#215=ORIENTED_EDGE('',*,*,#411,.T.);
#216=ORIENTED_EDGE('',*,*,#412,.T.);
#217=ORIENTED_EDGE('',*,*,#413,.F.);
#218=ORIENTED_EDGE('',*,*,#405,.T.);
#219=ORIENTED_EDGE('',*,*,#414,.T.);
#220=ORIENTED_EDGE('',*,*,#415,.T.);
#221=ORIENTED_EDGE('',*,*,#416,.F.);
#222=ORIENTED_EDGE('',*,*,#417,.F.);
#223=ORIENTED_EDGE('',*,*,#418,.F.);
#224=ORIENTED_EDGE('',*,*,#410,.T.);
#225=ORIENTED_EDGE('',*,*,#419,.T.);
#226=ORIENTED_EDGE('',*,*,#420,.F.);
#227=ORIENTED_EDGE('',*,*,#398,.T.);
#228=ORIENTED_EDGE('',*,*,#418,.T.);
#229=ORIENTED_EDGE('',*,*,#421,.F.);
#230=ORIENTED_EDGE('',*,*,#422,.F.);
#231=ORIENTED_EDGE('',*,*,#407,.T.);
#232=ORIENTED_EDGE('',*,*,#423,.T.);
#233=ORIENTED_EDGE('',*,*,#424,.F.);
#234=ORIENTED_EDGE('',*,*,#425,.T.);
#235=ORIENTED_EDGE('',*,*,#426,.F.);
#236=ORIENTED_EDGE('',*,*,#408,.F.);
#237=ORIENTED_EDGE('',*,*,#422,.T.);
#238=ORIENTED_EDGE('',*,*,#416,.T.);
#239=ORIENTED_EDGE('',*,*,#427,.T.);
#240=ORIENTED_EDGE('',*,*,#428,.F.);
#241=ORIENTED_EDGE('',*,*,#401,.T.);
#242=ORIENTED_EDGE('',*,*,#428,.T.);
#243=ORIENTED_EDGE('',*,*,#429,.T.);
#244=ORIENTED_EDGE('',*,*,#386,.F.);
#245=ORIENTED_EDGE('',*,*,#402,.F.);
#246=ORIENTED_EDGE('',*,*,#384,.T.);
#247=ORIENTED_EDGE('',*,*,#430,.T.);
#248=ORIENTED_EDGE('',*,*,#431,.F.);
#249=ORIENTED_EDGE('',*,*,#403,.T.);
#250=ORIENTED_EDGE('',*,*,#431,.T.);
#251=ORIENTED_EDGE('',*,*,#432,.T.);
#252=ORIENTED_EDGE('',*,*,#414,.F.);
#253=ORIENTED_EDGE('',*,*,#404,.F.);
#254=ORIENTED_EDGE('',*,*,#433,.F.);
#255=ORIENTED_EDGE('',*,*,#434,.T.);
#256=ORIENTED_EDGE('',*,*,#435,.T.);
#257=ORIENTED_EDGE('',*,*,#436,.F.);
#258=ORIENTED_EDGE('',*,*,#426,.T.);
#259=ORIENTED_EDGE('',*,*,#437,.T.);
#260=ORIENTED_EDGE('',*,*,#419,.F.);
#261=ORIENTED_EDGE('',*,*,#409,.T.);
#262=ORIENTED_EDGE('',*,*,#438,.F.);
#263=ORIENTED_EDGE('',*,*,#439,.T.);
#264=ORIENTED_EDGE('',*,*,#440,.F.);
#265=ORIENTED_EDGE('',*,*,#388,.F.);
#266=ORIENTED_EDGE('',*,*,#441,.T.);
#267=ORIENTED_EDGE('',*,*,#442,.T.);
#268=ORIENTED_EDGE('',*,*,#443,.F.);
#269=ORIENTED_EDGE('',*,*,#439,.F.);
#270=ORIENTED_EDGE('',*,*,#444,.T.);
#271=ORIENTED_EDGE('',*,*,#390,.T.);
#272=ORIENTED_EDGE('',*,*,#445,.T.);
#273=ORIENTED_EDGE('',*,*,#442,.F.);
#274=ORIENTED_EDGE('',*,*,#446,.F.);
#275=ORIENTED_EDGE('',*,*,#447,.T.);
#276=ORIENTED_EDGE('',*,*,#448,.F.);
#277=ORIENTED_EDGE('',*,*,#392,.F.);
#278=ORIENTED_EDGE('',*,*,#449,.T.);
#279=ORIENTED_EDGE('',*,*,#450,.T.);
#280=ORIENTED_EDGE('',*,*,#451,.F.);
#281=ORIENTED_EDGE('',*,*,#447,.F.);
#282=ORIENTED_EDGE('',*,*,#452,.T.);
#283=ORIENTED_EDGE('',*,*,#394,.T.);
#284=ORIENTED_EDGE('',*,*,#453,.T.);
#285=ORIENTED_EDGE('',*,*,#450,.F.);
#286=ORIENTED_EDGE('',*,*,#454,.F.);
#287=ORIENTED_EDGE('',*,*,#455,.T.);
#288=ORIENTED_EDGE('',*,*,#456,.F.);
#289=ORIENTED_EDGE('',*,*,#396,.F.);
#290=ORIENTED_EDGE('',*,*,#457,.T.);
#291=ORIENTED_EDGE('',*,*,#458,.T.);
#292=ORIENTED_EDGE('',*,*,#459,.F.);
#293=ORIENTED_EDGE('',*,*,#455,.F.);
#294=ORIENTED_EDGE('',*,*,#460,.T.);
#295=ORIENTED_EDGE('',*,*,#382,.T.);
#296=ORIENTED_EDGE('',*,*,#461,.T.);
#297=ORIENTED_EDGE('',*,*,#458,.F.);
#298=ORIENTED_EDGE('',*,*,#462,.F.);
#299=ORIENTED_EDGE('',*,*,#463,.T.);
#300=ORIENTED_EDGE('',*,*,#464,.F.);
#301=ORIENTED_EDGE('',*,*,#465,.T.);
#302=ORIENTED_EDGE('',*,*,#466,.F.);
#303=ORIENTED_EDGE('',*,*,#467,.T.);
#304=ORIENTED_EDGE('',*,*,#468,.F.);
#305=ORIENTED_EDGE('',*,*,#421,.T.);
#306=ORIENTED_EDGE('',*,*,#417,.T.);
#307=ORIENTED_EDGE('',*,*,#437,.F.);
#308=ORIENTED_EDGE('',*,*,#425,.F.);
#309=ORIENTED_EDGE('',*,*,#469,.T.);
#310=ORIENTED_EDGE('',*,*,#438,.T.);
#311=ORIENTED_EDGE('',*,*,#470,.T.);
#312=ORIENTED_EDGE('',*,*,#469,.F.);
#313=ORIENTED_EDGE('',*,*,#470,.F.);
#314=ORIENTED_EDGE('',*,*,#387,.F.);
#315=ORIENTED_EDGE('',*,*,#429,.F.);
#316=ORIENTED_EDGE('',*,*,#427,.F.);
#317=ORIENTED_EDGE('',*,*,#415,.F.);
#318=ORIENTED_EDGE('',*,*,#432,.F.);
#319=ORIENTED_EDGE('',*,*,#430,.F.);
#320=ORIENTED_EDGE('',*,*,#383,.F.);
#321=ORIENTED_EDGE('',*,*,#462,.T.);
#322=ORIENTED_EDGE('',*,*,#460,.F.);
#323=ORIENTED_EDGE('',*,*,#457,.F.);
#324=ORIENTED_EDGE('',*,*,#395,.F.);
#325=ORIENTED_EDGE('',*,*,#454,.T.);
#326=ORIENTED_EDGE('',*,*,#452,.F.);
#327=ORIENTED_EDGE('',*,*,#449,.F.);
#328=ORIENTED_EDGE('',*,*,#391,.F.);
#329=ORIENTED_EDGE('',*,*,#446,.T.);
#330=ORIENTED_EDGE('',*,*,#444,.F.);
#331=ORIENTED_EDGE('',*,*,#441,.F.);
#332=ORIENTED_EDGE('',*,*,#468,.T.);
#333=ORIENTED_EDGE('',*,*,#464,.T.);
#334=ORIENTED_EDGE('',*,*,#466,.T.);
#335=ORIENTED_EDGE('',*,*,#424,.T.);
#336=ORIENTED_EDGE('',*,*,#471,.T.);
#337=ORIENTED_EDGE('',*,*,#412,.F.);
#338=ORIENTED_EDGE('',*,*,#472,.F.);
#339=ORIENTED_EDGE('',*,*,#420,.T.);
#340=ORIENTED_EDGE('',*,*,#472,.T.);
#341=ORIENTED_EDGE('',*,*,#411,.F.);
#342=ORIENTED_EDGE('',*,*,#399,.F.);
#343=ORIENTED_EDGE('',*,*,#406,.T.);
#344=ORIENTED_EDGE('',*,*,#413,.T.);
#345=ORIENTED_EDGE('',*,*,#471,.F.);
#346=ORIENTED_EDGE('',*,*,#423,.F.);
#347=ORIENTED_EDGE('',*,*,#473,.T.);
#348=ORIENTED_EDGE('',*,*,#433,.T.);
#349=ORIENTED_EDGE('',*,*,#474,.F.);
#350=ORIENTED_EDGE('',*,*,#379,.F.);
#351=ORIENTED_EDGE('',*,*,#378,.T.);
#352=ORIENTED_EDGE('',*,*,#475,.T.);
#353=ORIENTED_EDGE('',*,*,#434,.F.);
#354=ORIENTED_EDGE('',*,*,#473,.F.);
#355=ORIENTED_EDGE('',*,*,#381,.T.);
#356=ORIENTED_EDGE('',*,*,#476,.T.);
#357=ORIENTED_EDGE('',*,*,#435,.F.);
#358=ORIENTED_EDGE('',*,*,#475,.F.);
#359=ORIENTED_EDGE('',*,*,#474,.T.);
#360=ORIENTED_EDGE('',*,*,#436,.T.);
#361=ORIENTED_EDGE('',*,*,#476,.F.);
#362=ORIENTED_EDGE('',*,*,#380,.F.);
#363=ORIENTED_EDGE('',*,*,#467,.F.);
#364=ORIENTED_EDGE('',*,*,#393,.F.);
#365=ORIENTED_EDGE('',*,*,#448,.T.);
#366=ORIENTED_EDGE('',*,*,#451,.T.);
#367=ORIENTED_EDGE('',*,*,#453,.F.);
#368=ORIENTED_EDGE('',*,*,#465,.F.);
#369=ORIENTED_EDGE('',*,*,#397,.F.);
#370=ORIENTED_EDGE('',*,*,#456,.T.);
#371=ORIENTED_EDGE('',*,*,#459,.T.);
#372=ORIENTED_EDGE('',*,*,#461,.F.);
#373=ORIENTED_EDGE('',*,*,#463,.F.);
#374=ORIENTED_EDGE('',*,*,#389,.F.);
#375=ORIENTED_EDGE('',*,*,#440,.T.);
#376=ORIENTED_EDGE('',*,*,#443,.T.);
#377=ORIENTED_EDGE('',*,*,#445,.F.);
#378=EDGE_CURVE('',#477,#478,#546,.T.);
#379=EDGE_CURVE('',#477,#479,#40,.F.);
#380=EDGE_CURVE('',#479,#480,#547,.T.);
#381=EDGE_CURVE('',#478,#480,#41,.F.);
#382=EDGE_CURVE('',#481,#482,#42,.T.);
#383=EDGE_CURVE('',#481,#483,#548,.T.);
#384=EDGE_CURVE('',#484,#483,#43,.T.);
#385=EDGE_CURVE('',#485,#484,#549,.T.);
#386=EDGE_CURVE('',#485,#486,#44,.T.);
#387=EDGE_CURVE('',#486,#487,#550,.T.);
#388=EDGE_CURVE('',#487,#488,#45,.T.);
#389=EDGE_CURVE('',#488,#489,#551,.T.);
#390=EDGE_CURVE('',#490,#489,#46,.T.);
#391=EDGE_CURVE('',#490,#491,#552,.T.);
#392=EDGE_CURVE('',#491,#492,#47,.T.);
#393=EDGE_CURVE('',#492,#493,#553,.T.);
#394=EDGE_CURVE('',#494,#493,#48,.T.);
#395=EDGE_CURVE('',#494,#495,#554,.T.);
#396=EDGE_CURVE('',#495,#496,#49,.T.);
#397=EDGE_CURVE('',#496,#482,#555,.T.);
#398=EDGE_CURVE('',#497,#498,#50,.T.);
#399=EDGE_CURVE('',#497,#499,#51,.T.);
#400=EDGE_CURVE('',#500,#499,#52,.T.);
#401=EDGE_CURVE('',#501,#500,#53,.T.);
#402=EDGE_CURVE('',#501,#485,#54,.T.);
#403=EDGE_CURVE('',#502,#484,#55,.T.);
#404=EDGE_CURVE('',#502,#503,#56,.T.);
#405=EDGE_CURVE('',#504,#503,#57,.T.);
#406=EDGE_CURVE('',#505,#504,#58,.T.);
#407=EDGE_CURVE('',#506,#505,#59,.T.);
#408=EDGE_CURVE('',#506,#507,#60,.T.);
#409=EDGE_CURVE('',#508,#507,#556,.T.);
#410=EDGE_CURVE('',#498,#508,#61,.T.);
#411=EDGE_CURVE('',#499,#509,#62,.T.);
#412=EDGE_CURVE('',#509,#510,#63,.T.);
#413=EDGE_CURVE('',#504,#510,#64,.T.);
#414=EDGE_CURVE('',#503,#511,#65,.T.);
#415=EDGE_CURVE('',#511,#512,#66,.T.);
#416=EDGE_CURVE('',#500,#512,#67,.T.);
#417=EDGE_CURVE('',#513,#514,#68,.T.);
#418=EDGE_CURVE('',#498,#513,#69,.T.);
#419=EDGE_CURVE('',#508,#514,#70,.T.);
#420=EDGE_CURVE('',#497,#515,#71,.T.);
#421=EDGE_CURVE('',#516,#513,#72,.T.);
#422=EDGE_CURVE('',#506,#516,#73,.T.);
#423=EDGE_CURVE('',#505,#517,#74,.T.);
#424=EDGE_CURVE('',#515,#517,#75,.T.);
#425=EDGE_CURVE('',#516,#518,#76,.T.);
#426=EDGE_CURVE('',#507,#518,#77,.T.);
#427=EDGE_CURVE('',#512,#519,#78,.T.);
#428=EDGE_CURVE('',#501,#519,#79,.T.);
#429=EDGE_CURVE('',#519,#486,#80,.T.);
#430=EDGE_CURVE('',#483,#520,#81,.T.);
#431=EDGE_CURVE('',#502,#520,#82,.T.);
#432=EDGE_CURVE('',#520,#511,#83,.T.);
#433=EDGE_CURVE('',#521,#522,#84,.F.);
#434=EDGE_CURVE('',#521,#523,#557,.T.);
#435=EDGE_CURVE('',#523,#524,#85,.F.);
#436=EDGE_CURVE('',#522,#524,#558,.T.);
#437=EDGE_CURVE('',#518,#514,#559,.T.);
#438=EDGE_CURVE('',#525,#525,#560,.T.);
#439=EDGE_CURVE('',#526,#527,#86,.T.);
#440=EDGE_CURVE('',#488,#527,#87,.T.);
#441=EDGE_CURVE('',#487,#526,#88,.T.);
#442=EDGE_CURVE('',#528,#529,#89,.T.);
#443=EDGE_CURVE('',#527,#529,#561,.T.);
#444=EDGE_CURVE('',#526,#528,#562,.T.);
#445=EDGE_CURVE('',#489,#529,#90,.T.);
#446=EDGE_CURVE('',#490,#528,#91,.T.);
#447=EDGE_CURVE('',#530,#531,#92,.T.);
#448=EDGE_CURVE('',#492,#531,#93,.T.);
#449=EDGE_CURVE('',#491,#530,#94,.T.);
#450=EDGE_CURVE('',#532,#533,#95,.T.);
#451=EDGE_CURVE('',#531,#533,#563,.T.);
#452=EDGE_CURVE('',#530,#532,#564,.T.);
#453=EDGE_CURVE('',#493,#533,#96,.T.);
#454=EDGE_CURVE('',#494,#532,#97,.T.);
#455=EDGE_CURVE('',#534,#535,#98,.T.);
#456=EDGE_CURVE('',#496,#535,#99,.T.);
#457=EDGE_CURVE('',#495,#534,#100,.T.);
#458=EDGE_CURVE('',#536,#537,#101,.T.);
#459=EDGE_CURVE('',#535,#537,#565,.T.);
#460=EDGE_CURVE('',#534,#536,#566,.T.);
#461=EDGE_CURVE('',#482,#537,#102,.T.);
#462=EDGE_CURVE('',#481,#536,#103,.T.);
#463=EDGE_CURVE('',#538,#538,#567,.T.);
#464=EDGE_CURVE('',#539,#539,#568,.T.);
#465=EDGE_CURVE('',#540,#540,#569,.T.);
#466=EDGE_CURVE('',#541,#541,#570,.T.);
#467=EDGE_CURVE('',#542,#542,#571,.T.);
#468=EDGE_CURVE('',#543,#543,#572,.T.);
#469=EDGE_CURVE('',#544,#544,#573,.T.);
#470=EDGE_CURVE('',#545,#545,#574,.T.);
#471=EDGE_CURVE('',#517,#510,#104,.T.);
#472=EDGE_CURVE('',#515,#509,#105,.T.);
#473=EDGE_CURVE('',#477,#521,#106,.T.);
#474=EDGE_CURVE('',#479,#522,#107,.T.);
#475=EDGE_CURVE('',#478,#523,#108,.T.);
#476=EDGE_CURVE('',#480,#524,#109,.T.);
#477=VERTEX_POINT('',#1011);
#478=VERTEX_POINT('',#1012);
#479=VERTEX_POINT('',#1014);
#480=VERTEX_POINT('',#1016);
#481=VERTEX_POINT('',#1019);
#482=VERTEX_POINT('',#1020);
#483=VERTEX_POINT('',#1022);
#484=VERTEX_POINT('',#1024);
#485=VERTEX_POINT('',#1026);
#486=VERTEX_POINT('',#1028);
#487=VERTEX_POINT('',#1030);
#488=VERTEX_POINT('',#1032);
#489=VERTEX_POINT('',#1034);
#490=VERTEX_POINT('',#1036);
#491=VERTEX_POINT('',#1038);
#492=VERTEX_POINT('',#1040);
#493=VERTEX_POINT('',#1042);
#494=VERTEX_POINT('',#1044);
#495=VERTEX_POINT('',#1046);
#496=VERTEX_POINT('',#1048);
#497=VERTEX_POINT('',#1052);
#498=VERTEX_POINT('',#1053);
#499=VERTEX_POINT('',#1055);
#500=VERTEX_POINT('',#1057);
#501=VERTEX_POINT('',#1059);
#502=VERTEX_POINT('',#1062);
#503=VERTEX_POINT('',#1064);
#504=VERTEX_POINT('',#1066);
#505=VERTEX_POINT('',#1068);
#506=VERTEX_POINT('',#1070);
#507=VERTEX_POINT('',#1072);
#508=VERTEX_POINT('',#1074);
#509=VERTEX_POINT('',#1078);
#510=VERTEX_POINT('',#1080);
#511=VERTEX_POINT('',#1083);
#512=VERTEX_POINT('',#1085);
#513=VERTEX_POINT('',#1089);
#514=VERTEX_POINT('',#1090);
#515=VERTEX_POINT('',#1095);
#516=VERTEX_POINT('',#1097);
#517=VERTEX_POINT('',#1100);
#518=VERTEX_POINT('',#1104);
#519=VERTEX_POINT('',#1108);
#520=VERTEX_POINT('',#1114);
#521=VERTEX_POINT('',#1120);
#522=VERTEX_POINT('',#1121);
#523=VERTEX_POINT('',#1123);
#524=VERTEX_POINT('',#1125);
#525=VERTEX_POINT('',#1129);
#526=VERTEX_POINT('',#1132);
#527=VERTEX_POINT('',#1133);
#528=VERTEX_POINT('',#1138);
#529=VERTEX_POINT('',#1139);
#530=VERTEX_POINT('',#1147);
#531=VERTEX_POINT('',#1148);
#532=VERTEX_POINT('',#1153);
#533=VERTEX_POINT('',#1154);
#534=VERTEX_POINT('',#1162);
#535=VERTEX_POINT('',#1163);
#536=VERTEX_POINT('',#1168);
#537=VERTEX_POINT('',#1169);
#538=VERTEX_POINT('',#1177);
#539=VERTEX_POINT('',#1179);
#540=VERTEX_POINT('',#1182);
#541=VERTEX_POINT('',#1184);
#542=VERTEX_POINT('',#1187);
#543=VERTEX_POINT('',#1189);
#544=VERTEX_POINT('',#1193);
#545=VERTEX_POINT('',#1196);
#546=CIRCLE('',#739,0.022);
#547=CIRCLE('',#740,0.022);
#548=CIRCLE('',#741,0.022);
#549=CIRCLE('',#742,0.022);
#550=CIRCLE('',#743,0.022);
#551=CIRCLE('',#744,0.022);
#552=CIRCLE('',#745,0.022);
#553=CIRCLE('',#746,0.022);
#554=CIRCLE('',#747,0.022);
#555=CIRCLE('',#748,0.022);
#556=CIRCLE('',#750,0.01875);
#557=CIRCLE('',#760,0.01875);
#558=CIRCLE('',#761,0.01875);
#559=CIRCLE('',#762,0.01875);
#560=CIRCLE('',#763,0.01875);
#561=CIRCLE('',#766,0.004);
#562=CIRCLE('',#767,0.004);
#563=CIRCLE('',#771,0.004);
#564=CIRCLE('',#772,0.004);
#565=CIRCLE('',#776,0.00400354611044703);
#566=CIRCLE('',#777,0.00400354611044703);
#567=CIRCLE('',#780,0.001);
#568=CIRCLE('',#781,0.001);
#569=CIRCLE('',#783,0.001);
#570=CIRCLE('',#784,0.001);
#571=CIRCLE('',#786,0.001);
#572=CIRCLE('',#787,0.001);
#573=CIRCLE('',#790,0.0175);
#574=CIRCLE('',#792,0.0175);
#575=EDGE_LOOP('',(#180,#181,#182,#183));
#576=EDGE_LOOP('',(#184,#185,#186,#187,#188,#189,#190,#191,#192,#193,#194,
#195,#196,#197,#198,#199));
#577=EDGE_LOOP('',(#200,#201,#202,#203,#204,#205,#206,#207,#208,#209,#210,
#211,#212,#213));
#578=EDGE_LOOP('',(#214,#215,#216,#217,#218,#219,#220,#221));
#579=EDGE_LOOP('',(#222,#223,#224,#225));
#580=EDGE_LOOP('',(#226,#227,#228,#229,#230,#231,#232,#233));
#581=EDGE_LOOP('',(#234,#235,#236,#237));
#582=EDGE_LOOP('',(#238,#239,#240,#241));
#583=EDGE_LOOP('',(#242,#243,#244,#245));
#584=EDGE_LOOP('',(#246,#247,#248,#249));
#585=EDGE_LOOP('',(#250,#251,#252,#253));
#586=EDGE_LOOP('',(#254,#255,#256,#257));
#587=EDGE_LOOP('',(#258,#259,#260,#261));
#588=EDGE_LOOP('',(#262));
#589=EDGE_LOOP('',(#263,#264,#265,#266));
#590=EDGE_LOOP('',(#267,#268,#269,#270));
#591=EDGE_LOOP('',(#271,#272,#273,#274));
#592=EDGE_LOOP('',(#275,#276,#277,#278));
#593=EDGE_LOOP('',(#279,#280,#281,#282));
#594=EDGE_LOOP('',(#283,#284,#285,#286));
#595=EDGE_LOOP('',(#287,#288,#289,#290));
#596=EDGE_LOOP('',(#291,#292,#293,#294));
#597=EDGE_LOOP('',(#295,#296,#297,#298));
#598=EDGE_LOOP('',(#299));
#599=EDGE_LOOP('',(#300));
#600=EDGE_LOOP('',(#301));
#601=EDGE_LOOP('',(#302));
#602=EDGE_LOOP('',(#303));
#603=EDGE_LOOP('',(#304));
#604=EDGE_LOOP('',(#305,#306,#307,#308));
#605=EDGE_LOOP('',(#309));
#606=EDGE_LOOP('',(#310));
#607=EDGE_LOOP('',(#311));
#608=EDGE_LOOP('',(#312));
#609=EDGE_LOOP('',(#313));
#610=EDGE_LOOP('',(#314,#315,#316,#317,#318,#319,#320,#321,#322,#323,#324,
#325,#326,#327,#328,#329,#330,#331));
#611=EDGE_LOOP('',(#332));
#612=EDGE_LOOP('',(#333));
#613=EDGE_LOOP('',(#334));
#614=EDGE_LOOP('',(#335,#336,#337,#338));
#615=EDGE_LOOP('',(#339,#340,#341,#342));
#616=EDGE_LOOP('',(#343,#344,#345,#346));
#617=EDGE_LOOP('',(#347,#348,#349,#350));
#618=EDGE_LOOP('',(#351,#352,#353,#354));
#619=EDGE_LOOP('',(#355,#356,#357,#358));
#620=EDGE_LOOP('',(#359,#360,#361,#362));
#621=EDGE_LOOP('',(#363));
#622=EDGE_LOOP('',(#364,#365,#366,#367));
#623=EDGE_LOOP('',(#368));
#624=EDGE_LOOP('',(#369,#370,#371,#372));
#625=EDGE_LOOP('',(#373));
#626=EDGE_LOOP('',(#374,#375,#376,#377));
#627=FACE_BOUND('',#575,.T.);
#628=FACE_BOUND('',#576,.T.);
#629=FACE_BOUND('',#577,.T.);
#630=FACE_BOUND('',#578,.T.);
#631=FACE_BOUND('',#579,.T.);
#632=FACE_BOUND('',#580,.T.);
#633=FACE_BOUND('',#581,.T.);
#634=FACE_BOUND('',#582,.T.);
#635=FACE_BOUND('',#583,.T.);
#636=FACE_BOUND('',#584,.T.);
#637=FACE_BOUND('',#585,.T.);
#638=FACE_BOUND('',#586,.T.);
#639=FACE_BOUND('',#587,.T.);
#640=FACE_BOUND('',#588,.T.);
#641=FACE_BOUND('',#589,.T.);
#642=FACE_BOUND('',#590,.T.);
#643=FACE_BOUND('',#591,.T.);
#644=FACE_BOUND('',#592,.T.);
#645=FACE_BOUND('',#593,.T.);
#646=FACE_BOUND('',#594,.T.);
#647=FACE_BOUND('',#595,.T.);
#648=FACE_BOUND('',#596,.T.);
#649=FACE_BOUND('',#597,.T.);
#650=FACE_BOUND('',#598,.T.);
#651=FACE_BOUND('',#599,.T.);
#652=FACE_BOUND('',#600,.T.);
#653=FACE_BOUND('',#601,.T.);
#654=FACE_BOUND('',#602,.T.);
#655=FACE_BOUND('',#603,.T.);
#656=FACE_BOUND('',#604,.T.);
#657=FACE_BOUND('',#605,.T.);
#658=FACE_BOUND('',#606,.T.);
#659=FACE_BOUND('',#607,.T.);
#660=FACE_BOUND('',#608,.T.);
#661=FACE_BOUND('',#609,.T.);
#662=FACE_BOUND('',#610,.T.);
#663=FACE_BOUND('',#611,.T.);
#664=FACE_BOUND('',#612,.T.);
#665=FACE_BOUND('',#613,.T.);
#666=FACE_BOUND('',#614,.T.);
#667=FACE_BOUND('',#615,.T.);
#668=FACE_BOUND('',#616,.T.);
#669=FACE_BOUND('',#617,.T.);
#670=FACE_BOUND('',#618,.T.);
#671=FACE_BOUND('',#619,.T.);
#672=FACE_BOUND('',#620,.T.);
#673=FACE_BOUND('',#621,.T.);
#674=FACE_BOUND('',#622,.T.);
#675=FACE_BOUND('',#623,.T.);
#676=FACE_BOUND('',#624,.T.);
#677=FACE_BOUND('',#625,.T.);
#678=FACE_BOUND('',#626,.T.);
#679=CYLINDRICAL_SURFACE('',#738,0.022);
#680=CYLINDRICAL_SURFACE('',#759,0.01875);
#681=CYLINDRICAL_SURFACE('',#765,0.004);
#682=CYLINDRICAL_SURFACE('',#770,0.004);
#683=CYLINDRICAL_SURFACE('',#775,0.00400354611044703);
#684=CYLINDRICAL_SURFACE('',#779,0.001);
#685=CYLINDRICAL_SURFACE('',#782,0.001);
#686=CYLINDRICAL_SURFACE('',#785,0.001);
#687=CYLINDRICAL_SURFACE('',#791,0.0175);
#688=ADVANCED_FACE('',(#627,#628),#679,.T.);
#689=ADVANCED_FACE('',(#629),#12,.T.);
#690=ADVANCED_FACE('',(#630),#13,.T.);
#691=ADVANCED_FACE('',(#631),#14,.T.);
#692=ADVANCED_FACE('',(#632),#15,.T.);
#693=ADVANCED_FACE('',(#633),#16,.F.);
#694=ADVANCED_FACE('',(#634),#17,.T.);
#695=ADVANCED_FACE('',(#635),#18,.F.);
#696=ADVANCED_FACE('',(#636),#19,.T.);
#697=ADVANCED_FACE('',(#637),#20,.F.);
#698=ADVANCED_FACE('',(#638,#639,#640),#680,.F.);
#699=ADVANCED_FACE('',(#641),#21,.T.);
#700=ADVANCED_FACE('',(#642),#681,.T.);
#701=ADVANCED_FACE('',(#643),#22,.F.);
#702=ADVANCED_FACE('',(#644),#23,.T.);
#703=ADVANCED_FACE('',(#645),#682,.T.);
#704=ADVANCED_FACE('',(#646),#24,.F.);
#705=ADVANCED_FACE('',(#647),#25,.T.);
#706=ADVANCED_FACE('',(#648),#683,.T.);
#707=ADVANCED_FACE('',(#649),#26,.F.);
#708=ADVANCED_FACE('',(#650,#651),#684,.F.);
#709=ADVANCED_FACE('',(#652,#653),#685,.F.);
#710=ADVANCED_FACE('',(#654,#655),#686,.F.);
#711=ADVANCED_FACE('',(#656),#27,.T.);
#712=ADVANCED_FACE('',(#657,#658),#28,.F.);
#713=ADVANCED_FACE('',(#659,#660),#687,.F.);
#714=ADVANCED_FACE('',(#661,#662,#663,#664,#665),#29,.T.);
#715=ADVANCED_FACE('',(#666),#30,.T.);
#716=ADVANCED_FACE('',(#667),#31,.T.);
#717=ADVANCED_FACE('',(#668),#32,.F.);
#718=ADVANCED_FACE('',(#669),#33,.F.);
#719=ADVANCED_FACE('',(#670),#34,.T.);
#720=ADVANCED_FACE('',(#671),#35,.T.);
#721=ADVANCED_FACE('',(#672),#36,.F.);
#722=ADVANCED_FACE('',(#673,#674),#37,.T.);
#723=ADVANCED_FACE('',(#675,#676),#38,.T.);
#724=ADVANCED_FACE('',(#677,#678),#39,.T.);
#725=CLOSED_SHELL('',(#688,#689,#690,#691,#692,#693,#694,#695,#696,#697,
#698,#699,#700,#701,#702,#703,#704,#705,#706,#707,#708,#709,#710,#711,#712,
#713,#714,#715,#716,#717,#718,#719,#720,#721,#722,#723,#724));
#726=STYLED_ITEM('',(#727),#734);
#727=PRESENTATION_STYLE_ASSIGNMENT((#728));
#728=SURFACE_STYLE_USAGE(.BOTH.,#729);
#729=SURFACE_SIDE_STYLE('',(#730));
#730=SURFACE_STYLE_FILL_AREA(#731);
#731=FILL_AREA_STYLE('',(#732));
#732=FILL_AREA_STYLE_COLOUR('',#733);
#733=COLOUR_RGB('',0.615686274509804,0.811764705882353,0.929411764705882);
#734=MANIFOLD_SOLID_BREP('DisplayCase',#725);
#735=SHAPE_DEFINITION_REPRESENTATION(#1220,#736);
#736=SHAPE_REPRESENTATION('DisplayCase',(#737),#1215);
#737=AXIS2_PLACEMENT_3D('',#1008,#804,#805);
#738=AXIS2_PLACEMENT_3D('',#1009,#806,#807);
#739=AXIS2_PLACEMENT_3D('',#1010,#808,#809);
#740=AXIS2_PLACEMENT_3D('',#1015,#811,#812);
#741=AXIS2_PLACEMENT_3D('',#1021,#815,#816);
#742=AXIS2_PLACEMENT_3D('',#1025,#818,#819);
#743=AXIS2_PLACEMENT_3D('',#1029,#821,#822);
#744=AXIS2_PLACEMENT_3D('',#1033,#824,#825);
#745=AXIS2_PLACEMENT_3D('',#1037,#827,#828);
#746=AXIS2_PLACEMENT_3D('',#1041,#830,#831);
#747=AXIS2_PLACEMENT_3D('',#1045,#833,#834);
#748=AXIS2_PLACEMENT_3D('',#1049,#836,#837);
#749=AXIS2_PLACEMENT_3D('',#1050,#838,#839);
#750=AXIS2_PLACEMENT_3D('',#1073,#851,#852);
#751=AXIS2_PLACEMENT_3D('',#1076,#854,#855);
#752=AXIS2_PLACEMENT_3D('',#1087,#862,#863);
#753=AXIS2_PLACEMENT_3D('',#1093,#867,#868);
#754=AXIS2_PLACEMENT_3D('',#1102,#874,#875);
#755=AXIS2_PLACEMENT_3D('',#1106,#878,#879);
#756=AXIS2_PLACEMENT_3D('',#1110,#882,#883);
#757=AXIS2_PLACEMENT_3D('',#1112,#885,#886);
#758=AXIS2_PLACEMENT_3D('',#1116,#889,#890);
#759=AXIS2_PLACEMENT_3D('',#1118,#892,#893);
#760=AXIS2_PLACEMENT_3D('',#1122,#895,#896);
#761=AXIS2_PLACEMENT_3D('',#1126,#898,#899);
#762=AXIS2_PLACEMENT_3D('',#1127,#900,#901);
#763=AXIS2_PLACEMENT_3D('',#1128,#902,#903);
#764=AXIS2_PLACEMENT_3D('',#1130,#904,#905);
#765=AXIS2_PLACEMENT_3D('',#1136,#909,#910);
#766=AXIS2_PLACEMENT_3D('',#1140,#912,#913);
#767=AXIS2_PLACEMENT_3D('',#1141,#914,#915);
#768=AXIS2_PLACEMENT_3D('',#1142,#916,#917);
#769=AXIS2_PLACEMENT_3D('',#1145,#920,#921);
#770=AXIS2_PLACEMENT_3D('',#1151,#925,#926);
#771=AXIS2_PLACEMENT_3D('',#1155,#928,#929);
#772=AXIS2_PLACEMENT_3D('',#1156,#930,#931);
#773=AXIS2_PLACEMENT_3D('',#1157,#932,#933);
#774=AXIS2_PLACEMENT_3D('',#1160,#936,#937);
#775=AXIS2_PLACEMENT_3D('',#1166,#941,#942);
#776=AXIS2_PLACEMENT_3D('',#1170,#944,#945);
#777=AXIS2_PLACEMENT_3D('',#1171,#946,#947);
#778=AXIS2_PLACEMENT_3D('',#1172,#948,#949);
#779=AXIS2_PLACEMENT_3D('',#1175,#952,#953);
#780=AXIS2_PLACEMENT_3D('',#1176,#954,#955);
#781=AXIS2_PLACEMENT_3D('',#1178,#956,#957);
#782=AXIS2_PLACEMENT_3D('',#1180,#958,#959);
#783=AXIS2_PLACEMENT_3D('',#1181,#960,#961);
#784=AXIS2_PLACEMENT_3D('',#1183,#962,#963);
#785=AXIS2_PLACEMENT_3D('',#1185,#964,#965);
#786=AXIS2_PLACEMENT_3D('',#1186,#966,#967);
#787=AXIS2_PLACEMENT_3D('',#1188,#968,#969);
#788=AXIS2_PLACEMENT_3D('',#1190,#970,#971);
#789=AXIS2_PLACEMENT_3D('',#1191,#972,#973);
#790=AXIS2_PLACEMENT_3D('',#1192,#974,#975);
#791=AXIS2_PLACEMENT_3D('',#1194,#976,#977);
#792=AXIS2_PLACEMENT_3D('',#1195,#978,#979);
#793=AXIS2_PLACEMENT_3D('',#1197,#980,#981);
#794=AXIS2_PLACEMENT_3D('',#1198,#982,#983);
#795=AXIS2_PLACEMENT_3D('',#1201,#986,#987);
#796=AXIS2_PLACEMENT_3D('',#1202,#988,#989);
#797=AXIS2_PLACEMENT_3D('',#1203,#990,#991);
#798=AXIS2_PLACEMENT_3D('',#1206,#994,#995);
#799=AXIS2_PLACEMENT_3D('',#1208,#997,#998);
#800=AXIS2_PLACEMENT_3D('',#1210,#1000,#1001);
#801=AXIS2_PLACEMENT_3D('',#1211,#1002,#1003);
#802=AXIS2_PLACEMENT_3D('',#1212,#1004,#1005);
#803=AXIS2_PLACEMENT_3D('',#1213,#1006,#1007);
#804=DIRECTION('',(0.,0.,1.));
#805=DIRECTION('',(1.,0.,0.));
#806=DIRECTION('',(0.,0.,-1.));
#807=DIRECTION('',(-1.,0.,0.));
#808=DIRECTION('',(0.,0.,1.));
#809=DIRECTION('',(1.,0.,0.));
#810=DIRECTION('',(0.,0.,-1.));
#811=DIRECTION('',(0.,-3.46944695195362E-16,1.));
#812=DIRECTION('',(0.,-1.,-3.46944695195362E-16));
#813=DIRECTION('',(0.,0.,-1.));
#814=DIRECTION('',(0.,0.,1.));
#815=DIRECTION('',(0.,0.,1.));
#816=DIRECTION('',(1.,0.,0.));
#817=DIRECTION('',(0.,0.,-1.));
#818=DIRECTION('',(0.,0.,1.));
#819=DIRECTION('',(1.,0.,0.));
#820=DIRECTION('',(0.,0.,-1.));
#821=DIRECTION('',(0.,0.,1.));
#822=DIRECTION('',(1.,0.,0.));
#823=DIRECTION('',(0.,0.,1.));
#824=DIRECTION('',(0.,0.,1.));
#825=DIRECTION('',(1.,0.,0.));
#826=DIRECTION('',(0.,0.,1.));
#827=DIRECTION('',(0.,0.,1.));
#828=DIRECTION('',(1.,0.,0.));
#829=DIRECTION('',(0.,0.,1.));
#830=DIRECTION('',(0.,0.,1.));
#831=DIRECTION('',(1.,0.,0.));
#832=DIRECTION('',(0.,0.,1.));
#833=DIRECTION('',(0.,0.,1.));
#834=DIRECTION('',(1.,0.,0.));
#835=DIRECTION('',(0.,0.,1.));
#836=DIRECTION('',(0.,0.,1.));
#837=DIRECTION('',(1.,0.,0.));
#838=DIRECTION('',(0.,0.,1.));
#839=DIRECTION('',(1.,0.,0.));
#840=DIRECTION('',(1.,0.,0.));
#841=DIRECTION('',(0.,-1.,0.));
#842=DIRECTION('',(-1.,0.,0.));
#843=DIRECTION('',(0.,-1.,0.));
#844=DIRECTION('',(0.521555757344622,0.853217200940463,0.));
#845=DIRECTION('',(-0.521555757344622,0.853217200940463,0.));
#846=DIRECTION('',(0.,-1.,0.));
#847=DIRECTION('',(-1.,0.,0.));
#848=DIRECTION('',(0.,-1.,0.));
#849=DIRECTION('',(1.,0.,0.));
#850=DIRECTION('',(-0.521555757344622,0.853217200940463,0.));
#851=DIRECTION('',(0.,0.,1.));
#852=DIRECTION('',(1.,0.,0.));
#853=DIRECTION('',(0.521555757344622,0.853217200940462,0.));
#854=DIRECTION('',(0.,-1.,0.));
#855=DIRECTION('',(0.,0.,-1.));
#856=DIRECTION('',(2.16840434497101E-16,0.,-1.));
#857=DIRECTION('',(-1.,0.,-1.23908819712629E-16));
#858=DIRECTION('',(6.50521303491303E-16,0.,-1.));
#859=DIRECTION('',(0.,0.,-1.));
#860=DIRECTION('',(1.,0.,0.));
#861=DIRECTION('',(0.,0.,-1.));
#862=DIRECTION('',(-0.853217200940463,0.521555757344622,0.));
#863=DIRECTION('',(-0.521555757344622,-0.853217200940463,0.));
#864=DIRECTION('',(0.521555757344622,0.853217200940462,0.));
#865=DIRECTION('',(0.,0.,-1.));
#866=DIRECTION('',(0.,0.,-1.));
#867=DIRECTION('',(0.,1.,0.));
#868=DIRECTION('',(0.,0.,1.));
#869=DIRECTION('',(2.16840434497101E-16,0.,-1.));
#870=DIRECTION('',(1.,0.,0.));
#871=DIRECTION('',(0.,0.,-1.));
#872=DIRECTION('',(6.50521303491303E-16,0.,-1.));
#873=DIRECTION('',(-1.,0.,-1.23908819712629E-16));
#874=DIRECTION('',(-0.853217200940463,-0.521555757344622,0.));
#875=DIRECTION('',(0.521555757344622,-0.853217200940463,0.));
#876=DIRECTION('',(-0.521555757344622,0.853217200940463,0.));
#877=DIRECTION('',(0.,0.,-1.));
#878=DIRECTION('',(1.,0.,0.));
#879=DIRECTION('',(0.,0.,-1.));
#880=DIRECTION('',(0.,1.,0.));
#881=DIRECTION('',(0.,0.,-1.));
#882=DIRECTION('',(-0.853217200940463,0.521555757344622,0.));
#883=DIRECTION('',(-0.521555757344622,-0.853217200940463,0.));
#884=DIRECTION('',(0.521555757344622,0.853217200940463,0.));
#885=DIRECTION('',(-0.853217200940463,-0.521555757344622,0.));
#886=DIRECTION('',(0.521555757344622,-0.853217200940463,0.));
#887=DIRECTION('',(0.521555757344622,-0.853217200940463,0.));
#888=DIRECTION('',(0.,0.,-1.));
#889=DIRECTION('',(1.,0.,0.));
#890=DIRECTION('',(0.,0.,-1.));
#891=DIRECTION('',(0.,-1.,0.));
#892=DIRECTION('',(0.,0.,-1.));
#893=DIRECTION('',(-1.,0.,0.));
#894=DIRECTION('',(0.,0.,-1.));
#895=DIRECTION('',(0.,0.,1.));
#896=DIRECTION('',(1.,0.,0.));
#897=DIRECTION('',(0.,0.,-1.));
#898=DIRECTION('',(0.,-3.46944695195362E-16,1.));
#899=DIRECTION('',(0.,-1.,-3.46944695195362E-16));
#900=DIRECTION('',(0.,0.,1.));
#901=DIRECTION('',(1.,0.,0.));
#902=DIRECTION('',(0.,0.,1.));
#903=DIRECTION('',(1.,0.,0.));
#904=DIRECTION('',(-0.5,-0.866025403784439,0.));
#905=DIRECTION('',(0.866025403784439,-0.5,0.));
#906=DIRECTION('',(0.,0.,1.));
#907=DIRECTION('',(0.866025403784439,-0.5,0.));
#908=DIRECTION('',(0.866025403784439,-0.5,0.));
#909=DIRECTION('',(0.,0.,1.));
#910=DIRECTION('',(1.,0.,0.));
#911=DIRECTION('',(0.,0.,1.));
#912=DIRECTION('',(0.,0.,1.));
#913=DIRECTION('',(1.,0.,0.));
#914=DIRECTION('',(0.,0.,1.));
#915=DIRECTION('',(1.,0.,0.));
#916=DIRECTION('',(-0.5,-0.866025403784439,0.));
#917=DIRECTION('',(0.866025403784439,-0.5,0.));
#918=DIRECTION('',(0.866025403784439,-0.5,0.));
#919=DIRECTION('',(0.866025403784439,-0.5,0.));
#920=DIRECTION('',(1.,0.,0.));
#921=DIRECTION('',(0.,0.,-1.));
#922=DIRECTION('',(0.,0.,1.));
#923=DIRECTION('',(0.,1.,0.));
#924=DIRECTION('',(0.,1.,0.));
#925=DIRECTION('',(0.,0.,1.));
#926=DIRECTION('',(1.,0.,0.));
#927=DIRECTION('',(0.,0.,1.));
#928=DIRECTION('',(0.,0.,1.));
#929=DIRECTION('',(1.,0.,0.));
#930=DIRECTION('',(0.,0.,1.));
#931=DIRECTION('',(1.,0.,0.));
#932=DIRECTION('',(1.,0.,0.));
#933=DIRECTION('',(0.,0.,-1.));
#934=DIRECTION('',(0.,1.,0.));
#935=DIRECTION('',(0.,1.,0.));
#936=DIRECTION('',(-0.5,0.866025403784439,0.));
#937=DIRECTION('',(-0.866025403784439,-0.5,0.));
#938=DIRECTION('',(0.,0.,1.));
#939=DIRECTION('',(-0.866025403784439,-0.5,0.));
#940=DIRECTION('',(-0.866025403784439,-0.5,0.));
#941=DIRECTION('',(0.,0.,1.));
#942=DIRECTION('',(1.,0.,0.));
#943=DIRECTION('',(0.,0.,1.));
#944=DIRECTION('',(0.,0.,1.));
#945=DIRECTION('',(1.,0.,0.));
#946=DIRECTION('',(0.,0.,1.));
#947=DIRECTION('',(1.,0.,0.));
#948=DIRECTION('',(-0.5,0.866025403784439,0.));
#949=DIRECTION('',(-0.866025403784439,-0.5,0.));
#950=DIRECTION('',(-0.866025403784439,-0.5,0.));
#951=DIRECTION('',(-0.866025403784439,-0.5,0.));
#952=DIRECTION('',(0.,0.,1.));
#953=DIRECTION('',(1.,0.,0.));
#954=DIRECTION('',(0.,0.,1.));
#955=DIRECTION('',(1.,0.,0.));
#956=DIRECTION('',(0.,0.,1.));
#957=DIRECTION('',(1.,0.,0.));
#958=DIRECTION('',(0.,0.,1.));
#959=DIRECTION('',(1.,0.,0.));
#960=DIRECTION('',(0.,0.,1.));
#961=DIRECTION('',(1.,0.,0.));
#962=DIRECTION('',(0.,0.,1.));
#963=DIRECTION('',(1.,0.,0.));
#964=DIRECTION('',(0.,0.,1.));
#965=DIRECTION('',(1.,0.,0.));
#966=DIRECTION('',(0.,0.,1.));
#967=DIRECTION('',(1.,0.,0.));
#968=DIRECTION('',(0.,0.,1.));
#969=DIRECTION('',(1.,0.,0.));
#970=DIRECTION('',(0.,0.,1.));
#971=DIRECTION('',(1.,0.,0.));
#972=DIRECTION('',(0.,0.,-1.));
#973=DIRECTION('',(1.,0.,0.));
#974=DIRECTION('',(0.,0.,-1.));
#975=DIRECTION('',(-1.,0.,0.));
#976=DIRECTION('',(0.,0.,1.));
#977=DIRECTION('',(1.,0.,0.));
#978=DIRECTION('',(0.,0.,-1.));
#979=DIRECTION('',(-1.,0.,0.));
#980=DIRECTION('',(0.,0.,-1.));
#981=DIRECTION('',(1.,0.,0.));
#982=DIRECTION('',(-1.23908819712629E-16,0.,1.));
#983=DIRECTION('',(1.,0.,1.23908819712629E-16));
#984=DIRECTION('',(0.,-1.,0.));
#985=DIRECTION('',(0.,-1.,0.));
#986=DIRECTION('',(-1.,0.,-2.16840434497101E-16));
#987=DIRECTION('',(-2.16840434497101E-16,0.,1.));
#988=DIRECTION('',(-1.,0.,-6.50521303491303E-16));
#989=DIRECTION('',(-6.50521303491303E-16,0.,1.));
#990=DIRECTION('',(0.,-1.,-4.33680868994202E-16));
#991=DIRECTION('',(0.,4.33680868994202E-16,-1.));
#992=DIRECTION('',(-1.,0.,0.));
#993=DIRECTION('',(-1.,0.,0.));
#994=DIRECTION('',(0.,0.,1.));
#995=DIRECTION('',(1.,0.,0.));
#996=DIRECTION('',(-1.,0.,0.));
#997=DIRECTION('',(0.,-1.,-4.33680868994202E-16));
#998=DIRECTION('',(0.,4.33680868994202E-16,-1.));
#999=DIRECTION('',(-1.,0.,0.));
#1000=DIRECTION('',(0.,-3.46944695195362E-16,1.));
#1001=DIRECTION('',(0.,-1.,-3.46944695195362E-16));
#1002=DIRECTION('',(0.,0.,1.));
#1003=DIRECTION('',(1.,0.,0.));
#1004=DIRECTION('',(0.,0.,1.));
#1005=DIRECTION('',(1.,0.,0.));
#1006=DIRECTION('',(0.,0.,1.));
#1007=DIRECTION('',(1.,0.,0.));
#1008=CARTESIAN_POINT('',(0.,0.,0.));
#1009=CARTESIAN_POINT('',(4.06663480797011E-18,-2.42861286636753E-17,0.007));
#1010=CARTESIAN_POINT('',(4.06663480797011E-18,-2.42861286636753E-17,0.));
#1011=CARTESIAN_POINT('',(0.0219644599296227,-0.00125,0.));
#1012=CARTESIAN_POINT('',(0.0219644599296227,0.00125,1.0842021724855E-19));
#1013=CARTESIAN_POINT('',(0.0219644599296227,-0.00125,0.007));
#1014=CARTESIAN_POINT('',(0.0219644599296227,-0.00125,0.0025));
#1015=CARTESIAN_POINT('',(4.06663480797011E-18,-2.42861286636753E-17,0.0025));
#1016=CARTESIAN_POINT('',(0.0219644599296227,0.00125,0.0025));
#1017=CARTESIAN_POINT('',(0.0219644599296227,0.00125,0.007));
#1018=CARTESIAN_POINT('',(-0.0167349939951952,-0.0142807554415297,-0.001));
#1019=CARTESIAN_POINT('',(-0.0167349939951952,-0.0142807554415297,-0.002));
#1020=CARTESIAN_POINT('',(-0.0167349939951952,-0.0142807554415297,0.002));
#1021=CARTESIAN_POINT('',(-2.60208521396521E-18,2.16840434497101E-18,-0.002));
#1022=CARTESIAN_POINT('',(-0.0105675813840867,-0.0192957566239499,-0.002));
#1023=CARTESIAN_POINT('',(-0.0105675813840866,-0.0192957566239499,0.007));
#1024=CARTESIAN_POINT('',(-0.0105675813840866,-0.0192957566239499,0.007));
#1025=CARTESIAN_POINT('',(4.06663480797011E-18,-2.42861286636753E-17,0.007));
#1026=CARTESIAN_POINT('',(0.0105675813840866,-0.0192957566239499,0.007));
#1027=CARTESIAN_POINT('',(0.0105675813840866,-0.0192957566239499,0.007));
#1028=CARTESIAN_POINT('',(0.0105675813840867,-0.0192957566239499,-0.002));
#1029=CARTESIAN_POINT('',(-2.60208521396521E-18,2.16840434497101E-18,-0.002));
#1030=CARTESIAN_POINT('',(0.0167349939951952,-0.0142807554415297,-0.002));
#1031=CARTESIAN_POINT('',(0.0167349939951952,-0.0142807554415297,-0.001));
#1032=CARTESIAN_POINT('',(0.0167349939951952,-0.0142807554415297,0.002));
#1033=CARTESIAN_POINT('',(4.06663480797011E-18,-2.42861286636753E-17,0.002));
#1034=CARTESIAN_POINT('',(0.0207349939951952,-0.00735255221125422,0.002));
#1035=CARTESIAN_POINT('',(0.0207349939951952,-0.00735255221125421,-0.001));
#1036=CARTESIAN_POINT('',(0.0207349939951952,-0.00735255221125421,-0.002));
#1037=CARTESIAN_POINT('',(-2.60208521396521E-18,2.16840434497101E-18,-0.002));
#1038=CARTESIAN_POINT('',(0.004,0.0216333076527839,-0.002));
#1039=CARTESIAN_POINT('',(0.004,0.0216333076527839,-0.001));
#1040=CARTESIAN_POINT('',(0.004,0.0216333076527839,0.002));
#1041=CARTESIAN_POINT('',(4.06663480797011E-18,-2.42861286636753E-17,0.002));
#1042=CARTESIAN_POINT('',(-0.004,0.0216333076527839,0.002));
#1043=CARTESIAN_POINT('',(-0.004,0.0216333076527839,-0.001));
#1044=CARTESIAN_POINT('',(-0.004,0.0216333076527839,-0.002));
#1045=CARTESIAN_POINT('',(-2.60208521396521E-18,2.16840434497101E-18,-0.002));
#1046=CARTESIAN_POINT('',(-0.0207349939951952,-0.00735255221125422,-0.002));
#1047=CARTESIAN_POINT('',(-0.0207349939951952,-0.00735255221125422,-0.001));
#1048=CARTESIAN_POINT('',(-0.0207349939951952,-0.00735255221125422,0.002));
#1049=CARTESIAN_POINT('',(4.06663480797011E-18,-2.42861286636753E-17,0.002));
#1050=CARTESIAN_POINT('',(-0.00224317459011403,0.00153638658424077,0.007));
#1051=CARTESIAN_POINT('',(0.,-0.02249,0.007));
#1052=CARTESIAN_POINT('',(0.007,-0.02249,0.007));
#1053=CARTESIAN_POINT('',(0.007115,-0.02249,0.007));
#1054=CARTESIAN_POINT('',(0.007,0.030752,0.007));
#1055=CARTESIAN_POINT('',(0.007,-0.02399,0.007));
#1056=CARTESIAN_POINT('',(0.,-0.02399,0.007));
#1057=CARTESIAN_POINT('',(0.008615,-0.02399,0.007));
#1058=CARTESIAN_POINT('',(0.008615,-0.02324,0.007));
#1059=CARTESIAN_POINT('',(0.008615,-0.02249,0.007));
#1060=CARTESIAN_POINT('',(0.00959129069204333,-0.020892878311975,0.007));
#1061=CARTESIAN_POINT('',(-0.00959129069204333,-0.020892878311975,0.007));
#1062=CARTESIAN_POINT('',(-0.008615,-0.02249,0.007));
#1063=CARTESIAN_POINT('',(-0.008615,-0.02324,0.007));
#1064=CARTESIAN_POINT('',(-0.008615,-0.02399,0.007));
#1065=CARTESIAN_POINT('',(0.,-0.02399,0.007));
#1066=CARTESIAN_POINT('',(-0.007,-0.02399,0.007));
#1067=CARTESIAN_POINT('',(-0.007,0.030752,0.007));
#1068=CARTESIAN_POINT('',(-0.007,-0.02249,0.007));
#1069=CARTESIAN_POINT('',(0.,-0.02249,0.007));
#1070=CARTESIAN_POINT('',(-0.007115,-0.02249,0.007));
#1071=CARTESIAN_POINT('',(-0.00777986355429127,-0.0214023444371742,0.007));
#1072=CARTESIAN_POINT('',(-0.012115,-0.0143104603350137,0.007));
#1073=CARTESIAN_POINT('',(5.74053187100322E-19,4.33680868994202E-18,0.007));
#1074=CARTESIAN_POINT('',(0.012115,-0.0143104603350137,0.007));
#1075=CARTESIAN_POINT('',(0.00777986355429127,-0.0214023444371742,0.007));
#1076=CARTESIAN_POINT('',(0.,-0.02399,0.007));
#1077=CARTESIAN_POINT('',(0.007,-0.02399,0.005));
#1078=CARTESIAN_POINT('',(0.007,-0.02399,0.003));
#1079=CARTESIAN_POINT('',(-8.67361737988404E-19,-0.02399,0.003));
#1080=CARTESIAN_POINT('',(-0.007,-0.02399,0.003));
#1081=CARTESIAN_POINT('',(-0.007,-0.02399,0.005));
#1082=CARTESIAN_POINT('',(-0.008615,-0.02399,0.007));
#1083=CARTESIAN_POINT('',(-0.008615,-0.02399,-0.002));
#1084=CARTESIAN_POINT('',(0.,-0.02399,-0.002));
#1085=CARTESIAN_POINT('',(0.008615,-0.02399,-0.002));
#1086=CARTESIAN_POINT('',(0.008615,-0.02399,0.007));
#1087=CARTESIAN_POINT('',(0.00777986355429127,-0.0214023444371742,0.007));
#1088=CARTESIAN_POINT('',(0.00777986355429127,-0.0214023444371742,0.));
#1089=CARTESIAN_POINT('',(0.007115,-0.02249,0.));
#1090=CARTESIAN_POINT('',(0.012115,-0.0143104603350137,0.));
#1091=CARTESIAN_POINT('',(0.007115,-0.02249,0.007));
#1092=CARTESIAN_POINT('',(0.012115,-0.0143104603350137,0.007));
#1093=CARTESIAN_POINT('',(0.,-0.02249,0.007));
#1094=CARTESIAN_POINT('',(0.007,-0.02249,0.005));
#1095=CARTESIAN_POINT('',(0.007,-0.02249,0.003));
#1096=CARTESIAN_POINT('',(0.,-0.02249,0.));
#1097=CARTESIAN_POINT('',(-0.007115,-0.02249,0.));
#1098=CARTESIAN_POINT('',(-0.007115,-0.02249,0.007));
#1099=CARTESIAN_POINT('',(-0.007,-0.02249,0.005));
#1100=CARTESIAN_POINT('',(-0.007,-0.02249,0.003));
#1101=CARTESIAN_POINT('',(-8.67361737988404E-19,-0.02249,0.003));
#1102=CARTESIAN_POINT('',(-0.00777986355429127,-0.0214023444371742,0.007));
#1103=CARTESIAN_POINT('',(-0.00777986355429127,-0.0214023444371742,0.));
#1104=CARTESIAN_POINT('',(-0.012115,-0.0143104603350137,0.));
#1105=CARTESIAN_POINT('',(-0.012115,-0.0143104603350137,0.007));
#1106=CARTESIAN_POINT('',(0.008615,-0.02324,0.007));
#1107=CARTESIAN_POINT('',(0.008615,-0.02324,-0.002));
#1108=CARTESIAN_POINT('',(0.008615,-0.02249,-0.002));
#1109=CARTESIAN_POINT('',(0.008615,-0.02249,0.007));
#1110=CARTESIAN_POINT('',(0.00959129069204333,-0.020892878311975,0.007));
#1111=CARTESIAN_POINT('',(0.00959129069204333,-0.020892878311975,-0.002));
#1112=CARTESIAN_POINT('',(-0.00959129069204333,-0.020892878311975,0.007));
#1113=CARTESIAN_POINT('',(-0.00959129069204333,-0.020892878311975,-0.002));
#1114=CARTESIAN_POINT('',(-0.008615,-0.02249,-0.002));
#1115=CARTESIAN_POINT('',(-0.008615,-0.02249,0.007));
#1116=CARTESIAN_POINT('',(-0.008615,-0.02324,0.007));
#1117=CARTESIAN_POINT('',(-0.008615,-0.02324,-0.002));
#1118=CARTESIAN_POINT('',(5.74053187100322E-19,4.33680868994202E-18,0.007));
#1119=CARTESIAN_POINT('',(0.0187082869338697,-0.00125,0.007));
#1120=CARTESIAN_POINT('',(0.0187082869338697,-0.00125,0.));
#1121=CARTESIAN_POINT('',(0.0187082869338697,-0.00125,0.0025));
#1122=CARTESIAN_POINT('',(5.74053187100322E-19,4.33680868994202E-18,0.));
#1123=CARTESIAN_POINT('',(0.0187082869338697,0.00125,1.0842021724855E-19));
#1124=CARTESIAN_POINT('',(0.0187082869338697,0.00125,0.007));
#1125=CARTESIAN_POINT('',(0.0187082869338697,0.00125,0.0025));
#1126=CARTESIAN_POINT('',(5.74053187100322E-19,4.33680868994202E-18,0.0025));
#1127=CARTESIAN_POINT('',(2.30877666307713E-18,-3.46944695195361E-18,0.));
#1128=CARTESIAN_POINT('',(2.30877666307713E-18,-3.46944695195361E-18,-0.001));
#1129=CARTESIAN_POINT('',(0.01875,-3.46944695195361E-18,-0.001));
#1130=CARTESIAN_POINT('',(0.0189505867732144,-0.0155599285283338,-0.001));
#1131=CARTESIAN_POINT('',(0.0211661795512337,-0.0168391016151378,-0.001));
#1132=CARTESIAN_POINT('',(0.0211661795512337,-0.0168391016151378,-0.002));
#1133=CARTESIAN_POINT('',(0.0211661795512337,-0.0168391016151378,0.002));
#1134=CARTESIAN_POINT('',(0.0189505867732144,-0.0155599285283338,0.002));
#1135=CARTESIAN_POINT('',(0.0189505867732144,-0.0155599285283338,-0.002));
#1136=CARTESIAN_POINT('',(0.0231661795512337,-0.013375,-0.001));
#1137=CARTESIAN_POINT('',(0.0251661795512337,-0.00991089838486223,-0.001));
#1138=CARTESIAN_POINT('',(0.0251661795512337,-0.00991089838486223,-0.002));
#1139=CARTESIAN_POINT('',(0.0251661795512337,-0.00991089838486223,0.002));
#1140=CARTESIAN_POINT('',(0.0231661795512337,-0.013375,0.002));
#1141=CARTESIAN_POINT('',(0.0231661795512337,-0.013375,-0.002));
#1142=CARTESIAN_POINT('',(0.0229505867732144,-0.00863172529805822,-0.001));
#1143=CARTESIAN_POINT('',(0.0229505867732144,-0.00863172529805822,0.002));
#1144=CARTESIAN_POINT('',(0.0229505867732144,-0.00863172529805822,-0.002));
#1145=CARTESIAN_POINT('',(0.004,0.024191653826392,-0.001));
#1146=CARTESIAN_POINT('',(0.004,0.02675,-0.001));
#1147=CARTESIAN_POINT('',(0.004,0.02675,-0.002));
#1148=CARTESIAN_POINT('',(0.004,0.02675,0.002));
#1149=CARTESIAN_POINT('',(0.004,0.024191653826392,0.002));
#1150=CARTESIAN_POINT('',(0.004,0.024191653826392,-0.002));
#1151=CARTESIAN_POINT('',(-8.67361737988404E-19,0.02675,-0.001));
#1152=CARTESIAN_POINT('',(-0.004,0.02675,-0.001));
#1153=CARTESIAN_POINT('',(-0.004,0.02675,-0.002));
#1154=CARTESIAN_POINT('',(-0.004,0.02675,0.002));
#1155=CARTESIAN_POINT('',(-8.67361737988404E-19,0.02675,0.002));
#1156=CARTESIAN_POINT('',(-8.67361737988404E-19,0.02675,-0.002));
#1157=CARTESIAN_POINT('',(-0.004,0.024191653826392,-0.001));
#1158=CARTESIAN_POINT('',(-0.004,0.024191653826392,0.002));
#1159=CARTESIAN_POINT('',(-0.004,0.024191653826392,-0.002));
#1160=CARTESIAN_POINT('',(-0.0229505867732144,-0.00863172529805824,-0.001));
#1161=CARTESIAN_POINT('',(-0.0251661795512337,-0.00991089838486226,-0.001));
#1162=CARTESIAN_POINT('',(-0.0251661795512337,-0.00991089838486226,-0.002));
#1163=CARTESIAN_POINT('',(-0.0251661795512337,-0.00991089838486226,0.002));
#1164=CARTESIAN_POINT('',(-0.0229505867732144,-0.00863172529805824,0.002));
#1165=CARTESIAN_POINT('',(-0.0229505867732144,-0.00863172529805824,-0.002));
#1166=CARTESIAN_POINT('',(-0.0231644064960106,-0.0133780710217311,-0.001));
#1167=CARTESIAN_POINT('',(-0.021372464124977,-0.0169582000693181,-0.001));
#1168=CARTESIAN_POINT('',(-0.021372464124977,-0.0169582000693181,-0.002));
#1169=CARTESIAN_POINT('',(-0.021372464124977,-0.0169582000693181,0.002));
#1170=CARTESIAN_POINT('',(-0.0231644064960106,-0.0133780710217311,0.002));
#1171=CARTESIAN_POINT('',(-0.0231644064960106,-0.0133780710217311,-0.002));
#1172=CARTESIAN_POINT('',(-0.0190537290600861,-0.0156194777554239,-0.001));
#1173=CARTESIAN_POINT('',(-0.0190537290600861,-0.0156194777554239,0.002));
#1174=CARTESIAN_POINT('',(-0.0190537290600861,-0.0156194777554239,-0.002));
#1175=CARTESIAN_POINT('',(0.0231661795512337,-0.013375,-0.001));
#1176=CARTESIAN_POINT('',(0.0231661795512337,-0.013375,0.002));
#1177=CARTESIAN_POINT('',(0.0241661795512337,-0.013375,0.002));
#1178=CARTESIAN_POINT('',(0.0231661795512337,-0.013375,-0.002));
#1179=CARTESIAN_POINT('',(0.0241661795512337,-0.013375,-0.002));
#1180=CARTESIAN_POINT('',(-0.0231644064960102,-0.0133780710217318,-0.001));
#1181=CARTESIAN_POINT('',(-0.0231644064960102,-0.0133780710217318,0.002));
#1182=CARTESIAN_POINT('',(-0.0221644064960102,-0.0133780710217318,0.002));
#1183=CARTESIAN_POINT('',(-0.0231644064960102,-0.0133780710217318,-0.002));
#1184=CARTESIAN_POINT('',(-0.0221644064960102,-0.0133780710217318,-0.002));
#1185=CARTESIAN_POINT('',(-8.67361737988404E-19,0.02675,-0.001));
#1186=CARTESIAN_POINT('',(-8.67361737988404E-19,0.02675,0.002));
#1187=CARTESIAN_POINT('',(0.000999999999999999,0.02675,0.002));
#1188=CARTESIAN_POINT('',(-8.67361737988404E-19,0.02675,-0.002));
#1189=CARTESIAN_POINT('',(0.000999999999999999,0.02675,-0.002));
#1190=CARTESIAN_POINT('',(-8.86527611754923E-7,0.00338,0.));
#1191=CARTESIAN_POINT('',(-8.86527611949212E-7,0.00338,-0.001));
#1192=CARTESIAN_POINT('',(0.,-1.07156594925393E-18,-0.001));
#1193=CARTESIAN_POINT('',(-0.0175,-1.07156594925393E-18,-0.001));
#1194=CARTESIAN_POINT('',(0.,-1.07156594925393E-18,-0.002));
#1195=CARTESIAN_POINT('',(0.,-1.07156594925393E-18,-0.002));
#1196=CARTESIAN_POINT('',(-0.0175,-1.07156594925393E-18,-0.002));
#1197=CARTESIAN_POINT('',(-8.86527611949212E-7,0.00338,-0.002));
#1198=CARTESIAN_POINT('',(-8.67361737988404E-19,0.030752,0.003));
#1199=CARTESIAN_POINT('',(-0.007,0.030752,0.003));
#1200=CARTESIAN_POINT('',(0.007,0.030752,0.003));
#1201=CARTESIAN_POINT('',(0.007,0.030752,0.005));
#1202=CARTESIAN_POINT('',(-0.007,0.030752,0.005));
#1203=CARTESIAN_POINT('',(0.038,-0.00125,0.00125));
#1204=CARTESIAN_POINT('',(0.038,-0.00125,0.));
#1205=CARTESIAN_POINT('',(0.038,-0.00125,0.0025));
#1206=CARTESIAN_POINT('',(0.038,4.33680868994202E-19,0.));
#1207=CARTESIAN_POINT('',(0.038,0.00125,1.0842021724855E-19));
#1208=CARTESIAN_POINT('',(0.038,0.00125,0.00125));
#1209=CARTESIAN_POINT('',(0.038,0.00125,0.0025));
#1210=CARTESIAN_POINT('',(0.038,-6.50521303491303E-19,0.0025));
#1211=CARTESIAN_POINT('',(-8.86527611754923E-7,0.00338,0.002));
#1212=CARTESIAN_POINT('',(-8.86527611754923E-7,0.00338,0.002));
#1213=CARTESIAN_POINT('',(-8.86527611754923E-7,0.00338,0.002));
#1214=MECHANICAL_DESIGN_GEOMETRIC_PRESENTATION_REPRESENTATION('',(#726),
#1215);
#1215=(
GEOMETRIC_REPRESENTATION_CONTEXT(3)
GLOBAL_UNCERTAINTY_ASSIGNED_CONTEXT((#1216))
GLOBAL_UNIT_ASSIGNED_CONTEXT((#1219,#1218,#1217))
REPRESENTATION_CONTEXT('DisplayCase','TOP_LEVEL_ASSEMBLY_PART')
);
#1216=UNCERTAINTY_MEASURE_WITH_UNIT(LENGTH_MEASURE(1.E-8),#1219,
'DISTANCE_ACCURACY_VALUE','Maximum Tolerance applied to model');
#1217=(
NAMED_UNIT(*)
SI_UNIT($,.STERADIAN.)
SOLID_ANGLE_UNIT()
);
#1218=(
NAMED_UNIT(*)
PLANE_ANGLE_UNIT()
SI_UNIT($,.RADIAN.)
);
#1219=(
LENGTH_UNIT()
NAMED_UNIT(*)
SI_UNIT($,.METRE.)
);
#1220=PRODUCT_DEFINITION_SHAPE('','',#1221);
#1221=PRODUCT_DEFINITION('','',#1223,#1222);
#1222=PRODUCT_DEFINITION_CONTEXT('',#1229,'design');
#1223=PRODUCT_DEFINITION_FORMATION_WITH_SPECIFIED_SOURCE('','',#1225,
 .NOT_KNOWN.);
#1224=PRODUCT_RELATED_PRODUCT_CATEGORY('','',(#1225));
#1225=PRODUCT('DisplayCase','DisplayCase','DisplayCase',(#1227));
#1226=PRODUCT_CATEGORY('','');
#1227=PRODUCT_CONTEXT('',#1229,'mechanical');
#1228=APPLICATION_PROTOCOL_DEFINITION('international standard',
'ap242_managed_model_based_3d_engineering',2020,#1229);
#1229=APPLICATION_CONTEXT('managed model based 3d engineering');
ENDSEC;
END-ISO-10303-21;
