ISO-10303-21;
HEADER;
/* Generated by software containing ST-Developer
 * from STEP Tools, Inc. (www.steptools.com) 
 */
/* OPTION: using custom renumber hook */

FILE_DESCRIPTION(
/* description */ ('STEP AP242 Edition 2',
'CAx-IF Rec.Pracs.---Representation and Presentation of Product Manufa
cturing Information (PMI)---4.0---2014-10-13',
'CAx-IF Rec.Pracs.---3D Tessellated Geometry---0.4---2014-09-14','2;1',
'CAx-IF Rec.Pracs.---User Defined Attributes---1.5---2016-08-15'),
/* implementation_level */ '2;1');

FILE_NAME(
/* name */ 'Part Studio 1 - DisplayCase',
/* time_stamp */ '2026-08-07T17:51:39Z',
/* author */ (''),
/* organization */ (''),
/* preprocessor_version */ 'ST-DEVELOPER v20',
/* originating_system */ 'ONSHAPE BY PTC INC, 1.219',
/* authorisation */ '  ');

FILE_SCHEMA (('AP242_MANAGED_MODEL_BASED_3D_ENGINEERING_MIM_LF { 1 0 10303 442 3 1 4 }'));
ENDSEC;

DATA;
#10=SHAPE_REPRESENTATION_RELATIONSHIP('','',#482,#11);
#11=ADVANCED_BREP_SHAPE_REPRESENTATION('',(#480),#793);
#12=TOROIDAL_SURFACE('',#514,0.01925,0.001);
#13=B_SPLINE_CURVE_WITH_KNOTS('',3,(#767,#768,#769,#770,#771),
 .UNSPECIFIED.,.F.,.F.,(4,1,4),(0.,0.000787035421247807,0.00157407084249561),
 .UNSPECIFIED.);
#14=B_SPLINE_CURVE_WITH_KNOTS('',3,(#773,#774,#775,#776,#777),
 .UNSPECIFIED.,.F.,.F.,(4,1,4),(0.,0.000787035421247795,0.00157407084249559),
 .UNSPECIFIED.);
#15=CYLINDRICAL_SURFACE('',#494,0.02025);
#16=CYLINDRICAL_SURFACE('',#501,0.01875);
#17=CYLINDRICAL_SURFACE('',#509,0.0175);
#18=CYLINDRICAL_SURFACE('',#513,0.001);
#19=CYLINDRICAL_SURFACE('',#515,0.001);
#20=ELLIPSE('',#492,0.00191734054493284,0.001);
#21=ELLIPSE('',#500,0.00191734054493284,0.001);
#22=CIRCLE('',#485,0.02025);
#23=CIRCLE('',#486,0.01875);
#24=CIRCLE('',#495,0.02025);
#25=CIRCLE('',#496,0.02025);
#26=CIRCLE('',#497,0.02025);
#27=CIRCLE('',#502,0.01875);
#28=CIRCLE('',#503,0.01875);
#29=CIRCLE('',#504,0.01875);
#30=CIRCLE('',#505,0.01875);
#31=CIRCLE('',#508,0.0175);
#32=CIRCLE('',#510,0.0175);
#33=CIRCLE('',#512,0.01925);
#34=ORIENTED_EDGE('',*,*,#162,.F.);
#35=ORIENTED_EDGE('',*,*,#163,.T.);
#36=ORIENTED_EDGE('',*,*,#164,.F.);
#37=ORIENTED_EDGE('',*,*,#165,.F.);
#38=ORIENTED_EDGE('',*,*,#166,.T.);
#39=ORIENTED_EDGE('',*,*,#167,.T.);
#40=ORIENTED_EDGE('',*,*,#168,.F.);
#41=ORIENTED_EDGE('',*,*,#169,.T.);
#42=ORIENTED_EDGE('',*,*,#170,.F.);
#43=ORIENTED_EDGE('',*,*,#171,.F.);
#44=ORIENTED_EDGE('',*,*,#172,.F.);
#45=ORIENTED_EDGE('',*,*,#173,.T.);
#46=ORIENTED_EDGE('',*,*,#174,.F.);
#47=ORIENTED_EDGE('',*,*,#175,.F.);
#48=ORIENTED_EDGE('',*,*,#164,.T.);
#49=ORIENTED_EDGE('',*,*,#176,.T.);
#50=ORIENTED_EDGE('',*,*,#177,.T.);
#51=ORIENTED_EDGE('',*,*,#178,.F.);
#52=ORIENTED_EDGE('',*,*,#170,.T.);
#53=ORIENTED_EDGE('',*,*,#179,.T.);
#54=ORIENTED_EDGE('',*,*,#180,.T.);
#55=ORIENTED_EDGE('',*,*,#181,.F.);
#56=ORIENTED_EDGE('',*,*,#182,.F.);
#57=ORIENTED_EDGE('',*,*,#183,.F.);
#58=ORIENTED_EDGE('',*,*,#175,.T.);
#59=ORIENTED_EDGE('',*,*,#184,.T.);
#60=ORIENTED_EDGE('',*,*,#185,.F.);
#61=ORIENTED_EDGE('',*,*,#162,.T.);
#62=ORIENTED_EDGE('',*,*,#183,.T.);
#63=ORIENTED_EDGE('',*,*,#186,.F.);
#64=ORIENTED_EDGE('',*,*,#187,.F.);
#65=ORIENTED_EDGE('',*,*,#172,.T.);
#66=ORIENTED_EDGE('',*,*,#188,.T.);
#67=ORIENTED_EDGE('',*,*,#189,.F.);
#68=ORIENTED_EDGE('',*,*,#190,.T.);
#69=ORIENTED_EDGE('',*,*,#191,.F.);
#70=ORIENTED_EDGE('',*,*,#173,.F.);
#71=ORIENTED_EDGE('',*,*,#187,.T.);
#72=ORIENTED_EDGE('',*,*,#181,.T.);
#73=ORIENTED_EDGE('',*,*,#192,.T.);
#74=ORIENTED_EDGE('',*,*,#193,.T.);
#75=ORIENTED_EDGE('',*,*,#194,.F.);
#76=ORIENTED_EDGE('',*,*,#165,.T.);
#77=ORIENTED_EDGE('',*,*,#194,.T.);
#78=ORIENTED_EDGE('',*,*,#195,.T.);
#79=ORIENTED_EDGE('',*,*,#196,.F.);
#80=ORIENTED_EDGE('',*,*,#166,.F.);
#81=ORIENTED_EDGE('',*,*,#197,.F.);
#82=ORIENTED_EDGE('',*,*,#198,.T.);
#83=ORIENTED_EDGE('',*,*,#199,.T.);
#84=ORIENTED_EDGE('',*,*,#200,.F.);
#85=ORIENTED_EDGE('',*,*,#196,.T.);
#86=ORIENTED_EDGE('',*,*,#201,.T.);
#87=ORIENTED_EDGE('',*,*,#202,.F.);
#88=ORIENTED_EDGE('',*,*,#167,.F.);
#89=ORIENTED_EDGE('',*,*,#202,.T.);
#90=ORIENTED_EDGE('',*,*,#203,.T.);
#91=ORIENTED_EDGE('',*,*,#204,.F.);
#92=ORIENTED_EDGE('',*,*,#168,.T.);
#93=ORIENTED_EDGE('',*,*,#204,.T.);
#94=ORIENTED_EDGE('',*,*,#205,.T.);
#95=ORIENTED_EDGE('',*,*,#206,.T.);
#96=ORIENTED_EDGE('',*,*,#179,.F.);
#97=ORIENTED_EDGE('',*,*,#169,.F.);
#98=ORIENTED_EDGE('',*,*,#207,.F.);
#99=ORIENTED_EDGE('',*,*,#208,.T.);
#100=ORIENTED_EDGE('',*,*,#209,.T.);
#101=ORIENTED_EDGE('',*,*,#210,.F.);
#102=ORIENTED_EDGE('',*,*,#191,.T.);
#103=ORIENTED_EDGE('',*,*,#211,.T.);
#104=ORIENTED_EDGE('',*,*,#184,.F.);
#105=ORIENTED_EDGE('',*,*,#174,.T.);
#106=ORIENTED_EDGE('',*,*,#212,.F.);
#107=ORIENTED_EDGE('',*,*,#186,.T.);
#108=ORIENTED_EDGE('',*,*,#182,.T.);
#109=ORIENTED_EDGE('',*,*,#211,.F.);
#110=ORIENTED_EDGE('',*,*,#190,.F.);
#111=ORIENTED_EDGE('',*,*,#213,.T.);
#112=ORIENTED_EDGE('',*,*,#212,.T.);
#113=ORIENTED_EDGE('',*,*,#214,.T.);
#114=ORIENTED_EDGE('',*,*,#213,.F.);
#115=ORIENTED_EDGE('',*,*,#214,.F.);
#116=ORIENTED_EDGE('',*,*,#215,.T.);
#117=ORIENTED_EDGE('',*,*,#192,.F.);
#118=ORIENTED_EDGE('',*,*,#180,.F.);
#119=ORIENTED_EDGE('',*,*,#206,.F.);
#120=ORIENTED_EDGE('',*,*,#216,.T.);
#121=ORIENTED_EDGE('',*,*,#217,.T.);
#122=ORIENTED_EDGE('',*,*,#193,.F.);
#123=ORIENTED_EDGE('',*,*,#215,.F.);
#124=ORIENTED_EDGE('',*,*,#218,.F.);
#125=ORIENTED_EDGE('',*,*,#195,.F.);
#126=ORIENTED_EDGE('',*,*,#218,.T.);
#127=ORIENTED_EDGE('',*,*,#217,.F.);
#128=ORIENTED_EDGE('',*,*,#219,.F.);
#129=ORIENTED_EDGE('',*,*,#201,.F.);
#130=ORIENTED_EDGE('',*,*,#219,.T.);
#131=ORIENTED_EDGE('',*,*,#216,.F.);
#132=ORIENTED_EDGE('',*,*,#205,.F.);
#133=ORIENTED_EDGE('',*,*,#203,.F.);
#134=ORIENTED_EDGE('',*,*,#189,.T.);
#135=ORIENTED_EDGE('',*,*,#220,.T.);
#136=ORIENTED_EDGE('',*,*,#177,.F.);
#137=ORIENTED_EDGE('',*,*,#221,.F.);
#138=ORIENTED_EDGE('',*,*,#185,.T.);
#139=ORIENTED_EDGE('',*,*,#221,.T.);
#140=ORIENTED_EDGE('',*,*,#176,.F.);
#141=ORIENTED_EDGE('',*,*,#163,.F.);
#142=ORIENTED_EDGE('',*,*,#171,.T.);
#143=ORIENTED_EDGE('',*,*,#178,.T.);
#144=ORIENTED_EDGE('',*,*,#220,.F.);
#145=ORIENTED_EDGE('',*,*,#188,.F.);
#146=ORIENTED_EDGE('',*,*,#222,.T.);
#147=ORIENTED_EDGE('',*,*,#207,.T.);
#148=ORIENTED_EDGE('',*,*,#223,.F.);
#149=ORIENTED_EDGE('',*,*,#198,.F.);
#150=ORIENTED_EDGE('',*,*,#197,.T.);
#151=ORIENTED_EDGE('',*,*,#224,.T.);
#152=ORIENTED_EDGE('',*,*,#208,.F.);
#153=ORIENTED_EDGE('',*,*,#222,.F.);
#154=ORIENTED_EDGE('',*,*,#200,.T.);
#155=ORIENTED_EDGE('',*,*,#225,.T.);
#156=ORIENTED_EDGE('',*,*,#209,.F.);
#157=ORIENTED_EDGE('',*,*,#224,.F.);
#158=ORIENTED_EDGE('',*,*,#223,.T.);
#159=ORIENTED_EDGE('',*,*,#210,.T.);
#160=ORIENTED_EDGE('',*,*,#225,.F.);
#161=ORIENTED_EDGE('',*,*,#199,.F.);
#162=EDGE_CURVE('',#226,#227,#269,.T.);
#163=EDGE_CURVE('',#226,#228,#270,.T.);
#164=EDGE_CURVE('',#229,#228,#271,.T.);
#165=EDGE_CURVE('',#230,#229,#272,.T.);
#166=EDGE_CURVE('',#230,#231,#273,.T.);
#167=EDGE_CURVE('',#231,#232,#22,.T.);
#168=EDGE_CURVE('',#233,#232,#274,.T.);
#169=EDGE_CURVE('',#233,#234,#275,.T.);
#170=EDGE_CURVE('',#235,#234,#276,.T.);
#171=EDGE_CURVE('',#236,#235,#277,.T.);
#172=EDGE_CURVE('',#237,#236,#278,.T.);
#173=EDGE_CURVE('',#237,#238,#279,.T.);
#174=EDGE_CURVE('',#239,#238,#23,.T.);
#175=EDGE_CURVE('',#227,#239,#280,.T.);
#176=EDGE_CURVE('',#228,#240,#281,.T.);
#177=EDGE_CURVE('',#240,#241,#282,.T.);
#178=EDGE_CURVE('',#235,#241,#283,.T.);
#179=EDGE_CURVE('',#234,#242,#284,.T.);
#180=EDGE_CURVE('',#242,#243,#285,.T.);
#181=EDGE_CURVE('',#229,#243,#286,.T.);
#182=EDGE_CURVE('',#244,#245,#287,.T.);
#183=EDGE_CURVE('',#227,#244,#288,.T.);
#184=EDGE_CURVE('',#239,#245,#289,.T.);
#185=EDGE_CURVE('',#226,#246,#290,.T.);
#186=EDGE_CURVE('',#247,#244,#291,.T.);
#187=EDGE_CURVE('',#237,#247,#292,.T.);
#188=EDGE_CURVE('',#236,#248,#293,.T.);
#189=EDGE_CURVE('',#246,#248,#294,.T.);
#190=EDGE_CURVE('',#247,#249,#295,.T.);
#191=EDGE_CURVE('',#238,#249,#296,.T.);
#192=EDGE_CURVE('',#243,#250,#297,.T.);
#193=EDGE_CURVE('',#250,#251,#20,.F.);
#194=EDGE_CURVE('',#230,#251,#298,.T.);
#195=EDGE_CURVE('',#251,#252,#299,.T.);
#196=EDGE_CURVE('',#231,#252,#300,.T.);
#197=EDGE_CURVE('',#253,#254,#24,.T.);
#198=EDGE_CURVE('',#253,#255,#301,.F.);
#199=EDGE_CURVE('',#255,#256,#25,.T.);
#200=EDGE_CURVE('',#254,#256,#302,.F.);
#201=EDGE_CURVE('',#252,#257,#26,.F.);
#202=EDGE_CURVE('',#232,#257,#303,.T.);
#203=EDGE_CURVE('',#257,#258,#304,.T.);
#204=EDGE_CURVE('',#233,#258,#305,.T.);
#205=EDGE_CURVE('',#258,#259,#21,.T.);
#206=EDGE_CURVE('',#259,#242,#306,.T.);
#207=EDGE_CURVE('',#260,#261,#307,.F.);
#208=EDGE_CURVE('',#260,#262,#27,.T.);
#209=EDGE_CURVE('',#262,#263,#308,.F.);
#210=EDGE_CURVE('',#261,#263,#28,.T.);
#211=EDGE_CURVE('',#249,#245,#29,.T.);
#212=EDGE_CURVE('',#264,#264,#30,.T.);
#213=EDGE_CURVE('',#265,#265,#31,.T.);
#214=EDGE_CURVE('',#266,#266,#32,.T.);
#215=EDGE_CURVE('',#267,#250,#309,.F.);
#216=EDGE_CURVE('',#259,#268,#310,.F.);
#217=EDGE_CURVE('',#268,#267,#33,.T.);
#218=EDGE_CURVE('',#252,#267,#13,.T.);
#219=EDGE_CURVE('',#257,#268,#14,.T.);
#220=EDGE_CURVE('',#248,#241,#311,.T.);
#221=EDGE_CURVE('',#246,#240,#312,.T.);
#222=EDGE_CURVE('',#253,#260,#313,.T.);
#223=EDGE_CURVE('',#255,#261,#314,.T.);
#224=EDGE_CURVE('',#254,#262,#315,.T.);
#225=EDGE_CURVE('',#256,#263,#316,.T.);
#226=VERTEX_POINT('',#654);
#227=VERTEX_POINT('',#655);
#228=VERTEX_POINT('',#657);
#229=VERTEX_POINT('',#659);
#230=VERTEX_POINT('',#661);
#231=VERTEX_POINT('',#663);
#232=VERTEX_POINT('',#665);
#233=VERTEX_POINT('',#667);
#234=VERTEX_POINT('',#669);
#235=VERTEX_POINT('',#671);
#236=VERTEX_POINT('',#673);
#237=VERTEX_POINT('',#675);
#238=VERTEX_POINT('',#677);
#239=VERTEX_POINT('',#679);
#240=VERTEX_POINT('',#683);
#241=VERTEX_POINT('',#685);
#242=VERTEX_POINT('',#688);
#243=VERTEX_POINT('',#690);
#244=VERTEX_POINT('',#694);
#245=VERTEX_POINT('',#695);
#246=VERTEX_POINT('',#700);
#247=VERTEX_POINT('',#702);
#248=VERTEX_POINT('',#705);
#249=VERTEX_POINT('',#709);
#250=VERTEX_POINT('',#713);
#251=VERTEX_POINT('',#715);
#252=VERTEX_POINT('',#719);
#253=VERTEX_POINT('',#723);
#254=VERTEX_POINT('',#724);
#255=VERTEX_POINT('',#726);
#256=VERTEX_POINT('',#728);
#257=VERTEX_POINT('',#731);
#258=VERTEX_POINT('',#735);
#259=VERTEX_POINT('',#739);
#260=VERTEX_POINT('',#743);
#261=VERTEX_POINT('',#744);
#262=VERTEX_POINT('',#746);
#263=VERTEX_POINT('',#748);
#264=VERTEX_POINT('',#752);
#265=VERTEX_POINT('',#756);
#266=VERTEX_POINT('',#759);
#267=VERTEX_POINT('',#762);
#268=VERTEX_POINT('',#764);
#269=LINE('',#653,#317);
#270=LINE('',#656,#318);
#271=LINE('',#658,#319);
#272=LINE('',#660,#320);
#273=LINE('',#662,#321);
#274=LINE('',#666,#322);
#275=LINE('',#668,#323);
#276=LINE('',#670,#324);
#277=LINE('',#672,#325);
#278=LINE('',#674,#326);
#279=LINE('',#676,#327);
#280=LINE('',#680,#328);
#281=LINE('',#682,#329);
#282=LINE('',#684,#330);
#283=LINE('',#686,#331);
#284=LINE('',#687,#332);
#285=LINE('',#689,#333);
#286=LINE('',#691,#334);
#287=LINE('',#693,#335);
#288=LINE('',#696,#336);
#289=LINE('',#697,#337);
#290=LINE('',#699,#338);
#291=LINE('',#701,#339);
#292=LINE('',#703,#340);
#293=LINE('',#704,#341);
#294=LINE('',#706,#342);
#295=LINE('',#708,#343);
#296=LINE('',#710,#344);
#297=LINE('',#712,#345);
#298=LINE('',#716,#346);
#299=LINE('',#718,#347);
#300=LINE('',#720,#348);
#301=LINE('',#725,#349);
#302=LINE('',#729,#350);
#303=LINE('',#732,#351);
#304=LINE('',#734,#352);
#305=LINE('',#736,#353);
#306=LINE('',#740,#354);
#307=LINE('',#742,#355);
#308=LINE('',#747,#356);
#309=LINE('',#761,#357);
#310=LINE('',#763,#358);
#311=LINE('',#780,#359);
#312=LINE('',#781,#360);
#313=LINE('',#785,#361);
#314=LINE('',#786,#362);
#315=LINE('',#788,#363);
#316=LINE('',#790,#364);
#317=VECTOR('',#527,1.);
#318=VECTOR('',#528,1.);
#319=VECTOR('',#529,1.);
#320=VECTOR('',#530,1.);
#321=VECTOR('',#531,1.);
#322=VECTOR('',#534,1.);
#323=VECTOR('',#535,1.);
#324=VECTOR('',#536,1.);
#325=VECTOR('',#537,1.);
#326=VECTOR('',#538,1.);
#327=VECTOR('',#539,1.);
#328=VECTOR('',#542,1.);
#329=VECTOR('',#545,1.);
#330=VECTOR('',#546,1.);
#331=VECTOR('',#547,1.);
#332=VECTOR('',#548,1.);
#333=VECTOR('',#549,1.);
#334=VECTOR('',#550,1.);
#335=VECTOR('',#553,1.);
#336=VECTOR('',#554,1.);
#337=VECTOR('',#555,1.);
#338=VECTOR('',#558,1.);
#339=VECTOR('',#559,1.);
#340=VECTOR('',#560,1.);
#341=VECTOR('',#561,1.);
#342=VECTOR('',#562,1.);
#343=VECTOR('',#565,1.);
#344=VECTOR('',#566,1.);
#345=VECTOR('',#569,1.);
#346=VECTOR('',#572,1.);
#347=VECTOR('',#575,1.);
#348=VECTOR('',#576,1.);
#349=VECTOR('',#581,1.);
#350=VECTOR('',#584,1.);
#351=VECTOR('',#587,1.);
#352=VECTOR('',#590,1.);
#353=VECTOR('',#591,1.);
#354=VECTOR('',#596,1.);
#355=VECTOR('',#599,1.);
#356=VECTOR('',#602,1.);
#357=VECTOR('',#621,1.);
#358=VECTOR('',#622,1.);
#359=VECTOR('',#633,1.);
#360=VECTOR('',#634,1.);
#361=VECTOR('',#641,1.);
#362=VECTOR('',#642,1.);
#363=VECTOR('',#645,1.);
#364=VECTOR('',#648,1.);
#365=EDGE_LOOP('',(#34,#35,#36,#37,#38,#39,#40,#41,#42,#43,#44,#45,#46,
#47));
#366=EDGE_LOOP('',(#48,#49,#50,#51,#52,#53,#54,#55));
#367=EDGE_LOOP('',(#56,#57,#58,#59));
#368=EDGE_LOOP('',(#60,#61,#62,#63,#64,#65,#66,#67));
#369=EDGE_LOOP('',(#68,#69,#70,#71));
#370=EDGE_LOOP('',(#72,#73,#74,#75,#76));
#371=EDGE_LOOP('',(#77,#78,#79,#80));
#372=EDGE_LOOP('',(#81,#82,#83,#84));
#373=EDGE_LOOP('',(#85,#86,#87,#88));
#374=EDGE_LOOP('',(#89,#90,#91,#92));
#375=EDGE_LOOP('',(#93,#94,#95,#96,#97));
#376=EDGE_LOOP('',(#98,#99,#100,#101));
#377=EDGE_LOOP('',(#102,#103,#104,#105));
#378=EDGE_LOOP('',(#106));
#379=EDGE_LOOP('',(#107,#108,#109,#110));
#380=EDGE_LOOP('',(#111));
#381=EDGE_LOOP('',(#112));
#382=EDGE_LOOP('',(#113));
#383=EDGE_LOOP('',(#114));
#384=EDGE_LOOP('',(#115));
#385=EDGE_LOOP('',(#116,#117,#118,#119,#120,#121));
#386=EDGE_LOOP('',(#122,#123,#124,#125));
#387=EDGE_LOOP('',(#126,#127,#128,#129));
#388=EDGE_LOOP('',(#130,#131,#132,#133));
#389=EDGE_LOOP('',(#134,#135,#136,#137));
#390=EDGE_LOOP('',(#138,#139,#140,#141));
#391=EDGE_LOOP('',(#142,#143,#144,#145));
#392=EDGE_LOOP('',(#146,#147,#148,#149));
#393=EDGE_LOOP('',(#150,#151,#152,#153));
#394=EDGE_LOOP('',(#154,#155,#156,#157));
#395=EDGE_LOOP('',(#158,#159,#160,#161));
#396=FACE_BOUND('',#365,.T.);
#397=FACE_BOUND('',#366,.T.);
#398=FACE_BOUND('',#367,.T.);
#399=FACE_BOUND('',#368,.T.);
#400=FACE_BOUND('',#369,.T.);
#401=FACE_BOUND('',#370,.T.);
#402=FACE_BOUND('',#371,.T.);
#403=FACE_BOUND('',#372,.T.);
#404=FACE_BOUND('',#373,.T.);
#405=FACE_BOUND('',#374,.T.);
#406=FACE_BOUND('',#375,.T.);
#407=FACE_BOUND('',#376,.T.);
#408=FACE_BOUND('',#377,.T.);
#409=FACE_BOUND('',#378,.T.);
#410=FACE_BOUND('',#379,.T.);
#411=FACE_BOUND('',#380,.T.);
#412=FACE_BOUND('',#381,.T.);
#413=FACE_BOUND('',#382,.T.);
#414=FACE_BOUND('',#383,.T.);
#415=FACE_BOUND('',#384,.T.);
#416=FACE_BOUND('',#385,.T.);
#417=FACE_BOUND('',#386,.T.);
#418=FACE_BOUND('',#387,.T.);
#419=FACE_BOUND('',#388,.T.);
#420=FACE_BOUND('',#389,.T.);
#421=FACE_BOUND('',#390,.T.);
#422=FACE_BOUND('',#391,.T.);
#423=FACE_BOUND('',#392,.T.);
#424=FACE_BOUND('',#393,.T.);
#425=FACE_BOUND('',#394,.T.);
#426=FACE_BOUND('',#395,.T.);
#427=PLANE('',#484);
#428=PLANE('',#487);
#429=PLANE('',#488);
#430=PLANE('',#489);
#431=PLANE('',#490);
#432=PLANE('',#491);
#433=PLANE('',#493);
#434=PLANE('',#498);
#435=PLANE('',#499);
#436=PLANE('',#506);
#437=PLANE('',#507);
#438=PLANE('',#511);
#439=PLANE('',#516);
#440=PLANE('',#517);
#441=PLANE('',#518);
#442=PLANE('',#519);
#443=PLANE('',#520);
#444=PLANE('',#521);
#445=PLANE('',#522);
#446=ADVANCED_FACE('',(#396),#427,.T.);
#447=ADVANCED_FACE('',(#397),#428,.T.);
#448=ADVANCED_FACE('',(#398),#429,.T.);
#449=ADVANCED_FACE('',(#399),#430,.T.);
#450=ADVANCED_FACE('',(#400),#431,.F.);
#451=ADVANCED_FACE('',(#401),#432,.T.);
#452=ADVANCED_FACE('',(#402),#433,.F.);
#453=ADVANCED_FACE('',(#403,#404),#15,.T.);
#454=ADVANCED_FACE('',(#405),#434,.T.);
#455=ADVANCED_FACE('',(#406),#435,.F.);
#456=ADVANCED_FACE('',(#407,#408,#409),#16,.F.);
#457=ADVANCED_FACE('',(#410),#436,.T.);
#458=ADVANCED_FACE('',(#411,#412),#437,.F.);
#459=ADVANCED_FACE('',(#413,#414),#17,.F.);
#460=ADVANCED_FACE('',(#415,#416),#438,.T.);
#461=ADVANCED_FACE('',(#417),#18,.T.);
#462=ADVANCED_FACE('',(#418),#12,.T.);
#463=ADVANCED_FACE('',(#419),#19,.T.);
#464=ADVANCED_FACE('',(#420),#439,.T.);
#465=ADVANCED_FACE('',(#421),#440,.T.);
#466=ADVANCED_FACE('',(#422),#441,.F.);
#467=ADVANCED_FACE('',(#423),#442,.F.);
#468=ADVANCED_FACE('',(#424),#443,.T.);
#469=ADVANCED_FACE('',(#425),#444,.T.);
#470=ADVANCED_FACE('',(#426),#445,.F.);
#471=CLOSED_SHELL('',(#446,#447,#448,#449,#450,#451,#452,#453,#454,#455,
#456,#457,#458,#459,#460,#461,#462,#463,#464,#465,#466,#467,#468,#469,#470));
#472=STYLED_ITEM('',(#473),#480);
#473=PRESENTATION_STYLE_ASSIGNMENT((#474));
#474=SURFACE_STYLE_USAGE(.BOTH.,#475);
#475=SURFACE_SIDE_STYLE('',(#476));
#476=SURFACE_STYLE_FILL_AREA(#477);
#477=FILL_AREA_STYLE('',(#478));
#478=FILL_AREA_STYLE_COLOUR('',#479);
#479=COLOUR_RGB('',0.615686274509804,0.811764705882353,0.929411764705882);
#480=MANIFOLD_SOLID_BREP('DisplayCase',#471);
#481=SHAPE_DEFINITION_REPRESENTATION(#798,#482);
#482=SHAPE_REPRESENTATION('DisplayCase',(#483),#793);
#483=AXIS2_PLACEMENT_3D('',#651,#523,#524);
#484=AXIS2_PLACEMENT_3D('',#652,#525,#526);
#485=AXIS2_PLACEMENT_3D('',#664,#532,#533);
#486=AXIS2_PLACEMENT_3D('',#678,#540,#541);
#487=AXIS2_PLACEMENT_3D('',#681,#543,#544);
#488=AXIS2_PLACEMENT_3D('',#692,#551,#552);
#489=AXIS2_PLACEMENT_3D('',#698,#556,#557);
#490=AXIS2_PLACEMENT_3D('',#707,#563,#564);
#491=AXIS2_PLACEMENT_3D('',#711,#567,#568);
#492=AXIS2_PLACEMENT_3D('',#714,#570,#571);
#493=AXIS2_PLACEMENT_3D('',#717,#573,#574);
#494=AXIS2_PLACEMENT_3D('',#721,#577,#578);
#495=AXIS2_PLACEMENT_3D('',#722,#579,#580);
#496=AXIS2_PLACEMENT_3D('',#727,#582,#583);
#497=AXIS2_PLACEMENT_3D('',#730,#585,#586);
#498=AXIS2_PLACEMENT_3D('',#733,#588,#589);
#499=AXIS2_PLACEMENT_3D('',#737,#592,#593);
#500=AXIS2_PLACEMENT_3D('',#738,#594,#595);
#501=AXIS2_PLACEMENT_3D('',#741,#597,#598);
#502=AXIS2_PLACEMENT_3D('',#745,#600,#601);
#503=AXIS2_PLACEMENT_3D('',#749,#603,#604);
#504=AXIS2_PLACEMENT_3D('',#750,#605,#606);
#505=AXIS2_PLACEMENT_3D('',#751,#607,#608);
#506=AXIS2_PLACEMENT_3D('',#753,#609,#610);
#507=AXIS2_PLACEMENT_3D('',#754,#611,#612);
#508=AXIS2_PLACEMENT_3D('',#755,#613,#614);
#509=AXIS2_PLACEMENT_3D('',#757,#615,#616);
#510=AXIS2_PLACEMENT_3D('',#758,#617,#618);
#511=AXIS2_PLACEMENT_3D('',#760,#619,#620);
#512=AXIS2_PLACEMENT_3D('',#765,#623,#624);
#513=AXIS2_PLACEMENT_3D('',#766,#625,#626);
#514=AXIS2_PLACEMENT_3D('',#772,#627,#628);
#515=AXIS2_PLACEMENT_3D('',#778,#629,#630);
#516=AXIS2_PLACEMENT_3D('',#779,#631,#632);
#517=AXIS2_PLACEMENT_3D('',#782,#635,#636);
#518=AXIS2_PLACEMENT_3D('',#783,#637,#638);
#519=AXIS2_PLACEMENT_3D('',#784,#639,#640);
#520=AXIS2_PLACEMENT_3D('',#787,#643,#644);
#521=AXIS2_PLACEMENT_3D('',#789,#646,#647);
#522=AXIS2_PLACEMENT_3D('',#791,#649,#650);
#523=DIRECTION('',(0.,0.,1.));
#524=DIRECTION('',(1.,0.,0.));
#525=DIRECTION('',(0.,0.,1.));
#526=DIRECTION('',(1.,0.,0.));
#527=DIRECTION('',(1.,0.,0.));
#528=DIRECTION('',(0.,-1.,0.));
#529=DIRECTION('',(-1.,0.,0.));
#530=DIRECTION('',(0.,-1.,0.));
#531=DIRECTION('',(0.521555757344622,0.853217200940463,0.));
#532=DIRECTION('',(0.,0.,1.));
#533=DIRECTION('',(1.,0.,0.));
#534=DIRECTION('',(-0.521555757344622,0.853217200940463,0.));
#535=DIRECTION('',(0.,-1.,0.));
#536=DIRECTION('',(-1.,0.,0.));
#537=DIRECTION('',(0.,-1.,0.));
#538=DIRECTION('',(1.,0.,0.));
#539=DIRECTION('',(-0.521555757344622,0.853217200940463,0.));
#540=DIRECTION('',(0.,0.,1.));
#541=DIRECTION('',(1.,0.,0.));
#542=DIRECTION('',(0.521555757344622,0.853217200940463,0.));
#543=DIRECTION('',(0.,-1.,0.));
#544=DIRECTION('',(0.,0.,-1.));
#545=DIRECTION('',(2.16840434497101E-16,0.,-1.));
#546=DIRECTION('',(-1.,0.,-1.23908819712629E-16));
#547=DIRECTION('',(6.50521303491303E-16,0.,-1.));
#548=DIRECTION('',(0.,0.,-1.));
#549=DIRECTION('',(1.,0.,0.));
#550=DIRECTION('',(0.,0.,-1.));
#551=DIRECTION('',(-0.853217200940463,0.521555757344622,0.));
#552=DIRECTION('',(-0.521555757344622,-0.853217200940463,0.));
#553=DIRECTION('',(0.521555757344622,0.853217200940463,0.));
#554=DIRECTION('',(0.,0.,-1.));
#555=DIRECTION('',(0.,0.,-1.));
#556=DIRECTION('',(0.,1.,0.));
#557=DIRECTION('',(0.,0.,1.));
#558=DIRECTION('',(2.16840434497101E-16,0.,-1.));
#559=DIRECTION('',(1.,0.,0.));
#560=DIRECTION('',(0.,0.,-1.));
#561=DIRECTION('',(6.50521303491303E-16,0.,-1.));
#562=DIRECTION('',(-1.,0.,-1.23908819712629E-16));
#563=DIRECTION('',(-0.853217200940463,-0.521555757344622,0.));
#564=DIRECTION('',(0.521555757344622,-0.853217200940463,0.));
#565=DIRECTION('',(-0.521555757344622,0.853217200940463,0.));
#566=DIRECTION('',(0.,0.,-1.));
#567=DIRECTION('',(1.,0.,0.));
#568=DIRECTION('',(0.,0.,-1.));
#569=DIRECTION('',(0.,1.,0.));
#570=DIRECTION('',(1.,0.,0.));
#571=DIRECTION('',(0.,-1.,0.));
#572=DIRECTION('',(0.,0.,-1.));
#573=DIRECTION('',(-0.853217200940463,0.521555757344622,0.));
#574=DIRECTION('',(-0.521555757344622,-0.853217200940463,0.));
#575=DIRECTION('',(0.521555757344622,0.853217200940463,0.));
#576=DIRECTION('',(0.,0.,-1.));
#577=DIRECTION('',(0.,0.,-1.));
#578=DIRECTION('',(-1.,0.,0.));
#579=DIRECTION('',(0.,0.,1.));
#580=DIRECTION('',(1.,0.,0.));
#581=DIRECTION('',(0.,0.,-1.));
#582=DIRECTION('',(0.,-3.46944695195362E-16,1.));
#583=DIRECTION('',(0.,-1.,-3.46944695195362E-16));
#584=DIRECTION('',(0.,0.,-1.));
#585=DIRECTION('',(0.,0.,-1.));
#586=DIRECTION('',(-1.,0.,0.));
#587=DIRECTION('',(0.,0.,-1.));
#588=DIRECTION('',(-0.853217200940463,-0.521555757344622,0.));
#589=DIRECTION('',(0.521555757344622,-0.853217200940463,0.));
#590=DIRECTION('',(0.521555757344622,-0.853217200940463,0.));
#591=DIRECTION('',(0.,0.,-1.));
#592=DIRECTION('',(1.,0.,0.));
#593=DIRECTION('',(0.,0.,-1.));
#594=DIRECTION('',(1.,0.,0.));
#595=DIRECTION('',(0.,-1.,0.));
#596=DIRECTION('',(0.,-1.,0.));
#597=DIRECTION('',(0.,0.,-1.));
#598=DIRECTION('',(-1.,0.,0.));
#599=DIRECTION('',(0.,0.,-1.));
#600=DIRECTION('',(0.,0.,1.));
#601=DIRECTION('',(1.,0.,0.));
#602=DIRECTION('',(0.,0.,-1.));
#603=DIRECTION('',(0.,-3.46944695195362E-16,1.));
#604=DIRECTION('',(0.,-1.,-3.46944695195362E-16));
#605=DIRECTION('',(0.,0.,1.));
#606=DIRECTION('',(1.,0.,0.));
#607=DIRECTION('',(0.,0.,1.));
#608=DIRECTION('',(1.,0.,0.));
#609=DIRECTION('',(0.,0.,1.));
#610=DIRECTION('',(1.,0.,0.));
#611=DIRECTION('',(0.,0.,-1.));
#612=DIRECTION('',(1.,0.,0.));
#613=DIRECTION('',(0.,0.,-1.));
#614=DIRECTION('',(-1.,0.,0.));
#615=DIRECTION('',(0.,0.,1.));
#616=DIRECTION('',(1.,0.,0.));
#617=DIRECTION('',(0.,0.,-1.));
#618=DIRECTION('',(-1.,0.,0.));
#619=DIRECTION('',(0.,0.,-1.));
#620=DIRECTION('',(1.,0.,0.));
#621=DIRECTION('',(0.521555757344622,0.853217200940463,0.));
#622=DIRECTION('',(0.521555757344622,-0.853217200940463,0.));
#623=DIRECTION('',(0.,0.,-1.));
#624=DIRECTION('',(-1.,0.,0.));
#625=DIRECTION('',(-0.521555757344622,-0.853217200940463,0.));
#626=DIRECTION('',(0.853217200940463,-0.521555757344622,0.));
#627=DIRECTION('',(0.,0.,-1.));
#628=DIRECTION('',(-1.,0.,0.));
#629=DIRECTION('',(0.521555757344622,-0.853217200940463,0.));
#630=DIRECTION('',(0.853217200940463,0.521555757344622,0.));
#631=DIRECTION('',(-1.23908819712629E-16,0.,1.));
#632=DIRECTION('',(1.,0.,1.23908819712629E-16));
#633=DIRECTION('',(0.,-1.,0.));
#634=DIRECTION('',(0.,-1.,0.));
#635=DIRECTION('',(-1.,0.,-2.16840434497101E-16));
#636=DIRECTION('',(-2.16840434497101E-16,0.,1.));
#637=DIRECTION('',(-1.,0.,-6.50521303491303E-16));
#638=DIRECTION('',(-6.50521303491303E-16,0.,1.));
#639=DIRECTION('',(0.,-1.,-4.33680868994202E-16));
#640=DIRECTION('',(0.,4.33680868994202E-16,-1.));
#641=DIRECTION('',(-1.,0.,0.));
#642=DIRECTION('',(-1.,0.,0.));
#643=DIRECTION('',(0.,0.,1.));
#644=DIRECTION('',(1.,0.,0.));
#645=DIRECTION('',(-1.,0.,0.));
#646=DIRECTION('',(0.,-1.,-4.33680868994202E-16));
#647=DIRECTION('',(0.,4.33680868994202E-16,-1.));
#648=DIRECTION('',(-1.,0.,0.));
#649=DIRECTION('',(0.,-3.46944695195362E-16,1.));
#650=DIRECTION('',(0.,-1.,-3.46944695195362E-16));
#651=CARTESIAN_POINT('',(0.,0.,0.));
#652=CARTESIAN_POINT('',(-0.00412725753337144,-0.00187,0.007));
#653=CARTESIAN_POINT('',(0.,-0.02249,0.007));
#654=CARTESIAN_POINT('',(0.007,-0.02249,0.007));
#655=CARTESIAN_POINT('',(0.007115,-0.02249,0.007));
#656=CARTESIAN_POINT('',(0.007,0.020252,0.007));
#657=CARTESIAN_POINT('',(0.007,-0.02399,0.007));
#658=CARTESIAN_POINT('',(0.,-0.02399,0.007));
#659=CARTESIAN_POINT('',(0.008615,-0.02399,0.007));
#660=CARTESIAN_POINT('',(0.008615,-0.02324,0.007));
#661=CARTESIAN_POINT('',(0.008615,-0.02249,0.007));
#662=CARTESIAN_POINT('',(0.0106784970114197,-0.0191143088693024,0.007));
#663=CARTESIAN_POINT('',(0.0127419940228393,-0.0157386177386048,0.007));
#664=CARTESIAN_POINT('',(-1.11474603390846E-18,6.93889390390723E-18,0.007));
#665=CARTESIAN_POINT('',(-0.0127419940228394,-0.0157386177386048,0.007));
#666=CARTESIAN_POINT('',(-0.0106784970114197,-0.0191143088693024,0.007));
#667=CARTESIAN_POINT('',(-0.008615,-0.02249,0.007));
#668=CARTESIAN_POINT('',(-0.008615,-0.02324,0.007));
#669=CARTESIAN_POINT('',(-0.008615,-0.02399,0.007));
#670=CARTESIAN_POINT('',(0.,-0.02399,0.007));
#671=CARTESIAN_POINT('',(-0.007,-0.02399,0.007));
#672=CARTESIAN_POINT('',(-0.007,0.020252,0.007));
#673=CARTESIAN_POINT('',(-0.007,-0.02249,0.007));
#674=CARTESIAN_POINT('',(0.,-0.02249,0.007));
#675=CARTESIAN_POINT('',(-0.007115,-0.02249,0.007));
#676=CARTESIAN_POINT('',(-0.00863366534741058,-0.020005603310603,0.007));
#677=CARTESIAN_POINT('',(-0.012115,-0.0143104603350137,0.007));
#678=CARTESIAN_POINT('',(5.74053187100322E-19,4.33680868994202E-18,0.007));
#679=CARTESIAN_POINT('',(0.012115,-0.0143104603350137,0.007));
#680=CARTESIAN_POINT('',(0.00863366534741058,-0.020005603310603,0.007));
#681=CARTESIAN_POINT('',(0.,-0.02399,0.007));
#682=CARTESIAN_POINT('',(0.007,-0.02399,0.005));
#683=CARTESIAN_POINT('',(0.007,-0.02399,0.003));
#684=CARTESIAN_POINT('',(-8.67361737988404E-19,-0.02399,0.003));
#685=CARTESIAN_POINT('',(-0.007,-0.02399,0.003));
#686=CARTESIAN_POINT('',(-0.007,-0.02399,0.005));
#687=CARTESIAN_POINT('',(-0.008615,-0.02399,0.007));
#688=CARTESIAN_POINT('',(-0.008615,-0.02399,-0.002));
#689=CARTESIAN_POINT('',(0.,-0.02399,-0.002));
#690=CARTESIAN_POINT('',(0.008615,-0.02399,-0.002));
#691=CARTESIAN_POINT('',(0.008615,-0.02399,0.007));
#692=CARTESIAN_POINT('',(0.00863366534741058,-0.020005603310603,0.007));
#693=CARTESIAN_POINT('',(0.00863366534741058,-0.020005603310603,0.));
#694=CARTESIAN_POINT('',(0.007115,-0.02249,0.));
#695=CARTESIAN_POINT('',(0.012115,-0.0143104603350137,0.));
#696=CARTESIAN_POINT('',(0.007115,-0.02249,0.007));
#697=CARTESIAN_POINT('',(0.012115,-0.0143104603350137,0.007));
#698=CARTESIAN_POINT('',(0.,-0.02249,0.007));
#699=CARTESIAN_POINT('',(0.007,-0.02249,0.005));
#700=CARTESIAN_POINT('',(0.007,-0.02249,0.003));
#701=CARTESIAN_POINT('',(0.,-0.02249,0.));
#702=CARTESIAN_POINT('',(-0.007115,-0.02249,0.));
#703=CARTESIAN_POINT('',(-0.007115,-0.02249,0.007));
#704=CARTESIAN_POINT('',(-0.007,-0.02249,0.005));
#705=CARTESIAN_POINT('',(-0.007,-0.02249,0.003));
#706=CARTESIAN_POINT('',(-8.67361737988404E-19,-0.02249,0.003));
#707=CARTESIAN_POINT('',(-0.00863366534741058,-0.020005603310603,0.007));
#708=CARTESIAN_POINT('',(-0.00863366534741058,-0.020005603310603,0.));
#709=CARTESIAN_POINT('',(-0.012115,-0.0143104603350137,0.));
#710=CARTESIAN_POINT('',(-0.012115,-0.0143104603350137,0.007));
#711=CARTESIAN_POINT('',(0.008615,-0.02324,0.007));
#712=CARTESIAN_POINT('',(0.008615,-0.02324,-0.002));
#713=CARTESIAN_POINT('',(0.008615,-0.0205726594550672,-0.002));
#714=CARTESIAN_POINT('',(0.008615,-0.0205726594550672,-0.001));
#715=CARTESIAN_POINT('',(0.008615,-0.02249,-0.001));
#716=CARTESIAN_POINT('',(0.008615,-0.02249,0.007));
#717=CARTESIAN_POINT('',(0.0106784970114197,-0.0191143088693024,0.007));
#718=CARTESIAN_POINT('',(0.0127419940228393,-0.0157386177386048,-0.001));
#719=CARTESIAN_POINT('',(0.0127419940228393,-0.0157386177386048,-0.001));
#720=CARTESIAN_POINT('',(0.0127419940228393,-0.0157386177386048,0.007));
#721=CARTESIAN_POINT('',(-1.11474603390846E-18,6.93889390390723E-18,0.007));
#722=CARTESIAN_POINT('',(-1.11474603390846E-18,6.93889390390723E-18,0.));
#723=CARTESIAN_POINT('',(0.0202113829314077,-0.00125,0.));
#724=CARTESIAN_POINT('',(0.0202113829314077,0.00125,1.0842021724855E-19));
#725=CARTESIAN_POINT('',(0.0202113829314077,-0.00125,0.007));
#726=CARTESIAN_POINT('',(0.0202113829314077,-0.00125,0.0025));
#727=CARTESIAN_POINT('',(-1.11474603390846E-18,6.93889390390723E-18,0.0025));
#728=CARTESIAN_POINT('',(0.0202113829314077,0.00125,0.0025));
#729=CARTESIAN_POINT('',(0.0202113829314077,0.00125,0.007));
#730=CARTESIAN_POINT('',(-1.11474603390846E-18,6.93889390390723E-18,-0.001));
#731=CARTESIAN_POINT('',(-0.0127419940228394,-0.0157386177386048,-0.001));
#732=CARTESIAN_POINT('',(-0.0127419940228394,-0.0157386177386048,0.007));
#733=CARTESIAN_POINT('',(-0.0106784970114197,-0.0191143088693024,0.007));
#734=CARTESIAN_POINT('',(-0.0106784970114197,-0.0191143088693024,-0.001));
#735=CARTESIAN_POINT('',(-0.008615,-0.02249,-0.001));
#736=CARTESIAN_POINT('',(-0.008615,-0.02249,0.007));
#737=CARTESIAN_POINT('',(-0.008615,-0.02324,0.007));
#738=CARTESIAN_POINT('',(-0.008615,-0.0205726594550672,-0.001));
#739=CARTESIAN_POINT('',(-0.008615,-0.0205726594550672,-0.002));
#740=CARTESIAN_POINT('',(-0.008615,-0.02324,-0.002));
#741=CARTESIAN_POINT('',(5.74053187100322E-19,4.33680868994202E-18,0.007));
#742=CARTESIAN_POINT('',(0.0187082869338697,-0.00125,0.007));
#743=CARTESIAN_POINT('',(0.0187082869338697,-0.00125,0.));
#744=CARTESIAN_POINT('',(0.0187082869338697,-0.00125,0.0025));
#745=CARTESIAN_POINT('',(5.74053187100322E-19,4.33680868994202E-18,0.));
#746=CARTESIAN_POINT('',(0.0187082869338697,0.00125,1.0842021724855E-19));
#747=CARTESIAN_POINT('',(0.0187082869338697,0.00125,0.007));
#748=CARTESIAN_POINT('',(0.0187082869338697,0.00125,0.0025));
#749=CARTESIAN_POINT('',(5.74053187100322E-19,4.33680868994202E-18,0.0025));
#750=CARTESIAN_POINT('',(0.,1.14810637420064E-18,0.));
#751=CARTESIAN_POINT('',(0.,1.14810637420064E-18,-0.001));
#752=CARTESIAN_POINT('',(0.01875,1.14810637420064E-18,-0.001));
#753=CARTESIAN_POINT('',(0.,-0.00187,0.));
#754=CARTESIAN_POINT('',(0.,-0.00187,-0.001));
#755=CARTESIAN_POINT('',(0.,-1.07156594925393E-18,-0.001));
#756=CARTESIAN_POINT('',(-0.0175,-1.07156594925393E-18,-0.001));
#757=CARTESIAN_POINT('',(0.,-1.07156594925393E-18,-0.002));
#758=CARTESIAN_POINT('',(0.,-1.07156594925393E-18,-0.002));
#759=CARTESIAN_POINT('',(-0.0175,-1.07156594925393E-18,-0.002));
#760=CARTESIAN_POINT('',(0.,-0.00187,-0.002));
#761=CARTESIAN_POINT('',(0.00776178279905954,-0.0219684442426554,-0.002));
#762=CARTESIAN_POINT('',(0.0119798965500104,-0.01506799849519,-0.002));
#763=CARTESIAN_POINT('',(-0.0145942340652102,-0.0107911830145423,-0.002));
#764=CARTESIAN_POINT('',(-0.0119798965500104,-0.01506799849519,-0.002));
#765=CARTESIAN_POINT('',(-1.11474603390846E-18,6.93889390390723E-18,-0.002));
#766=CARTESIAN_POINT('',(0.00982527981047921,-0.0185927531119578,-0.001));
#767=CARTESIAN_POINT('',(0.0127419940228393,-0.0157386177386048,-0.001));
#768=CARTESIAN_POINT('',(0.0127419940228393,-0.0157386177386048,-0.00126614492330186));
#769=CARTESIAN_POINT('',(0.0125740916448431,-0.0155917206058579,-0.00178604303500383));
#770=CARTESIAN_POINT('',(0.0121764641881385,-0.0152417454992954,-0.002));
#771=CARTESIAN_POINT('',(0.0119798965500104,-0.01506799849519,-0.002));
#772=CARTESIAN_POINT('',(-1.11474603390846E-18,6.93889390390723E-18,-0.001));
#773=CARTESIAN_POINT('',(-0.0127419940228394,-0.0157386177386048,-0.001));
#774=CARTESIAN_POINT('',(-0.0127419940228394,-0.0157386177386048,-0.00126614492330186));
#775=CARTESIAN_POINT('',(-0.0125740916448429,-0.0155917206058581,-0.00178604303500382));
#776=CARTESIAN_POINT('',(-0.0121764641881389,-0.015241745499295,-0.00199999999999999));
#777=CARTESIAN_POINT('',(-0.0119798965500104,-0.0150679984951901,-0.002));
#778=CARTESIAN_POINT('',(-0.00982527981047922,-0.0185927531119578,-0.001));
#779=CARTESIAN_POINT('',(-8.67361737988404E-19,0.020252,0.003));
#780=CARTESIAN_POINT('',(-0.007,0.020252,0.003));
#781=CARTESIAN_POINT('',(0.007,0.020252,0.003));
#782=CARTESIAN_POINT('',(0.007,0.020252,0.005));
#783=CARTESIAN_POINT('',(-0.007,0.020252,0.005));
#784=CARTESIAN_POINT('',(0.038,-0.00125,0.00125));
#785=CARTESIAN_POINT('',(0.038,-0.00125,0.));
#786=CARTESIAN_POINT('',(0.038,-0.00125,0.0025));
#787=CARTESIAN_POINT('',(0.038,4.33680868994202E-19,0.));
#788=CARTESIAN_POINT('',(0.038,0.00125,1.0842021724855E-19));
#789=CARTESIAN_POINT('',(0.038,0.00125,0.00125));
#790=CARTESIAN_POINT('',(0.038,0.00125,0.0025));
#791=CARTESIAN_POINT('',(0.038,-6.50521303491303E-19,0.0025));
#792=MECHANICAL_DESIGN_GEOMETRIC_PRESENTATION_REPRESENTATION('',(#472),
#793);
#793=(
GEOMETRIC_REPRESENTATION_CONTEXT(3)
GLOBAL_UNCERTAINTY_ASSIGNED_CONTEXT((#794))
GLOBAL_UNIT_ASSIGNED_CONTEXT((#797,#796,#795))
REPRESENTATION_CONTEXT('DisplayCase','TOP_LEVEL_ASSEMBLY_PART')
);
#794=UNCERTAINTY_MEASURE_WITH_UNIT(LENGTH_MEASURE(2.E-5),#797,
'DISTANCE_ACCURACY_VALUE','Maximum Tolerance applied to model');
#795=(
NAMED_UNIT(*)
SI_UNIT($,.STERADIAN.)
SOLID_ANGLE_UNIT()
);
#796=(
NAMED_UNIT(*)
PLANE_ANGLE_UNIT()
SI_UNIT($,.RADIAN.)
);
#797=(
LENGTH_UNIT()
NAMED_UNIT(*)
SI_UNIT($,.METRE.)
);
#798=PRODUCT_DEFINITION_SHAPE('','',#799);
#799=PRODUCT_DEFINITION('','',#801,#800);
#800=PRODUCT_DEFINITION_CONTEXT('',#807,'design');
#801=PRODUCT_DEFINITION_FORMATION_WITH_SPECIFIED_SOURCE('','',#803,
 .NOT_KNOWN.);
#802=PRODUCT_RELATED_PRODUCT_CATEGORY('','',(#803));
#803=PRODUCT('DisplayCase','DisplayCase','DisplayCase',(#805));
#804=PRODUCT_CATEGORY('','');
#805=PRODUCT_CONTEXT('',#807,'mechanical');
#806=APPLICATION_PROTOCOL_DEFINITION('international standard',
'ap242_managed_model_based_3d_engineering',2020,#807);
#807=APPLICATION_CONTEXT('managed model based 3d engineering');
ENDSEC;
END-ISO-10303-21;
