ISO-10303-21;
HEADER;
/* Generated by software containing ST-Developer
 * from STEP Tools, Inc. (www.steptools.com) 
 */
/* OPTION: using custom renumber hook */

FILE_DESCRIPTION(
/* description */ ('STEP AP242 Edition 2',
'CAx-IF Rec.Pracs.---Representation and Presentation of Product Manufa
cturing Information (PMI)---4.0---2014-10-13',
'CAx-IF Rec.Pracs.---3D Tessellated Geometry---0.4---2014-09-14','2;1',
'CAx-IF Rec.Pracs.---User Defined Attributes---1.5---2016-08-15'),
/* implementation_level */ '2;1');

FILE_NAME(
/* name */ 'psDisplayCase with Lens - Lens Mount',
/* time_stamp */ '2026-08-07T19:32:57Z',
/* author */ (''),
/* organization */ (''),
/* preprocessor_version */ 'ST-DEVELOPER v20',
/* originating_system */ 'ONSHAPE BY PTC INC, 1.219',
/* authorisation */ '  ');

FILE_SCHEMA (('AP242_MANAGED_MODEL_BASED_3D_ENGINEERING_MIM_LF { 1 0 10303 442 3 1 4 }'));
ENDSEC;

DATA;
#10=SHAPE_REPRESENTATION_RELATIONSHIP('','',#431,#11);
#11=ADVANCED_BREP_SHAPE_REPRESENTATION('',(#429),#725);
#12=PLANE('',#447);
#13=PLANE('',#448);
#14=PLANE('',#455);
#15=PLANE('',#456);
#16=PLANE('',#457);
#17=PLANE('',#458);
#18=PLANE('',#463);
#19=PLANE('',#464);
#20=PLANE('',#465);
#21=PLANE('',#470);
#22=PLANE('',#471);
#23=PLANE('',#472);
#24=PLANE('',#477);
#25=PLANE('',#478);
#26=LINE('',#609,#58);
#27=LINE('',#614,#59);
#28=LINE('',#618,#60);
#29=LINE('',#622,#61);
#30=LINE('',#626,#62);
#31=LINE('',#630,#63);
#32=LINE('',#634,#64);
#33=LINE('',#638,#65);
#34=LINE('',#647,#66);
#35=LINE('',#651,#67);
#36=LINE('',#654,#68);
#37=LINE('',#655,#69);
#38=LINE('',#659,#70);
#39=LINE('',#660,#71);
#40=LINE('',#664,#72);
#41=LINE('',#665,#73);
#42=LINE('',#669,#74);
#43=LINE('',#670,#75);
#44=LINE('',#678,#76);
#45=LINE('',#680,#77);
#46=LINE('',#683,#78);
#47=LINE('',#685,#79);
#48=LINE('',#689,#80);
#49=LINE('',#694,#81);
#50=LINE('',#697,#82);
#51=LINE('',#699,#83);
#52=LINE('',#703,#84);
#53=LINE('',#708,#85);
#54=LINE('',#711,#86);
#55=LINE('',#713,#87);
#56=LINE('',#717,#88);
#57=LINE('',#722,#89);
#58=VECTOR('',#485,1.);
#59=VECTOR('',#488,1.);
#60=VECTOR('',#491,1.);
#61=VECTOR('',#494,1.);
#62=VECTOR('',#497,1.);
#63=VECTOR('',#500,1.);
#64=VECTOR('',#503,1.);
#65=VECTOR('',#506,1.);
#66=VECTOR('',#515,1.);
#67=VECTOR('',#518,1.);
#68=VECTOR('',#523,1.);
#69=VECTOR('',#524,1.);
#70=VECTOR('',#527,1.);
#71=VECTOR('',#528,1.);
#72=VECTOR('',#531,1.);
#73=VECTOR('',#532,1.);
#74=VECTOR('',#535,1.);
#75=VECTOR('',#536,1.);
#76=VECTOR('',#545,1.);
#77=VECTOR('',#548,1.);
#78=VECTOR('',#553,1.);
#79=VECTOR('',#554,1.);
#80=VECTOR('',#559,1.);
#81=VECTOR('',#566,1.);
#82=VECTOR('',#571,1.);
#83=VECTOR('',#572,1.);
#84=VECTOR('',#577,1.);
#85=VECTOR('',#584,1.);
#86=VECTOR('',#589,1.);
#87=VECTOR('',#590,1.);
#88=VECTOR('',#595,1.);
#89=VECTOR('',#602,1.);
#90=ORIENTED_EDGE('',*,*,#202,.F.);
#91=ORIENTED_EDGE('',*,*,#203,.F.);
#92=ORIENTED_EDGE('',*,*,#204,.T.);
#93=ORIENTED_EDGE('',*,*,#205,.T.);
#94=ORIENTED_EDGE('',*,*,#206,.T.);
#95=ORIENTED_EDGE('',*,*,#207,.F.);
#96=ORIENTED_EDGE('',*,*,#208,.T.);
#97=ORIENTED_EDGE('',*,*,#209,.T.);
#98=ORIENTED_EDGE('',*,*,#210,.T.);
#99=ORIENTED_EDGE('',*,*,#211,.F.);
#100=ORIENTED_EDGE('',*,*,#212,.T.);
#101=ORIENTED_EDGE('',*,*,#213,.T.);
#102=ORIENTED_EDGE('',*,*,#214,.T.);
#103=ORIENTED_EDGE('',*,*,#215,.F.);
#104=ORIENTED_EDGE('',*,*,#216,.T.);
#105=ORIENTED_EDGE('',*,*,#217,.T.);
#106=ORIENTED_EDGE('',*,*,#218,.T.);
#107=ORIENTED_EDGE('',*,*,#219,.T.);
#108=ORIENTED_EDGE('',*,*,#220,.F.);
#109=ORIENTED_EDGE('',*,*,#221,.T.);
#110=ORIENTED_EDGE('',*,*,#222,.F.);
#111=ORIENTED_EDGE('',*,*,#223,.F.);
#112=ORIENTED_EDGE('',*,*,#202,.T.);
#113=ORIENTED_EDGE('',*,*,#219,.F.);
#114=ORIENTED_EDGE('',*,*,#222,.T.);
#115=ORIENTED_EDGE('',*,*,#224,.T.);
#116=ORIENTED_EDGE('',*,*,#210,.F.);
#117=ORIENTED_EDGE('',*,*,#225,.T.);
#118=ORIENTED_EDGE('',*,*,#226,.F.);
#119=ORIENTED_EDGE('',*,*,#227,.F.);
#120=ORIENTED_EDGE('',*,*,#206,.F.);
#121=ORIENTED_EDGE('',*,*,#228,.T.);
#122=ORIENTED_EDGE('',*,*,#229,.F.);
#123=ORIENTED_EDGE('',*,*,#230,.F.);
#124=ORIENTED_EDGE('',*,*,#218,.F.);
#125=ORIENTED_EDGE('',*,*,#231,.T.);
#126=ORIENTED_EDGE('',*,*,#232,.F.);
#127=ORIENTED_EDGE('',*,*,#233,.F.);
#128=ORIENTED_EDGE('',*,*,#214,.F.);
#129=ORIENTED_EDGE('',*,*,#234,.F.);
#130=ORIENTED_EDGE('',*,*,#235,.F.);
#131=ORIENTED_EDGE('',*,*,#236,.F.);
#132=ORIENTED_EDGE('',*,*,#237,.F.);
#133=ORIENTED_EDGE('',*,*,#234,.T.);
#134=ORIENTED_EDGE('',*,*,#213,.F.);
#135=ORIENTED_EDGE('',*,*,#238,.F.);
#136=ORIENTED_EDGE('',*,*,#223,.T.);
#137=ORIENTED_EDGE('',*,*,#224,.F.);
#138=ORIENTED_EDGE('',*,*,#221,.F.);
#139=ORIENTED_EDGE('',*,*,#239,.T.);
#140=ORIENTED_EDGE('',*,*,#211,.T.);
#141=ORIENTED_EDGE('',*,*,#220,.T.);
#142=ORIENTED_EDGE('',*,*,#238,.T.);
#143=ORIENTED_EDGE('',*,*,#212,.F.);
#144=ORIENTED_EDGE('',*,*,#239,.F.);
#145=ORIENTED_EDGE('',*,*,#225,.F.);
#146=ORIENTED_EDGE('',*,*,#209,.F.);
#147=ORIENTED_EDGE('',*,*,#240,.T.);
#148=ORIENTED_EDGE('',*,*,#241,.T.);
#149=ORIENTED_EDGE('',*,*,#226,.T.);
#150=ORIENTED_EDGE('',*,*,#241,.F.);
#151=ORIENTED_EDGE('',*,*,#242,.F.);
#152=ORIENTED_EDGE('',*,*,#243,.T.);
#153=ORIENTED_EDGE('',*,*,#244,.F.);
#154=ORIENTED_EDGE('',*,*,#235,.T.);
#155=ORIENTED_EDGE('',*,*,#227,.T.);
#156=ORIENTED_EDGE('',*,*,#243,.F.);
#157=ORIENTED_EDGE('',*,*,#245,.F.);
#158=ORIENTED_EDGE('',*,*,#207,.T.);
#159=ORIENTED_EDGE('',*,*,#244,.T.);
#160=ORIENTED_EDGE('',*,*,#208,.F.);
#161=ORIENTED_EDGE('',*,*,#245,.T.);
#162=ORIENTED_EDGE('',*,*,#242,.T.);
#163=ORIENTED_EDGE('',*,*,#240,.F.);
#164=ORIENTED_EDGE('',*,*,#231,.F.);
#165=ORIENTED_EDGE('',*,*,#217,.F.);
#166=ORIENTED_EDGE('',*,*,#246,.T.);
#167=ORIENTED_EDGE('',*,*,#247,.T.);
#168=ORIENTED_EDGE('',*,*,#232,.T.);
#169=ORIENTED_EDGE('',*,*,#247,.F.);
#170=ORIENTED_EDGE('',*,*,#248,.F.);
#171=ORIENTED_EDGE('',*,*,#249,.T.);
#172=ORIENTED_EDGE('',*,*,#250,.F.);
#173=ORIENTED_EDGE('',*,*,#236,.T.);
#174=ORIENTED_EDGE('',*,*,#233,.T.);
#175=ORIENTED_EDGE('',*,*,#249,.F.);
#176=ORIENTED_EDGE('',*,*,#251,.F.);
#177=ORIENTED_EDGE('',*,*,#215,.T.);
#178=ORIENTED_EDGE('',*,*,#250,.T.);
#179=ORIENTED_EDGE('',*,*,#216,.F.);
#180=ORIENTED_EDGE('',*,*,#251,.T.);
#181=ORIENTED_EDGE('',*,*,#248,.T.);
#182=ORIENTED_EDGE('',*,*,#246,.F.);
#183=ORIENTED_EDGE('',*,*,#228,.F.);
#184=ORIENTED_EDGE('',*,*,#205,.F.);
#185=ORIENTED_EDGE('',*,*,#252,.T.);
#186=ORIENTED_EDGE('',*,*,#253,.T.);
#187=ORIENTED_EDGE('',*,*,#229,.T.);
#188=ORIENTED_EDGE('',*,*,#253,.F.);
#189=ORIENTED_EDGE('',*,*,#254,.F.);
#190=ORIENTED_EDGE('',*,*,#255,.T.);
#191=ORIENTED_EDGE('',*,*,#256,.F.);
#192=ORIENTED_EDGE('',*,*,#237,.T.);
#193=ORIENTED_EDGE('',*,*,#230,.T.);
#194=ORIENTED_EDGE('',*,*,#255,.F.);
#195=ORIENTED_EDGE('',*,*,#257,.F.);
#196=ORIENTED_EDGE('',*,*,#203,.T.);
#197=ORIENTED_EDGE('',*,*,#256,.T.);
#198=ORIENTED_EDGE('',*,*,#204,.F.);
#199=ORIENTED_EDGE('',*,*,#257,.T.);
#200=ORIENTED_EDGE('',*,*,#254,.T.);
#201=ORIENTED_EDGE('',*,*,#252,.F.);
#202=EDGE_CURVE('',#258,#258,#298,.T.);
#203=EDGE_CURVE('',#259,#260,#26,.T.);
#204=EDGE_CURVE('',#259,#261,#299,.T.);
#205=EDGE_CURVE('',#261,#262,#27,.T.);
#206=EDGE_CURVE('',#262,#263,#300,.T.);
#207=EDGE_CURVE('',#264,#263,#28,.T.);
#208=EDGE_CURVE('',#264,#265,#301,.T.);
#209=EDGE_CURVE('',#265,#266,#29,.T.);
#210=EDGE_CURVE('',#266,#267,#302,.T.);
#211=EDGE_CURVE('',#268,#267,#30,.T.);
#212=EDGE_CURVE('',#268,#269,#303,.T.);
#213=EDGE_CURVE('',#269,#270,#31,.T.);
#214=EDGE_CURVE('',#270,#271,#304,.T.);
#215=EDGE_CURVE('',#272,#271,#32,.T.);
#216=EDGE_CURVE('',#272,#273,#305,.T.);
#217=EDGE_CURVE('',#273,#274,#33,.T.);
#218=EDGE_CURVE('',#274,#260,#306,.T.);
#219=EDGE_CURVE('',#275,#275,#307,.T.);
#220=EDGE_CURVE('',#276,#277,#308,.T.);
#221=EDGE_CURVE('',#276,#278,#34,.T.);
#222=EDGE_CURVE('',#279,#278,#309,.T.);
#223=EDGE_CURVE('',#277,#279,#35,.T.);
#224=EDGE_CURVE('',#278,#267,#36,.T.);
#225=EDGE_CURVE('',#266,#280,#37,.T.);
#226=EDGE_CURVE('',#281,#280,#310,.T.);
#227=EDGE_CURVE('',#263,#281,#38,.T.);
#228=EDGE_CURVE('',#262,#282,#39,.T.);
#229=EDGE_CURVE('',#283,#282,#311,.T.);
#230=EDGE_CURVE('',#260,#283,#40,.T.);
#231=EDGE_CURVE('',#274,#284,#41,.T.);
#232=EDGE_CURVE('',#285,#284,#312,.T.);
#233=EDGE_CURVE('',#271,#285,#42,.T.);
#234=EDGE_CURVE('',#279,#270,#43,.T.);
#235=EDGE_CURVE('',#286,#286,#313,.T.);
#236=EDGE_CURVE('',#287,#287,#314,.T.);
#237=EDGE_CURVE('',#288,#288,#315,.T.);
#238=EDGE_CURVE('',#277,#269,#44,.T.);
#239=EDGE_CURVE('',#276,#268,#45,.T.);
#240=EDGE_CURVE('',#265,#289,#46,.T.);
#241=EDGE_CURVE('',#289,#280,#47,.T.);
#242=EDGE_CURVE('',#290,#289,#316,.T.);
#243=EDGE_CURVE('',#290,#281,#48,.T.);
#244=EDGE_CURVE('',#291,#291,#317,.T.);
#245=EDGE_CURVE('',#264,#290,#49,.T.);
#246=EDGE_CURVE('',#273,#292,#50,.T.);
#247=EDGE_CURVE('',#292,#284,#51,.T.);
#248=EDGE_CURVE('',#293,#292,#318,.T.);
#249=EDGE_CURVE('',#293,#285,#52,.T.);
#250=EDGE_CURVE('',#294,#294,#319,.T.);
#251=EDGE_CURVE('',#272,#293,#53,.T.);
#252=EDGE_CURVE('',#261,#295,#54,.T.);
#253=EDGE_CURVE('',#295,#282,#55,.T.);
#254=EDGE_CURVE('',#296,#295,#320,.T.);
#255=EDGE_CURVE('',#296,#283,#56,.T.);
#256=EDGE_CURVE('',#297,#297,#321,.T.);
#257=EDGE_CURVE('',#259,#296,#57,.T.);
#258=VERTEX_POINT('',#608);
#259=VERTEX_POINT('',#610);
#260=VERTEX_POINT('',#611);
#261=VERTEX_POINT('',#613);
#262=VERTEX_POINT('',#615);
#263=VERTEX_POINT('',#617);
#264=VERTEX_POINT('',#619);
#265=VERTEX_POINT('',#621);
#266=VERTEX_POINT('',#623);
#267=VERTEX_POINT('',#625);
#268=VERTEX_POINT('',#627);
#269=VERTEX_POINT('',#629);
#270=VERTEX_POINT('',#631);
#271=VERTEX_POINT('',#633);
#272=VERTEX_POINT('',#635);
#273=VERTEX_POINT('',#637);
#274=VERTEX_POINT('',#639);
#275=VERTEX_POINT('',#643);
#276=VERTEX_POINT('',#645);
#277=VERTEX_POINT('',#646);
#278=VERTEX_POINT('',#648);
#279=VERTEX_POINT('',#650);
#280=VERTEX_POINT('',#656);
#281=VERTEX_POINT('',#658);
#282=VERTEX_POINT('',#661);
#283=VERTEX_POINT('',#663);
#284=VERTEX_POINT('',#666);
#285=VERTEX_POINT('',#668);
#286=VERTEX_POINT('',#672);
#287=VERTEX_POINT('',#674);
#288=VERTEX_POINT('',#676);
#289=VERTEX_POINT('',#684);
#290=VERTEX_POINT('',#688);
#291=VERTEX_POINT('',#692);
#292=VERTEX_POINT('',#698);
#293=VERTEX_POINT('',#702);
#294=VERTEX_POINT('',#706);
#295=VERTEX_POINT('',#712);
#296=VERTEX_POINT('',#716);
#297=VERTEX_POINT('',#720);
#298=CIRCLE('',#434,0.023);
#299=CIRCLE('',#435,0.023);
#300=CIRCLE('',#436,0.023);
#301=CIRCLE('',#437,0.023);
#302=CIRCLE('',#438,0.023);
#303=CIRCLE('',#439,0.023);
#304=CIRCLE('',#440,0.023);
#305=CIRCLE('',#441,0.023);
#306=CIRCLE('',#442,0.023);
#307=CIRCLE('',#444,0.02025);
#308=CIRCLE('',#445,0.02025);
#309=CIRCLE('',#446,0.02025);
#310=CIRCLE('',#449,0.004);
#311=CIRCLE('',#450,0.004);
#312=CIRCLE('',#451,0.004);
#313=CIRCLE('',#452,0.002);
#314=CIRCLE('',#453,0.002);
#315=CIRCLE('',#454,0.002);
#316=CIRCLE('',#460,0.004);
#317=CIRCLE('',#462,0.002);
#318=CIRCLE('',#467,0.004);
#319=CIRCLE('',#469,0.002);
#320=CIRCLE('',#474,0.004);
#321=CIRCLE('',#476,0.002);
#322=EDGE_LOOP('',(#90));
#323=EDGE_LOOP('',(#91,#92,#93,#94,#95,#96,#97,#98,#99,#100,#101,#102,#103,
#104,#105,#106));
#324=EDGE_LOOP('',(#107));
#325=EDGE_LOOP('',(#108,#109,#110,#111));
#326=EDGE_LOOP('',(#112));
#327=EDGE_LOOP('',(#113));
#328=EDGE_LOOP('',(#114,#115,#116,#117,#118,#119,#120,#121,#122,#123,#124,
#125,#126,#127,#128,#129));
#329=EDGE_LOOP('',(#130));
#330=EDGE_LOOP('',(#131));
#331=EDGE_LOOP('',(#132));
#332=EDGE_LOOP('',(#133,#134,#135,#136));
#333=EDGE_LOOP('',(#137,#138,#139,#140));
#334=EDGE_LOOP('',(#141,#142,#143,#144));
#335=EDGE_LOOP('',(#145,#146,#147,#148));
#336=EDGE_LOOP('',(#149,#150,#151,#152));
#337=EDGE_LOOP('',(#153));
#338=EDGE_LOOP('',(#154));
#339=EDGE_LOOP('',(#155,#156,#157,#158));
#340=EDGE_LOOP('',(#159));
#341=EDGE_LOOP('',(#160,#161,#162,#163));
#342=EDGE_LOOP('',(#164,#165,#166,#167));
#343=EDGE_LOOP('',(#168,#169,#170,#171));
#344=EDGE_LOOP('',(#172));
#345=EDGE_LOOP('',(#173));
#346=EDGE_LOOP('',(#174,#175,#176,#177));
#347=EDGE_LOOP('',(#178));
#348=EDGE_LOOP('',(#179,#180,#181,#182));
#349=EDGE_LOOP('',(#183,#184,#185,#186));
#350=EDGE_LOOP('',(#187,#188,#189,#190));
#351=EDGE_LOOP('',(#191));
#352=EDGE_LOOP('',(#192));
#353=EDGE_LOOP('',(#193,#194,#195,#196));
#354=EDGE_LOOP('',(#197));
#355=EDGE_LOOP('',(#198,#199,#200,#201));
#356=FACE_BOUND('',#322,.T.);
#357=FACE_BOUND('',#323,.T.);
#358=FACE_BOUND('',#324,.T.);
#359=FACE_BOUND('',#325,.T.);
#360=FACE_BOUND('',#326,.T.);
#361=FACE_BOUND('',#327,.T.);
#362=FACE_BOUND('',#328,.T.);
#363=FACE_BOUND('',#329,.T.);
#364=FACE_BOUND('',#330,.T.);
#365=FACE_BOUND('',#331,.T.);
#366=FACE_BOUND('',#332,.T.);
#367=FACE_BOUND('',#333,.T.);
#368=FACE_BOUND('',#334,.T.);
#369=FACE_BOUND('',#335,.T.);
#370=FACE_BOUND('',#336,.T.);
#371=FACE_BOUND('',#337,.T.);
#372=FACE_BOUND('',#338,.T.);
#373=FACE_BOUND('',#339,.T.);
#374=FACE_BOUND('',#340,.T.);
#375=FACE_BOUND('',#341,.T.);
#376=FACE_BOUND('',#342,.T.);
#377=FACE_BOUND('',#343,.T.);
#378=FACE_BOUND('',#344,.T.);
#379=FACE_BOUND('',#345,.T.);
#380=FACE_BOUND('',#346,.T.);
#381=FACE_BOUND('',#347,.T.);
#382=FACE_BOUND('',#348,.T.);
#383=FACE_BOUND('',#349,.T.);
#384=FACE_BOUND('',#350,.T.);
#385=FACE_BOUND('',#351,.T.);
#386=FACE_BOUND('',#352,.T.);
#387=FACE_BOUND('',#353,.T.);
#388=FACE_BOUND('',#354,.T.);
#389=FACE_BOUND('',#355,.T.);
#390=CYLINDRICAL_SURFACE('',#433,0.023);
#391=CYLINDRICAL_SURFACE('',#443,0.02025);
#392=CYLINDRICAL_SURFACE('',#459,0.004);
#393=CYLINDRICAL_SURFACE('',#461,0.002);
#394=CYLINDRICAL_SURFACE('',#466,0.004);
#395=CYLINDRICAL_SURFACE('',#468,0.002);
#396=CYLINDRICAL_SURFACE('',#473,0.004);
#397=CYLINDRICAL_SURFACE('',#475,0.002);
#398=ADVANCED_FACE('',(#356,#357),#390,.T.);
#399=ADVANCED_FACE('',(#358,#359),#391,.F.);
#400=ADVANCED_FACE('',(#360,#361),#12,.T.);
#401=ADVANCED_FACE('',(#362,#363,#364,#365),#13,.F.);
#402=ADVANCED_FACE('',(#366),#14,.F.);
#403=ADVANCED_FACE('',(#367),#15,.T.);
#404=ADVANCED_FACE('',(#368),#16,.T.);
#405=ADVANCED_FACE('',(#369),#17,.T.);
#406=ADVANCED_FACE('',(#370),#392,.T.);
#407=ADVANCED_FACE('',(#371,#372),#393,.F.);
#408=ADVANCED_FACE('',(#373),#18,.F.);
#409=ADVANCED_FACE('',(#374,#375),#19,.F.);
#410=ADVANCED_FACE('',(#376),#20,.T.);
#411=ADVANCED_FACE('',(#377),#394,.T.);
#412=ADVANCED_FACE('',(#378,#379),#395,.F.);
#413=ADVANCED_FACE('',(#380),#21,.F.);
#414=ADVANCED_FACE('',(#381,#382),#22,.F.);
#415=ADVANCED_FACE('',(#383),#23,.T.);
#416=ADVANCED_FACE('',(#384),#396,.T.);
#417=ADVANCED_FACE('',(#385,#386),#397,.F.);
#418=ADVANCED_FACE('',(#387),#24,.F.);
#419=ADVANCED_FACE('',(#388,#389),#25,.F.);
#420=CLOSED_SHELL('',(#398,#399,#400,#401,#402,#403,#404,#405,#406,#407,
#408,#409,#410,#411,#412,#413,#414,#415,#416,#417,#418,#419));
#421=STYLED_ITEM('',(#422),#429);
#422=PRESENTATION_STYLE_ASSIGNMENT((#423));
#423=SURFACE_STYLE_USAGE(.BOTH.,#424);
#424=SURFACE_SIDE_STYLE('',(#425));
#425=SURFACE_STYLE_FILL_AREA(#426);
#426=FILL_AREA_STYLE('',(#427));
#427=FILL_AREA_STYLE_COLOUR('',#428);
#428=COLOUR_RGB('',0.231372549019608,0.380392156862745,0.705882352941177);
#429=MANIFOLD_SOLID_BREP('Lens Mount',#420);
#430=SHAPE_DEFINITION_REPRESENTATION(#730,#431);
#431=SHAPE_REPRESENTATION('Lens Mount',(#432),#725);
#432=AXIS2_PLACEMENT_3D('',#605,#479,#480);
#433=AXIS2_PLACEMENT_3D('',#606,#481,#482);
#434=AXIS2_PLACEMENT_3D('',#607,#483,#484);
#435=AXIS2_PLACEMENT_3D('',#612,#486,#487);
#436=AXIS2_PLACEMENT_3D('',#616,#489,#490);
#437=AXIS2_PLACEMENT_3D('',#620,#492,#493);
#438=AXIS2_PLACEMENT_3D('',#624,#495,#496);
#439=AXIS2_PLACEMENT_3D('',#628,#498,#499);
#440=AXIS2_PLACEMENT_3D('',#632,#501,#502);
#441=AXIS2_PLACEMENT_3D('',#636,#504,#505);
#442=AXIS2_PLACEMENT_3D('',#640,#507,#508);
#443=AXIS2_PLACEMENT_3D('',#641,#509,#510);
#444=AXIS2_PLACEMENT_3D('',#642,#511,#512);
#445=AXIS2_PLACEMENT_3D('',#644,#513,#514);
#446=AXIS2_PLACEMENT_3D('',#649,#516,#517);
#447=AXIS2_PLACEMENT_3D('',#652,#519,#520);
#448=AXIS2_PLACEMENT_3D('',#653,#521,#522);
#449=AXIS2_PLACEMENT_3D('',#657,#525,#526);
#450=AXIS2_PLACEMENT_3D('',#662,#529,#530);
#451=AXIS2_PLACEMENT_3D('',#667,#533,#534);
#452=AXIS2_PLACEMENT_3D('',#671,#537,#538);
#453=AXIS2_PLACEMENT_3D('',#673,#539,#540);
#454=AXIS2_PLACEMENT_3D('',#675,#541,#542);
#455=AXIS2_PLACEMENT_3D('',#677,#543,#544);
#456=AXIS2_PLACEMENT_3D('',#679,#546,#547);
#457=AXIS2_PLACEMENT_3D('',#681,#549,#550);
#458=AXIS2_PLACEMENT_3D('',#682,#551,#552);
#459=AXIS2_PLACEMENT_3D('',#686,#555,#556);
#460=AXIS2_PLACEMENT_3D('',#687,#557,#558);
#461=AXIS2_PLACEMENT_3D('',#690,#560,#561);
#462=AXIS2_PLACEMENT_3D('',#691,#562,#563);
#463=AXIS2_PLACEMENT_3D('',#693,#564,#565);
#464=AXIS2_PLACEMENT_3D('',#695,#567,#568);
#465=AXIS2_PLACEMENT_3D('',#696,#569,#570);
#466=AXIS2_PLACEMENT_3D('',#700,#573,#574);
#467=AXIS2_PLACEMENT_3D('',#701,#575,#576);
#468=AXIS2_PLACEMENT_3D('',#704,#578,#579);
#469=AXIS2_PLACEMENT_3D('',#705,#580,#581);
#470=AXIS2_PLACEMENT_3D('',#707,#582,#583);
#471=AXIS2_PLACEMENT_3D('',#709,#585,#586);
#472=AXIS2_PLACEMENT_3D('',#710,#587,#588);
#473=AXIS2_PLACEMENT_3D('',#714,#591,#592);
#474=AXIS2_PLACEMENT_3D('',#715,#593,#594);
#475=AXIS2_PLACEMENT_3D('',#718,#596,#597);
#476=AXIS2_PLACEMENT_3D('',#719,#598,#599);
#477=AXIS2_PLACEMENT_3D('',#721,#600,#601);
#478=AXIS2_PLACEMENT_3D('',#723,#603,#604);
#479=DIRECTION('',(0.,0.,1.));
#480=DIRECTION('',(1.,0.,0.));
#481=DIRECTION('',(0.,0.,1.));
#482=DIRECTION('',(1.,0.,0.));
#483=DIRECTION('',(0.,0.,-1.));
#484=DIRECTION('',(-1.,0.,0.));
#485=DIRECTION('',(0.,0.,1.));
#486=DIRECTION('',(0.,0.,-1.));
#487=DIRECTION('',(-1.,0.,0.));
#488=DIRECTION('',(0.,0.,1.));
#489=DIRECTION('',(0.,0.,-1.));
#490=DIRECTION('',(-1.,0.,0.));
#491=DIRECTION('',(0.,0.,1.));
#492=DIRECTION('',(0.,0.,-1.));
#493=DIRECTION('',(-1.,0.,0.));
#494=DIRECTION('',(0.,0.,1.));
#495=DIRECTION('',(0.,0.,-1.));
#496=DIRECTION('',(-1.,0.,0.));
#497=DIRECTION('',(0.,0.,1.));
#498=DIRECTION('',(0.,0.,-1.));
#499=DIRECTION('',(-1.,0.,0.));
#500=DIRECTION('',(0.,0.,1.));
#501=DIRECTION('',(0.,0.,-1.));
#502=DIRECTION('',(-1.,0.,0.));
#503=DIRECTION('',(0.,0.,1.));
#504=DIRECTION('',(0.,0.,-1.));
#505=DIRECTION('',(-1.,0.,0.));
#506=DIRECTION('',(0.,0.,1.));
#507=DIRECTION('',(0.,0.,-1.));
#508=DIRECTION('',(-1.,0.,0.));
#509=DIRECTION('',(0.,0.,1.));
#510=DIRECTION('',(1.,0.,0.));
#511=DIRECTION('',(0.,0.,-1.));
#512=DIRECTION('',(-1.,0.,0.));
#513=DIRECTION('',(0.,0.,-1.));
#514=DIRECTION('',(-1.,0.,0.));
#515=DIRECTION('',(0.,0.,1.));
#516=DIRECTION('',(0.,0.,-1.));
#517=DIRECTION('',(-1.,0.,0.));
#518=DIRECTION('',(0.,0.,1.));
#519=DIRECTION('',(0.,0.,-1.));
#520=DIRECTION('',(1.,0.,0.));
#521=DIRECTION('',(0.,0.,-1.));
#522=DIRECTION('',(1.,0.,0.));
#523=DIRECTION('',(0.5,-0.866025403784438,0.));
#524=DIRECTION('',(0.866025403784439,-0.5,0.));
#525=DIRECTION('',(0.,0.,-1.));
#526=DIRECTION('',(1.,0.,0.));
#527=DIRECTION('',(0.866025403784438,-0.5,0.));
#528=DIRECTION('',(0.,1.,0.));
#529=DIRECTION('',(0.,0.,-1.));
#530=DIRECTION('',(1.,0.,0.));
#531=DIRECTION('',(0.,1.,0.));
#532=DIRECTION('',(-0.866025403784439,-0.5,0.));
#533=DIRECTION('',(0.,0.,-1.));
#534=DIRECTION('',(1.,0.,0.));
#535=DIRECTION('',(-0.866025403784439,-0.5,0.));
#536=DIRECTION('',(-0.5,-0.866025403784438,0.));
#537=DIRECTION('',(0.,0.,1.));
#538=DIRECTION('',(1.,0.,0.));
#539=DIRECTION('',(0.,0.,1.));
#540=DIRECTION('',(1.,0.,0.));
#541=DIRECTION('',(0.,0.,1.));
#542=DIRECTION('',(1.,0.,0.));
#543=DIRECTION('',(-0.866025403784438,0.5,0.));
#544=DIRECTION('',(-0.5,-0.866025403784438,0.));
#545=DIRECTION('',(-0.5,-0.866025403784438,0.));
#546=DIRECTION('',(-0.866025403784438,-0.5,0.));
#547=DIRECTION('',(0.5,-0.866025403784438,0.));
#548=DIRECTION('',(0.5,-0.866025403784438,0.));
#549=DIRECTION('',(0.,0.,1.));
#550=DIRECTION('',(1.,0.,0.));
#551=DIRECTION('',(-0.5,-0.866025403784439,0.));
#552=DIRECTION('',(0.866025403784439,-0.5,0.));
#553=DIRECTION('',(0.866025403784439,-0.5,0.));
#554=DIRECTION('',(0.,0.,1.));
#555=DIRECTION('',(0.,0.,1.));
#556=DIRECTION('',(1.,0.,0.));
#557=DIRECTION('',(0.,0.,-1.));
#558=DIRECTION('',(1.,0.,0.));
#559=DIRECTION('',(0.,0.,1.));
#560=DIRECTION('',(0.,0.,1.));
#561=DIRECTION('',(1.,0.,0.));
#562=DIRECTION('',(0.,0.,1.));
#563=DIRECTION('',(1.,0.,0.));
#564=DIRECTION('',(-0.5,-0.866025403784438,0.));
#565=DIRECTION('',(0.866025403784438,-0.5,0.));
#566=DIRECTION('',(0.866025403784438,-0.5,0.));
#567=DIRECTION('',(0.,0.,1.));
#568=DIRECTION('',(1.,0.,0.));
#569=DIRECTION('',(-0.5,0.866025403784439,0.));
#570=DIRECTION('',(-0.866025403784439,-0.5,0.));
#571=DIRECTION('',(-0.866025403784439,-0.5,0.));
#572=DIRECTION('',(0.,0.,1.));
#573=DIRECTION('',(0.,0.,1.));
#574=DIRECTION('',(1.,0.,0.));
#575=DIRECTION('',(0.,0.,-1.));
#576=DIRECTION('',(1.,0.,0.));
#577=DIRECTION('',(0.,0.,1.));
#578=DIRECTION('',(0.,0.,1.));
#579=DIRECTION('',(1.,0.,0.));
#580=DIRECTION('',(0.,0.,1.));
#581=DIRECTION('',(1.,0.,0.));
#582=DIRECTION('',(-0.5,0.866025403784439,0.));
#583=DIRECTION('',(-0.866025403784439,-0.5,0.));
#584=DIRECTION('',(-0.866025403784439,-0.5,0.));
#585=DIRECTION('',(0.,0.,1.));
#586=DIRECTION('',(1.,0.,0.));
#587=DIRECTION('',(1.,0.,0.));
#588=DIRECTION('',(0.,0.,-1.));
#589=DIRECTION('',(0.,1.,0.));
#590=DIRECTION('',(0.,0.,1.));
#591=DIRECTION('',(0.,0.,1.));
#592=DIRECTION('',(1.,0.,0.));
#593=DIRECTION('',(0.,0.,-1.));
#594=DIRECTION('',(1.,0.,0.));
#595=DIRECTION('',(0.,0.,1.));
#596=DIRECTION('',(0.,0.,1.));
#597=DIRECTION('',(1.,0.,0.));
#598=DIRECTION('',(0.,0.,1.));
#599=DIRECTION('',(1.,0.,0.));
#600=DIRECTION('',(1.,0.,0.));
#601=DIRECTION('',(0.,0.,-1.));
#602=DIRECTION('',(0.,1.,0.));
#603=DIRECTION('',(0.,0.,1.));
#604=DIRECTION('',(1.,0.,0.));
#605=CARTESIAN_POINT('',(0.,0.,0.));
#606=CARTESIAN_POINT('',(0.,-1.40834381901946E-18,-0.004));
#607=CARTESIAN_POINT('',(0.,-1.40834381901946E-18,-0.004));
#608=CARTESIAN_POINT('',(-0.023,-1.40834381901946E-18,-0.004));
#609=CARTESIAN_POINT('',(-0.004,0.0226495033058122,-0.003));
#610=CARTESIAN_POINT('',(-0.004,0.0226495033058122,-0.003));
#611=CARTESIAN_POINT('',(-0.004,0.0226495033058122,-0.001));
#612=CARTESIAN_POINT('',(0.,-1.40834381901946E-18,-0.003));
#613=CARTESIAN_POINT('',(0.004,0.0226495033058122,-0.003));
#614=CARTESIAN_POINT('',(0.004,0.0226495033058122,-0.003));
#615=CARTESIAN_POINT('',(0.004,0.0226495033058122,-0.001));
#616=CARTESIAN_POINT('',(0.,-1.40834381901946E-18,-0.001));
#617=CARTESIAN_POINT('',(0.021615045245933,-0.00786065003776838,-0.001));
#618=CARTESIAN_POINT('',(0.021615045245933,-0.00786065003776838,-0.003));
#619=CARTESIAN_POINT('',(0.021615045245933,-0.00786065003776838,-0.003));
#620=CARTESIAN_POINT('',(0.,-1.40834381901946E-18,-0.003));
#621=CARTESIAN_POINT('',(0.017615045245933,-0.0147888532680439,-0.003));
#622=CARTESIAN_POINT('',(0.017615045245933,-0.0147888532680439,-0.003));
#623=CARTESIAN_POINT('',(0.017615045245933,-0.0147888532680439,-0.001));
#624=CARTESIAN_POINT('',(0.,-1.40834381901946E-18,-0.001));
#625=CARTESIAN_POINT('',(0.0115,-0.0199185842870421,-0.001));
#626=CARTESIAN_POINT('',(0.0115,-0.0199185842870421,-0.0025));
#627=CARTESIAN_POINT('',(0.0115,-0.0199185842870421,-0.0025));
#628=CARTESIAN_POINT('',(0.,-1.40834381901946E-18,-0.0025));
#629=CARTESIAN_POINT('',(-0.0115,-0.0199185842870421,-0.0025));
#630=CARTESIAN_POINT('',(-0.0115,-0.0199185842870421,-0.0025));
#631=CARTESIAN_POINT('',(-0.0115,-0.0199185842870421,-0.001));
#632=CARTESIAN_POINT('',(0.,-1.40834381901946E-18,-0.001));
#633=CARTESIAN_POINT('',(-0.017615045245933,-0.0147888532680439,-0.001));
#634=CARTESIAN_POINT('',(-0.017615045245933,-0.0147888532680439,-0.003));
#635=CARTESIAN_POINT('',(-0.017615045245933,-0.0147888532680439,-0.003));
#636=CARTESIAN_POINT('',(0.,-1.40834381901946E-18,-0.003));
#637=CARTESIAN_POINT('',(-0.021615045245933,-0.00786065003776837,-0.003));
#638=CARTESIAN_POINT('',(-0.021615045245933,-0.00786065003776837,-0.003));
#639=CARTESIAN_POINT('',(-0.021615045245933,-0.00786065003776837,-0.001));
#640=CARTESIAN_POINT('',(0.,-1.40834381901946E-18,-0.001));
#641=CARTESIAN_POINT('',(0.,-1.23995488413669E-18,-0.004));
#642=CARTESIAN_POINT('',(0.,-1.23995488413669E-18,-0.004));
#643=CARTESIAN_POINT('',(-0.02025,-1.23995488413669E-18,-0.004));
#644=CARTESIAN_POINT('',(0.,-1.23995488413669E-18,-0.0025));
#645=CARTESIAN_POINT('',(0.010125,-0.0175370144266349,-0.0025));
#646=CARTESIAN_POINT('',(-0.010125,-0.0175370144266349,-0.0025));
#647=CARTESIAN_POINT('',(0.010125,-0.0175370144266349,-0.0025));
#648=CARTESIAN_POINT('',(0.010125,-0.0175370144266349,-0.001));
#649=CARTESIAN_POINT('',(0.,-1.23995488413669E-18,-0.001));
#650=CARTESIAN_POINT('',(-0.010125,-0.0175370144266349,-0.001));
#651=CARTESIAN_POINT('',(-0.010125,-0.0175370144266349,-0.0025));
#652=CARTESIAN_POINT('',(0.,0.,-0.004));
#653=CARTESIAN_POINT('',(0.,0.,-0.001));
#654=CARTESIAN_POINT('',(0.0108125,-0.0187277993568385,-0.001));
#655=CARTESIAN_POINT('',(0.0182433438134612,-0.0151516016151378,-0.001));
#656=CARTESIAN_POINT('',(0.0209496732002876,-0.0167141016151378,-0.001));
#657=CARTESIAN_POINT('',(0.0229496732002876,-0.01325,-0.001));
#658=CARTESIAN_POINT('',(0.0249496732002876,-0.00978589838486226,-0.001));
#659=CARTESIAN_POINT('',(0.0222433438134612,-0.00822339838486226,-0.001));
#660=CARTESIAN_POINT('',(0.004,0.023375,-0.001));
#661=CARTESIAN_POINT('',(0.004,0.0265,-0.001));
#662=CARTESIAN_POINT('',(0.,0.0265,-0.001));
#663=CARTESIAN_POINT('',(-0.004,0.0265,-0.001));
#664=CARTESIAN_POINT('',(-0.004,0.023375,-0.001));
#665=CARTESIAN_POINT('',(-0.0222433438134612,-0.00822339838486224,-0.001));
#666=CARTESIAN_POINT('',(-0.0249496732002876,-0.00978589838486224,-0.001));
#667=CARTESIAN_POINT('',(-0.0229496732002876,-0.01325,-0.001));
#668=CARTESIAN_POINT('',(-0.0209496732002876,-0.0167141016151378,-0.001));
#669=CARTESIAN_POINT('',(-0.0182433438134612,-0.0151516016151378,-0.001));
#670=CARTESIAN_POINT('',(-0.0108125,-0.0187277993568385,-0.001));
#671=CARTESIAN_POINT('',(0.0229496732002876,-0.01325,-0.001));
#672=CARTESIAN_POINT('',(0.0249496732002876,-0.01325,-0.001));
#673=CARTESIAN_POINT('',(-0.0229496732002876,-0.01325,-0.001));
#674=CARTESIAN_POINT('',(-0.0209496732002876,-0.01325,-0.001));
#675=CARTESIAN_POINT('',(0.,0.0265,-0.001));
#676=CARTESIAN_POINT('',(0.002,0.0265,-0.001));
#677=CARTESIAN_POINT('',(-0.0108125,-0.0187277993568385,-0.0025));
#678=CARTESIAN_POINT('',(-0.0108125,-0.0187277993568385,-0.0025));
#679=CARTESIAN_POINT('',(0.0108125,-0.0187277993568385,-0.0025));
#680=CARTESIAN_POINT('',(0.0108125,-0.0187277993568385,-0.0025));
#681=CARTESIAN_POINT('',(0.,-3.46944695195361E-18,-0.0025));
#682=CARTESIAN_POINT('',(0.0182433438134612,-0.0151516016151378,-0.003));
#683=CARTESIAN_POINT('',(0.0182433438134612,-0.0151516016151378,-0.003));
#684=CARTESIAN_POINT('',(0.0209496732002876,-0.0167141016151378,-0.003));
#685=CARTESIAN_POINT('',(0.0209496732002876,-0.0167141016151378,-0.003));
#686=CARTESIAN_POINT('',(0.0229496732002876,-0.01325,-0.003));
#687=CARTESIAN_POINT('',(0.0229496732002876,-0.01325,-0.003));
#688=CARTESIAN_POINT('',(0.0249496732002876,-0.00978589838486226,-0.003));
#689=CARTESIAN_POINT('',(0.0249496732002876,-0.00978589838486226,-0.003));
#690=CARTESIAN_POINT('',(0.0229496732002876,-0.01325,-0.003));
#691=CARTESIAN_POINT('',(0.0229496732002876,-0.01325,-0.003));
#692=CARTESIAN_POINT('',(0.0249496732002876,-0.01325,-0.003));
#693=CARTESIAN_POINT('',(0.0222433438134612,-0.00822339838486226,-0.003));
#694=CARTESIAN_POINT('',(0.0222433438134612,-0.00822339838486226,-0.003));
#695=CARTESIAN_POINT('',(0.,0.0074907406122115,-0.003));
#696=CARTESIAN_POINT('',(-0.0222433438134612,-0.00822339838486224,-0.003));
#697=CARTESIAN_POINT('',(-0.0222433438134612,-0.00822339838486224,-0.003));
#698=CARTESIAN_POINT('',(-0.0249496732002876,-0.00978589838486224,-0.003));
#699=CARTESIAN_POINT('',(-0.0249496732002876,-0.00978589838486224,-0.003));
#700=CARTESIAN_POINT('',(-0.0229496732002876,-0.01325,-0.003));
#701=CARTESIAN_POINT('',(-0.0229496732002876,-0.01325,-0.003));
#702=CARTESIAN_POINT('',(-0.0209496732002876,-0.0167141016151378,-0.003));
#703=CARTESIAN_POINT('',(-0.0209496732002876,-0.0167141016151378,-0.003));
#704=CARTESIAN_POINT('',(-0.0229496732002876,-0.01325,-0.003));
#705=CARTESIAN_POINT('',(-0.0229496732002876,-0.01325,-0.003));
#706=CARTESIAN_POINT('',(-0.0209496732002876,-0.01325,-0.003));
#707=CARTESIAN_POINT('',(-0.0182433438134612,-0.0151516016151378,-0.003));
#708=CARTESIAN_POINT('',(-0.0182433438134612,-0.0151516016151378,-0.003));
#709=CARTESIAN_POINT('',(0.,0.0074907406122115,-0.003));
#710=CARTESIAN_POINT('',(0.004,0.023375,-0.003));
#711=CARTESIAN_POINT('',(0.004,0.023375,-0.003));
#712=CARTESIAN_POINT('',(0.004,0.0265,-0.003));
#713=CARTESIAN_POINT('',(0.004,0.0265,-0.003));
#714=CARTESIAN_POINT('',(0.,0.0265,-0.003));
#715=CARTESIAN_POINT('',(0.,0.0265,-0.003));
#716=CARTESIAN_POINT('',(-0.004,0.0265,-0.003));
#717=CARTESIAN_POINT('',(-0.004,0.0265,-0.003));
#718=CARTESIAN_POINT('',(0.,0.0265,-0.003));
#719=CARTESIAN_POINT('',(0.,0.0265,-0.003));
#720=CARTESIAN_POINT('',(0.002,0.0265,-0.003));
#721=CARTESIAN_POINT('',(-0.004,0.023375,-0.003));
#722=CARTESIAN_POINT('',(-0.004,0.023375,-0.003));
#723=CARTESIAN_POINT('',(0.,0.0074907406122115,-0.003));
#724=MECHANICAL_DESIGN_GEOMETRIC_PRESENTATION_REPRESENTATION('',(#421),
#725);
#725=(
GEOMETRIC_REPRESENTATION_CONTEXT(3)
GLOBAL_UNCERTAINTY_ASSIGNED_CONTEXT((#726))
GLOBAL_UNIT_ASSIGNED_CONTEXT((#729,#728,#727))
REPRESENTATION_CONTEXT('Lens Mount','TOP_LEVEL_ASSEMBLY_PART')
);
#726=UNCERTAINTY_MEASURE_WITH_UNIT(LENGTH_MEASURE(1.E-8),#729,
'DISTANCE_ACCURACY_VALUE','Maximum Tolerance applied to model');
#727=(
NAMED_UNIT(*)
SI_UNIT($,.STERADIAN.)
SOLID_ANGLE_UNIT()
);
#728=(
NAMED_UNIT(*)
PLANE_ANGLE_UNIT()
SI_UNIT($,.RADIAN.)
);
#729=(
LENGTH_UNIT()
NAMED_UNIT(*)
SI_UNIT($,.METRE.)
);
#730=PRODUCT_DEFINITION_SHAPE('','',#731);
#731=PRODUCT_DEFINITION('','',#733,#732);
#732=PRODUCT_DEFINITION_CONTEXT('',#739,'design');
#733=PRODUCT_DEFINITION_FORMATION_WITH_SPECIFIED_SOURCE('','',#735,
 .NOT_KNOWN.);
#734=PRODUCT_RELATED_PRODUCT_CATEGORY('','',(#735));
#735=PRODUCT('Lens Mount','Lens Mount','Lens Mount',(#737));
#736=PRODUCT_CATEGORY('','');
#737=PRODUCT_CONTEXT('',#739,'mechanical');
#738=APPLICATION_PROTOCOL_DEFINITION('international standard',
'ap242_managed_model_based_3d_engineering',2020,#739);
#739=APPLICATION_CONTEXT('managed model based 3d engineering');
ENDSEC;
END-ISO-10303-21;
