ISO-10303-21;
HEADER;
/* Generated by software containing ST-Developer
 * from STEP Tools, Inc. (www.steptools.com) 
 */
/* OPTION: using custom renumber hook */

FILE_DESCRIPTION(
/* description */ ('STEP AP242 Edition 2',
'CAx-IF Rec.Pracs.---Representation and Presentation of Product Manufa
cturing Information (PMI)---4.0---2014-10-13',
'CAx-IF Rec.Pracs.---3D Tessellated Geometry---0.4---2014-09-14','2;1',
'CAx-IF Rec.Pracs.---User Defined Attributes---1.5---2016-08-15'),
/* implementation_level */ '2;1');

FILE_NAME(
/* name */ 'psArtDeco - Back',
/* time_stamp */ '2026-08-11T23:25:27Z',
/* author */ (''),
/* organization */ (''),
/* preprocessor_version */ 'ST-DEVELOPER v20',
/* originating_system */ 'ONSHAPE BY PTC INC, 1.219',
/* authorisation */ '  ');

FILE_SCHEMA (('AP242_MANAGED_MODEL_BASED_3D_ENGINEERING_MIM_LF { 1 0 10303 442 3 1 4 }'));
ENDSEC;

DATA;
#10=SHAPE_REPRESENTATION_RELATIONSHIP('','',#966,#11);
#11=ADVANCED_BREP_SHAPE_REPRESENTATION('',(#964),#1594);
#12=CYLINDRICAL_SURFACE('',#989,0.0005);
#13=CYLINDRICAL_SURFACE('',#993,0.0005);
#14=CYLINDRICAL_SURFACE('',#997,0.0005);
#15=CYLINDRICAL_SURFACE('',#1001,0.0133425599913093);
#16=CYLINDRICAL_SURFACE('',#1004,0.0025);
#17=CYLINDRICAL_SURFACE('',#1008,0.0025);
#18=CYLINDRICAL_SURFACE('',#1012,0.0290215808856535);
#19=CYLINDRICAL_SURFACE('',#1014,0.0290215808856535);
#20=CYLINDRICAL_SURFACE('',#1018,0.0025);
#21=CYLINDRICAL_SURFACE('',#1022,0.0025);
#22=CYLINDRICAL_SURFACE('',#1025,0.0133425599913093);
#23=CYLINDRICAL_SURFACE('',#1029,0.0005);
#24=CYLINDRICAL_SURFACE('',#1033,0.0005);
#25=CYLINDRICAL_SURFACE('',#1037,0.0015);
#26=CYLINDRICAL_SURFACE('',#1039,0.0005);
#27=CYLINDRICAL_SURFACE('',#1041,0.0015);
#28=CYLINDRICAL_SURFACE('',#1043,0.0015);
#29=CIRCLE('',#970,0.0015);
#30=CIRCLE('',#971,0.0015);
#31=CIRCLE('',#972,0.0015);
#32=CIRCLE('',#973,0.0005);
#33=CIRCLE('',#974,0.0005);
#34=CIRCLE('',#975,0.0005);
#35=CIRCLE('',#976,0.0133425599913093);
#36=CIRCLE('',#977,0.0025);
#37=CIRCLE('',#978,0.0025);
#38=CIRCLE('',#979,0.0290215808856535);
#39=CIRCLE('',#980,0.0290215808856535);
#40=CIRCLE('',#981,0.0025);
#41=CIRCLE('',#982,0.0025);
#42=CIRCLE('',#983,0.0133425599913093);
#43=CIRCLE('',#984,0.0005);
#44=CIRCLE('',#985,0.0005);
#45=CIRCLE('',#986,0.0005);
#46=CIRCLE('',#990,0.0005);
#47=CIRCLE('',#994,0.0005);
#48=CIRCLE('',#998,0.0005);
#49=CIRCLE('',#1002,0.0133425599913093);
#50=CIRCLE('',#1005,0.0025);
#51=CIRCLE('',#1009,0.0025);
#52=CIRCLE('',#1013,0.0290215808856535);
#53=CIRCLE('',#1015,0.0290215808856535);
#54=CIRCLE('',#1019,0.0025);
#55=CIRCLE('',#1023,0.0025);
#56=CIRCLE('',#1026,0.0133425599913093);
#57=CIRCLE('',#1030,0.0005);
#58=CIRCLE('',#1034,0.0005);
#59=CIRCLE('',#1038,0.0015);
#60=CIRCLE('',#1040,0.0005);
#61=CIRCLE('',#1042,0.0015);
#62=CIRCLE('',#1044,0.0015);
#63=ORIENTED_EDGE('',*,*,#333,.F.);
#64=ORIENTED_EDGE('',*,*,#334,.T.);
#65=ORIENTED_EDGE('',*,*,#335,.F.);
#66=ORIENTED_EDGE('',*,*,#336,.F.);
#67=ORIENTED_EDGE('',*,*,#337,.T.);
#68=ORIENTED_EDGE('',*,*,#338,.T.);
#69=ORIENTED_EDGE('',*,*,#339,.F.);
#70=ORIENTED_EDGE('',*,*,#340,.F.);
#71=ORIENTED_EDGE('',*,*,#341,.T.);
#72=ORIENTED_EDGE('',*,*,#342,.T.);
#73=ORIENTED_EDGE('',*,*,#343,.F.);
#74=ORIENTED_EDGE('',*,*,#344,.F.);
#75=ORIENTED_EDGE('',*,*,#339,.T.);
#76=ORIENTED_EDGE('',*,*,#345,.F.);
#77=ORIENTED_EDGE('',*,*,#346,.F.);
#78=ORIENTED_EDGE('',*,*,#347,.F.);
#79=ORIENTED_EDGE('',*,*,#348,.F.);
#80=ORIENTED_EDGE('',*,*,#349,.F.);
#81=ORIENTED_EDGE('',*,*,#350,.F.);
#82=ORIENTED_EDGE('',*,*,#351,.F.);
#83=ORIENTED_EDGE('',*,*,#352,.F.);
#84=ORIENTED_EDGE('',*,*,#353,.F.);
#85=ORIENTED_EDGE('',*,*,#354,.F.);
#86=ORIENTED_EDGE('',*,*,#355,.F.);
#87=ORIENTED_EDGE('',*,*,#356,.F.);
#88=ORIENTED_EDGE('',*,*,#357,.T.);
#89=ORIENTED_EDGE('',*,*,#358,.T.);
#90=ORIENTED_EDGE('',*,*,#359,.F.);
#91=ORIENTED_EDGE('',*,*,#360,.T.);
#92=ORIENTED_EDGE('',*,*,#361,.T.);
#93=ORIENTED_EDGE('',*,*,#362,.F.);
#94=ORIENTED_EDGE('',*,*,#363,.F.);
#95=ORIENTED_EDGE('',*,*,#364,.T.);
#96=ORIENTED_EDGE('',*,*,#365,.T.);
#97=ORIENTED_EDGE('',*,*,#366,.F.);
#98=ORIENTED_EDGE('',*,*,#367,.F.);
#99=ORIENTED_EDGE('',*,*,#368,.T.);
#100=ORIENTED_EDGE('',*,*,#369,.F.);
#101=ORIENTED_EDGE('',*,*,#370,.F.);
#102=ORIENTED_EDGE('',*,*,#371,.T.);
#103=ORIENTED_EDGE('',*,*,#372,.T.);
#104=ORIENTED_EDGE('',*,*,#373,.T.);
#105=ORIENTED_EDGE('',*,*,#374,.T.);
#106=ORIENTED_EDGE('',*,*,#375,.F.);
#107=ORIENTED_EDGE('',*,*,#376,.T.);
#108=ORIENTED_EDGE('',*,*,#377,.T.);
#109=ORIENTED_EDGE('',*,*,#378,.F.);
#110=ORIENTED_EDGE('',*,*,#379,.T.);
#111=ORIENTED_EDGE('',*,*,#380,.T.);
#112=ORIENTED_EDGE('',*,*,#381,.F.);
#113=ORIENTED_EDGE('',*,*,#382,.T.);
#114=ORIENTED_EDGE('',*,*,#335,.T.);
#115=ORIENTED_EDGE('',*,*,#383,.T.);
#116=ORIENTED_EDGE('',*,*,#384,.F.);
#117=ORIENTED_EDGE('',*,*,#345,.T.);
#118=ORIENTED_EDGE('',*,*,#338,.F.);
#119=ORIENTED_EDGE('',*,*,#385,.F.);
#120=ORIENTED_EDGE('',*,*,#386,.T.);
#121=ORIENTED_EDGE('',*,*,#382,.F.);
#122=ORIENTED_EDGE('',*,*,#387,.F.);
#123=ORIENTED_EDGE('',*,*,#388,.T.);
#124=ORIENTED_EDGE('',*,*,#336,.T.);
#125=ORIENTED_EDGE('',*,*,#381,.T.);
#126=ORIENTED_EDGE('',*,*,#389,.F.);
#127=ORIENTED_EDGE('',*,*,#390,.F.);
#128=ORIENTED_EDGE('',*,*,#387,.T.);
#129=ORIENTED_EDGE('',*,*,#380,.F.);
#130=ORIENTED_EDGE('',*,*,#391,.F.);
#131=ORIENTED_EDGE('',*,*,#392,.T.);
#132=ORIENTED_EDGE('',*,*,#389,.T.);
#133=ORIENTED_EDGE('',*,*,#379,.F.);
#134=ORIENTED_EDGE('',*,*,#393,.F.);
#135=ORIENTED_EDGE('',*,*,#394,.T.);
#136=ORIENTED_EDGE('',*,*,#391,.T.);
#137=ORIENTED_EDGE('',*,*,#378,.T.);
#138=ORIENTED_EDGE('',*,*,#395,.F.);
#139=ORIENTED_EDGE('',*,*,#396,.F.);
#140=ORIENTED_EDGE('',*,*,#393,.T.);
#141=ORIENTED_EDGE('',*,*,#377,.F.);
#142=ORIENTED_EDGE('',*,*,#397,.F.);
#143=ORIENTED_EDGE('',*,*,#398,.T.);
#144=ORIENTED_EDGE('',*,*,#395,.T.);
#145=ORIENTED_EDGE('',*,*,#376,.F.);
#146=ORIENTED_EDGE('',*,*,#399,.F.);
#147=ORIENTED_EDGE('',*,*,#400,.T.);
#148=ORIENTED_EDGE('',*,*,#397,.T.);
#149=ORIENTED_EDGE('',*,*,#375,.T.);
#150=ORIENTED_EDGE('',*,*,#401,.F.);
#151=ORIENTED_EDGE('',*,*,#402,.F.);
#152=ORIENTED_EDGE('',*,*,#399,.T.);
#153=ORIENTED_EDGE('',*,*,#374,.F.);
#154=ORIENTED_EDGE('',*,*,#403,.F.);
#155=ORIENTED_EDGE('',*,*,#404,.T.);
#156=ORIENTED_EDGE('',*,*,#401,.T.);
#157=ORIENTED_EDGE('',*,*,#373,.F.);
#158=ORIENTED_EDGE('',*,*,#405,.F.);
#159=ORIENTED_EDGE('',*,*,#406,.T.);
#160=ORIENTED_EDGE('',*,*,#403,.T.);
#161=ORIENTED_EDGE('',*,*,#372,.F.);
#162=ORIENTED_EDGE('',*,*,#407,.F.);
#163=ORIENTED_EDGE('',*,*,#408,.T.);
#164=ORIENTED_EDGE('',*,*,#405,.T.);
#165=ORIENTED_EDGE('',*,*,#371,.F.);
#166=ORIENTED_EDGE('',*,*,#409,.F.);
#167=ORIENTED_EDGE('',*,*,#410,.T.);
#168=ORIENTED_EDGE('',*,*,#407,.T.);
#169=ORIENTED_EDGE('',*,*,#370,.T.);
#170=ORIENTED_EDGE('',*,*,#411,.F.);
#171=ORIENTED_EDGE('',*,*,#412,.F.);
#172=ORIENTED_EDGE('',*,*,#409,.T.);
#173=ORIENTED_EDGE('',*,*,#369,.T.);
#174=ORIENTED_EDGE('',*,*,#413,.F.);
#175=ORIENTED_EDGE('',*,*,#414,.F.);
#176=ORIENTED_EDGE('',*,*,#411,.T.);
#177=ORIENTED_EDGE('',*,*,#368,.F.);
#178=ORIENTED_EDGE('',*,*,#415,.F.);
#179=ORIENTED_EDGE('',*,*,#416,.T.);
#180=ORIENTED_EDGE('',*,*,#413,.T.);
#181=ORIENTED_EDGE('',*,*,#367,.T.);
#182=ORIENTED_EDGE('',*,*,#417,.F.);
#183=ORIENTED_EDGE('',*,*,#418,.F.);
#184=ORIENTED_EDGE('',*,*,#415,.T.);
#185=ORIENTED_EDGE('',*,*,#366,.T.);
#186=ORIENTED_EDGE('',*,*,#419,.F.);
#187=ORIENTED_EDGE('',*,*,#420,.F.);
#188=ORIENTED_EDGE('',*,*,#417,.T.);
#189=ORIENTED_EDGE('',*,*,#365,.F.);
#190=ORIENTED_EDGE('',*,*,#421,.F.);
#191=ORIENTED_EDGE('',*,*,#422,.T.);
#192=ORIENTED_EDGE('',*,*,#419,.T.);
#193=ORIENTED_EDGE('',*,*,#364,.F.);
#194=ORIENTED_EDGE('',*,*,#423,.F.);
#195=ORIENTED_EDGE('',*,*,#424,.T.);
#196=ORIENTED_EDGE('',*,*,#421,.T.);
#197=ORIENTED_EDGE('',*,*,#363,.T.);
#198=ORIENTED_EDGE('',*,*,#425,.F.);
#199=ORIENTED_EDGE('',*,*,#426,.F.);
#200=ORIENTED_EDGE('',*,*,#423,.T.);
#201=ORIENTED_EDGE('',*,*,#362,.T.);
#202=ORIENTED_EDGE('',*,*,#427,.F.);
#203=ORIENTED_EDGE('',*,*,#428,.F.);
#204=ORIENTED_EDGE('',*,*,#425,.T.);
#205=ORIENTED_EDGE('',*,*,#361,.F.);
#206=ORIENTED_EDGE('',*,*,#429,.F.);
#207=ORIENTED_EDGE('',*,*,#430,.T.);
#208=ORIENTED_EDGE('',*,*,#427,.T.);
#209=ORIENTED_EDGE('',*,*,#360,.F.);
#210=ORIENTED_EDGE('',*,*,#431,.F.);
#211=ORIENTED_EDGE('',*,*,#432,.T.);
#212=ORIENTED_EDGE('',*,*,#429,.T.);
#213=ORIENTED_EDGE('',*,*,#359,.T.);
#214=ORIENTED_EDGE('',*,*,#433,.F.);
#215=ORIENTED_EDGE('',*,*,#434,.F.);
#216=ORIENTED_EDGE('',*,*,#431,.T.);
#217=ORIENTED_EDGE('',*,*,#358,.F.);
#218=ORIENTED_EDGE('',*,*,#435,.F.);
#219=ORIENTED_EDGE('',*,*,#436,.T.);
#220=ORIENTED_EDGE('',*,*,#433,.T.);
#221=ORIENTED_EDGE('',*,*,#357,.F.);
#222=ORIENTED_EDGE('',*,*,#437,.F.);
#223=ORIENTED_EDGE('',*,*,#438,.T.);
#224=ORIENTED_EDGE('',*,*,#435,.T.);
#225=ORIENTED_EDGE('',*,*,#356,.T.);
#226=ORIENTED_EDGE('',*,*,#439,.F.);
#227=ORIENTED_EDGE('',*,*,#440,.F.);
#228=ORIENTED_EDGE('',*,*,#437,.T.);
#229=ORIENTED_EDGE('',*,*,#355,.T.);
#230=ORIENTED_EDGE('',*,*,#441,.F.);
#231=ORIENTED_EDGE('',*,*,#442,.F.);
#232=ORIENTED_EDGE('',*,*,#439,.T.);
#233=ORIENTED_EDGE('',*,*,#354,.T.);
#234=ORIENTED_EDGE('',*,*,#443,.F.);
#235=ORIENTED_EDGE('',*,*,#444,.F.);
#236=ORIENTED_EDGE('',*,*,#441,.T.);
#237=ORIENTED_EDGE('',*,*,#353,.T.);
#238=ORIENTED_EDGE('',*,*,#445,.F.);
#239=ORIENTED_EDGE('',*,*,#446,.F.);
#240=ORIENTED_EDGE('',*,*,#443,.T.);
#241=ORIENTED_EDGE('',*,*,#352,.T.);
#242=ORIENTED_EDGE('',*,*,#447,.F.);
#243=ORIENTED_EDGE('',*,*,#448,.F.);
#244=ORIENTED_EDGE('',*,*,#445,.T.);
#245=ORIENTED_EDGE('',*,*,#351,.T.);
#246=ORIENTED_EDGE('',*,*,#449,.F.);
#247=ORIENTED_EDGE('',*,*,#450,.F.);
#248=ORIENTED_EDGE('',*,*,#447,.T.);
#249=ORIENTED_EDGE('',*,*,#350,.T.);
#250=ORIENTED_EDGE('',*,*,#451,.F.);
#251=ORIENTED_EDGE('',*,*,#452,.F.);
#252=ORIENTED_EDGE('',*,*,#449,.T.);
#253=ORIENTED_EDGE('',*,*,#349,.T.);
#254=ORIENTED_EDGE('',*,*,#453,.F.);
#255=ORIENTED_EDGE('',*,*,#454,.F.);
#256=ORIENTED_EDGE('',*,*,#451,.T.);
#257=ORIENTED_EDGE('',*,*,#348,.T.);
#258=ORIENTED_EDGE('',*,*,#455,.F.);
#259=ORIENTED_EDGE('',*,*,#456,.F.);
#260=ORIENTED_EDGE('',*,*,#453,.T.);
#261=ORIENTED_EDGE('',*,*,#347,.T.);
#262=ORIENTED_EDGE('',*,*,#457,.F.);
#263=ORIENTED_EDGE('',*,*,#458,.F.);
#264=ORIENTED_EDGE('',*,*,#455,.T.);
#265=ORIENTED_EDGE('',*,*,#459,.T.);
#266=ORIENTED_EDGE('',*,*,#342,.F.);
#267=ORIENTED_EDGE('',*,*,#346,.T.);
#268=ORIENTED_EDGE('',*,*,#386,.F.);
#269=ORIENTED_EDGE('',*,*,#460,.F.);
#270=ORIENTED_EDGE('',*,*,#457,.T.);
#271=ORIENTED_EDGE('',*,*,#461,.F.);
#272=ORIENTED_EDGE('',*,*,#343,.T.);
#273=ORIENTED_EDGE('',*,*,#462,.T.);
#274=ORIENTED_EDGE('',*,*,#341,.F.);
#275=ORIENTED_EDGE('',*,*,#461,.T.);
#276=ORIENTED_EDGE('',*,*,#385,.T.);
#277=ORIENTED_EDGE('',*,*,#337,.F.);
#278=ORIENTED_EDGE('',*,*,#388,.F.);
#279=ORIENTED_EDGE('',*,*,#390,.T.);
#280=ORIENTED_EDGE('',*,*,#392,.F.);
#281=ORIENTED_EDGE('',*,*,#394,.F.);
#282=ORIENTED_EDGE('',*,*,#396,.T.);
#283=ORIENTED_EDGE('',*,*,#398,.F.);
#284=ORIENTED_EDGE('',*,*,#400,.F.);
#285=ORIENTED_EDGE('',*,*,#402,.T.);
#286=ORIENTED_EDGE('',*,*,#404,.F.);
#287=ORIENTED_EDGE('',*,*,#406,.F.);
#288=ORIENTED_EDGE('',*,*,#408,.F.);
#289=ORIENTED_EDGE('',*,*,#410,.F.);
#290=ORIENTED_EDGE('',*,*,#412,.T.);
#291=ORIENTED_EDGE('',*,*,#414,.T.);
#292=ORIENTED_EDGE('',*,*,#416,.F.);
#293=ORIENTED_EDGE('',*,*,#418,.T.);
#294=ORIENTED_EDGE('',*,*,#420,.T.);
#295=ORIENTED_EDGE('',*,*,#422,.F.);
#296=ORIENTED_EDGE('',*,*,#424,.F.);
#297=ORIENTED_EDGE('',*,*,#426,.T.);
#298=ORIENTED_EDGE('',*,*,#428,.T.);
#299=ORIENTED_EDGE('',*,*,#430,.F.);
#300=ORIENTED_EDGE('',*,*,#432,.F.);
#301=ORIENTED_EDGE('',*,*,#434,.T.);
#302=ORIENTED_EDGE('',*,*,#436,.F.);
#303=ORIENTED_EDGE('',*,*,#438,.F.);
#304=ORIENTED_EDGE('',*,*,#440,.T.);
#305=ORIENTED_EDGE('',*,*,#442,.T.);
#306=ORIENTED_EDGE('',*,*,#444,.T.);
#307=ORIENTED_EDGE('',*,*,#446,.T.);
#308=ORIENTED_EDGE('',*,*,#448,.T.);
#309=ORIENTED_EDGE('',*,*,#450,.T.);
#310=ORIENTED_EDGE('',*,*,#452,.T.);
#311=ORIENTED_EDGE('',*,*,#454,.T.);
#312=ORIENTED_EDGE('',*,*,#456,.T.);
#313=ORIENTED_EDGE('',*,*,#458,.T.);
#314=ORIENTED_EDGE('',*,*,#460,.T.);
#315=ORIENTED_EDGE('',*,*,#459,.F.);
#316=ORIENTED_EDGE('',*,*,#462,.F.);
#317=ORIENTED_EDGE('',*,*,#383,.F.);
#318=ORIENTED_EDGE('',*,*,#334,.F.);
#319=ORIENTED_EDGE('',*,*,#463,.T.);
#320=ORIENTED_EDGE('',*,*,#464,.T.);
#321=ORIENTED_EDGE('',*,*,#384,.T.);
#322=ORIENTED_EDGE('',*,*,#464,.F.);
#323=ORIENTED_EDGE('',*,*,#465,.F.);
#324=ORIENTED_EDGE('',*,*,#466,.T.);
#325=ORIENTED_EDGE('',*,*,#344,.T.);
#326=ORIENTED_EDGE('',*,*,#466,.F.);
#327=ORIENTED_EDGE('',*,*,#467,.F.);
#328=ORIENTED_EDGE('',*,*,#340,.T.);
#329=ORIENTED_EDGE('',*,*,#333,.T.);
#330=ORIENTED_EDGE('',*,*,#467,.T.);
#331=ORIENTED_EDGE('',*,*,#465,.T.);
#332=ORIENTED_EDGE('',*,*,#463,.F.);
#333=EDGE_CURVE('',#468,#469,#560,.T.);
#334=EDGE_CURVE('',#468,#470,#561,.T.);
#335=EDGE_CURVE('',#471,#470,#562,.T.);
#336=EDGE_CURVE('',#472,#471,#563,.T.);
#337=EDGE_CURVE('',#472,#473,#564,.T.);
#338=EDGE_CURVE('',#473,#474,#565,.T.);
#339=EDGE_CURVE('',#475,#474,#566,.T.);
#340=EDGE_CURVE('',#469,#475,#567,.T.);
#341=EDGE_CURVE('',#476,#476,#29,.T.);
#342=EDGE_CURVE('',#477,#477,#30,.T.);
#343=EDGE_CURVE('',#478,#478,#31,.T.);
#344=EDGE_CURVE('',#475,#479,#568,.T.);
#345=EDGE_CURVE('',#480,#474,#569,.T.);
#346=EDGE_CURVE('',#481,#480,#32,.T.);
#347=EDGE_CURVE('',#482,#481,#570,.T.);
#348=EDGE_CURVE('',#483,#482,#571,.T.);
#349=EDGE_CURVE('',#484,#483,#33,.T.);
#350=EDGE_CURVE('',#485,#484,#572,.T.);
#351=EDGE_CURVE('',#486,#485,#573,.T.);
#352=EDGE_CURVE('',#487,#486,#34,.T.);
#353=EDGE_CURVE('',#488,#487,#574,.T.);
#354=EDGE_CURVE('',#489,#488,#575,.T.);
#355=EDGE_CURVE('',#490,#489,#35,.T.);
#356=EDGE_CURVE('',#491,#490,#576,.T.);
#357=EDGE_CURVE('',#491,#492,#36,.T.);
#358=EDGE_CURVE('',#492,#493,#577,.T.);
#359=EDGE_CURVE('',#494,#493,#578,.T.);
#360=EDGE_CURVE('',#494,#495,#37,.T.);
#361=EDGE_CURVE('',#495,#496,#579,.T.);
#362=EDGE_CURVE('',#497,#496,#580,.T.);
#363=EDGE_CURVE('',#498,#497,#38,.T.);
#364=EDGE_CURVE('',#498,#499,#39,.T.);
#365=EDGE_CURVE('',#499,#500,#581,.T.);
#366=EDGE_CURVE('',#501,#500,#582,.T.);
#367=EDGE_CURVE('',#502,#501,#40,.T.);
#368=EDGE_CURVE('',#502,#503,#583,.T.);
#369=EDGE_CURVE('',#504,#503,#584,.T.);
#370=EDGE_CURVE('',#505,#504,#41,.T.);
#371=EDGE_CURVE('',#505,#506,#585,.T.);
#372=EDGE_CURVE('',#506,#507,#42,.T.);
#373=EDGE_CURVE('',#507,#508,#586,.T.);
#374=EDGE_CURVE('',#508,#509,#587,.T.);
#375=EDGE_CURVE('',#510,#509,#43,.T.);
#376=EDGE_CURVE('',#510,#511,#588,.T.);
#377=EDGE_CURVE('',#511,#512,#589,.T.);
#378=EDGE_CURVE('',#513,#512,#44,.T.);
#379=EDGE_CURVE('',#513,#514,#590,.T.);
#380=EDGE_CURVE('',#514,#515,#591,.T.);
#381=EDGE_CURVE('',#516,#515,#45,.T.);
#382=EDGE_CURVE('',#516,#471,#592,.T.);
#383=EDGE_CURVE('',#470,#517,#593,.T.);
#384=EDGE_CURVE('',#479,#517,#594,.T.);
#385=EDGE_CURVE('',#518,#473,#595,.T.);
#386=EDGE_CURVE('',#518,#480,#596,.T.);
#387=EDGE_CURVE('',#519,#516,#597,.T.);
#388=EDGE_CURVE('',#519,#472,#598,.T.);
#389=EDGE_CURVE('',#520,#515,#599,.T.);
#390=EDGE_CURVE('',#519,#520,#46,.T.);
#391=EDGE_CURVE('',#521,#514,#600,.T.);
#392=EDGE_CURVE('',#521,#520,#601,.T.);
#393=EDGE_CURVE('',#522,#513,#602,.T.);
#394=EDGE_CURVE('',#522,#521,#603,.T.);
#395=EDGE_CURVE('',#523,#512,#604,.T.);
#396=EDGE_CURVE('',#522,#523,#47,.T.);
#397=EDGE_CURVE('',#524,#511,#605,.T.);
#398=EDGE_CURVE('',#524,#523,#606,.T.);
#399=EDGE_CURVE('',#525,#510,#607,.T.);
#400=EDGE_CURVE('',#525,#524,#608,.T.);
#401=EDGE_CURVE('',#526,#509,#609,.T.);
#402=EDGE_CURVE('',#525,#526,#48,.T.);
#403=EDGE_CURVE('',#527,#508,#610,.T.);
#404=EDGE_CURVE('',#527,#526,#611,.T.);
#405=EDGE_CURVE('',#528,#507,#612,.T.);
#406=EDGE_CURVE('',#528,#527,#613,.T.);
#407=EDGE_CURVE('',#529,#506,#614,.T.);
#408=EDGE_CURVE('',#529,#528,#49,.T.);
#409=EDGE_CURVE('',#530,#505,#615,.T.);
#410=EDGE_CURVE('',#530,#529,#616,.T.);
#411=EDGE_CURVE('',#531,#504,#617,.T.);
#412=EDGE_CURVE('',#530,#531,#50,.T.);
#413=EDGE_CURVE('',#532,#503,#618,.T.);
#414=EDGE_CURVE('',#531,#532,#619,.T.);
#415=EDGE_CURVE('',#533,#502,#620,.T.);
#416=EDGE_CURVE('',#533,#532,#621,.T.);
#417=EDGE_CURVE('',#534,#501,#622,.T.);
#418=EDGE_CURVE('',#533,#534,#51,.T.);
#419=EDGE_CURVE('',#535,#500,#623,.T.);
#420=EDGE_CURVE('',#534,#535,#624,.T.);
#421=EDGE_CURVE('',#536,#499,#625,.T.);
#422=EDGE_CURVE('',#536,#535,#626,.T.);
#423=EDGE_CURVE('',#537,#498,#627,.T.);
#424=EDGE_CURVE('',#537,#536,#52,.T.);
#425=EDGE_CURVE('',#538,#497,#628,.T.);
#426=EDGE_CURVE('',#537,#538,#53,.T.);
#427=EDGE_CURVE('',#539,#496,#629,.T.);
#428=EDGE_CURVE('',#538,#539,#630,.T.);
#429=EDGE_CURVE('',#540,#495,#631,.T.);
#430=EDGE_CURVE('',#540,#539,#632,.T.);
#431=EDGE_CURVE('',#541,#494,#633,.T.);
#432=EDGE_CURVE('',#541,#540,#54,.T.);
#433=EDGE_CURVE('',#542,#493,#634,.T.);
#434=EDGE_CURVE('',#541,#542,#635,.T.);
#435=EDGE_CURVE('',#543,#492,#636,.T.);
#436=EDGE_CURVE('',#543,#542,#637,.T.);
#437=EDGE_CURVE('',#544,#491,#638,.T.);
#438=EDGE_CURVE('',#544,#543,#55,.T.);
#439=EDGE_CURVE('',#545,#490,#639,.T.);
#440=EDGE_CURVE('',#544,#545,#640,.T.);
#441=EDGE_CURVE('',#546,#489,#641,.T.);
#442=EDGE_CURVE('',#545,#546,#56,.T.);
#443=EDGE_CURVE('',#547,#488,#642,.T.);
#444=EDGE_CURVE('',#546,#547,#643,.T.);
#445=EDGE_CURVE('',#548,#487,#644,.T.);
#446=EDGE_CURVE('',#547,#548,#645,.T.);
#447=EDGE_CURVE('',#549,#486,#646,.T.);
#448=EDGE_CURVE('',#548,#549,#57,.T.);
#449=EDGE_CURVE('',#550,#485,#647,.T.);
#450=EDGE_CURVE('',#549,#550,#648,.T.);
#451=EDGE_CURVE('',#551,#484,#649,.T.);
#452=EDGE_CURVE('',#550,#551,#650,.T.);
#453=EDGE_CURVE('',#552,#483,#651,.T.);
#454=EDGE_CURVE('',#551,#552,#58,.T.);
#455=EDGE_CURVE('',#553,#482,#652,.T.);
#456=EDGE_CURVE('',#552,#553,#653,.T.);
#457=EDGE_CURVE('',#554,#481,#654,.T.);
#458=EDGE_CURVE('',#553,#554,#655,.T.);
#459=EDGE_CURVE('',#555,#555,#59,.T.);
#460=EDGE_CURVE('',#554,#518,#60,.T.);
#461=EDGE_CURVE('',#556,#556,#61,.T.);
#462=EDGE_CURVE('',#557,#557,#62,.T.);
#463=EDGE_CURVE('',#468,#558,#656,.T.);
#464=EDGE_CURVE('',#558,#517,#657,.T.);
#465=EDGE_CURVE('',#559,#558,#658,.T.);
#466=EDGE_CURVE('',#559,#479,#659,.T.);
#467=EDGE_CURVE('',#469,#559,#660,.T.);
#468=VERTEX_POINT('',#1320);
#469=VERTEX_POINT('',#1321);
#470=VERTEX_POINT('',#1323);
#471=VERTEX_POINT('',#1325);
#472=VERTEX_POINT('',#1327);
#473=VERTEX_POINT('',#1329);
#474=VERTEX_POINT('',#1331);
#475=VERTEX_POINT('',#1333);
#476=VERTEX_POINT('',#1337);
#477=VERTEX_POINT('',#1339);
#478=VERTEX_POINT('',#1341);
#479=VERTEX_POINT('',#1343);
#480=VERTEX_POINT('',#1345);
#481=VERTEX_POINT('',#1347);
#482=VERTEX_POINT('',#1349);
#483=VERTEX_POINT('',#1351);
#484=VERTEX_POINT('',#1353);
#485=VERTEX_POINT('',#1355);
#486=VERTEX_POINT('',#1357);
#487=VERTEX_POINT('',#1359);
#488=VERTEX_POINT('',#1361);
#489=VERTEX_POINT('',#1363);
#490=VERTEX_POINT('',#1365);
#491=VERTEX_POINT('',#1367);
#492=VERTEX_POINT('',#1369);
#493=VERTEX_POINT('',#1371);
#494=VERTEX_POINT('',#1373);
#495=VERTEX_POINT('',#1375);
#496=VERTEX_POINT('',#1377);
#497=VERTEX_POINT('',#1379);
#498=VERTEX_POINT('',#1381);
#499=VERTEX_POINT('',#1383);
#500=VERTEX_POINT('',#1385);
#501=VERTEX_POINT('',#1387);
#502=VERTEX_POINT('',#1389);
#503=VERTEX_POINT('',#1391);
#504=VERTEX_POINT('',#1393);
#505=VERTEX_POINT('',#1395);
#506=VERTEX_POINT('',#1397);
#507=VERTEX_POINT('',#1399);
#508=VERTEX_POINT('',#1401);
#509=VERTEX_POINT('',#1403);
#510=VERTEX_POINT('',#1405);
#511=VERTEX_POINT('',#1407);
#512=VERTEX_POINT('',#1409);
#513=VERTEX_POINT('',#1411);
#514=VERTEX_POINT('',#1413);
#515=VERTEX_POINT('',#1415);
#516=VERTEX_POINT('',#1417);
#517=VERTEX_POINT('',#1420);
#518=VERTEX_POINT('',#1424);
#519=VERTEX_POINT('',#1428);
#520=VERTEX_POINT('',#1432);
#521=VERTEX_POINT('',#1436);
#522=VERTEX_POINT('',#1440);
#523=VERTEX_POINT('',#1444);
#524=VERTEX_POINT('',#1448);
#525=VERTEX_POINT('',#1452);
#526=VERTEX_POINT('',#1456);
#527=VERTEX_POINT('',#1460);
#528=VERTEX_POINT('',#1464);
#529=VERTEX_POINT('',#1468);
#530=VERTEX_POINT('',#1472);
#531=VERTEX_POINT('',#1476);
#532=VERTEX_POINT('',#1480);
#533=VERTEX_POINT('',#1484);
#534=VERTEX_POINT('',#1488);
#535=VERTEX_POINT('',#1492);
#536=VERTEX_POINT('',#1496);
#537=VERTEX_POINT('',#1500);
#538=VERTEX_POINT('',#1504);
#539=VERTEX_POINT('',#1508);
#540=VERTEX_POINT('',#1512);
#541=VERTEX_POINT('',#1516);
#542=VERTEX_POINT('',#1520);
#543=VERTEX_POINT('',#1524);
#544=VERTEX_POINT('',#1528);
#545=VERTEX_POINT('',#1532);
#546=VERTEX_POINT('',#1536);
#547=VERTEX_POINT('',#1540);
#548=VERTEX_POINT('',#1544);
#549=VERTEX_POINT('',#1548);
#550=VERTEX_POINT('',#1552);
#551=VERTEX_POINT('',#1556);
#552=VERTEX_POINT('',#1560);
#553=VERTEX_POINT('',#1564);
#554=VERTEX_POINT('',#1568);
#555=VERTEX_POINT('',#1572);
#556=VERTEX_POINT('',#1577);
#557=VERTEX_POINT('',#1580);
#558=VERTEX_POINT('',#1584);
#559=VERTEX_POINT('',#1588);
#560=LINE('',#1319,#661);
#561=LINE('',#1322,#662);
#562=LINE('',#1324,#663);
#563=LINE('',#1326,#664);
#564=LINE('',#1328,#665);
#565=LINE('',#1330,#666);
#566=LINE('',#1332,#667);
#567=LINE('',#1334,#668);
#568=LINE('',#1342,#669);
#569=LINE('',#1344,#670);
#570=LINE('',#1348,#671);
#571=LINE('',#1350,#672);
#572=LINE('',#1354,#673);
#573=LINE('',#1356,#674);
#574=LINE('',#1360,#675);
#575=LINE('',#1362,#676);
#576=LINE('',#1366,#677);
#577=LINE('',#1370,#678);
#578=LINE('',#1372,#679);
#579=LINE('',#1376,#680);
#580=LINE('',#1378,#681);
#581=LINE('',#1384,#682);
#582=LINE('',#1386,#683);
#583=LINE('',#1390,#684);
#584=LINE('',#1392,#685);
#585=LINE('',#1396,#686);
#586=LINE('',#1400,#687);
#587=LINE('',#1402,#688);
#588=LINE('',#1406,#689);
#589=LINE('',#1408,#690);
#590=LINE('',#1412,#691);
#591=LINE('',#1414,#692);
#592=LINE('',#1418,#693);
#593=LINE('',#1419,#694);
#594=LINE('',#1421,#695);
#595=LINE('',#1423,#696);
#596=LINE('',#1425,#697);
#597=LINE('',#1427,#698);
#598=LINE('',#1429,#699);
#599=LINE('',#1431,#700);
#600=LINE('',#1435,#701);
#601=LINE('',#1437,#702);
#602=LINE('',#1439,#703);
#603=LINE('',#1441,#704);
#604=LINE('',#1443,#705);
#605=LINE('',#1447,#706);
#606=LINE('',#1449,#707);
#607=LINE('',#1451,#708);
#608=LINE('',#1453,#709);
#609=LINE('',#1455,#710);
#610=LINE('',#1459,#711);
#611=LINE('',#1461,#712);
#612=LINE('',#1463,#713);
#613=LINE('',#1465,#714);
#614=LINE('',#1467,#715);
#615=LINE('',#1471,#716);
#616=LINE('',#1473,#717);
#617=LINE('',#1475,#718);
#618=LINE('',#1479,#719);
#619=LINE('',#1481,#720);
#620=LINE('',#1483,#721);
#621=LINE('',#1485,#722);
#622=LINE('',#1487,#723);
#623=LINE('',#1491,#724);
#624=LINE('',#1493,#725);
#625=LINE('',#1495,#726);
#626=LINE('',#1497,#727);
#627=LINE('',#1499,#728);
#628=LINE('',#1503,#729);
#629=LINE('',#1507,#730);
#630=LINE('',#1509,#731);
#631=LINE('',#1511,#732);
#632=LINE('',#1513,#733);
#633=LINE('',#1515,#734);
#634=LINE('',#1519,#735);
#635=LINE('',#1521,#736);
#636=LINE('',#1523,#737);
#637=LINE('',#1525,#738);
#638=LINE('',#1527,#739);
#639=LINE('',#1531,#740);
#640=LINE('',#1533,#741);
#641=LINE('',#1535,#742);
#642=LINE('',#1539,#743);
#643=LINE('',#1541,#744);
#644=LINE('',#1543,#745);
#645=LINE('',#1545,#746);
#646=LINE('',#1547,#747);
#647=LINE('',#1551,#748);
#648=LINE('',#1553,#749);
#649=LINE('',#1555,#750);
#650=LINE('',#1557,#751);
#651=LINE('',#1559,#752);
#652=LINE('',#1563,#753);
#653=LINE('',#1565,#754);
#654=LINE('',#1567,#755);
#655=LINE('',#1569,#756);
#656=LINE('',#1583,#757);
#657=LINE('',#1585,#758);
#658=LINE('',#1587,#759);
#659=LINE('',#1589,#760);
#660=LINE('',#1591,#761);
#661=VECTOR('',#1054,1.);
#662=VECTOR('',#1055,1.);
#663=VECTOR('',#1056,1.);
#664=VECTOR('',#1057,1.);
#665=VECTOR('',#1058,1.);
#666=VECTOR('',#1059,1.);
#667=VECTOR('',#1060,1.);
#668=VECTOR('',#1061,1.);
#669=VECTOR('',#1070,1.);
#670=VECTOR('',#1071,1.);
#671=VECTOR('',#1074,1.);
#672=VECTOR('',#1075,1.);
#673=VECTOR('',#1078,1.);
#674=VECTOR('',#1079,1.);
#675=VECTOR('',#1082,1.);
#676=VECTOR('',#1083,1.);
#677=VECTOR('',#1086,1.);
#678=VECTOR('',#1089,1.);
#679=VECTOR('',#1090,1.);
#680=VECTOR('',#1093,1.);
#681=VECTOR('',#1094,1.);
#682=VECTOR('',#1099,1.);
#683=VECTOR('',#1100,1.);
#684=VECTOR('',#1103,1.);
#685=VECTOR('',#1104,1.);
#686=VECTOR('',#1107,1.);
#687=VECTOR('',#1110,1.);
#688=VECTOR('',#1111,1.);
#689=VECTOR('',#1114,1.);
#690=VECTOR('',#1115,1.);
#691=VECTOR('',#1118,1.);
#692=VECTOR('',#1119,1.);
#693=VECTOR('',#1122,1.);
#694=VECTOR('',#1123,1.);
#695=VECTOR('',#1124,1.);
#696=VECTOR('',#1127,1.);
#697=VECTOR('',#1128,1.);
#698=VECTOR('',#1131,1.);
#699=VECTOR('',#1132,1.);
#700=VECTOR('',#1135,1.);
#701=VECTOR('',#1140,1.);
#702=VECTOR('',#1141,1.);
#703=VECTOR('',#1144,1.);
#704=VECTOR('',#1145,1.);
#705=VECTOR('',#1148,1.);
#706=VECTOR('',#1153,1.);
#707=VECTOR('',#1154,1.);
#708=VECTOR('',#1157,1.);
#709=VECTOR('',#1158,1.);
#710=VECTOR('',#1161,1.);
#711=VECTOR('',#1166,1.);
#712=VECTOR('',#1167,1.);
#713=VECTOR('',#1170,1.);
#714=VECTOR('',#1171,1.);
#715=VECTOR('',#1174,1.);
#716=VECTOR('',#1179,1.);
#717=VECTOR('',#1180,1.);
#718=VECTOR('',#1183,1.);
#719=VECTOR('',#1188,1.);
#720=VECTOR('',#1189,1.);
#721=VECTOR('',#1192,1.);
#722=VECTOR('',#1193,1.);
#723=VECTOR('',#1196,1.);
#724=VECTOR('',#1201,1.);
#725=VECTOR('',#1202,1.);
#726=VECTOR('',#1205,1.);
#727=VECTOR('',#1206,1.);
#728=VECTOR('',#1209,1.);
#729=VECTOR('',#1214,1.);
#730=VECTOR('',#1219,1.);
#731=VECTOR('',#1220,1.);
#732=VECTOR('',#1223,1.);
#733=VECTOR('',#1224,1.);
#734=VECTOR('',#1227,1.);
#735=VECTOR('',#1232,1.);
#736=VECTOR('',#1233,1.);
#737=VECTOR('',#1236,1.);
#738=VECTOR('',#1237,1.);
#739=VECTOR('',#1240,1.);
#740=VECTOR('',#1245,1.);
#741=VECTOR('',#1246,1.);
#742=VECTOR('',#1249,1.);
#743=VECTOR('',#1254,1.);
#744=VECTOR('',#1255,1.);
#745=VECTOR('',#1258,1.);
#746=VECTOR('',#1259,1.);
#747=VECTOR('',#1262,1.);
#748=VECTOR('',#1267,1.);
#749=VECTOR('',#1268,1.);
#750=VECTOR('',#1271,1.);
#751=VECTOR('',#1272,1.);
#752=VECTOR('',#1275,1.);
#753=VECTOR('',#1280,1.);
#754=VECTOR('',#1281,1.);
#755=VECTOR('',#1284,1.);
#756=VECTOR('',#1285,1.);
#757=VECTOR('',#1306,1.);
#758=VECTOR('',#1307,1.);
#759=VECTOR('',#1310,1.);
#760=VECTOR('',#1311,1.);
#761=VECTOR('',#1314,1.);
#762=EDGE_LOOP('',(#63,#64,#65,#66,#67,#68,#69,#70));
#763=EDGE_LOOP('',(#71));
#764=EDGE_LOOP('',(#72));
#765=EDGE_LOOP('',(#73));
#766=EDGE_LOOP('',(#74,#75,#76,#77,#78,#79,#80,#81,#82,#83,#84,#85,#86,
#87,#88,#89,#90,#91,#92,#93,#94,#95,#96,#97,#98,#99,#100,#101,#102,#103,
#104,#105,#106,#107,#108,#109,#110,#111,#112,#113,#114,#115,#116));
#767=EDGE_LOOP('',(#117,#118,#119,#120));
#768=EDGE_LOOP('',(#121,#122,#123,#124));
#769=EDGE_LOOP('',(#125,#126,#127,#128));
#770=EDGE_LOOP('',(#129,#130,#131,#132));
#771=EDGE_LOOP('',(#133,#134,#135,#136));
#772=EDGE_LOOP('',(#137,#138,#139,#140));
#773=EDGE_LOOP('',(#141,#142,#143,#144));
#774=EDGE_LOOP('',(#145,#146,#147,#148));
#775=EDGE_LOOP('',(#149,#150,#151,#152));
#776=EDGE_LOOP('',(#153,#154,#155,#156));
#777=EDGE_LOOP('',(#157,#158,#159,#160));
#778=EDGE_LOOP('',(#161,#162,#163,#164));
#779=EDGE_LOOP('',(#165,#166,#167,#168));
#780=EDGE_LOOP('',(#169,#170,#171,#172));
#781=EDGE_LOOP('',(#173,#174,#175,#176));
#782=EDGE_LOOP('',(#177,#178,#179,#180));
#783=EDGE_LOOP('',(#181,#182,#183,#184));
#784=EDGE_LOOP('',(#185,#186,#187,#188));
#785=EDGE_LOOP('',(#189,#190,#191,#192));
#786=EDGE_LOOP('',(#193,#194,#195,#196));
#787=EDGE_LOOP('',(#197,#198,#199,#200));
#788=EDGE_LOOP('',(#201,#202,#203,#204));
#789=EDGE_LOOP('',(#205,#206,#207,#208));
#790=EDGE_LOOP('',(#209,#210,#211,#212));
#791=EDGE_LOOP('',(#213,#214,#215,#216));
#792=EDGE_LOOP('',(#217,#218,#219,#220));
#793=EDGE_LOOP('',(#221,#222,#223,#224));
#794=EDGE_LOOP('',(#225,#226,#227,#228));
#795=EDGE_LOOP('',(#229,#230,#231,#232));
#796=EDGE_LOOP('',(#233,#234,#235,#236));
#797=EDGE_LOOP('',(#237,#238,#239,#240));
#798=EDGE_LOOP('',(#241,#242,#243,#244));
#799=EDGE_LOOP('',(#245,#246,#247,#248));
#800=EDGE_LOOP('',(#249,#250,#251,#252));
#801=EDGE_LOOP('',(#253,#254,#255,#256));
#802=EDGE_LOOP('',(#257,#258,#259,#260));
#803=EDGE_LOOP('',(#261,#262,#263,#264));
#804=EDGE_LOOP('',(#265));
#805=EDGE_LOOP('',(#266));
#806=EDGE_LOOP('',(#267,#268,#269,#270));
#807=EDGE_LOOP('',(#271));
#808=EDGE_LOOP('',(#272));
#809=EDGE_LOOP('',(#273));
#810=EDGE_LOOP('',(#274));
#811=EDGE_LOOP('',(#275));
#812=EDGE_LOOP('',(#276,#277,#278,#279,#280,#281,#282,#283,#284,#285,#286,
#287,#288,#289,#290,#291,#292,#293,#294,#295,#296,#297,#298,#299,#300,#301,
#302,#303,#304,#305,#306,#307,#308,#309,#310,#311,#312,#313,#314));
#813=EDGE_LOOP('',(#315));
#814=EDGE_LOOP('',(#316));
#815=EDGE_LOOP('',(#317,#318,#319,#320));
#816=EDGE_LOOP('',(#321,#322,#323,#324));
#817=EDGE_LOOP('',(#325,#326,#327,#328));
#818=EDGE_LOOP('',(#329,#330,#331,#332));
#819=FACE_BOUND('',#762,.T.);
#820=FACE_BOUND('',#763,.T.);
#821=FACE_BOUND('',#764,.T.);
#822=FACE_BOUND('',#765,.T.);
#823=FACE_BOUND('',#766,.T.);
#824=FACE_BOUND('',#767,.T.);
#825=FACE_BOUND('',#768,.T.);
#826=FACE_BOUND('',#769,.T.);
#827=FACE_BOUND('',#770,.T.);
#828=FACE_BOUND('',#771,.T.);
#829=FACE_BOUND('',#772,.T.);
#830=FACE_BOUND('',#773,.T.);
#831=FACE_BOUND('',#774,.T.);
#832=FACE_BOUND('',#775,.T.);
#833=FACE_BOUND('',#776,.T.);
#834=FACE_BOUND('',#777,.T.);
#835=FACE_BOUND('',#778,.T.);
#836=FACE_BOUND('',#779,.T.);
#837=FACE_BOUND('',#780,.T.);
#838=FACE_BOUND('',#781,.T.);
#839=FACE_BOUND('',#782,.T.);
#840=FACE_BOUND('',#783,.T.);
#841=FACE_BOUND('',#784,.T.);
#842=FACE_BOUND('',#785,.T.);
#843=FACE_BOUND('',#786,.T.);
#844=FACE_BOUND('',#787,.T.);
#845=FACE_BOUND('',#788,.T.);
#846=FACE_BOUND('',#789,.T.);
#847=FACE_BOUND('',#790,.T.);
#848=FACE_BOUND('',#791,.T.);
#849=FACE_BOUND('',#792,.T.);
#850=FACE_BOUND('',#793,.T.);
#851=FACE_BOUND('',#794,.T.);
#852=FACE_BOUND('',#795,.T.);
#853=FACE_BOUND('',#796,.T.);
#854=FACE_BOUND('',#797,.T.);
#855=FACE_BOUND('',#798,.T.);
#856=FACE_BOUND('',#799,.T.);
#857=FACE_BOUND('',#800,.T.);
#858=FACE_BOUND('',#801,.T.);
#859=FACE_BOUND('',#802,.T.);
#860=FACE_BOUND('',#803,.T.);
#861=FACE_BOUND('',#804,.T.);
#862=FACE_BOUND('',#805,.T.);
#863=FACE_BOUND('',#806,.T.);
#864=FACE_BOUND('',#807,.T.);
#865=FACE_BOUND('',#808,.T.);
#866=FACE_BOUND('',#809,.T.);
#867=FACE_BOUND('',#810,.T.);
#868=FACE_BOUND('',#811,.T.);
#869=FACE_BOUND('',#812,.T.);
#870=FACE_BOUND('',#813,.T.);
#871=FACE_BOUND('',#814,.T.);
#872=FACE_BOUND('',#815,.T.);
#873=FACE_BOUND('',#816,.T.);
#874=FACE_BOUND('',#817,.T.);
#875=FACE_BOUND('',#818,.T.);
#876=PLANE('',#968);
#877=PLANE('',#969);
#878=PLANE('',#987);
#879=PLANE('',#988);
#880=PLANE('',#991);
#881=PLANE('',#992);
#882=PLANE('',#995);
#883=PLANE('',#996);
#884=PLANE('',#999);
#885=PLANE('',#1000);
#886=PLANE('',#1003);
#887=PLANE('',#1006);
#888=PLANE('',#1007);
#889=PLANE('',#1010);
#890=PLANE('',#1011);
#891=PLANE('',#1016);
#892=PLANE('',#1017);
#893=PLANE('',#1020);
#894=PLANE('',#1021);
#895=PLANE('',#1024);
#896=PLANE('',#1027);
#897=PLANE('',#1028);
#898=PLANE('',#1031);
#899=PLANE('',#1032);
#900=PLANE('',#1035);
#901=PLANE('',#1036);
#902=PLANE('',#1045);
#903=PLANE('',#1046);
#904=PLANE('',#1047);
#905=PLANE('',#1048);
#906=PLANE('',#1049);
#907=ADVANCED_FACE('',(#819),#876,.T.);
#908=ADVANCED_FACE('',(#820,#821,#822,#823),#877,.F.);
#909=ADVANCED_FACE('',(#824),#878,.F.);
#910=ADVANCED_FACE('',(#825),#879,.T.);
#911=ADVANCED_FACE('',(#826),#12,.T.);
#912=ADVANCED_FACE('',(#827),#880,.T.);
#913=ADVANCED_FACE('',(#828),#881,.T.);
#914=ADVANCED_FACE('',(#829),#13,.T.);
#915=ADVANCED_FACE('',(#830),#882,.T.);
#916=ADVANCED_FACE('',(#831),#883,.T.);
#917=ADVANCED_FACE('',(#832),#14,.T.);
#918=ADVANCED_FACE('',(#833),#884,.T.);
#919=ADVANCED_FACE('',(#834),#885,.T.);
#920=ADVANCED_FACE('',(#835),#15,.T.);
#921=ADVANCED_FACE('',(#836),#886,.T.);
#922=ADVANCED_FACE('',(#837),#16,.T.);
#923=ADVANCED_FACE('',(#838),#887,.F.);
#924=ADVANCED_FACE('',(#839),#888,.T.);
#925=ADVANCED_FACE('',(#840),#17,.T.);
#926=ADVANCED_FACE('',(#841),#889,.F.);
#927=ADVANCED_FACE('',(#842),#890,.T.);
#928=ADVANCED_FACE('',(#843),#18,.T.);
#929=ADVANCED_FACE('',(#844),#19,.T.);
#930=ADVANCED_FACE('',(#845),#891,.F.);
#931=ADVANCED_FACE('',(#846),#892,.T.);
#932=ADVANCED_FACE('',(#847),#20,.T.);
#933=ADVANCED_FACE('',(#848),#893,.F.);
#934=ADVANCED_FACE('',(#849),#894,.T.);
#935=ADVANCED_FACE('',(#850),#21,.T.);
#936=ADVANCED_FACE('',(#851),#895,.F.);
#937=ADVANCED_FACE('',(#852),#22,.T.);
#938=ADVANCED_FACE('',(#853),#896,.F.);
#939=ADVANCED_FACE('',(#854),#897,.F.);
#940=ADVANCED_FACE('',(#855),#23,.T.);
#941=ADVANCED_FACE('',(#856),#898,.F.);
#942=ADVANCED_FACE('',(#857),#899,.F.);
#943=ADVANCED_FACE('',(#858),#24,.T.);
#944=ADVANCED_FACE('',(#859),#900,.F.);
#945=ADVANCED_FACE('',(#860),#901,.F.);
#946=ADVANCED_FACE('',(#861,#862),#25,.F.);
#947=ADVANCED_FACE('',(#863),#26,.T.);
#948=ADVANCED_FACE('',(#864,#865),#27,.F.);
#949=ADVANCED_FACE('',(#866,#867),#28,.F.);
#950=ADVANCED_FACE('',(#868,#869,#870,#871),#902,.T.);
#951=ADVANCED_FACE('',(#872),#903,.T.);
#952=ADVANCED_FACE('',(#873),#904,.F.);
#953=ADVANCED_FACE('',(#874),#905,.F.);
#954=ADVANCED_FACE('',(#875),#906,.F.);
#955=CLOSED_SHELL('',(#907,#908,#909,#910,#911,#912,#913,#914,#915,#916,
#917,#918,#919,#920,#921,#922,#923,#924,#925,#926,#927,#928,#929,#930,#931,
#932,#933,#934,#935,#936,#937,#938,#939,#940,#941,#942,#943,#944,#945,#946,
#947,#948,#949,#950,#951,#952,#953,#954));
#956=STYLED_ITEM('',(#957),#964);
#957=PRESENTATION_STYLE_ASSIGNMENT((#958));
#958=SURFACE_STYLE_USAGE(.BOTH.,#959);
#959=SURFACE_SIDE_STYLE('',(#960));
#960=SURFACE_STYLE_FILL_AREA(#961);
#961=FILL_AREA_STYLE('',(#962));
#962=FILL_AREA_STYLE_COLOUR('',#963);
#963=COLOUR_RGB('',0.647058823529412,0.647058823529412,0.647058823529412);
#964=MANIFOLD_SOLID_BREP('Back',#955);
#965=SHAPE_DEFINITION_REPRESENTATION(#1599,#966);
#966=SHAPE_REPRESENTATION('Back',(#967),#1594);
#967=AXIS2_PLACEMENT_3D('',#1317,#1050,#1051);
#968=AXIS2_PLACEMENT_3D('',#1318,#1052,#1053);
#969=AXIS2_PLACEMENT_3D('',#1335,#1062,#1063);
#970=AXIS2_PLACEMENT_3D('',#1336,#1064,#1065);
#971=AXIS2_PLACEMENT_3D('',#1338,#1066,#1067);
#972=AXIS2_PLACEMENT_3D('',#1340,#1068,#1069);
#973=AXIS2_PLACEMENT_3D('',#1346,#1072,#1073);
#974=AXIS2_PLACEMENT_3D('',#1352,#1076,#1077);
#975=AXIS2_PLACEMENT_3D('',#1358,#1080,#1081);
#976=AXIS2_PLACEMENT_3D('',#1364,#1084,#1085);
#977=AXIS2_PLACEMENT_3D('',#1368,#1087,#1088);
#978=AXIS2_PLACEMENT_3D('',#1374,#1091,#1092);
#979=AXIS2_PLACEMENT_3D('',#1380,#1095,#1096);
#980=AXIS2_PLACEMENT_3D('',#1382,#1097,#1098);
#981=AXIS2_PLACEMENT_3D('',#1388,#1101,#1102);
#982=AXIS2_PLACEMENT_3D('',#1394,#1105,#1106);
#983=AXIS2_PLACEMENT_3D('',#1398,#1108,#1109);
#984=AXIS2_PLACEMENT_3D('',#1404,#1112,#1113);
#985=AXIS2_PLACEMENT_3D('',#1410,#1116,#1117);
#986=AXIS2_PLACEMENT_3D('',#1416,#1120,#1121);
#987=AXIS2_PLACEMENT_3D('',#1422,#1125,#1126);
#988=AXIS2_PLACEMENT_3D('',#1426,#1129,#1130);
#989=AXIS2_PLACEMENT_3D('',#1430,#1133,#1134);
#990=AXIS2_PLACEMENT_3D('',#1433,#1136,#1137);
#991=AXIS2_PLACEMENT_3D('',#1434,#1138,#1139);
#992=AXIS2_PLACEMENT_3D('',#1438,#1142,#1143);
#993=AXIS2_PLACEMENT_3D('',#1442,#1146,#1147);
#994=AXIS2_PLACEMENT_3D('',#1445,#1149,#1150);
#995=AXIS2_PLACEMENT_3D('',#1446,#1151,#1152);
#996=AXIS2_PLACEMENT_3D('',#1450,#1155,#1156);
#997=AXIS2_PLACEMENT_3D('',#1454,#1159,#1160);
#998=AXIS2_PLACEMENT_3D('',#1457,#1162,#1163);
#999=AXIS2_PLACEMENT_3D('',#1458,#1164,#1165);
#1000=AXIS2_PLACEMENT_3D('',#1462,#1168,#1169);
#1001=AXIS2_PLACEMENT_3D('',#1466,#1172,#1173);
#1002=AXIS2_PLACEMENT_3D('',#1469,#1175,#1176);
#1003=AXIS2_PLACEMENT_3D('',#1470,#1177,#1178);
#1004=AXIS2_PLACEMENT_3D('',#1474,#1181,#1182);
#1005=AXIS2_PLACEMENT_3D('',#1477,#1184,#1185);
#1006=AXIS2_PLACEMENT_3D('',#1478,#1186,#1187);
#1007=AXIS2_PLACEMENT_3D('',#1482,#1190,#1191);
#1008=AXIS2_PLACEMENT_3D('',#1486,#1194,#1195);
#1009=AXIS2_PLACEMENT_3D('',#1489,#1197,#1198);
#1010=AXIS2_PLACEMENT_3D('',#1490,#1199,#1200);
#1011=AXIS2_PLACEMENT_3D('',#1494,#1203,#1204);
#1012=AXIS2_PLACEMENT_3D('',#1498,#1207,#1208);
#1013=AXIS2_PLACEMENT_3D('',#1501,#1210,#1211);
#1014=AXIS2_PLACEMENT_3D('',#1502,#1212,#1213);
#1015=AXIS2_PLACEMENT_3D('',#1505,#1215,#1216);
#1016=AXIS2_PLACEMENT_3D('',#1506,#1217,#1218);
#1017=AXIS2_PLACEMENT_3D('',#1510,#1221,#1222);
#1018=AXIS2_PLACEMENT_3D('',#1514,#1225,#1226);
#1019=AXIS2_PLACEMENT_3D('',#1517,#1228,#1229);
#1020=AXIS2_PLACEMENT_3D('',#1518,#1230,#1231);
#1021=AXIS2_PLACEMENT_3D('',#1522,#1234,#1235);
#1022=AXIS2_PLACEMENT_3D('',#1526,#1238,#1239);
#1023=AXIS2_PLACEMENT_3D('',#1529,#1241,#1242);
#1024=AXIS2_PLACEMENT_3D('',#1530,#1243,#1244);
#1025=AXIS2_PLACEMENT_3D('',#1534,#1247,#1248);
#1026=AXIS2_PLACEMENT_3D('',#1537,#1250,#1251);
#1027=AXIS2_PLACEMENT_3D('',#1538,#1252,#1253);
#1028=AXIS2_PLACEMENT_3D('',#1542,#1256,#1257);
#1029=AXIS2_PLACEMENT_3D('',#1546,#1260,#1261);
#1030=AXIS2_PLACEMENT_3D('',#1549,#1263,#1264);
#1031=AXIS2_PLACEMENT_3D('',#1550,#1265,#1266);
#1032=AXIS2_PLACEMENT_3D('',#1554,#1269,#1270);
#1033=AXIS2_PLACEMENT_3D('',#1558,#1273,#1274);
#1034=AXIS2_PLACEMENT_3D('',#1561,#1276,#1277);
#1035=AXIS2_PLACEMENT_3D('',#1562,#1278,#1279);
#1036=AXIS2_PLACEMENT_3D('',#1566,#1282,#1283);
#1037=AXIS2_PLACEMENT_3D('',#1570,#1286,#1287);
#1038=AXIS2_PLACEMENT_3D('',#1571,#1288,#1289);
#1039=AXIS2_PLACEMENT_3D('',#1573,#1290,#1291);
#1040=AXIS2_PLACEMENT_3D('',#1574,#1292,#1293);
#1041=AXIS2_PLACEMENT_3D('',#1575,#1294,#1295);
#1042=AXIS2_PLACEMENT_3D('',#1576,#1296,#1297);
#1043=AXIS2_PLACEMENT_3D('',#1578,#1298,#1299);
#1044=AXIS2_PLACEMENT_3D('',#1579,#1300,#1301);
#1045=AXIS2_PLACEMENT_3D('',#1581,#1302,#1303);
#1046=AXIS2_PLACEMENT_3D('',#1582,#1304,#1305);
#1047=AXIS2_PLACEMENT_3D('',#1586,#1308,#1309);
#1048=AXIS2_PLACEMENT_3D('',#1590,#1312,#1313);
#1049=AXIS2_PLACEMENT_3D('',#1592,#1315,#1316);
#1050=DIRECTION('',(0.,0.,1.));
#1051=DIRECTION('',(1.,0.,0.));
#1052=DIRECTION('',(0.,-1.,0.));
#1053=DIRECTION('',(0.,0.,-1.));
#1054=DIRECTION('',(1.,0.,0.));
#1055=DIRECTION('',(0.,0.,1.));
#1056=DIRECTION('',(1.,0.,0.));
#1057=DIRECTION('',(0.,0.,1.));
#1058=DIRECTION('',(1.,0.,0.));
#1059=DIRECTION('',(0.,0.,1.));
#1060=DIRECTION('',(1.,0.,0.));
#1061=DIRECTION('',(0.,0.,1.));
#1062=DIRECTION('',(0.,0.,-1.));
#1063=DIRECTION('',(1.,0.,0.));
#1064=DIRECTION('',(0.,0.,-1.));
#1065=DIRECTION('',(-1.,0.,0.));
#1066=DIRECTION('',(0.,0.,-1.));
#1067=DIRECTION('',(-1.,0.,0.));
#1068=DIRECTION('',(0.,0.,1.));
#1069=DIRECTION('',(-1.,0.,0.));
#1070=DIRECTION('',(6.65281832841564E-17,1.,0.));
#1071=DIRECTION('',(0.,-1.,0.));
#1072=DIRECTION('',(0.,0.,-1.));
#1073=DIRECTION('',(-1.,0.,0.));
#1074=DIRECTION('',(1.,0.,0.));
#1075=DIRECTION('',(0.,-1.,0.));
#1076=DIRECTION('',(0.,0.,-1.));
#1077=DIRECTION('',(-1.,0.,0.));
#1078=DIRECTION('',(1.,0.,0.));
#1079=DIRECTION('',(0.,-1.,0.));
#1080=DIRECTION('',(0.,0.,-1.));
#1081=DIRECTION('',(-1.,0.,0.));
#1082=DIRECTION('',(1.,0.,0.));
#1083=DIRECTION('',(0.,-1.,0.));
#1084=DIRECTION('',(0.,0.,-1.));
#1085=DIRECTION('',(-1.,0.,0.));
#1086=DIRECTION('',(2.01127359533543E-16,-1.,0.));
#1087=DIRECTION('',(0.,0.,1.));
#1088=DIRECTION('',(1.,0.,0.));
#1089=DIRECTION('',(-1.,0.,0.));
#1090=DIRECTION('',(0.,-1.,0.));
#1091=DIRECTION('',(0.,0.,1.));
#1092=DIRECTION('',(1.,0.,0.));
#1093=DIRECTION('',(-1.,0.,0.));
#1094=DIRECTION('',(0.,-1.,0.));
#1095=DIRECTION('',(0.,0.,-1.));
#1096=DIRECTION('',(-1.,0.,0.));
#1097=DIRECTION('',(0.,0.,1.));
#1098=DIRECTION('',(-1.,0.,0.));
#1099=DIRECTION('',(0.,-1.,0.));
#1100=DIRECTION('',(1.,0.,0.));
#1101=DIRECTION('',(0.,0.,-1.));
#1102=DIRECTION('',(-1.,0.,0.));
#1103=DIRECTION('',(0.,-1.,0.));
#1104=DIRECTION('',(1.,0.,0.));
#1105=DIRECTION('',(0.,0.,-1.));
#1106=DIRECTION('',(-1.,0.,0.));
#1107=DIRECTION('',(-2.01127359533543E-16,-1.,0.));
#1108=DIRECTION('',(0.,0.,1.));
#1109=DIRECTION('',(-1.,0.,0.));
#1110=DIRECTION('',(0.,-1.,0.));
#1111=DIRECTION('',(-1.,0.,0.));
#1112=DIRECTION('',(0.,0.,-1.));
#1113=DIRECTION('',(-1.,0.,0.));
#1114=DIRECTION('',(0.,-1.,0.));
#1115=DIRECTION('',(-1.,0.,0.));
#1116=DIRECTION('',(0.,0.,-1.));
#1117=DIRECTION('',(-1.,0.,0.));
#1118=DIRECTION('',(0.,-1.,0.));
#1119=DIRECTION('',(-1.,0.,0.));
#1120=DIRECTION('',(0.,0.,-1.));
#1121=DIRECTION('',(-1.,0.,0.));
#1122=DIRECTION('',(0.,-1.,0.));
#1123=DIRECTION('',(6.65281832841564E-17,1.,0.));
#1124=DIRECTION('',(-1.,0.,0.));
#1125=DIRECTION('',(-1.,0.,0.));
#1126=DIRECTION('',(0.,0.,1.));
#1127=DIRECTION('',(0.,-1.,0.));
#1128=DIRECTION('',(0.,0.,1.));
#1129=DIRECTION('',(-1.,0.,0.));
#1130=DIRECTION('',(0.,0.,1.));
#1131=DIRECTION('',(0.,0.,1.));
#1132=DIRECTION('',(0.,-1.,0.));
#1133=DIRECTION('',(0.,0.,1.));
#1134=DIRECTION('',(1.,0.,0.));
#1135=DIRECTION('',(0.,0.,1.));
#1136=DIRECTION('',(0.,0.,-1.));
#1137=DIRECTION('',(-1.,0.,0.));
#1138=DIRECTION('',(0.,1.,0.));
#1139=DIRECTION('',(0.,0.,1.));
#1140=DIRECTION('',(0.,0.,1.));
#1141=DIRECTION('',(-1.,0.,0.));
#1142=DIRECTION('',(-1.,0.,0.));
#1143=DIRECTION('',(0.,0.,1.));
#1144=DIRECTION('',(0.,0.,1.));
#1145=DIRECTION('',(0.,-1.,0.));
#1146=DIRECTION('',(0.,0.,1.));
#1147=DIRECTION('',(1.,0.,0.));
#1148=DIRECTION('',(0.,0.,1.));
#1149=DIRECTION('',(0.,0.,-1.));
#1150=DIRECTION('',(-1.,0.,0.));
#1151=DIRECTION('',(0.,1.,0.));
#1152=DIRECTION('',(0.,0.,1.));
#1153=DIRECTION('',(0.,0.,1.));
#1154=DIRECTION('',(-1.,0.,0.));
#1155=DIRECTION('',(-1.,0.,0.));
#1156=DIRECTION('',(0.,0.,1.));
#1157=DIRECTION('',(0.,0.,1.));
#1158=DIRECTION('',(0.,-1.,0.));
#1159=DIRECTION('',(0.,0.,1.));
#1160=DIRECTION('',(1.,0.,0.));
#1161=DIRECTION('',(0.,0.,1.));
#1162=DIRECTION('',(0.,0.,-1.));
#1163=DIRECTION('',(-1.,0.,0.));
#1164=DIRECTION('',(0.,1.,0.));
#1165=DIRECTION('',(0.,0.,1.));
#1166=DIRECTION('',(0.,0.,1.));
#1167=DIRECTION('',(-1.,0.,0.));
#1168=DIRECTION('',(-1.,0.,0.));
#1169=DIRECTION('',(0.,0.,1.));
#1170=DIRECTION('',(0.,0.,1.));
#1171=DIRECTION('',(0.,-1.,0.));
#1172=DIRECTION('',(0.,0.,1.));
#1173=DIRECTION('',(1.,0.,0.));
#1174=DIRECTION('',(0.,0.,1.));
#1175=DIRECTION('',(0.,0.,1.));
#1176=DIRECTION('',(-1.,0.,0.));
#1177=DIRECTION('',(-1.,2.01127359533543E-16,0.));
#1178=DIRECTION('',(-2.01127359533543E-16,-1.,0.));
#1179=DIRECTION('',(0.,0.,1.));
#1180=DIRECTION('',(-2.01127359533543E-16,-1.,0.));
#1181=DIRECTION('',(0.,0.,1.));
#1182=DIRECTION('',(1.,0.,0.));
#1183=DIRECTION('',(0.,0.,1.));
#1184=DIRECTION('',(0.,0.,-1.));
#1185=DIRECTION('',(-1.,0.,0.));
#1186=DIRECTION('',(0.,-1.,0.));
#1187=DIRECTION('',(0.,0.,-1.));
#1188=DIRECTION('',(0.,0.,1.));
#1189=DIRECTION('',(1.,0.,0.));
#1190=DIRECTION('',(-1.,0.,0.));
#1191=DIRECTION('',(0.,0.,1.));
#1192=DIRECTION('',(0.,0.,1.));
#1193=DIRECTION('',(0.,-1.,0.));
#1194=DIRECTION('',(0.,0.,1.));
#1195=DIRECTION('',(1.,0.,0.));
#1196=DIRECTION('',(0.,0.,1.));
#1197=DIRECTION('',(0.,0.,-1.));
#1198=DIRECTION('',(-1.,0.,0.));
#1199=DIRECTION('',(0.,-1.,0.));
#1200=DIRECTION('',(0.,0.,-1.));
#1201=DIRECTION('',(0.,0.,1.));
#1202=DIRECTION('',(1.,0.,0.));
#1203=DIRECTION('',(-1.,0.,0.));
#1204=DIRECTION('',(0.,0.,1.));
#1205=DIRECTION('',(0.,0.,1.));
#1206=DIRECTION('',(0.,-1.,0.));
#1207=DIRECTION('',(0.,0.,1.));
#1208=DIRECTION('',(1.,0.,0.));
#1209=DIRECTION('',(0.,0.,1.));
#1210=DIRECTION('',(0.,0.,1.));
#1211=DIRECTION('',(-1.,0.,0.));
#1212=DIRECTION('',(0.,0.,1.));
#1213=DIRECTION('',(1.,0.,0.));
#1214=DIRECTION('',(0.,0.,1.));
#1215=DIRECTION('',(0.,0.,-1.));
#1216=DIRECTION('',(-1.,0.,0.));
#1217=DIRECTION('',(-1.,0.,0.));
#1218=DIRECTION('',(0.,0.,1.));
#1219=DIRECTION('',(0.,0.,1.));
#1220=DIRECTION('',(0.,-1.,0.));
#1221=DIRECTION('',(0.,1.,0.));
#1222=DIRECTION('',(0.,0.,1.));
#1223=DIRECTION('',(0.,0.,1.));
#1224=DIRECTION('',(-1.,0.,0.));
#1225=DIRECTION('',(0.,0.,1.));
#1226=DIRECTION('',(1.,0.,0.));
#1227=DIRECTION('',(0.,0.,1.));
#1228=DIRECTION('',(0.,0.,1.));
#1229=DIRECTION('',(1.,0.,0.));
#1230=DIRECTION('',(-1.,0.,0.));
#1231=DIRECTION('',(0.,0.,1.));
#1232=DIRECTION('',(0.,0.,1.));
#1233=DIRECTION('',(0.,-1.,0.));
#1234=DIRECTION('',(0.,1.,0.));
#1235=DIRECTION('',(0.,0.,1.));
#1236=DIRECTION('',(0.,0.,1.));
#1237=DIRECTION('',(-1.,0.,0.));
#1238=DIRECTION('',(0.,0.,1.));
#1239=DIRECTION('',(1.,0.,0.));
#1240=DIRECTION('',(0.,0.,1.));
#1241=DIRECTION('',(0.,0.,1.));
#1242=DIRECTION('',(1.,0.,0.));
#1243=DIRECTION('',(-1.,-2.01127359533543E-16,0.));
#1244=DIRECTION('',(2.01127359533543E-16,-1.,0.));
#1245=DIRECTION('',(0.,0.,1.));
#1246=DIRECTION('',(2.01127359533543E-16,-1.,0.));
#1247=DIRECTION('',(0.,0.,1.));
#1248=DIRECTION('',(1.,0.,0.));
#1249=DIRECTION('',(0.,0.,1.));
#1250=DIRECTION('',(0.,0.,-1.));
#1251=DIRECTION('',(-1.,0.,0.));
#1252=DIRECTION('',(-1.,0.,0.));
#1253=DIRECTION('',(0.,0.,1.));
#1254=DIRECTION('',(0.,0.,1.));
#1255=DIRECTION('',(0.,-1.,0.));
#1256=DIRECTION('',(0.,-1.,0.));
#1257=DIRECTION('',(0.,0.,-1.));
#1258=DIRECTION('',(0.,0.,1.));
#1259=DIRECTION('',(1.,0.,0.));
#1260=DIRECTION('',(0.,0.,1.));
#1261=DIRECTION('',(1.,0.,0.));
#1262=DIRECTION('',(0.,0.,1.));
#1263=DIRECTION('',(0.,0.,-1.));
#1264=DIRECTION('',(-1.,0.,0.));
#1265=DIRECTION('',(-1.,0.,0.));
#1266=DIRECTION('',(0.,0.,1.));
#1267=DIRECTION('',(0.,0.,1.));
#1268=DIRECTION('',(0.,-1.,0.));
#1269=DIRECTION('',(0.,-1.,0.));
#1270=DIRECTION('',(0.,0.,-1.));
#1271=DIRECTION('',(0.,0.,1.));
#1272=DIRECTION('',(1.,0.,0.));
#1273=DIRECTION('',(0.,0.,1.));
#1274=DIRECTION('',(1.,0.,0.));
#1275=DIRECTION('',(0.,0.,1.));
#1276=DIRECTION('',(0.,0.,-1.));
#1277=DIRECTION('',(-1.,0.,0.));
#1278=DIRECTION('',(-1.,0.,0.));
#1279=DIRECTION('',(0.,0.,1.));
#1280=DIRECTION('',(0.,0.,1.));
#1281=DIRECTION('',(0.,-1.,0.));
#1282=DIRECTION('',(0.,-1.,0.));
#1283=DIRECTION('',(0.,0.,-1.));
#1284=DIRECTION('',(0.,0.,1.));
#1285=DIRECTION('',(1.,0.,0.));
#1286=DIRECTION('',(0.,0.,1.));
#1287=DIRECTION('',(1.,0.,0.));
#1288=DIRECTION('',(0.,0.,-1.));
#1289=DIRECTION('',(-1.,0.,0.));
#1290=DIRECTION('',(0.,0.,1.));
#1291=DIRECTION('',(1.,0.,0.));
#1292=DIRECTION('',(0.,0.,-1.));
#1293=DIRECTION('',(-1.,0.,0.));
#1294=DIRECTION('',(0.,0.,1.));
#1295=DIRECTION('',(1.,0.,0.));
#1296=DIRECTION('',(0.,0.,1.));
#1297=DIRECTION('',(-1.,0.,0.));
#1298=DIRECTION('',(0.,0.,1.));
#1299=DIRECTION('',(1.,0.,0.));
#1300=DIRECTION('',(0.,0.,-1.));
#1301=DIRECTION('',(-1.,0.,0.));
#1302=DIRECTION('',(0.,0.,-1.));
#1303=DIRECTION('',(1.,0.,0.));
#1304=DIRECTION('',(1.,-6.65281832841564E-17,0.));
#1305=DIRECTION('',(6.65281832841564E-17,1.,0.));
#1306=DIRECTION('',(6.65281832841564E-17,1.,0.));
#1307=DIRECTION('',(0.,0.,1.));
#1308=DIRECTION('',(0.,1.,0.));
#1309=DIRECTION('',(0.,0.,1.));
#1310=DIRECTION('',(-1.,0.,0.));
#1311=DIRECTION('',(0.,0.,1.));
#1312=DIRECTION('',(1.,-6.65281832841564E-17,0.));
#1313=DIRECTION('',(6.65281832841564E-17,1.,0.));
#1314=DIRECTION('',(6.65281832841564E-17,1.,0.));
#1315=DIRECTION('',(0.,0.,-1.));
#1316=DIRECTION('',(1.,0.,0.));
#1317=CARTESIAN_POINT('',(0.,0.,0.));
#1318=CARTESIAN_POINT('',(-0.0165,-0.0730323879818265,-0.01));
#1319=CARTESIAN_POINT('',(-8.67361737988404E-18,-0.0730323879818265,-0.007));
#1320=CARTESIAN_POINT('',(-0.0076804784562811,-0.0730323879818265,-0.007));
#1321=CARTESIAN_POINT('',(0.00768047845628109,-0.0730323879818265,-0.007));
#1322=CARTESIAN_POINT('',(-0.0076804784562811,-0.0730323879818265,-0.007));
#1323=CARTESIAN_POINT('',(-0.0076804784562811,-0.0730323879818265,-0.005));
#1324=CARTESIAN_POINT('',(-0.0165,-0.0730323879818265,-0.005));
#1325=CARTESIAN_POINT('',(-0.035,-0.0730323879818265,-0.005));
#1326=CARTESIAN_POINT('',(-0.035,-0.0730323879818265,-0.01));
#1327=CARTESIAN_POINT('',(-0.035,-0.0730323879818265,-0.01));
#1328=CARTESIAN_POINT('',(-0.0165,-0.0730323879818265,-0.01));
#1329=CARTESIAN_POINT('',(0.035,-0.0730323879818265,-0.01));
#1330=CARTESIAN_POINT('',(0.035,-0.0730323879818265,-0.01));
#1331=CARTESIAN_POINT('',(0.035,-0.0730323879818265,-0.005));
#1332=CARTESIAN_POINT('',(-0.0165,-0.0730323879818265,-0.005));
#1333=CARTESIAN_POINT('',(0.00768047845628109,-0.0730323879818265,-0.005));
#1334=CARTESIAN_POINT('',(0.00768047845628109,-0.0730323879818265,-0.007));
#1335=CARTESIAN_POINT('',(0.,-0.0220161939909133,-0.005));
#1336=CARTESIAN_POINT('',(0.,0.0254786429013116,-0.005));
#1337=CARTESIAN_POINT('',(-0.0015,0.0254786429013116,-0.005));
#1338=CARTESIAN_POINT('',(0.016,-0.0627542361617088,-0.005));
#1339=CARTESIAN_POINT('',(0.0145,-0.0627542361617088,-0.005));
#1340=CARTESIAN_POINT('',(-0.016,-0.0627542361617088,-0.005));
#1341=CARTESIAN_POINT('',(-0.0175,-0.0627542361617088,-0.005));
#1342=CARTESIAN_POINT('',(0.00768047845628109,-0.0469573714949427,-0.005));
#1343=CARTESIAN_POINT('',(0.00768047845628109,-0.0208823550080589,-0.005));
#1344=CARTESIAN_POINT('',(0.035,-0.0710323879818265,-0.005));
#1345=CARTESIAN_POINT('',(0.035,-0.0715323879818265,-0.005));
#1346=CARTESIAN_POINT('',(0.0345,-0.0715323879818265,-0.005));
#1347=CARTESIAN_POINT('',(0.0345,-0.0710323879818265,-0.005));
#1348=CARTESIAN_POINT('',(0.034,-0.0710323879818265,-0.005));
#1349=CARTESIAN_POINT('',(0.033,-0.0710323879818265,-0.005));
#1350=CARTESIAN_POINT('',(0.033,-0.0695323879818265,-0.005));
#1351=CARTESIAN_POINT('',(0.033,-0.0700323879818265,-0.005));
#1352=CARTESIAN_POINT('',(0.0325,-0.0700323879818265,-0.005));
#1353=CARTESIAN_POINT('',(0.0325,-0.0695323879818265,-0.005));
#1354=CARTESIAN_POINT('',(0.032,-0.0695323879818265,-0.005));
#1355=CARTESIAN_POINT('',(0.031,-0.0695323879818265,-0.005));
#1356=CARTESIAN_POINT('',(0.031,-0.0680323879818265,-0.005));
#1357=CARTESIAN_POINT('',(0.031,-0.0685323879818265,-0.005));
#1358=CARTESIAN_POINT('',(0.0305,-0.0685323879818265,-0.005));
#1359=CARTESIAN_POINT('',(0.0305,-0.0680323879818265,-0.005));
#1360=CARTESIAN_POINT('',(0.0155,-0.0680323879818265,-0.005));
#1361=CARTESIAN_POINT('',(0.0235933978110552,-0.0680323879818265,-0.005));
#1362=CARTESIAN_POINT('',(0.0235933978110552,-0.0663344822824001,-0.005));
#1363=CARTESIAN_POINT('',(0.0235933978110552,-0.0627542361617088,-0.005));
#1364=CARTESIAN_POINT('',(0.0103840515328383,-0.0646349482672283,-0.005));
#1365=CARTESIAN_POINT('',(0.0185,-0.0540446089147777,-0.005));
#1366=CARTESIAN_POINT('',(0.0185,-0.0557823879818265,-0.005));
#1367=CARTESIAN_POINT('',(0.0185,-0.0385323879818266,-0.005));
#1368=CARTESIAN_POINT('',(0.016,-0.0385323879818266,-0.005));
#1369=CARTESIAN_POINT('',(0.016,-0.0360323879818265,-0.005));
#1370=CARTESIAN_POINT('',(0.01525,-0.0360323879818265,-0.005));
#1371=CARTESIAN_POINT('',(0.0145,-0.0360323879818265,-0.005));
#1372=CARTESIAN_POINT('',(0.0145,-0.0342823879818266,-0.005));
#1373=CARTESIAN_POINT('',(0.0145,-0.0325323879818266,-0.005));
#1374=CARTESIAN_POINT('',(0.012,-0.0325323879818266,-0.005));
#1375=CARTESIAN_POINT('',(0.012,-0.0300323879818265,-0.005));
#1376=CARTESIAN_POINT('',(0.01125,-0.0300323879818265,-0.005));
#1377=CARTESIAN_POINT('',(0.0105,-0.0300323879818265,-0.005));
#1378=CARTESIAN_POINT('',(0.0105,-0.0285323879818265,-0.005));
#1379=CARTESIAN_POINT('',(0.0105,-0.0270323879818265,-0.005));
#1380=CARTESIAN_POINT('',(-0.000113970403797267,-2.13570986883401E-5,-0.005));
#1381=CARTESIAN_POINT('',(-1.32099192695634E-15,0.029,-0.005));
#1382=CARTESIAN_POINT('',(0.000113970403797267,-2.13570986883401E-5,-0.005));
#1383=CARTESIAN_POINT('',(-0.0105,-0.0270323879818265,-0.005));
#1384=CARTESIAN_POINT('',(-0.0105,-0.0285323879818265,-0.005));
#1385=CARTESIAN_POINT('',(-0.0105,-0.0300323879818265,-0.005));
#1386=CARTESIAN_POINT('',(-0.01125,-0.0300323879818265,-0.005));
#1387=CARTESIAN_POINT('',(-0.012,-0.0300323879818265,-0.005));
#1388=CARTESIAN_POINT('',(-0.012,-0.0325323879818266,-0.005));
#1389=CARTESIAN_POINT('',(-0.0145,-0.0325323879818266,-0.005));
#1390=CARTESIAN_POINT('',(-0.0145,-0.0342823879818266,-0.005));
#1391=CARTESIAN_POINT('',(-0.0145,-0.0360323879818265,-0.005));
#1392=CARTESIAN_POINT('',(-0.01525,-0.0360323879818265,-0.005));
#1393=CARTESIAN_POINT('',(-0.016,-0.0360323879818265,-0.005));
#1394=CARTESIAN_POINT('',(-0.016,-0.0385323879818266,-0.005));
#1395=CARTESIAN_POINT('',(-0.0185,-0.0385323879818266,-0.005));
#1396=CARTESIAN_POINT('',(-0.0185,-0.0557823879818265,-0.005));
#1397=CARTESIAN_POINT('',(-0.0185,-0.0540446089147777,-0.005));
#1398=CARTESIAN_POINT('',(-0.0103840515328383,-0.0646349482672283,-0.005));
#1399=CARTESIAN_POINT('',(-0.0235933978110552,-0.0627542361617088,-0.005));
#1400=CARTESIAN_POINT('',(-0.0235933978110552,-0.0663344822824001,-0.005));
#1401=CARTESIAN_POINT('',(-0.0235933978110552,-0.0680323879818265,-0.005));
#1402=CARTESIAN_POINT('',(-0.0155,-0.0680323879818265,-0.005));
#1403=CARTESIAN_POINT('',(-0.0305,-0.0680323879818265,-0.005));
#1404=CARTESIAN_POINT('',(-0.0305,-0.0685323879818265,-0.005));
#1405=CARTESIAN_POINT('',(-0.031,-0.0685323879818265,-0.005));
#1406=CARTESIAN_POINT('',(-0.031,-0.0680323879818265,-0.005));
#1407=CARTESIAN_POINT('',(-0.031,-0.0695323879818265,-0.005));
#1408=CARTESIAN_POINT('',(-0.032,-0.0695323879818265,-0.005));
#1409=CARTESIAN_POINT('',(-0.0325,-0.0695323879818265,-0.005));
#1410=CARTESIAN_POINT('',(-0.0325,-0.0700323879818265,-0.005));
#1411=CARTESIAN_POINT('',(-0.033,-0.0700323879818265,-0.005));
#1412=CARTESIAN_POINT('',(-0.033,-0.0695323879818265,-0.005));
#1413=CARTESIAN_POINT('',(-0.033,-0.0710323879818265,-0.005));
#1414=CARTESIAN_POINT('',(-0.034,-0.0710323879818265,-0.005));
#1415=CARTESIAN_POINT('',(-0.0345,-0.0710323879818265,-0.005));
#1416=CARTESIAN_POINT('',(-0.0345,-0.0715323879818265,-0.005));
#1417=CARTESIAN_POINT('',(-0.035,-0.0715323879818265,-0.005));
#1418=CARTESIAN_POINT('',(-0.035,-0.0710323879818265,-0.005));
#1419=CARTESIAN_POINT('',(-0.0076804784562811,-0.0469573714949427,-0.005));
#1420=CARTESIAN_POINT('',(-0.0076804784562811,-0.0208823550080589,-0.005));
#1421=CARTESIAN_POINT('',(-5.20417042793042E-18,-0.0208823550080589,-0.005));
#1422=CARTESIAN_POINT('',(0.035,-0.0710323879818265,-0.01));
#1423=CARTESIAN_POINT('',(0.035,-0.0710323879818265,-0.01));
#1424=CARTESIAN_POINT('',(0.035,-0.0715323879818265,-0.01));
#1425=CARTESIAN_POINT('',(0.035,-0.0715323879818265,-0.01));
#1426=CARTESIAN_POINT('',(-0.035,-0.0710323879818265,-0.01));
#1427=CARTESIAN_POINT('',(-0.035,-0.0715323879818265,-0.01));
#1428=CARTESIAN_POINT('',(-0.035,-0.0715323879818265,-0.01));
#1429=CARTESIAN_POINT('',(-0.035,-0.0710323879818265,-0.01));
#1430=CARTESIAN_POINT('',(-0.0345,-0.0715323879818265,-0.01));
#1431=CARTESIAN_POINT('',(-0.0345,-0.0710323879818265,-0.01));
#1432=CARTESIAN_POINT('',(-0.0345,-0.0710323879818265,-0.01));
#1433=CARTESIAN_POINT('',(-0.0345,-0.0715323879818265,-0.01));
#1434=CARTESIAN_POINT('',(-0.034,-0.0710323879818265,-0.01));
#1435=CARTESIAN_POINT('',(-0.033,-0.0710323879818265,-0.01));
#1436=CARTESIAN_POINT('',(-0.033,-0.0710323879818265,-0.01));
#1437=CARTESIAN_POINT('',(-0.034,-0.0710323879818265,-0.01));
#1438=CARTESIAN_POINT('',(-0.033,-0.0695323879818265,-0.01));
#1439=CARTESIAN_POINT('',(-0.033,-0.0700323879818265,-0.01));
#1440=CARTESIAN_POINT('',(-0.033,-0.0700323879818265,-0.01));
#1441=CARTESIAN_POINT('',(-0.033,-0.0695323879818265,-0.01));
#1442=CARTESIAN_POINT('',(-0.0325,-0.0700323879818265,-0.01));
#1443=CARTESIAN_POINT('',(-0.0325,-0.0695323879818265,-0.01));
#1444=CARTESIAN_POINT('',(-0.0325,-0.0695323879818265,-0.01));
#1445=CARTESIAN_POINT('',(-0.0325,-0.0700323879818265,-0.01));
#1446=CARTESIAN_POINT('',(-0.032,-0.0695323879818265,-0.01));
#1447=CARTESIAN_POINT('',(-0.031,-0.0695323879818265,-0.01));
#1448=CARTESIAN_POINT('',(-0.031,-0.0695323879818265,-0.01));
#1449=CARTESIAN_POINT('',(-0.032,-0.0695323879818265,-0.01));
#1450=CARTESIAN_POINT('',(-0.031,-0.0680323879818265,-0.01));
#1451=CARTESIAN_POINT('',(-0.031,-0.0685323879818265,-0.01));
#1452=CARTESIAN_POINT('',(-0.031,-0.0685323879818265,-0.01));
#1453=CARTESIAN_POINT('',(-0.031,-0.0680323879818265,-0.01));
#1454=CARTESIAN_POINT('',(-0.0305,-0.0685323879818265,-0.01));
#1455=CARTESIAN_POINT('',(-0.0305,-0.0680323879818265,-0.01));
#1456=CARTESIAN_POINT('',(-0.0305,-0.0680323879818265,-0.01));
#1457=CARTESIAN_POINT('',(-0.0305,-0.0685323879818265,-0.01));
#1458=CARTESIAN_POINT('',(-0.0155,-0.0680323879818265,-0.01));
#1459=CARTESIAN_POINT('',(-0.0235933978110552,-0.0680323879818265,-0.01));
#1460=CARTESIAN_POINT('',(-0.0235933978110552,-0.0680323879818265,-0.01));
#1461=CARTESIAN_POINT('',(-0.0155,-0.0680323879818265,-0.01));
#1462=CARTESIAN_POINT('',(-0.0235933978110552,-0.0663344822824001,-0.01));
#1463=CARTESIAN_POINT('',(-0.0235933978110552,-0.0627542361617088,-0.01));
#1464=CARTESIAN_POINT('',(-0.0235933978110552,-0.0627542361617088,-0.01));
#1465=CARTESIAN_POINT('',(-0.0235933978110552,-0.0663344822824001,-0.01));
#1466=CARTESIAN_POINT('',(-0.0103840515328383,-0.0646349482672283,-0.01));
#1467=CARTESIAN_POINT('',(-0.0185,-0.0540446089147777,-0.01));
#1468=CARTESIAN_POINT('',(-0.0185,-0.0540446089147777,-0.01));
#1469=CARTESIAN_POINT('',(-0.0103840515328383,-0.0646349482672283,-0.01));
#1470=CARTESIAN_POINT('',(-0.0185,-0.0557823879818265,-0.01));
#1471=CARTESIAN_POINT('',(-0.0185,-0.0385323879818266,-0.01));
#1472=CARTESIAN_POINT('',(-0.0185,-0.0385323879818266,-0.01));
#1473=CARTESIAN_POINT('',(-0.0185,-0.0557823879818265,-0.01));
#1474=CARTESIAN_POINT('',(-0.016,-0.0385323879818266,-0.01));
#1475=CARTESIAN_POINT('',(-0.016,-0.0360323879818265,-0.01));
#1476=CARTESIAN_POINT('',(-0.016,-0.0360323879818265,-0.01));
#1477=CARTESIAN_POINT('',(-0.016,-0.0385323879818266,-0.01));
#1478=CARTESIAN_POINT('',(-0.01525,-0.0360323879818265,-0.01));
#1479=CARTESIAN_POINT('',(-0.0145,-0.0360323879818265,-0.01));
#1480=CARTESIAN_POINT('',(-0.0145,-0.0360323879818265,-0.01));
#1481=CARTESIAN_POINT('',(-0.01525,-0.0360323879818265,-0.01));
#1482=CARTESIAN_POINT('',(-0.0145,-0.0342823879818266,-0.01));
#1483=CARTESIAN_POINT('',(-0.0145,-0.0325323879818266,-0.01));
#1484=CARTESIAN_POINT('',(-0.0145,-0.0325323879818266,-0.01));
#1485=CARTESIAN_POINT('',(-0.0145,-0.0342823879818266,-0.01));
#1486=CARTESIAN_POINT('',(-0.012,-0.0325323879818266,-0.01));
#1487=CARTESIAN_POINT('',(-0.012,-0.0300323879818265,-0.01));
#1488=CARTESIAN_POINT('',(-0.012,-0.0300323879818265,-0.01));
#1489=CARTESIAN_POINT('',(-0.012,-0.0325323879818266,-0.01));
#1490=CARTESIAN_POINT('',(-0.01125,-0.0300323879818265,-0.01));
#1491=CARTESIAN_POINT('',(-0.0105,-0.0300323879818265,-0.01));
#1492=CARTESIAN_POINT('',(-0.0105,-0.0300323879818265,-0.01));
#1493=CARTESIAN_POINT('',(-0.01125,-0.0300323879818265,-0.01));
#1494=CARTESIAN_POINT('',(-0.0105,-0.0285323879818265,-0.01));
#1495=CARTESIAN_POINT('',(-0.0105,-0.0270323879818265,-0.01));
#1496=CARTESIAN_POINT('',(-0.0105,-0.0270323879818265,-0.01));
#1497=CARTESIAN_POINT('',(-0.0105,-0.0285323879818265,-0.01));
#1498=CARTESIAN_POINT('',(0.000113970403797267,-2.13570986883401E-5,-0.01));
#1499=CARTESIAN_POINT('',(-1.32099192695634E-15,0.029,-0.01));
#1500=CARTESIAN_POINT('',(-1.32099192695634E-15,0.029,-0.01));
#1501=CARTESIAN_POINT('',(0.000113970403797267,-2.13570986883401E-5,-0.01));
#1502=CARTESIAN_POINT('',(-0.000113970403797267,-2.13570986883401E-5,-0.01));
#1503=CARTESIAN_POINT('',(0.0105,-0.0270323879818265,-0.01));
#1504=CARTESIAN_POINT('',(0.0105,-0.0270323879818265,-0.01));
#1505=CARTESIAN_POINT('',(-0.000113970403797267,-2.13570986883401E-5,-0.01));
#1506=CARTESIAN_POINT('',(0.0105,-0.0285323879818265,-0.01));
#1507=CARTESIAN_POINT('',(0.0105,-0.0300323879818265,-0.01));
#1508=CARTESIAN_POINT('',(0.0105,-0.0300323879818265,-0.01));
#1509=CARTESIAN_POINT('',(0.0105,-0.0285323879818265,-0.01));
#1510=CARTESIAN_POINT('',(0.01125,-0.0300323879818265,-0.01));
#1511=CARTESIAN_POINT('',(0.012,-0.0300323879818265,-0.01));
#1512=CARTESIAN_POINT('',(0.012,-0.0300323879818265,-0.01));
#1513=CARTESIAN_POINT('',(0.01125,-0.0300323879818265,-0.01));
#1514=CARTESIAN_POINT('',(0.012,-0.0325323879818266,-0.01));
#1515=CARTESIAN_POINT('',(0.0145,-0.0325323879818266,-0.01));
#1516=CARTESIAN_POINT('',(0.0145,-0.0325323879818266,-0.01));
#1517=CARTESIAN_POINT('',(0.012,-0.0325323879818266,-0.01));
#1518=CARTESIAN_POINT('',(0.0145,-0.0342823879818266,-0.01));
#1519=CARTESIAN_POINT('',(0.0145,-0.0360323879818265,-0.01));
#1520=CARTESIAN_POINT('',(0.0145,-0.0360323879818265,-0.01));
#1521=CARTESIAN_POINT('',(0.0145,-0.0342823879818266,-0.01));
#1522=CARTESIAN_POINT('',(0.01525,-0.0360323879818265,-0.01));
#1523=CARTESIAN_POINT('',(0.016,-0.0360323879818265,-0.01));
#1524=CARTESIAN_POINT('',(0.016,-0.0360323879818265,-0.01));
#1525=CARTESIAN_POINT('',(0.01525,-0.0360323879818265,-0.01));
#1526=CARTESIAN_POINT('',(0.016,-0.0385323879818266,-0.01));
#1527=CARTESIAN_POINT('',(0.0185,-0.0385323879818266,-0.01));
#1528=CARTESIAN_POINT('',(0.0185,-0.0385323879818266,-0.01));
#1529=CARTESIAN_POINT('',(0.016,-0.0385323879818266,-0.01));
#1530=CARTESIAN_POINT('',(0.0185,-0.0557823879818265,-0.01));
#1531=CARTESIAN_POINT('',(0.0185,-0.0540446089147777,-0.01));
#1532=CARTESIAN_POINT('',(0.0185,-0.0540446089147777,-0.01));
#1533=CARTESIAN_POINT('',(0.0185,-0.0557823879818265,-0.01));
#1534=CARTESIAN_POINT('',(0.0103840515328383,-0.0646349482672283,-0.01));
#1535=CARTESIAN_POINT('',(0.0235933978110552,-0.0627542361617088,-0.01));
#1536=CARTESIAN_POINT('',(0.0235933978110552,-0.0627542361617088,-0.01));
#1537=CARTESIAN_POINT('',(0.0103840515328383,-0.0646349482672283,-0.01));
#1538=CARTESIAN_POINT('',(0.0235933978110552,-0.0663344822824001,-0.01));
#1539=CARTESIAN_POINT('',(0.0235933978110552,-0.0680323879818265,-0.01));
#1540=CARTESIAN_POINT('',(0.0235933978110552,-0.0680323879818265,-0.01));
#1541=CARTESIAN_POINT('',(0.0235933978110552,-0.0663344822824001,-0.01));
#1542=CARTESIAN_POINT('',(0.0155,-0.0680323879818265,-0.01));
#1543=CARTESIAN_POINT('',(0.0305,-0.0680323879818265,-0.01));
#1544=CARTESIAN_POINT('',(0.0305,-0.0680323879818265,-0.01));
#1545=CARTESIAN_POINT('',(0.0155,-0.0680323879818265,-0.01));
#1546=CARTESIAN_POINT('',(0.0305,-0.0685323879818265,-0.01));
#1547=CARTESIAN_POINT('',(0.031,-0.0685323879818265,-0.01));
#1548=CARTESIAN_POINT('',(0.031,-0.0685323879818265,-0.01));
#1549=CARTESIAN_POINT('',(0.0305,-0.0685323879818265,-0.01));
#1550=CARTESIAN_POINT('',(0.031,-0.0680323879818265,-0.01));
#1551=CARTESIAN_POINT('',(0.031,-0.0695323879818265,-0.01));
#1552=CARTESIAN_POINT('',(0.031,-0.0695323879818265,-0.01));
#1553=CARTESIAN_POINT('',(0.031,-0.0680323879818265,-0.01));
#1554=CARTESIAN_POINT('',(0.032,-0.0695323879818265,-0.01));
#1555=CARTESIAN_POINT('',(0.0325,-0.0695323879818265,-0.01));
#1556=CARTESIAN_POINT('',(0.0325,-0.0695323879818265,-0.01));
#1557=CARTESIAN_POINT('',(0.032,-0.0695323879818265,-0.01));
#1558=CARTESIAN_POINT('',(0.0325,-0.0700323879818265,-0.01));
#1559=CARTESIAN_POINT('',(0.033,-0.0700323879818265,-0.01));
#1560=CARTESIAN_POINT('',(0.033,-0.0700323879818265,-0.01));
#1561=CARTESIAN_POINT('',(0.0325,-0.0700323879818265,-0.01));
#1562=CARTESIAN_POINT('',(0.033,-0.0695323879818265,-0.01));
#1563=CARTESIAN_POINT('',(0.033,-0.0710323879818265,-0.01));
#1564=CARTESIAN_POINT('',(0.033,-0.0710323879818265,-0.01));
#1565=CARTESIAN_POINT('',(0.033,-0.0695323879818265,-0.01));
#1566=CARTESIAN_POINT('',(0.034,-0.0710323879818265,-0.01));
#1567=CARTESIAN_POINT('',(0.0345,-0.0710323879818265,-0.01));
#1568=CARTESIAN_POINT('',(0.0345,-0.0710323879818265,-0.01));
#1569=CARTESIAN_POINT('',(0.034,-0.0710323879818265,-0.01));
#1570=CARTESIAN_POINT('',(0.016,-0.0627542361617088,-0.01));
#1571=CARTESIAN_POINT('',(0.016,-0.0627542361617088,-0.01));
#1572=CARTESIAN_POINT('',(0.0145,-0.0627542361617088,-0.01));
#1573=CARTESIAN_POINT('',(0.0345,-0.0715323879818265,-0.01));
#1574=CARTESIAN_POINT('',(0.0345,-0.0715323879818265,-0.01));
#1575=CARTESIAN_POINT('',(-0.016,-0.0627542361617088,-0.01));
#1576=CARTESIAN_POINT('',(-0.016,-0.0627542361617088,-0.01));
#1577=CARTESIAN_POINT('',(-0.0175,-0.0627542361617088,-0.01));
#1578=CARTESIAN_POINT('',(0.,0.0254786429013116,-0.01));
#1579=CARTESIAN_POINT('',(0.,0.0254786429013116,-0.01));
#1580=CARTESIAN_POINT('',(-0.0015,0.0254786429013116,-0.01));
#1581=CARTESIAN_POINT('',(0.,-0.0220161939909133,-0.01));
#1582=CARTESIAN_POINT('',(-0.0076804784562811,-0.0469573714949427,-0.007));
#1583=CARTESIAN_POINT('',(-0.0076804784562811,-0.0469573714949427,-0.007));
#1584=CARTESIAN_POINT('',(-0.0076804784562811,-0.0208823550080589,-0.007));
#1585=CARTESIAN_POINT('',(-0.0076804784562811,-0.0208823550080589,-0.007));
#1586=CARTESIAN_POINT('',(-5.20417042793042E-18,-0.0208823550080589,-0.007));
#1587=CARTESIAN_POINT('',(-5.20417042793042E-18,-0.0208823550080589,-0.007));
#1588=CARTESIAN_POINT('',(0.00768047845628109,-0.0208823550080589,-0.007));
#1589=CARTESIAN_POINT('',(0.00768047845628109,-0.0208823550080589,-0.007));
#1590=CARTESIAN_POINT('',(0.00768047845628109,-0.0469573714949427,-0.007));
#1591=CARTESIAN_POINT('',(0.00768047845628109,-0.0469573714949427,-0.007));
#1592=CARTESIAN_POINT('',(0.,-0.0220161939909133,-0.007));
#1593=MECHANICAL_DESIGN_GEOMETRIC_PRESENTATION_REPRESENTATION('',(#956),
#1594);
#1594=(
GEOMETRIC_REPRESENTATION_CONTEXT(3)
GLOBAL_UNCERTAINTY_ASSIGNED_CONTEXT((#1595))
GLOBAL_UNIT_ASSIGNED_CONTEXT((#1598,#1597,#1596))
REPRESENTATION_CONTEXT('Back','TOP_LEVEL_ASSEMBLY_PART')
);
#1595=UNCERTAINTY_MEASURE_WITH_UNIT(LENGTH_MEASURE(1.E-8),#1598,
'DISTANCE_ACCURACY_VALUE','Maximum Tolerance applied to model');
#1596=(
NAMED_UNIT(*)
SI_UNIT($,.STERADIAN.)
SOLID_ANGLE_UNIT()
);
#1597=(
NAMED_UNIT(*)
PLANE_ANGLE_UNIT()
SI_UNIT($,.RADIAN.)
);
#1598=(
LENGTH_UNIT()
NAMED_UNIT(*)
SI_UNIT($,.METRE.)
);
#1599=PRODUCT_DEFINITION_SHAPE('','',#1600);
#1600=PRODUCT_DEFINITION('','',#1602,#1601);
#1601=PRODUCT_DEFINITION_CONTEXT('',#1608,'design');
#1602=PRODUCT_DEFINITION_FORMATION_WITH_SPECIFIED_SOURCE('','',#1604,
 .NOT_KNOWN.);
#1603=PRODUCT_RELATED_PRODUCT_CATEGORY('','',(#1604));
#1604=PRODUCT('Back','Back','Back',(#1606));
#1605=PRODUCT_CATEGORY('','');
#1606=PRODUCT_CONTEXT('',#1608,'mechanical');
#1607=APPLICATION_PROTOCOL_DEFINITION('international standard',
'ap242_managed_model_based_3d_engineering',2020,#1608);
#1608=APPLICATION_CONTEXT('managed model based 3d engineering');
ENDSEC;
END-ISO-10303-21;
