ISO-10303-21;
HEADER;
/* Generated by software containing ST-Developer
 * from STEP Tools, Inc. (www.steptools.com) 
 */
/* OPTION: using custom renumber hook */

FILE_DESCRIPTION(
/* description */ ('STEP AP242 Edition 2',
'CAx-IF Rec.Pracs.---Representation and Presentation of Product Manufa
cturing Information (PMI)---4.0---2014-10-13',
'CAx-IF Rec.Pracs.---3D Tessellated Geometry---0.4---2014-09-14','2;1',
'CAx-IF Rec.Pracs.---User Defined Attributes---1.5---2016-08-15'),
/* implementation_level */ '2;1');

FILE_NAME(
/* name */ 'psDisplayCase with Lens - Lens Mount',
/* time_stamp */ '2026-08-08T15:11:47Z',
/* author */ (''),
/* organization */ (''),
/* preprocessor_version */ 'ST-DEVELOPER v20',
/* originating_system */ 'ONSHAPE BY PTC INC, 1.219',
/* authorisation */ '  ');

FILE_SCHEMA (('AP242_MANAGED_MODEL_BASED_3D_ENGINEERING_MIM_LF { 1 0 10303 442 3 1 4 }'));
ENDSEC;

DATA;
#10=SHAPE_REPRESENTATION_RELATIONSHIP('','',#442,#11);
#11=ADVANCED_BREP_SHAPE_REPRESENTATION('',(#440),#745);
#12=PLANE('',#459);
#13=PLANE('',#463);
#14=PLANE('',#470);
#15=PLANE('',#477);
#16=PLANE('',#478);
#17=PLANE('',#479);
#18=PLANE('',#480);
#19=PLANE('',#483);
#20=PLANE('',#484);
#21=PLANE('',#487);
#22=PLANE('',#488);
#23=PLANE('',#491);
#24=CIRCLE('',#445,0.023);
#25=CIRCLE('',#446,0.023);
#26=CIRCLE('',#448,0.023);
#27=CIRCLE('',#449,0.023);
#28=CIRCLE('',#450,0.023);
#29=CIRCLE('',#451,0.023);
#30=CIRCLE('',#453,0.023);
#31=CIRCLE('',#454,0.023);
#32=CIRCLE('',#456,0.02225);
#33=CIRCLE('',#457,0.02225);
#34=CIRCLE('',#458,0.02225);
#35=CIRCLE('',#460,0.02025);
#36=CIRCLE('',#462,0.02025);
#37=CIRCLE('',#464,0.004);
#38=CIRCLE('',#465,0.004);
#39=CIRCLE('',#466,0.004);
#40=CIRCLE('',#467,0.0015);
#41=CIRCLE('',#468,0.0015);
#42=CIRCLE('',#469,0.0015);
#43=CIRCLE('',#471,0.004);
#44=CIRCLE('',#472,0.004);
#45=CIRCLE('',#473,0.004);
#46=CIRCLE('',#474,0.0015);
#47=CIRCLE('',#475,0.0015);
#48=CIRCLE('',#476,0.0015);
#49=ORIENTED_EDGE('',*,*,#163,.F.);
#50=ORIENTED_EDGE('',*,*,#164,.F.);
#51=ORIENTED_EDGE('',*,*,#165,.T.);
#52=ORIENTED_EDGE('',*,*,#166,.T.);
#53=ORIENTED_EDGE('',*,*,#167,.F.);
#54=ORIENTED_EDGE('',*,*,#168,.F.);
#55=ORIENTED_EDGE('',*,*,#169,.T.);
#56=ORIENTED_EDGE('',*,*,#170,.T.);
#57=ORIENTED_EDGE('',*,*,#171,.F.);
#58=ORIENTED_EDGE('',*,*,#172,.T.);
#59=ORIENTED_EDGE('',*,*,#173,.T.);
#60=ORIENTED_EDGE('',*,*,#174,.T.);
#61=ORIENTED_EDGE('',*,*,#175,.F.);
#62=ORIENTED_EDGE('',*,*,#176,.T.);
#63=ORIENTED_EDGE('',*,*,#177,.T.);
#64=ORIENTED_EDGE('',*,*,#178,.F.);
#65=ORIENTED_EDGE('',*,*,#179,.T.);
#66=ORIENTED_EDGE('',*,*,#180,.F.);
#67=ORIENTED_EDGE('',*,*,#181,.F.);
#68=ORIENTED_EDGE('',*,*,#182,.T.);
#69=ORIENTED_EDGE('',*,*,#183,.F.);
#70=ORIENTED_EDGE('',*,*,#184,.T.);
#71=ORIENTED_EDGE('',*,*,#179,.F.);
#72=ORIENTED_EDGE('',*,*,#185,.T.);
#73=ORIENTED_EDGE('',*,*,#184,.F.);
#74=ORIENTED_EDGE('',*,*,#164,.T.);
#75=ORIENTED_EDGE('',*,*,#186,.T.);
#76=ORIENTED_EDGE('',*,*,#187,.T.);
#77=ORIENTED_EDGE('',*,*,#188,.F.);
#78=ORIENTED_EDGE('',*,*,#175,.T.);
#79=ORIENTED_EDGE('',*,*,#189,.T.);
#80=ORIENTED_EDGE('',*,*,#190,.T.);
#81=ORIENTED_EDGE('',*,*,#191,.F.);
#82=ORIENTED_EDGE('',*,*,#168,.T.);
#83=ORIENTED_EDGE('',*,*,#192,.T.);
#84=ORIENTED_EDGE('',*,*,#193,.T.);
#85=ORIENTED_EDGE('',*,*,#194,.F.);
#86=ORIENTED_EDGE('',*,*,#185,.F.);
#87=ORIENTED_EDGE('',*,*,#195,.T.);
#88=ORIENTED_EDGE('',*,*,#196,.T.);
#89=ORIENTED_EDGE('',*,*,#197,.T.);
#90=ORIENTED_EDGE('',*,*,#181,.T.);
#91=ORIENTED_EDGE('',*,*,#198,.T.);
#92=ORIENTED_EDGE('',*,*,#170,.F.);
#93=ORIENTED_EDGE('',*,*,#199,.T.);
#94=ORIENTED_EDGE('',*,*,#200,.F.);
#95=ORIENTED_EDGE('',*,*,#201,.F.);
#96=ORIENTED_EDGE('',*,*,#177,.F.);
#97=ORIENTED_EDGE('',*,*,#202,.T.);
#98=ORIENTED_EDGE('',*,*,#203,.F.);
#99=ORIENTED_EDGE('',*,*,#204,.F.);
#100=ORIENTED_EDGE('',*,*,#166,.F.);
#101=ORIENTED_EDGE('',*,*,#205,.T.);
#102=ORIENTED_EDGE('',*,*,#206,.F.);
#103=ORIENTED_EDGE('',*,*,#207,.F.);
#104=ORIENTED_EDGE('',*,*,#174,.F.);
#105=ORIENTED_EDGE('',*,*,#208,.F.);
#106=ORIENTED_EDGE('',*,*,#209,.F.);
#107=ORIENTED_EDGE('',*,*,#210,.F.);
#108=ORIENTED_EDGE('',*,*,#211,.F.);
#109=ORIENTED_EDGE('',*,*,#183,.T.);
#110=ORIENTED_EDGE('',*,*,#212,.T.);
#111=ORIENTED_EDGE('',*,*,#172,.F.);
#112=ORIENTED_EDGE('',*,*,#213,.F.);
#113=ORIENTED_EDGE('',*,*,#180,.T.);
#114=ORIENTED_EDGE('',*,*,#213,.T.);
#115=ORIENTED_EDGE('',*,*,#171,.T.);
#116=ORIENTED_EDGE('',*,*,#198,.F.);
#117=ORIENTED_EDGE('',*,*,#208,.T.);
#118=ORIENTED_EDGE('',*,*,#173,.F.);
#119=ORIENTED_EDGE('',*,*,#212,.F.);
#120=ORIENTED_EDGE('',*,*,#182,.F.);
#121=ORIENTED_EDGE('',*,*,#199,.F.);
#122=ORIENTED_EDGE('',*,*,#169,.F.);
#123=ORIENTED_EDGE('',*,*,#191,.T.);
#124=ORIENTED_EDGE('',*,*,#214,.T.);
#125=ORIENTED_EDGE('',*,*,#200,.T.);
#126=ORIENTED_EDGE('',*,*,#214,.F.);
#127=ORIENTED_EDGE('',*,*,#190,.F.);
#128=ORIENTED_EDGE('',*,*,#215,.T.);
#129=ORIENTED_EDGE('',*,*,#195,.F.);
#130=ORIENTED_EDGE('',*,*,#209,.T.);
#131=ORIENTED_EDGE('',*,*,#201,.T.);
#132=ORIENTED_EDGE('',*,*,#215,.F.);
#133=ORIENTED_EDGE('',*,*,#189,.F.);
#134=ORIENTED_EDGE('',*,*,#178,.T.);
#135=ORIENTED_EDGE('',*,*,#205,.F.);
#136=ORIENTED_EDGE('',*,*,#165,.F.);
#137=ORIENTED_EDGE('',*,*,#194,.T.);
#138=ORIENTED_EDGE('',*,*,#216,.T.);
#139=ORIENTED_EDGE('',*,*,#206,.T.);
#140=ORIENTED_EDGE('',*,*,#216,.F.);
#141=ORIENTED_EDGE('',*,*,#193,.F.);
#142=ORIENTED_EDGE('',*,*,#217,.T.);
#143=ORIENTED_EDGE('',*,*,#196,.F.);
#144=ORIENTED_EDGE('',*,*,#210,.T.);
#145=ORIENTED_EDGE('',*,*,#207,.T.);
#146=ORIENTED_EDGE('',*,*,#217,.F.);
#147=ORIENTED_EDGE('',*,*,#192,.F.);
#148=ORIENTED_EDGE('',*,*,#167,.T.);
#149=ORIENTED_EDGE('',*,*,#202,.F.);
#150=ORIENTED_EDGE('',*,*,#176,.F.);
#151=ORIENTED_EDGE('',*,*,#188,.T.);
#152=ORIENTED_EDGE('',*,*,#218,.T.);
#153=ORIENTED_EDGE('',*,*,#203,.T.);
#154=ORIENTED_EDGE('',*,*,#218,.F.);
#155=ORIENTED_EDGE('',*,*,#187,.F.);
#156=ORIENTED_EDGE('',*,*,#219,.T.);
#157=ORIENTED_EDGE('',*,*,#197,.F.);
#158=ORIENTED_EDGE('',*,*,#211,.T.);
#159=ORIENTED_EDGE('',*,*,#204,.T.);
#160=ORIENTED_EDGE('',*,*,#219,.F.);
#161=ORIENTED_EDGE('',*,*,#186,.F.);
#162=ORIENTED_EDGE('',*,*,#163,.T.);
#163=EDGE_CURVE('',#220,#221,#261,.T.);
#164=EDGE_CURVE('',#222,#220,#24,.T.);
#165=EDGE_CURVE('',#222,#223,#262,.T.);
#166=EDGE_CURVE('',#223,#221,#25,.T.);
#167=EDGE_CURVE('',#224,#225,#263,.T.);
#168=EDGE_CURVE('',#226,#224,#26,.T.);
#169=EDGE_CURVE('',#226,#227,#264,.T.);
#170=EDGE_CURVE('',#227,#228,#27,.T.);
#171=EDGE_CURVE('',#229,#228,#265,.T.);
#172=EDGE_CURVE('',#229,#230,#28,.T.);
#173=EDGE_CURVE('',#230,#231,#266,.T.);
#174=EDGE_CURVE('',#231,#225,#29,.T.);
#175=EDGE_CURVE('',#232,#233,#30,.T.);
#176=EDGE_CURVE('',#232,#234,#267,.T.);
#177=EDGE_CURVE('',#234,#235,#31,.T.);
#178=EDGE_CURVE('',#233,#235,#268,.T.);
#179=EDGE_CURVE('',#236,#236,#32,.T.);
#180=EDGE_CURVE('',#237,#238,#269,.T.);
#181=EDGE_CURVE('',#239,#237,#33,.T.);
#182=EDGE_CURVE('',#239,#240,#270,.T.);
#183=EDGE_CURVE('',#238,#240,#34,.F.);
#184=EDGE_CURVE('',#241,#241,#35,.T.);
#185=EDGE_CURVE('',#242,#242,#36,.T.);
#186=EDGE_CURVE('',#220,#243,#271,.T.);
#187=EDGE_CURVE('',#243,#244,#37,.T.);
#188=EDGE_CURVE('',#232,#244,#272,.T.);
#189=EDGE_CURVE('',#233,#245,#273,.T.);
#190=EDGE_CURVE('',#245,#246,#38,.T.);
#191=EDGE_CURVE('',#226,#246,#274,.T.);
#192=EDGE_CURVE('',#224,#247,#275,.T.);
#193=EDGE_CURVE('',#247,#248,#39,.T.);
#194=EDGE_CURVE('',#222,#248,#276,.T.);
#195=EDGE_CURVE('',#249,#249,#40,.T.);
#196=EDGE_CURVE('',#250,#250,#41,.T.);
#197=EDGE_CURVE('',#251,#251,#42,.T.);
#198=EDGE_CURVE('',#237,#228,#277,.T.);
#199=EDGE_CURVE('',#227,#252,#278,.T.);
#200=EDGE_CURVE('',#253,#252,#43,.T.);
#201=EDGE_CURVE('',#235,#253,#279,.T.);
#202=EDGE_CURVE('',#234,#254,#280,.T.);
#203=EDGE_CURVE('',#255,#254,#44,.T.);
#204=EDGE_CURVE('',#221,#255,#281,.T.);
#205=EDGE_CURVE('',#223,#256,#282,.T.);
#206=EDGE_CURVE('',#257,#256,#45,.T.);
#207=EDGE_CURVE('',#225,#257,#283,.T.);
#208=EDGE_CURVE('',#239,#231,#284,.T.);
#209=EDGE_CURVE('',#258,#258,#46,.T.);
#210=EDGE_CURVE('',#259,#259,#47,.T.);
#211=EDGE_CURVE('',#260,#260,#48,.T.);
#212=EDGE_CURVE('',#240,#230,#285,.T.);
#213=EDGE_CURVE('',#238,#229,#286,.T.);
#214=EDGE_CURVE('',#246,#252,#287,.T.);
#215=EDGE_CURVE('',#245,#253,#288,.T.);
#216=EDGE_CURVE('',#248,#256,#289,.T.);
#217=EDGE_CURVE('',#247,#257,#290,.T.);
#218=EDGE_CURVE('',#244,#254,#291,.T.);
#219=EDGE_CURVE('',#243,#255,#292,.T.);
#220=VERTEX_POINT('',#625);
#221=VERTEX_POINT('',#626);
#222=VERTEX_POINT('',#628);
#223=VERTEX_POINT('',#630);
#224=VERTEX_POINT('',#634);
#225=VERTEX_POINT('',#635);
#226=VERTEX_POINT('',#637);
#227=VERTEX_POINT('',#639);
#228=VERTEX_POINT('',#641);
#229=VERTEX_POINT('',#643);
#230=VERTEX_POINT('',#645);
#231=VERTEX_POINT('',#647);
#232=VERTEX_POINT('',#651);
#233=VERTEX_POINT('',#652);
#234=VERTEX_POINT('',#654);
#235=VERTEX_POINT('',#656);
#236=VERTEX_POINT('',#660);
#237=VERTEX_POINT('',#662);
#238=VERTEX_POINT('',#663);
#239=VERTEX_POINT('',#665);
#240=VERTEX_POINT('',#667);
#241=VERTEX_POINT('',#671);
#242=VERTEX_POINT('',#674);
#243=VERTEX_POINT('',#677);
#244=VERTEX_POINT('',#679);
#245=VERTEX_POINT('',#682);
#246=VERTEX_POINT('',#684);
#247=VERTEX_POINT('',#687);
#248=VERTEX_POINT('',#689);
#249=VERTEX_POINT('',#692);
#250=VERTEX_POINT('',#694);
#251=VERTEX_POINT('',#696);
#252=VERTEX_POINT('',#700);
#253=VERTEX_POINT('',#702);
#254=VERTEX_POINT('',#705);
#255=VERTEX_POINT('',#707);
#256=VERTEX_POINT('',#710);
#257=VERTEX_POINT('',#712);
#258=VERTEX_POINT('',#716);
#259=VERTEX_POINT('',#718);
#260=VERTEX_POINT('',#720);
#261=LINE('',#624,#293);
#262=LINE('',#629,#294);
#263=LINE('',#633,#295);
#264=LINE('',#638,#296);
#265=LINE('',#642,#297);
#266=LINE('',#646,#298);
#267=LINE('',#653,#299);
#268=LINE('',#657,#300);
#269=LINE('',#661,#301);
#270=LINE('',#666,#302);
#271=LINE('',#676,#303);
#272=LINE('',#680,#304);
#273=LINE('',#681,#305);
#274=LINE('',#685,#306);
#275=LINE('',#686,#307);
#276=LINE('',#690,#308);
#277=LINE('',#698,#309);
#278=LINE('',#699,#310);
#279=LINE('',#703,#311);
#280=LINE('',#704,#312);
#281=LINE('',#708,#313);
#282=LINE('',#709,#314);
#283=LINE('',#713,#315);
#284=LINE('',#714,#316);
#285=LINE('',#722,#317);
#286=LINE('',#723,#318);
#287=LINE('',#727,#319);
#288=LINE('',#729,#320);
#289=LINE('',#733,#321);
#290=LINE('',#735,#322);
#291=LINE('',#739,#323);
#292=LINE('',#741,#324);
#293=VECTOR('',#496,1.);
#294=VECTOR('',#499,1.);
#295=VECTOR('',#504,1.);
#296=VECTOR('',#507,1.);
#297=VECTOR('',#510,1.);
#298=VECTOR('',#513,1.);
#299=VECTOR('',#520,1.);
#300=VECTOR('',#523,1.);
#301=VECTOR('',#528,1.);
#302=VECTOR('',#531,1.);
#303=VECTOR('',#544,1.);
#304=VECTOR('',#547,1.);
#305=VECTOR('',#548,1.);
#306=VECTOR('',#551,1.);
#307=VECTOR('',#552,1.);
#308=VECTOR('',#555,1.);
#309=VECTOR('',#564,1.);
#310=VECTOR('',#565,1.);
#311=VECTOR('',#568,1.);
#312=VECTOR('',#569,1.);
#313=VECTOR('',#572,1.);
#314=VECTOR('',#573,1.);
#315=VECTOR('',#576,1.);
#316=VECTOR('',#577,1.);
#317=VECTOR('',#586,1.);
#318=VECTOR('',#587,1.);
#319=VECTOR('',#594,1.);
#320=VECTOR('',#597,1.);
#321=VECTOR('',#604,1.);
#322=VECTOR('',#607,1.);
#323=VECTOR('',#614,1.);
#324=VECTOR('',#617,1.);
#325=EDGE_LOOP('',(#49,#50,#51,#52));
#326=EDGE_LOOP('',(#53,#54,#55,#56,#57,#58,#59,#60));
#327=EDGE_LOOP('',(#61,#62,#63,#64));
#328=EDGE_LOOP('',(#65));
#329=EDGE_LOOP('',(#66,#67,#68,#69));
#330=EDGE_LOOP('',(#70));
#331=EDGE_LOOP('',(#71));
#332=EDGE_LOOP('',(#72));
#333=EDGE_LOOP('',(#73));
#334=EDGE_LOOP('',(#74,#75,#76,#77,#78,#79,#80,#81,#82,#83,#84,#85));
#335=EDGE_LOOP('',(#86));
#336=EDGE_LOOP('',(#87));
#337=EDGE_LOOP('',(#88));
#338=EDGE_LOOP('',(#89));
#339=EDGE_LOOP('',(#90,#91,#92,#93,#94,#95,#96,#97,#98,#99,#100,#101,#102,
#103,#104,#105));
#340=EDGE_LOOP('',(#106));
#341=EDGE_LOOP('',(#107));
#342=EDGE_LOOP('',(#108));
#343=EDGE_LOOP('',(#109,#110,#111,#112));
#344=EDGE_LOOP('',(#113,#114,#115,#116));
#345=EDGE_LOOP('',(#117,#118,#119,#120));
#346=EDGE_LOOP('',(#121,#122,#123,#124));
#347=EDGE_LOOP('',(#125,#126,#127,#128));
#348=EDGE_LOOP('',(#129));
#349=EDGE_LOOP('',(#130));
#350=EDGE_LOOP('',(#131,#132,#133,#134));
#351=EDGE_LOOP('',(#135,#136,#137,#138));
#352=EDGE_LOOP('',(#139,#140,#141,#142));
#353=EDGE_LOOP('',(#143));
#354=EDGE_LOOP('',(#144));
#355=EDGE_LOOP('',(#145,#146,#147,#148));
#356=EDGE_LOOP('',(#149,#150,#151,#152));
#357=EDGE_LOOP('',(#153,#154,#155,#156));
#358=EDGE_LOOP('',(#157));
#359=EDGE_LOOP('',(#158));
#360=EDGE_LOOP('',(#159,#160,#161,#162));
#361=FACE_BOUND('',#325,.T.);
#362=FACE_BOUND('',#326,.T.);
#363=FACE_BOUND('',#327,.T.);
#364=FACE_BOUND('',#328,.T.);
#365=FACE_BOUND('',#329,.T.);
#366=FACE_BOUND('',#330,.T.);
#367=FACE_BOUND('',#331,.T.);
#368=FACE_BOUND('',#332,.T.);
#369=FACE_BOUND('',#333,.T.);
#370=FACE_BOUND('',#334,.T.);
#371=FACE_BOUND('',#335,.T.);
#372=FACE_BOUND('',#336,.T.);
#373=FACE_BOUND('',#337,.T.);
#374=FACE_BOUND('',#338,.T.);
#375=FACE_BOUND('',#339,.T.);
#376=FACE_BOUND('',#340,.T.);
#377=FACE_BOUND('',#341,.T.);
#378=FACE_BOUND('',#342,.T.);
#379=FACE_BOUND('',#343,.T.);
#380=FACE_BOUND('',#344,.T.);
#381=FACE_BOUND('',#345,.T.);
#382=FACE_BOUND('',#346,.T.);
#383=FACE_BOUND('',#347,.T.);
#384=FACE_BOUND('',#348,.T.);
#385=FACE_BOUND('',#349,.T.);
#386=FACE_BOUND('',#350,.T.);
#387=FACE_BOUND('',#351,.T.);
#388=FACE_BOUND('',#352,.T.);
#389=FACE_BOUND('',#353,.T.);
#390=FACE_BOUND('',#354,.T.);
#391=FACE_BOUND('',#355,.T.);
#392=FACE_BOUND('',#356,.T.);
#393=FACE_BOUND('',#357,.T.);
#394=FACE_BOUND('',#358,.T.);
#395=FACE_BOUND('',#359,.T.);
#396=FACE_BOUND('',#360,.T.);
#397=CYLINDRICAL_SURFACE('',#444,0.023);
#398=CYLINDRICAL_SURFACE('',#447,0.023);
#399=CYLINDRICAL_SURFACE('',#452,0.023);
#400=CYLINDRICAL_SURFACE('',#455,0.02225);
#401=CYLINDRICAL_SURFACE('',#461,0.02025);
#402=CYLINDRICAL_SURFACE('',#481,0.004);
#403=CYLINDRICAL_SURFACE('',#482,0.0015);
#404=CYLINDRICAL_SURFACE('',#485,0.004);
#405=CYLINDRICAL_SURFACE('',#486,0.0015);
#406=CYLINDRICAL_SURFACE('',#489,0.004);
#407=CYLINDRICAL_SURFACE('',#490,0.0015);
#408=ADVANCED_FACE('',(#361),#397,.T.);
#409=ADVANCED_FACE('',(#362),#398,.T.);
#410=ADVANCED_FACE('',(#363),#399,.T.);
#411=ADVANCED_FACE('',(#364,#365),#400,.F.);
#412=ADVANCED_FACE('',(#366,#367),#12,.F.);
#413=ADVANCED_FACE('',(#368,#369),#401,.F.);
#414=ADVANCED_FACE('',(#370,#371,#372,#373,#374),#13,.T.);
#415=ADVANCED_FACE('',(#375,#376,#377,#378),#14,.F.);
#416=ADVANCED_FACE('',(#379),#15,.T.);
#417=ADVANCED_FACE('',(#380),#16,.T.);
#418=ADVANCED_FACE('',(#381),#17,.F.);
#419=ADVANCED_FACE('',(#382),#18,.T.);
#420=ADVANCED_FACE('',(#383),#402,.T.);
#421=ADVANCED_FACE('',(#384,#385),#403,.F.);
#422=ADVANCED_FACE('',(#386),#19,.F.);
#423=ADVANCED_FACE('',(#387),#20,.T.);
#424=ADVANCED_FACE('',(#388),#404,.T.);
#425=ADVANCED_FACE('',(#389,#390),#405,.F.);
#426=ADVANCED_FACE('',(#391),#21,.F.);
#427=ADVANCED_FACE('',(#392),#22,.T.);
#428=ADVANCED_FACE('',(#393),#406,.T.);
#429=ADVANCED_FACE('',(#394,#395),#407,.F.);
#430=ADVANCED_FACE('',(#396),#23,.F.);
#431=CLOSED_SHELL('',(#408,#409,#410,#411,#412,#413,#414,#415,#416,#417,
#418,#419,#420,#421,#422,#423,#424,#425,#426,#427,#428,#429,#430));
#432=STYLED_ITEM('',(#433),#440);
#433=PRESENTATION_STYLE_ASSIGNMENT((#434));
#434=SURFACE_STYLE_USAGE(.BOTH.,#435);
#435=SURFACE_SIDE_STYLE('',(#436));
#436=SURFACE_STYLE_FILL_AREA(#437);
#437=FILL_AREA_STYLE('',(#438));
#438=FILL_AREA_STYLE_COLOUR('',#439);
#439=COLOUR_RGB('',0.231372549019608,0.380392156862745,0.705882352941177);
#440=MANIFOLD_SOLID_BREP('Lens Mount',#431);
#441=SHAPE_DEFINITION_REPRESENTATION(#750,#442);
#442=SHAPE_REPRESENTATION('Lens Mount',(#443),#745);
#443=AXIS2_PLACEMENT_3D('',#622,#492,#493);
#444=AXIS2_PLACEMENT_3D('',#623,#494,#495);
#445=AXIS2_PLACEMENT_3D('',#627,#497,#498);
#446=AXIS2_PLACEMENT_3D('',#631,#500,#501);
#447=AXIS2_PLACEMENT_3D('',#632,#502,#503);
#448=AXIS2_PLACEMENT_3D('',#636,#505,#506);
#449=AXIS2_PLACEMENT_3D('',#640,#508,#509);
#450=AXIS2_PLACEMENT_3D('',#644,#511,#512);
#451=AXIS2_PLACEMENT_3D('',#648,#514,#515);
#452=AXIS2_PLACEMENT_3D('',#649,#516,#517);
#453=AXIS2_PLACEMENT_3D('',#650,#518,#519);
#454=AXIS2_PLACEMENT_3D('',#655,#521,#522);
#455=AXIS2_PLACEMENT_3D('',#658,#524,#525);
#456=AXIS2_PLACEMENT_3D('',#659,#526,#527);
#457=AXIS2_PLACEMENT_3D('',#664,#529,#530);
#458=AXIS2_PLACEMENT_3D('',#668,#532,#533);
#459=AXIS2_PLACEMENT_3D('',#669,#534,#535);
#460=AXIS2_PLACEMENT_3D('',#670,#536,#537);
#461=AXIS2_PLACEMENT_3D('',#672,#538,#539);
#462=AXIS2_PLACEMENT_3D('',#673,#540,#541);
#463=AXIS2_PLACEMENT_3D('',#675,#542,#543);
#464=AXIS2_PLACEMENT_3D('',#678,#545,#546);
#465=AXIS2_PLACEMENT_3D('',#683,#549,#550);
#466=AXIS2_PLACEMENT_3D('',#688,#553,#554);
#467=AXIS2_PLACEMENT_3D('',#691,#556,#557);
#468=AXIS2_PLACEMENT_3D('',#693,#558,#559);
#469=AXIS2_PLACEMENT_3D('',#695,#560,#561);
#470=AXIS2_PLACEMENT_3D('',#697,#562,#563);
#471=AXIS2_PLACEMENT_3D('',#701,#566,#567);
#472=AXIS2_PLACEMENT_3D('',#706,#570,#571);
#473=AXIS2_PLACEMENT_3D('',#711,#574,#575);
#474=AXIS2_PLACEMENT_3D('',#715,#578,#579);
#475=AXIS2_PLACEMENT_3D('',#717,#580,#581);
#476=AXIS2_PLACEMENT_3D('',#719,#582,#583);
#477=AXIS2_PLACEMENT_3D('',#721,#584,#585);
#478=AXIS2_PLACEMENT_3D('',#724,#588,#589);
#479=AXIS2_PLACEMENT_3D('',#725,#590,#591);
#480=AXIS2_PLACEMENT_3D('',#726,#592,#593);
#481=AXIS2_PLACEMENT_3D('',#728,#595,#596);
#482=AXIS2_PLACEMENT_3D('',#730,#598,#599);
#483=AXIS2_PLACEMENT_3D('',#731,#600,#601);
#484=AXIS2_PLACEMENT_3D('',#732,#602,#603);
#485=AXIS2_PLACEMENT_3D('',#734,#605,#606);
#486=AXIS2_PLACEMENT_3D('',#736,#608,#609);
#487=AXIS2_PLACEMENT_3D('',#737,#610,#611);
#488=AXIS2_PLACEMENT_3D('',#738,#612,#613);
#489=AXIS2_PLACEMENT_3D('',#740,#615,#616);
#490=AXIS2_PLACEMENT_3D('',#742,#618,#619);
#491=AXIS2_PLACEMENT_3D('',#743,#620,#621);
#492=DIRECTION('',(0.,0.,1.));
#493=DIRECTION('',(1.,0.,0.));
#494=DIRECTION('',(0.,0.,1.));
#495=DIRECTION('',(1.,0.,0.));
#496=DIRECTION('',(0.,0.,1.));
#497=DIRECTION('',(0.,0.,-1.));
#498=DIRECTION('',(-1.,0.,0.));
#499=DIRECTION('',(0.,0.,1.));
#500=DIRECTION('',(0.,0.,-1.));
#501=DIRECTION('',(-1.,0.,0.));
#502=DIRECTION('',(0.,0.,1.));
#503=DIRECTION('',(1.,0.,0.));
#504=DIRECTION('',(0.,0.,1.));
#505=DIRECTION('',(0.,0.,-1.));
#506=DIRECTION('',(-1.,0.,0.));
#507=DIRECTION('',(0.,0.,1.));
#508=DIRECTION('',(0.,0.,-1.));
#509=DIRECTION('',(-1.,0.,0.));
#510=DIRECTION('',(0.,0.,1.));
#511=DIRECTION('',(0.,0.,-1.));
#512=DIRECTION('',(-1.,0.,0.));
#513=DIRECTION('',(0.,0.,1.));
#514=DIRECTION('',(0.,0.,-1.));
#515=DIRECTION('',(-1.,0.,0.));
#516=DIRECTION('',(0.,0.,1.));
#517=DIRECTION('',(1.,0.,0.));
#518=DIRECTION('',(0.,0.,-1.));
#519=DIRECTION('',(-1.,0.,0.));
#520=DIRECTION('',(0.,0.,1.));
#521=DIRECTION('',(0.,0.,-1.));
#522=DIRECTION('',(-1.,0.,0.));
#523=DIRECTION('',(0.,0.,1.));
#524=DIRECTION('',(0.,0.,-1.));
#525=DIRECTION('',(-1.,0.,0.));
#526=DIRECTION('',(0.,0.,-1.));
#527=DIRECTION('',(-1.,0.,0.));
#528=DIRECTION('',(0.,0.,-1.));
#529=DIRECTION('',(0.,0.,-1.));
#530=DIRECTION('',(-1.,0.,0.));
#531=DIRECTION('',(0.,0.,-1.));
#532=DIRECTION('',(0.,0.,1.));
#533=DIRECTION('',(1.,0.,0.));
#534=DIRECTION('',(0.,0.,-1.));
#535=DIRECTION('',(1.,0.,0.));
#536=DIRECTION('',(0.,0.,-1.));
#537=DIRECTION('',(-1.,0.,0.));
#538=DIRECTION('',(0.,0.,1.));
#539=DIRECTION('',(1.,0.,0.));
#540=DIRECTION('',(0.,0.,-1.));
#541=DIRECTION('',(-1.,0.,0.));
#542=DIRECTION('',(0.,0.,-1.));
#543=DIRECTION('',(1.,0.,0.));
#544=DIRECTION('',(0.,1.,0.));
#545=DIRECTION('',(0.,0.,-1.));
#546=DIRECTION('',(1.,0.,0.));
#547=DIRECTION('',(0.,1.,0.));
#548=DIRECTION('',(0.866025403784438,-0.5,0.));
#549=DIRECTION('',(0.,0.,-1.));
#550=DIRECTION('',(1.,0.,0.));
#551=DIRECTION('',(0.866025403784439,-0.5,0.));
#552=DIRECTION('',(-0.866025403784439,-0.5,0.));
#553=DIRECTION('',(0.,0.,-1.));
#554=DIRECTION('',(1.,0.,0.));
#555=DIRECTION('',(-0.866025403784439,-0.5,0.));
#556=DIRECTION('',(0.,0.,1.));
#557=DIRECTION('',(1.,0.,0.));
#558=DIRECTION('',(0.,0.,1.));
#559=DIRECTION('',(1.,0.,0.));
#560=DIRECTION('',(0.,0.,1.));
#561=DIRECTION('',(1.,0.,0.));
#562=DIRECTION('',(0.,0.,-1.));
#563=DIRECTION('',(1.,0.,0.));
#564=DIRECTION('',(0.5,-0.866025403784438,0.));
#565=DIRECTION('',(0.866025403784439,-0.5,0.));
#566=DIRECTION('',(0.,0.,-1.));
#567=DIRECTION('',(1.,0.,0.));
#568=DIRECTION('',(0.866025403784438,-0.5,0.));
#569=DIRECTION('',(0.,1.,0.));
#570=DIRECTION('',(0.,0.,-1.));
#571=DIRECTION('',(1.,0.,0.));
#572=DIRECTION('',(0.,1.,0.));
#573=DIRECTION('',(-0.866025403784439,-0.5,0.));
#574=DIRECTION('',(0.,0.,-1.));
#575=DIRECTION('',(1.,0.,0.));
#576=DIRECTION('',(-0.866025403784439,-0.5,0.));
#577=DIRECTION('',(-0.5,-0.866025403784438,0.));
#578=DIRECTION('',(0.,0.,1.));
#579=DIRECTION('',(1.,0.,0.));
#580=DIRECTION('',(0.,0.,1.));
#581=DIRECTION('',(1.,0.,0.));
#582=DIRECTION('',(0.,0.,1.));
#583=DIRECTION('',(1.,0.,0.));
#584=DIRECTION('',(0.,0.,1.));
#585=DIRECTION('',(1.,0.,0.));
#586=DIRECTION('',(-0.5,-0.866025403784438,0.));
#587=DIRECTION('',(0.5,-0.866025403784438,0.));
#588=DIRECTION('',(-0.866025403784438,-0.5,0.));
#589=DIRECTION('',(0.5,-0.866025403784438,0.));
#590=DIRECTION('',(-0.866025403784438,0.5,0.));
#591=DIRECTION('',(-0.5,-0.866025403784438,0.));
#592=DIRECTION('',(-0.5,-0.866025403784438,0.));
#593=DIRECTION('',(0.866025403784439,-0.5,0.));
#594=DIRECTION('',(0.,0.,1.));
#595=DIRECTION('',(0.,0.,1.));
#596=DIRECTION('',(1.,0.,0.));
#597=DIRECTION('',(0.,0.,1.));
#598=DIRECTION('',(0.,0.,1.));
#599=DIRECTION('',(1.,0.,0.));
#600=DIRECTION('',(-0.5,-0.866025403784439,0.));
#601=DIRECTION('',(0.866025403784439,-0.5,0.));
#602=DIRECTION('',(-0.5,0.866025403784439,0.));
#603=DIRECTION('',(-0.866025403784439,-0.5,0.));
#604=DIRECTION('',(0.,0.,1.));
#605=DIRECTION('',(0.,0.,1.));
#606=DIRECTION('',(1.,0.,0.));
#607=DIRECTION('',(0.,0.,1.));
#608=DIRECTION('',(0.,0.,1.));
#609=DIRECTION('',(1.,0.,0.));
#610=DIRECTION('',(-0.5,0.866025403784439,0.));
#611=DIRECTION('',(-0.866025403784439,-0.5,0.));
#612=DIRECTION('',(1.,0.,0.));
#613=DIRECTION('',(0.,0.,-1.));
#614=DIRECTION('',(0.,0.,1.));
#615=DIRECTION('',(0.,0.,1.));
#616=DIRECTION('',(1.,0.,0.));
#617=DIRECTION('',(0.,0.,1.));
#618=DIRECTION('',(0.,0.,1.));
#619=DIRECTION('',(1.,0.,0.));
#620=DIRECTION('',(1.,0.,0.));
#621=DIRECTION('',(0.,0.,-1.));
#622=CARTESIAN_POINT('',(0.,0.,0.));
#623=CARTESIAN_POINT('',(0.,-1.40834381901946E-18,-0.004));
#624=CARTESIAN_POINT('',(-0.004,0.0226495033058122,-0.004));
#625=CARTESIAN_POINT('',(-0.004,0.0226495033058122,-0.004));
#626=CARTESIAN_POINT('',(-0.004,0.0226495033058122,-0.001));
#627=CARTESIAN_POINT('',(0.,-1.40834381901946E-18,-0.004));
#628=CARTESIAN_POINT('',(-0.021615045245933,-0.00786065003776837,-0.004));
#629=CARTESIAN_POINT('',(-0.021615045245933,-0.00786065003776837,-0.004));
#630=CARTESIAN_POINT('',(-0.021615045245933,-0.00786065003776837,-0.001));
#631=CARTESIAN_POINT('',(0.,-1.40834381901946E-18,-0.001));
#632=CARTESIAN_POINT('',(0.,-1.40834381901946E-18,-0.004));
#633=CARTESIAN_POINT('',(-0.017615045245933,-0.0147888532680439,-0.004));
#634=CARTESIAN_POINT('',(-0.017615045245933,-0.0147888532680439,-0.004));
#635=CARTESIAN_POINT('',(-0.017615045245933,-0.0147888532680439,-0.001));
#636=CARTESIAN_POINT('',(0.,-1.40834381901946E-18,-0.004));
#637=CARTESIAN_POINT('',(0.017615045245933,-0.0147888532680439,-0.004));
#638=CARTESIAN_POINT('',(0.017615045245933,-0.0147888532680439,-0.004));
#639=CARTESIAN_POINT('',(0.017615045245933,-0.0147888532680439,-0.001));
#640=CARTESIAN_POINT('',(0.,-1.40834381901946E-18,-0.001));
#641=CARTESIAN_POINT('',(0.0115,-0.0199185842870421,-0.001));
#642=CARTESIAN_POINT('',(0.0115,-0.0199185842870421,-0.0025));
#643=CARTESIAN_POINT('',(0.0115,-0.0199185842870421,-0.0025));
#644=CARTESIAN_POINT('',(0.,-1.40834381901946E-18,-0.0025));
#645=CARTESIAN_POINT('',(-0.0115,-0.0199185842870421,-0.0025));
#646=CARTESIAN_POINT('',(-0.0115,-0.0199185842870421,-0.0025));
#647=CARTESIAN_POINT('',(-0.0115,-0.0199185842870421,-0.001));
#648=CARTESIAN_POINT('',(0.,-1.40834381901946E-18,-0.001));
#649=CARTESIAN_POINT('',(0.,-1.40834381901946E-18,-0.004));
#650=CARTESIAN_POINT('',(0.,-1.40834381901946E-18,-0.004));
#651=CARTESIAN_POINT('',(0.004,0.0226495033058122,-0.004));
#652=CARTESIAN_POINT('',(0.021615045245933,-0.00786065003776838,-0.004));
#653=CARTESIAN_POINT('',(0.004,0.0226495033058122,-0.004));
#654=CARTESIAN_POINT('',(0.004,0.0226495033058122,-0.001));
#655=CARTESIAN_POINT('',(0.,-1.40834381901946E-18,-0.001));
#656=CARTESIAN_POINT('',(0.021615045245933,-0.00786065003776838,-0.001));
#657=CARTESIAN_POINT('',(0.021615045245933,-0.00786065003776838,-0.004));
#658=CARTESIAN_POINT('',(0.,-1.36241956405143E-18,-0.001));
#659=CARTESIAN_POINT('',(0.,-1.36241956405143E-18,-0.003));
#660=CARTESIAN_POINT('',(-0.02225,-1.36241956405143E-18,-0.003));
#661=CARTESIAN_POINT('',(0.011125,-0.0192690652342037,-0.001));
#662=CARTESIAN_POINT('',(0.011125,-0.0192690652342037,-0.001));
#663=CARTESIAN_POINT('',(0.011125,-0.0192690652342037,-0.0025));
#664=CARTESIAN_POINT('',(0.,-1.36241956405143E-18,-0.001));
#665=CARTESIAN_POINT('',(-0.011125,-0.0192690652342037,-0.001));
#666=CARTESIAN_POINT('',(-0.011125,-0.0192690652342037,-0.001));
#667=CARTESIAN_POINT('',(-0.011125,-0.0192690652342037,-0.0025));
#668=CARTESIAN_POINT('',(0.,-1.36241956405143E-18,-0.0025));
#669=CARTESIAN_POINT('',(0.,0.,-0.003));
#670=CARTESIAN_POINT('',(0.,-1.23995488413669E-18,-0.003));
#671=CARTESIAN_POINT('',(-0.02025,-1.23995488413669E-18,-0.003));
#672=CARTESIAN_POINT('',(0.,-1.23995488413669E-18,-0.004));
#673=CARTESIAN_POINT('',(0.,-1.23995488413669E-18,-0.004));
#674=CARTESIAN_POINT('',(-0.02025,-1.23995488413669E-18,-0.004));
#675=CARTESIAN_POINT('',(0.,0.,-0.004));
#676=CARTESIAN_POINT('',(-0.004,0.023375,-0.004));
#677=CARTESIAN_POINT('',(-0.004,0.0265,-0.004));
#678=CARTESIAN_POINT('',(0.,0.0265,-0.004));
#679=CARTESIAN_POINT('',(0.004,0.0265,-0.004));
#680=CARTESIAN_POINT('',(0.004,0.023375,-0.004));
#681=CARTESIAN_POINT('',(0.0222433438134612,-0.00822339838486226,-0.004));
#682=CARTESIAN_POINT('',(0.0249496732002876,-0.00978589838486226,-0.004));
#683=CARTESIAN_POINT('',(0.0229496732002876,-0.01325,-0.004));
#684=CARTESIAN_POINT('',(0.0209496732002876,-0.0167141016151378,-0.004));
#685=CARTESIAN_POINT('',(0.0182433438134612,-0.0151516016151378,-0.004));
#686=CARTESIAN_POINT('',(-0.0182433438134612,-0.0151516016151378,-0.004));
#687=CARTESIAN_POINT('',(-0.0209496732002876,-0.0167141016151378,-0.004));
#688=CARTESIAN_POINT('',(-0.0229496732002876,-0.01325,-0.004));
#689=CARTESIAN_POINT('',(-0.0249496732002876,-0.00978589838486224,-0.004));
#690=CARTESIAN_POINT('',(-0.0222433438134612,-0.00822339838486224,-0.004));
#691=CARTESIAN_POINT('',(0.0229496732002876,-0.01325,-0.004));
#692=CARTESIAN_POINT('',(0.0244496732002876,-0.01325,-0.004));
#693=CARTESIAN_POINT('',(-0.0229496732002876,-0.01325,-0.004));
#694=CARTESIAN_POINT('',(-0.0214496732002876,-0.01325,-0.004));
#695=CARTESIAN_POINT('',(0.,0.0265,-0.004));
#696=CARTESIAN_POINT('',(0.0015,0.0265,-0.004));
#697=CARTESIAN_POINT('',(0.,0.,-0.001));
#698=CARTESIAN_POINT('',(0.0108125,-0.0187277993568385,-0.001));
#699=CARTESIAN_POINT('',(0.0182433438134612,-0.0151516016151378,-0.001));
#700=CARTESIAN_POINT('',(0.0209496732002876,-0.0167141016151378,-0.001));
#701=CARTESIAN_POINT('',(0.0229496732002876,-0.01325,-0.001));
#702=CARTESIAN_POINT('',(0.0249496732002876,-0.00978589838486226,-0.001));
#703=CARTESIAN_POINT('',(0.0222433438134612,-0.00822339838486226,-0.001));
#704=CARTESIAN_POINT('',(0.004,0.023375,-0.001));
#705=CARTESIAN_POINT('',(0.004,0.0265,-0.001));
#706=CARTESIAN_POINT('',(0.,0.0265,-0.001));
#707=CARTESIAN_POINT('',(-0.004,0.0265,-0.001));
#708=CARTESIAN_POINT('',(-0.004,0.023375,-0.001));
#709=CARTESIAN_POINT('',(-0.0222433438134612,-0.00822339838486224,-0.001));
#710=CARTESIAN_POINT('',(-0.0249496732002876,-0.00978589838486224,-0.001));
#711=CARTESIAN_POINT('',(-0.0229496732002876,-0.01325,-0.001));
#712=CARTESIAN_POINT('',(-0.0209496732002876,-0.0167141016151378,-0.001));
#713=CARTESIAN_POINT('',(-0.0182433438134612,-0.0151516016151378,-0.001));
#714=CARTESIAN_POINT('',(-0.0108125,-0.0187277993568385,-0.001));
#715=CARTESIAN_POINT('',(0.0229496732002876,-0.01325,-0.001));
#716=CARTESIAN_POINT('',(0.0244496732002876,-0.01325,-0.001));
#717=CARTESIAN_POINT('',(-0.0229496732002876,-0.01325,-0.001));
#718=CARTESIAN_POINT('',(-0.0214496732002876,-0.01325,-0.001));
#719=CARTESIAN_POINT('',(0.,0.0265,-0.001));
#720=CARTESIAN_POINT('',(0.0015,0.0265,-0.001));
#721=CARTESIAN_POINT('',(0.,-3.46944695195361E-18,-0.0025));
#722=CARTESIAN_POINT('',(-0.0108125,-0.0187277993568385,-0.0025));
#723=CARTESIAN_POINT('',(0.0108125,-0.0187277993568385,-0.0025));
#724=CARTESIAN_POINT('',(0.0108125,-0.0187277993568385,-0.0025));
#725=CARTESIAN_POINT('',(-0.0108125,-0.0187277993568385,-0.0025));
#726=CARTESIAN_POINT('',(0.0182433438134612,-0.0151516016151378,-0.004));
#727=CARTESIAN_POINT('',(0.0209496732002876,-0.0167141016151378,-0.004));
#728=CARTESIAN_POINT('',(0.0229496732002876,-0.01325,-0.004));
#729=CARTESIAN_POINT('',(0.0249496732002876,-0.00978589838486226,-0.004));
#730=CARTESIAN_POINT('',(0.0229496732002876,-0.01325,-0.004));
#731=CARTESIAN_POINT('',(0.0222433438134612,-0.00822339838486226,-0.004));
#732=CARTESIAN_POINT('',(-0.0222433438134612,-0.00822339838486224,-0.004));
#733=CARTESIAN_POINT('',(-0.0249496732002876,-0.00978589838486224,-0.004));
#734=CARTESIAN_POINT('',(-0.0229496732002876,-0.01325,-0.004));
#735=CARTESIAN_POINT('',(-0.0209496732002876,-0.0167141016151378,-0.004));
#736=CARTESIAN_POINT('',(-0.0229496732002876,-0.01325,-0.004));
#737=CARTESIAN_POINT('',(-0.0182433438134612,-0.0151516016151378,-0.004));
#738=CARTESIAN_POINT('',(0.004,0.023375,-0.004));
#739=CARTESIAN_POINT('',(0.004,0.0265,-0.004));
#740=CARTESIAN_POINT('',(0.,0.0265,-0.004));
#741=CARTESIAN_POINT('',(-0.004,0.0265,-0.004));
#742=CARTESIAN_POINT('',(0.,0.0265,-0.004));
#743=CARTESIAN_POINT('',(-0.004,0.023375,-0.004));
#744=MECHANICAL_DESIGN_GEOMETRIC_PRESENTATION_REPRESENTATION('',(#432),
#745);
#745=(
GEOMETRIC_REPRESENTATION_CONTEXT(3)
GLOBAL_UNCERTAINTY_ASSIGNED_CONTEXT((#746))
GLOBAL_UNIT_ASSIGNED_CONTEXT((#749,#748,#747))
REPRESENTATION_CONTEXT('Lens Mount','TOP_LEVEL_ASSEMBLY_PART')
);
#746=UNCERTAINTY_MEASURE_WITH_UNIT(LENGTH_MEASURE(1.E-8),#749,
'DISTANCE_ACCURACY_VALUE','Maximum Tolerance applied to model');
#747=(
NAMED_UNIT(*)
SI_UNIT($,.STERADIAN.)
SOLID_ANGLE_UNIT()
);
#748=(
NAMED_UNIT(*)
PLANE_ANGLE_UNIT()
SI_UNIT($,.RADIAN.)
);
#749=(
LENGTH_UNIT()
NAMED_UNIT(*)
SI_UNIT($,.METRE.)
);
#750=PRODUCT_DEFINITION_SHAPE('','',#751);
#751=PRODUCT_DEFINITION('','',#753,#752);
#752=PRODUCT_DEFINITION_CONTEXT('',#759,'design');
#753=PRODUCT_DEFINITION_FORMATION_WITH_SPECIFIED_SOURCE('','',#755,
 .NOT_KNOWN.);
#754=PRODUCT_RELATED_PRODUCT_CATEGORY('','',(#755));
#755=PRODUCT('Lens Mount','Lens Mount','Lens Mount',(#757));
#756=PRODUCT_CATEGORY('','');
#757=PRODUCT_CONTEXT('',#759,'mechanical');
#758=APPLICATION_PROTOCOL_DEFINITION('international standard',
'ap242_managed_model_based_3d_engineering',2020,#759);
#759=APPLICATION_CONTEXT('managed model based 3d engineering');
ENDSEC;
END-ISO-10303-21;
