ISO-10303-21;
HEADER;
/* Generated by software containing ST-Developer
 * from STEP Tools, Inc. (www.steptools.com) 
 */
/* OPTION: using custom renumber hook */

FILE_DESCRIPTION(
/* description */ ('STEP AP242 Edition 2',
'CAx-IF Rec.Pracs.---Representation and Presentation of Product Manufa
cturing Information (PMI)---4.0---2014-10-13',
'CAx-IF Rec.Pracs.---3D Tessellated Geometry---0.4---2014-09-14','2;1',
'CAx-IF Rec.Pracs.---User Defined Attributes---1.5---2016-08-15'),
/* implementation_level */ '2;1');

FILE_NAME(
/* name */ 'psDisplayCase with Lens - DisplayCase',
/* time_stamp */ '2026-08-07T19:32:51Z',
/* author */ (''),
/* organization */ (''),
/* preprocessor_version */ 'ST-DEVELOPER v20',
/* originating_system */ 'ONSHAPE BY PTC INC, 1.219',
/* authorisation */ '  ');

FILE_SCHEMA (('AP242_MANAGED_MODEL_BASED_3D_ENGINEERING_MIM_LF { 1 0 10303 442 3 1 4 }'));
ENDSEC;

DATA;
#10=SHAPE_REPRESENTATION_RELATIONSHIP('','',#754,#11);
#11=ADVANCED_BREP_SHAPE_REPRESENTATION('',(#752),#1245);
#12=PLANE('',#767);
#13=PLANE('',#769);
#14=PLANE('',#770);
#15=PLANE('',#773);
#16=PLANE('',#776);
#17=PLANE('',#777);
#18=PLANE('',#778);
#19=PLANE('',#779);
#20=PLANE('',#780);
#21=PLANE('',#781);
#22=PLANE('',#782);
#23=PLANE('',#788);
#24=PLANE('',#791);
#25=PLANE('',#792);
#26=PLANE('',#795);
#27=PLANE('',#796);
#28=PLANE('',#800);
#29=PLANE('',#808);
#30=PLANE('',#809);
#31=PLANE('',#810);
#32=PLANE('',#814);
#33=PLANE('',#815);
#34=PLANE('',#816);
#35=PLANE('',#817);
#36=PLANE('',#818);
#37=PLANE('',#819);
#38=PLANE('',#820);
#39=PLANE('',#821);
#40=PLANE('',#822);
#41=PLANE('',#823);
#42=PLANE('',#824);
#43=CIRCLE('',#757,0.022);
#44=CIRCLE('',#758,0.022);
#45=CIRCLE('',#759,0.022);
#46=CIRCLE('',#760,0.022);
#47=CIRCLE('',#761,0.022);
#48=CIRCLE('',#762,0.022);
#49=CIRCLE('',#763,0.022);
#50=CIRCLE('',#764,0.022);
#51=CIRCLE('',#765,0.022);
#52=CIRCLE('',#766,0.022);
#53=CIRCLE('',#768,0.01875);
#54=CIRCLE('',#771,0.001);
#55=CIRCLE('',#772,0.004);
#56=CIRCLE('',#774,0.001);
#57=CIRCLE('',#775,0.004);
#58=CIRCLE('',#784,0.01875);
#59=CIRCLE('',#785,0.01875);
#60=CIRCLE('',#786,0.01875);
#61=CIRCLE('',#787,0.01875);
#62=CIRCLE('',#790,0.004);
#63=CIRCLE('',#794,0.004);
#64=CIRCLE('',#798,0.00400354611044703);
#65=CIRCLE('',#799,0.00400354611044703);
#66=CIRCLE('',#802,0.001);
#67=CIRCLE('',#804,0.001);
#68=CIRCLE('',#805,0.001);
#69=CIRCLE('',#807,0.001);
#70=CIRCLE('',#811,0.0175);
#71=CIRCLE('',#813,0.0175);
#72=ORIENTED_EDGE('',*,*,#270,.T.);
#73=ORIENTED_EDGE('',*,*,#271,.T.);
#74=ORIENTED_EDGE('',*,*,#272,.F.);
#75=ORIENTED_EDGE('',*,*,#273,.F.);
#76=ORIENTED_EDGE('',*,*,#274,.T.);
#77=ORIENTED_EDGE('',*,*,#275,.T.);
#78=ORIENTED_EDGE('',*,*,#276,.F.);
#79=ORIENTED_EDGE('',*,*,#277,.F.);
#80=ORIENTED_EDGE('',*,*,#278,.F.);
#81=ORIENTED_EDGE('',*,*,#279,.T.);
#82=ORIENTED_EDGE('',*,*,#280,.T.);
#83=ORIENTED_EDGE('',*,*,#281,.F.);
#84=ORIENTED_EDGE('',*,*,#282,.T.);
#85=ORIENTED_EDGE('',*,*,#283,.T.);
#86=ORIENTED_EDGE('',*,*,#284,.F.);
#87=ORIENTED_EDGE('',*,*,#285,.F.);
#88=ORIENTED_EDGE('',*,*,#286,.T.);
#89=ORIENTED_EDGE('',*,*,#287,.T.);
#90=ORIENTED_EDGE('',*,*,#288,.F.);
#91=ORIENTED_EDGE('',*,*,#289,.F.);
#92=ORIENTED_EDGE('',*,*,#290,.F.);
#93=ORIENTED_EDGE('',*,*,#291,.T.);
#94=ORIENTED_EDGE('',*,*,#292,.F.);
#95=ORIENTED_EDGE('',*,*,#293,.F.);
#96=ORIENTED_EDGE('',*,*,#294,.T.);
#97=ORIENTED_EDGE('',*,*,#277,.T.);
#98=ORIENTED_EDGE('',*,*,#295,.F.);
#99=ORIENTED_EDGE('',*,*,#296,.T.);
#100=ORIENTED_EDGE('',*,*,#297,.F.);
#101=ORIENTED_EDGE('',*,*,#298,.F.);
#102=ORIENTED_EDGE('',*,*,#299,.F.);
#103=ORIENTED_EDGE('',*,*,#300,.T.);
#104=ORIENTED_EDGE('',*,*,#301,.F.);
#105=ORIENTED_EDGE('',*,*,#302,.F.);
#106=ORIENTED_EDGE('',*,*,#292,.T.);
#107=ORIENTED_EDGE('',*,*,#303,.T.);
#108=ORIENTED_EDGE('',*,*,#304,.T.);
#109=ORIENTED_EDGE('',*,*,#305,.F.);
#110=ORIENTED_EDGE('',*,*,#297,.T.);
#111=ORIENTED_EDGE('',*,*,#306,.T.);
#112=ORIENTED_EDGE('',*,*,#307,.T.);
#113=ORIENTED_EDGE('',*,*,#308,.F.);
#114=ORIENTED_EDGE('',*,*,#309,.T.);
#115=ORIENTED_EDGE('',*,*,#310,.F.);
#116=ORIENTED_EDGE('',*,*,#273,.T.);
#117=ORIENTED_EDGE('',*,*,#311,.T.);
#118=ORIENTED_EDGE('',*,*,#312,.F.);
#119=ORIENTED_EDGE('',*,*,#313,.T.);
#120=ORIENTED_EDGE('',*,*,#314,.F.);
#121=ORIENTED_EDGE('',*,*,#285,.T.);
#122=ORIENTED_EDGE('',*,*,#315,.T.);
#123=ORIENTED_EDGE('',*,*,#316,.F.);
#124=ORIENTED_EDGE('',*,*,#317,.F.);
#125=ORIENTED_EDGE('',*,*,#318,.F.);
#126=ORIENTED_EDGE('',*,*,#302,.T.);
#127=ORIENTED_EDGE('',*,*,#319,.T.);
#128=ORIENTED_EDGE('',*,*,#320,.F.);
#129=ORIENTED_EDGE('',*,*,#290,.T.);
#130=ORIENTED_EDGE('',*,*,#318,.T.);
#131=ORIENTED_EDGE('',*,*,#321,.F.);
#132=ORIENTED_EDGE('',*,*,#322,.F.);
#133=ORIENTED_EDGE('',*,*,#299,.T.);
#134=ORIENTED_EDGE('',*,*,#323,.T.);
#135=ORIENTED_EDGE('',*,*,#324,.F.);
#136=ORIENTED_EDGE('',*,*,#325,.T.);
#137=ORIENTED_EDGE('',*,*,#326,.F.);
#138=ORIENTED_EDGE('',*,*,#300,.F.);
#139=ORIENTED_EDGE('',*,*,#322,.T.);
#140=ORIENTED_EDGE('',*,*,#308,.T.);
#141=ORIENTED_EDGE('',*,*,#327,.T.);
#142=ORIENTED_EDGE('',*,*,#328,.F.);
#143=ORIENTED_EDGE('',*,*,#293,.T.);
#144=ORIENTED_EDGE('',*,*,#328,.T.);
#145=ORIENTED_EDGE('',*,*,#329,.T.);
#146=ORIENTED_EDGE('',*,*,#274,.F.);
#147=ORIENTED_EDGE('',*,*,#294,.F.);
#148=ORIENTED_EDGE('',*,*,#276,.T.);
#149=ORIENTED_EDGE('',*,*,#330,.T.);
#150=ORIENTED_EDGE('',*,*,#331,.F.);
#151=ORIENTED_EDGE('',*,*,#295,.T.);
#152=ORIENTED_EDGE('',*,*,#331,.T.);
#153=ORIENTED_EDGE('',*,*,#332,.T.);
#154=ORIENTED_EDGE('',*,*,#306,.F.);
#155=ORIENTED_EDGE('',*,*,#296,.F.);
#156=ORIENTED_EDGE('',*,*,#333,.F.);
#157=ORIENTED_EDGE('',*,*,#334,.T.);
#158=ORIENTED_EDGE('',*,*,#335,.T.);
#159=ORIENTED_EDGE('',*,*,#336,.F.);
#160=ORIENTED_EDGE('',*,*,#326,.T.);
#161=ORIENTED_EDGE('',*,*,#337,.T.);
#162=ORIENTED_EDGE('',*,*,#319,.F.);
#163=ORIENTED_EDGE('',*,*,#301,.T.);
#164=ORIENTED_EDGE('',*,*,#338,.F.);
#165=ORIENTED_EDGE('',*,*,#339,.T.);
#166=ORIENTED_EDGE('',*,*,#340,.F.);
#167=ORIENTED_EDGE('',*,*,#270,.F.);
#168=ORIENTED_EDGE('',*,*,#310,.T.);
#169=ORIENTED_EDGE('',*,*,#341,.T.);
#170=ORIENTED_EDGE('',*,*,#342,.F.);
#171=ORIENTED_EDGE('',*,*,#339,.F.);
#172=ORIENTED_EDGE('',*,*,#312,.T.);
#173=ORIENTED_EDGE('',*,*,#272,.T.);
#174=ORIENTED_EDGE('',*,*,#343,.T.);
#175=ORIENTED_EDGE('',*,*,#341,.F.);
#176=ORIENTED_EDGE('',*,*,#311,.F.);
#177=ORIENTED_EDGE('',*,*,#344,.T.);
#178=ORIENTED_EDGE('',*,*,#345,.F.);
#179=ORIENTED_EDGE('',*,*,#282,.F.);
#180=ORIENTED_EDGE('',*,*,#314,.T.);
#181=ORIENTED_EDGE('',*,*,#346,.T.);
#182=ORIENTED_EDGE('',*,*,#347,.F.);
#183=ORIENTED_EDGE('',*,*,#344,.F.);
#184=ORIENTED_EDGE('',*,*,#316,.T.);
#185=ORIENTED_EDGE('',*,*,#284,.T.);
#186=ORIENTED_EDGE('',*,*,#348,.T.);
#187=ORIENTED_EDGE('',*,*,#346,.F.);
#188=ORIENTED_EDGE('',*,*,#315,.F.);
#189=ORIENTED_EDGE('',*,*,#349,.T.);
#190=ORIENTED_EDGE('',*,*,#350,.F.);
#191=ORIENTED_EDGE('',*,*,#286,.F.);
#192=ORIENTED_EDGE('',*,*,#351,.T.);
#193=ORIENTED_EDGE('',*,*,#352,.T.);
#194=ORIENTED_EDGE('',*,*,#353,.F.);
#195=ORIENTED_EDGE('',*,*,#349,.F.);
#196=ORIENTED_EDGE('',*,*,#354,.T.);
#197=ORIENTED_EDGE('',*,*,#288,.T.);
#198=ORIENTED_EDGE('',*,*,#355,.T.);
#199=ORIENTED_EDGE('',*,*,#352,.F.);
#200=ORIENTED_EDGE('',*,*,#356,.F.);
#201=ORIENTED_EDGE('',*,*,#309,.F.);
#202=ORIENTED_EDGE('',*,*,#357,.T.);
#203=ORIENTED_EDGE('',*,*,#358,.F.);
#204=ORIENTED_EDGE('',*,*,#359,.T.);
#205=ORIENTED_EDGE('',*,*,#313,.F.);
#206=ORIENTED_EDGE('',*,*,#360,.T.);
#207=ORIENTED_EDGE('',*,*,#351,.F.);
#208=ORIENTED_EDGE('',*,*,#289,.T.);
#209=ORIENTED_EDGE('',*,*,#356,.T.);
#210=ORIENTED_EDGE('',*,*,#354,.F.);
#211=ORIENTED_EDGE('',*,*,#358,.T.);
#212=ORIENTED_EDGE('',*,*,#321,.T.);
#213=ORIENTED_EDGE('',*,*,#317,.T.);
#214=ORIENTED_EDGE('',*,*,#337,.F.);
#215=ORIENTED_EDGE('',*,*,#325,.F.);
#216=ORIENTED_EDGE('',*,*,#361,.T.);
#217=ORIENTED_EDGE('',*,*,#338,.T.);
#218=ORIENTED_EDGE('',*,*,#362,.T.);
#219=ORIENTED_EDGE('',*,*,#361,.F.);
#220=ORIENTED_EDGE('',*,*,#362,.F.);
#221=ORIENTED_EDGE('',*,*,#275,.F.);
#222=ORIENTED_EDGE('',*,*,#329,.F.);
#223=ORIENTED_EDGE('',*,*,#327,.F.);
#224=ORIENTED_EDGE('',*,*,#307,.F.);
#225=ORIENTED_EDGE('',*,*,#332,.F.);
#226=ORIENTED_EDGE('',*,*,#330,.F.);
#227=ORIENTED_EDGE('',*,*,#324,.T.);
#228=ORIENTED_EDGE('',*,*,#363,.T.);
#229=ORIENTED_EDGE('',*,*,#304,.F.);
#230=ORIENTED_EDGE('',*,*,#364,.F.);
#231=ORIENTED_EDGE('',*,*,#320,.T.);
#232=ORIENTED_EDGE('',*,*,#364,.T.);
#233=ORIENTED_EDGE('',*,*,#303,.F.);
#234=ORIENTED_EDGE('',*,*,#291,.F.);
#235=ORIENTED_EDGE('',*,*,#298,.T.);
#236=ORIENTED_EDGE('',*,*,#305,.T.);
#237=ORIENTED_EDGE('',*,*,#363,.F.);
#238=ORIENTED_EDGE('',*,*,#323,.F.);
#239=ORIENTED_EDGE('',*,*,#365,.T.);
#240=ORIENTED_EDGE('',*,*,#333,.T.);
#241=ORIENTED_EDGE('',*,*,#366,.F.);
#242=ORIENTED_EDGE('',*,*,#279,.F.);
#243=ORIENTED_EDGE('',*,*,#278,.T.);
#244=ORIENTED_EDGE('',*,*,#367,.T.);
#245=ORIENTED_EDGE('',*,*,#334,.F.);
#246=ORIENTED_EDGE('',*,*,#365,.F.);
#247=ORIENTED_EDGE('',*,*,#281,.T.);
#248=ORIENTED_EDGE('',*,*,#368,.T.);
#249=ORIENTED_EDGE('',*,*,#335,.F.);
#250=ORIENTED_EDGE('',*,*,#367,.F.);
#251=ORIENTED_EDGE('',*,*,#366,.T.);
#252=ORIENTED_EDGE('',*,*,#336,.T.);
#253=ORIENTED_EDGE('',*,*,#368,.F.);
#254=ORIENTED_EDGE('',*,*,#280,.F.);
#255=ORIENTED_EDGE('',*,*,#360,.F.);
#256=ORIENTED_EDGE('',*,*,#283,.F.);
#257=ORIENTED_EDGE('',*,*,#345,.T.);
#258=ORIENTED_EDGE('',*,*,#347,.T.);
#259=ORIENTED_EDGE('',*,*,#348,.F.);
#260=ORIENTED_EDGE('',*,*,#359,.F.);
#261=ORIENTED_EDGE('',*,*,#287,.F.);
#262=ORIENTED_EDGE('',*,*,#350,.T.);
#263=ORIENTED_EDGE('',*,*,#353,.T.);
#264=ORIENTED_EDGE('',*,*,#355,.F.);
#265=ORIENTED_EDGE('',*,*,#357,.F.);
#266=ORIENTED_EDGE('',*,*,#271,.F.);
#267=ORIENTED_EDGE('',*,*,#340,.T.);
#268=ORIENTED_EDGE('',*,*,#342,.T.);
#269=ORIENTED_EDGE('',*,*,#343,.F.);
#270=EDGE_CURVE('',#369,#370,#438,.T.);
#271=EDGE_CURVE('',#370,#371,#43,.T.);
#272=EDGE_CURVE('',#372,#371,#439,.T.);
#273=EDGE_CURVE('',#369,#372,#44,.T.);
#274=EDGE_CURVE('',#373,#374,#440,.T.);
#275=EDGE_CURVE('',#374,#375,#45,.T.);
#276=EDGE_CURVE('',#376,#375,#441,.T.);
#277=EDGE_CURVE('',#373,#376,#46,.T.);
#278=EDGE_CURVE('',#377,#378,#47,.T.);
#279=EDGE_CURVE('',#377,#379,#442,.F.);
#280=EDGE_CURVE('',#379,#380,#48,.T.);
#281=EDGE_CURVE('',#378,#380,#443,.F.);
#282=EDGE_CURVE('',#381,#382,#444,.T.);
#283=EDGE_CURVE('',#382,#383,#49,.T.);
#284=EDGE_CURVE('',#384,#383,#445,.T.);
#285=EDGE_CURVE('',#381,#384,#50,.T.);
#286=EDGE_CURVE('',#385,#386,#446,.T.);
#287=EDGE_CURVE('',#386,#387,#51,.T.);
#288=EDGE_CURVE('',#388,#387,#447,.T.);
#289=EDGE_CURVE('',#385,#388,#52,.T.);
#290=EDGE_CURVE('',#389,#390,#448,.T.);
#291=EDGE_CURVE('',#389,#391,#449,.T.);
#292=EDGE_CURVE('',#392,#391,#450,.T.);
#293=EDGE_CURVE('',#393,#392,#451,.T.);
#294=EDGE_CURVE('',#393,#373,#452,.T.);
#295=EDGE_CURVE('',#394,#376,#453,.T.);
#296=EDGE_CURVE('',#394,#395,#454,.T.);
#297=EDGE_CURVE('',#396,#395,#455,.T.);
#298=EDGE_CURVE('',#397,#396,#456,.T.);
#299=EDGE_CURVE('',#398,#397,#457,.T.);
#300=EDGE_CURVE('',#398,#399,#458,.T.);
#301=EDGE_CURVE('',#400,#399,#53,.T.);
#302=EDGE_CURVE('',#390,#400,#459,.T.);
#303=EDGE_CURVE('',#391,#401,#460,.T.);
#304=EDGE_CURVE('',#401,#402,#461,.T.);
#305=EDGE_CURVE('',#396,#402,#462,.T.);
#306=EDGE_CURVE('',#395,#403,#463,.T.);
#307=EDGE_CURVE('',#403,#404,#464,.T.);
#308=EDGE_CURVE('',#392,#404,#465,.T.);
#309=EDGE_CURVE('',#405,#405,#54,.T.);
#310=EDGE_CURVE('',#369,#406,#466,.T.);
#311=EDGE_CURVE('',#372,#407,#467,.T.);
#312=EDGE_CURVE('',#406,#407,#55,.T.);
#313=EDGE_CURVE('',#408,#408,#56,.T.);
#314=EDGE_CURVE('',#381,#409,#468,.T.);
#315=EDGE_CURVE('',#384,#410,#469,.T.);
#316=EDGE_CURVE('',#409,#410,#57,.T.);
#317=EDGE_CURVE('',#411,#412,#470,.T.);
#318=EDGE_CURVE('',#390,#411,#471,.T.);
#319=EDGE_CURVE('',#400,#412,#472,.T.);
#320=EDGE_CURVE('',#389,#413,#473,.T.);
#321=EDGE_CURVE('',#414,#411,#474,.T.);
#322=EDGE_CURVE('',#398,#414,#475,.T.);
#323=EDGE_CURVE('',#397,#415,#476,.T.);
#324=EDGE_CURVE('',#413,#415,#477,.T.);
#325=EDGE_CURVE('',#414,#416,#478,.T.);
#326=EDGE_CURVE('',#399,#416,#479,.T.);
#327=EDGE_CURVE('',#404,#417,#480,.T.);
#328=EDGE_CURVE('',#393,#417,#481,.T.);
#329=EDGE_CURVE('',#417,#374,#482,.T.);
#330=EDGE_CURVE('',#375,#418,#483,.T.);
#331=EDGE_CURVE('',#394,#418,#484,.T.);
#332=EDGE_CURVE('',#418,#403,#485,.T.);
#333=EDGE_CURVE('',#419,#420,#486,.F.);
#334=EDGE_CURVE('',#419,#421,#58,.T.);
#335=EDGE_CURVE('',#421,#422,#487,.F.);
#336=EDGE_CURVE('',#420,#422,#59,.T.);
#337=EDGE_CURVE('',#416,#412,#60,.T.);
#338=EDGE_CURVE('',#423,#423,#61,.T.);
#339=EDGE_CURVE('',#406,#424,#488,.T.);
#340=EDGE_CURVE('',#370,#424,#489,.T.);
#341=EDGE_CURVE('',#407,#425,#490,.T.);
#342=EDGE_CURVE('',#424,#425,#62,.T.);
#343=EDGE_CURVE('',#371,#425,#491,.T.);
#344=EDGE_CURVE('',#409,#426,#492,.T.);
#345=EDGE_CURVE('',#382,#426,#493,.T.);
#346=EDGE_CURVE('',#410,#427,#494,.T.);
#347=EDGE_CURVE('',#426,#427,#63,.T.);
#348=EDGE_CURVE('',#383,#427,#495,.T.);
#349=EDGE_CURVE('',#428,#429,#496,.T.);
#350=EDGE_CURVE('',#386,#429,#497,.T.);
#351=EDGE_CURVE('',#385,#428,#498,.T.);
#352=EDGE_CURVE('',#430,#431,#499,.T.);
#353=EDGE_CURVE('',#429,#431,#64,.T.);
#354=EDGE_CURVE('',#428,#430,#65,.T.);
#355=EDGE_CURVE('',#387,#431,#500,.T.);
#356=EDGE_CURVE('',#388,#430,#501,.T.);
#357=EDGE_CURVE('',#432,#432,#66,.T.);
#358=EDGE_CURVE('',#433,#433,#67,.T.);
#359=EDGE_CURVE('',#434,#434,#68,.T.);
#360=EDGE_CURVE('',#435,#435,#69,.T.);
#361=EDGE_CURVE('',#436,#436,#70,.T.);
#362=EDGE_CURVE('',#437,#437,#71,.T.);
#363=EDGE_CURVE('',#415,#402,#502,.T.);
#364=EDGE_CURVE('',#413,#401,#503,.T.);
#365=EDGE_CURVE('',#377,#419,#504,.T.);
#366=EDGE_CURVE('',#379,#420,#505,.T.);
#367=EDGE_CURVE('',#378,#421,#506,.T.);
#368=EDGE_CURVE('',#380,#422,#507,.T.);
#369=VERTEX_POINT('',#1038);
#370=VERTEX_POINT('',#1039);
#371=VERTEX_POINT('',#1041);
#372=VERTEX_POINT('',#1043);
#373=VERTEX_POINT('',#1046);
#374=VERTEX_POINT('',#1047);
#375=VERTEX_POINT('',#1049);
#376=VERTEX_POINT('',#1051);
#377=VERTEX_POINT('',#1054);
#378=VERTEX_POINT('',#1055);
#379=VERTEX_POINT('',#1057);
#380=VERTEX_POINT('',#1059);
#381=VERTEX_POINT('',#1062);
#382=VERTEX_POINT('',#1063);
#383=VERTEX_POINT('',#1065);
#384=VERTEX_POINT('',#1067);
#385=VERTEX_POINT('',#1070);
#386=VERTEX_POINT('',#1071);
#387=VERTEX_POINT('',#1073);
#388=VERTEX_POINT('',#1075);
#389=VERTEX_POINT('',#1079);
#390=VERTEX_POINT('',#1080);
#391=VERTEX_POINT('',#1082);
#392=VERTEX_POINT('',#1084);
#393=VERTEX_POINT('',#1086);
#394=VERTEX_POINT('',#1089);
#395=VERTEX_POINT('',#1091);
#396=VERTEX_POINT('',#1093);
#397=VERTEX_POINT('',#1095);
#398=VERTEX_POINT('',#1097);
#399=VERTEX_POINT('',#1099);
#400=VERTEX_POINT('',#1101);
#401=VERTEX_POINT('',#1105);
#402=VERTEX_POINT('',#1107);
#403=VERTEX_POINT('',#1110);
#404=VERTEX_POINT('',#1112);
#405=VERTEX_POINT('',#1116);
#406=VERTEX_POINT('',#1118);
#407=VERTEX_POINT('',#1120);
#408=VERTEX_POINT('',#1124);
#409=VERTEX_POINT('',#1126);
#410=VERTEX_POINT('',#1128);
#411=VERTEX_POINT('',#1132);
#412=VERTEX_POINT('',#1133);
#413=VERTEX_POINT('',#1138);
#414=VERTEX_POINT('',#1140);
#415=VERTEX_POINT('',#1143);
#416=VERTEX_POINT('',#1147);
#417=VERTEX_POINT('',#1151);
#418=VERTEX_POINT('',#1157);
#419=VERTEX_POINT('',#1163);
#420=VERTEX_POINT('',#1164);
#421=VERTEX_POINT('',#1166);
#422=VERTEX_POINT('',#1168);
#423=VERTEX_POINT('',#1172);
#424=VERTEX_POINT('',#1175);
#425=VERTEX_POINT('',#1179);
#426=VERTEX_POINT('',#1185);
#427=VERTEX_POINT('',#1189);
#428=VERTEX_POINT('',#1195);
#429=VERTEX_POINT('',#1196);
#430=VERTEX_POINT('',#1201);
#431=VERTEX_POINT('',#1202);
#432=VERTEX_POINT('',#1210);
#433=VERTEX_POINT('',#1213);
#434=VERTEX_POINT('',#1215);
#435=VERTEX_POINT('',#1218);
#436=VERTEX_POINT('',#1223);
#437=VERTEX_POINT('',#1226);
#438=LINE('',#1037,#508);
#439=LINE('',#1042,#509);
#440=LINE('',#1045,#510);
#441=LINE('',#1050,#511);
#442=LINE('',#1056,#512);
#443=LINE('',#1060,#513);
#444=LINE('',#1061,#514);
#445=LINE('',#1066,#515);
#446=LINE('',#1069,#516);
#447=LINE('',#1074,#517);
#448=LINE('',#1078,#518);
#449=LINE('',#1081,#519);
#450=LINE('',#1083,#520);
#451=LINE('',#1085,#521);
#452=LINE('',#1087,#522);
#453=LINE('',#1088,#523);
#454=LINE('',#1090,#524);
#455=LINE('',#1092,#525);
#456=LINE('',#1094,#526);
#457=LINE('',#1096,#527);
#458=LINE('',#1098,#528);
#459=LINE('',#1102,#529);
#460=LINE('',#1104,#530);
#461=LINE('',#1106,#531);
#462=LINE('',#1108,#532);
#463=LINE('',#1109,#533);
#464=LINE('',#1111,#534);
#465=LINE('',#1113,#535);
#466=LINE('',#1117,#536);
#467=LINE('',#1119,#537);
#468=LINE('',#1125,#538);
#469=LINE('',#1127,#539);
#470=LINE('',#1131,#540);
#471=LINE('',#1134,#541);
#472=LINE('',#1135,#542);
#473=LINE('',#1137,#543);
#474=LINE('',#1139,#544);
#475=LINE('',#1141,#545);
#476=LINE('',#1142,#546);
#477=LINE('',#1144,#547);
#478=LINE('',#1146,#548);
#479=LINE('',#1148,#549);
#480=LINE('',#1150,#550);
#481=LINE('',#1152,#551);
#482=LINE('',#1154,#552);
#483=LINE('',#1156,#553);
#484=LINE('',#1158,#554);
#485=LINE('',#1160,#555);
#486=LINE('',#1162,#556);
#487=LINE('',#1167,#557);
#488=LINE('',#1174,#558);
#489=LINE('',#1176,#559);
#490=LINE('',#1178,#560);
#491=LINE('',#1182,#561);
#492=LINE('',#1184,#562);
#493=LINE('',#1186,#563);
#494=LINE('',#1188,#564);
#495=LINE('',#1192,#565);
#496=LINE('',#1194,#566);
#497=LINE('',#1197,#567);
#498=LINE('',#1198,#568);
#499=LINE('',#1200,#569);
#500=LINE('',#1206,#570);
#501=LINE('',#1207,#571);
#502=LINE('',#1229,#572);
#503=LINE('',#1230,#573);
#504=LINE('',#1234,#574);
#505=LINE('',#1235,#575);
#506=LINE('',#1237,#576);
#507=LINE('',#1239,#577);
#508=VECTOR('',#829,1.);
#509=VECTOR('',#832,1.);
#510=VECTOR('',#835,1.);
#511=VECTOR('',#838,1.);
#512=VECTOR('',#843,1.);
#513=VECTOR('',#846,1.);
#514=VECTOR('',#847,1.);
#515=VECTOR('',#850,1.);
#516=VECTOR('',#853,1.);
#517=VECTOR('',#856,1.);
#518=VECTOR('',#861,1.);
#519=VECTOR('',#862,1.);
#520=VECTOR('',#863,1.);
#521=VECTOR('',#864,1.);
#522=VECTOR('',#865,1.);
#523=VECTOR('',#866,1.);
#524=VECTOR('',#867,1.);
#525=VECTOR('',#868,1.);
#526=VECTOR('',#869,1.);
#527=VECTOR('',#870,1.);
#528=VECTOR('',#871,1.);
#529=VECTOR('',#874,1.);
#530=VECTOR('',#877,1.);
#531=VECTOR('',#878,1.);
#532=VECTOR('',#879,1.);
#533=VECTOR('',#880,1.);
#534=VECTOR('',#881,1.);
#535=VECTOR('',#882,1.);
#536=VECTOR('',#887,1.);
#537=VECTOR('',#888,1.);
#538=VECTOR('',#895,1.);
#539=VECTOR('',#896,1.);
#540=VECTOR('',#901,1.);
#541=VECTOR('',#902,1.);
#542=VECTOR('',#903,1.);
#543=VECTOR('',#906,1.);
#544=VECTOR('',#907,1.);
#545=VECTOR('',#908,1.);
#546=VECTOR('',#909,1.);
#547=VECTOR('',#910,1.);
#548=VECTOR('',#913,1.);
#549=VECTOR('',#914,1.);
#550=VECTOR('',#917,1.);
#551=VECTOR('',#918,1.);
#552=VECTOR('',#921,1.);
#553=VECTOR('',#924,1.);
#554=VECTOR('',#925,1.);
#555=VECTOR('',#928,1.);
#556=VECTOR('',#931,1.);
#557=VECTOR('',#934,1.);
#558=VECTOR('',#943,1.);
#559=VECTOR('',#944,1.);
#560=VECTOR('',#947,1.);
#561=VECTOR('',#952,1.);
#562=VECTOR('',#955,1.);
#563=VECTOR('',#956,1.);
#564=VECTOR('',#959,1.);
#565=VECTOR('',#964,1.);
#566=VECTOR('',#967,1.);
#567=VECTOR('',#968,1.);
#568=VECTOR('',#969,1.);
#569=VECTOR('',#972,1.);
#570=VECTOR('',#979,1.);
#571=VECTOR('',#980,1.);
#572=VECTOR('',#1011,1.);
#573=VECTOR('',#1012,1.);
#574=VECTOR('',#1019,1.);
#575=VECTOR('',#1020,1.);
#576=VECTOR('',#1023,1.);
#577=VECTOR('',#1026,1.);
#578=EDGE_LOOP('',(#72,#73,#74,#75));
#579=EDGE_LOOP('',(#76,#77,#78,#79));
#580=EDGE_LOOP('',(#80,#81,#82,#83));
#581=EDGE_LOOP('',(#84,#85,#86,#87));
#582=EDGE_LOOP('',(#88,#89,#90,#91));
#583=EDGE_LOOP('',(#92,#93,#94,#95,#96,#97,#98,#99,#100,#101,#102,#103,
#104,#105));
#584=EDGE_LOOP('',(#106,#107,#108,#109,#110,#111,#112,#113));
#585=EDGE_LOOP('',(#114));
#586=EDGE_LOOP('',(#115,#116,#117,#118));
#587=EDGE_LOOP('',(#119));
#588=EDGE_LOOP('',(#120,#121,#122,#123));
#589=EDGE_LOOP('',(#124,#125,#126,#127));
#590=EDGE_LOOP('',(#128,#129,#130,#131,#132,#133,#134,#135));
#591=EDGE_LOOP('',(#136,#137,#138,#139));
#592=EDGE_LOOP('',(#140,#141,#142,#143));
#593=EDGE_LOOP('',(#144,#145,#146,#147));
#594=EDGE_LOOP('',(#148,#149,#150,#151));
#595=EDGE_LOOP('',(#152,#153,#154,#155));
#596=EDGE_LOOP('',(#156,#157,#158,#159));
#597=EDGE_LOOP('',(#160,#161,#162,#163));
#598=EDGE_LOOP('',(#164));
#599=EDGE_LOOP('',(#165,#166,#167,#168));
#600=EDGE_LOOP('',(#169,#170,#171,#172));
#601=EDGE_LOOP('',(#173,#174,#175,#176));
#602=EDGE_LOOP('',(#177,#178,#179,#180));
#603=EDGE_LOOP('',(#181,#182,#183,#184));
#604=EDGE_LOOP('',(#185,#186,#187,#188));
#605=EDGE_LOOP('',(#189,#190,#191,#192));
#606=EDGE_LOOP('',(#193,#194,#195,#196));
#607=EDGE_LOOP('',(#197,#198,#199,#200));
#608=EDGE_LOOP('',(#201));
#609=EDGE_LOOP('',(#202));
#610=EDGE_LOOP('',(#203));
#611=EDGE_LOOP('',(#204));
#612=EDGE_LOOP('',(#205));
#613=EDGE_LOOP('',(#206));
#614=EDGE_LOOP('',(#207,#208,#209,#210));
#615=EDGE_LOOP('',(#211));
#616=EDGE_LOOP('',(#212,#213,#214,#215));
#617=EDGE_LOOP('',(#216));
#618=EDGE_LOOP('',(#217));
#619=EDGE_LOOP('',(#218));
#620=EDGE_LOOP('',(#219));
#621=EDGE_LOOP('',(#220));
#622=EDGE_LOOP('',(#221,#222,#223,#224,#225,#226));
#623=EDGE_LOOP('',(#227,#228,#229,#230));
#624=EDGE_LOOP('',(#231,#232,#233,#234));
#625=EDGE_LOOP('',(#235,#236,#237,#238));
#626=EDGE_LOOP('',(#239,#240,#241,#242));
#627=EDGE_LOOP('',(#243,#244,#245,#246));
#628=EDGE_LOOP('',(#247,#248,#249,#250));
#629=EDGE_LOOP('',(#251,#252,#253,#254));
#630=EDGE_LOOP('',(#255));
#631=EDGE_LOOP('',(#256,#257,#258,#259));
#632=EDGE_LOOP('',(#260));
#633=EDGE_LOOP('',(#261,#262,#263,#264));
#634=EDGE_LOOP('',(#265));
#635=EDGE_LOOP('',(#266,#267,#268,#269));
#636=FACE_BOUND('',#578,.T.);
#637=FACE_BOUND('',#579,.T.);
#638=FACE_BOUND('',#580,.T.);
#639=FACE_BOUND('',#581,.T.);
#640=FACE_BOUND('',#582,.T.);
#641=FACE_BOUND('',#583,.T.);
#642=FACE_BOUND('',#584,.T.);
#643=FACE_BOUND('',#585,.T.);
#644=FACE_BOUND('',#586,.T.);
#645=FACE_BOUND('',#587,.T.);
#646=FACE_BOUND('',#588,.T.);
#647=FACE_BOUND('',#589,.T.);
#648=FACE_BOUND('',#590,.T.);
#649=FACE_BOUND('',#591,.T.);
#650=FACE_BOUND('',#592,.T.);
#651=FACE_BOUND('',#593,.T.);
#652=FACE_BOUND('',#594,.T.);
#653=FACE_BOUND('',#595,.T.);
#654=FACE_BOUND('',#596,.T.);
#655=FACE_BOUND('',#597,.T.);
#656=FACE_BOUND('',#598,.T.);
#657=FACE_BOUND('',#599,.T.);
#658=FACE_BOUND('',#600,.T.);
#659=FACE_BOUND('',#601,.T.);
#660=FACE_BOUND('',#602,.T.);
#661=FACE_BOUND('',#603,.T.);
#662=FACE_BOUND('',#604,.T.);
#663=FACE_BOUND('',#605,.T.);
#664=FACE_BOUND('',#606,.T.);
#665=FACE_BOUND('',#607,.T.);
#666=FACE_BOUND('',#608,.T.);
#667=FACE_BOUND('',#609,.T.);
#668=FACE_BOUND('',#610,.T.);
#669=FACE_BOUND('',#611,.T.);
#670=FACE_BOUND('',#612,.T.);
#671=FACE_BOUND('',#613,.T.);
#672=FACE_BOUND('',#614,.T.);
#673=FACE_BOUND('',#615,.T.);
#674=FACE_BOUND('',#616,.T.);
#675=FACE_BOUND('',#617,.T.);
#676=FACE_BOUND('',#618,.T.);
#677=FACE_BOUND('',#619,.T.);
#678=FACE_BOUND('',#620,.T.);
#679=FACE_BOUND('',#621,.T.);
#680=FACE_BOUND('',#622,.T.);
#681=FACE_BOUND('',#623,.T.);
#682=FACE_BOUND('',#624,.T.);
#683=FACE_BOUND('',#625,.T.);
#684=FACE_BOUND('',#626,.T.);
#685=FACE_BOUND('',#627,.T.);
#686=FACE_BOUND('',#628,.T.);
#687=FACE_BOUND('',#629,.T.);
#688=FACE_BOUND('',#630,.T.);
#689=FACE_BOUND('',#631,.T.);
#690=FACE_BOUND('',#632,.T.);
#691=FACE_BOUND('',#633,.T.);
#692=FACE_BOUND('',#634,.T.);
#693=FACE_BOUND('',#635,.T.);
#694=CYLINDRICAL_SURFACE('',#756,0.022);
#695=CYLINDRICAL_SURFACE('',#783,0.01875);
#696=CYLINDRICAL_SURFACE('',#789,0.004);
#697=CYLINDRICAL_SURFACE('',#793,0.004);
#698=CYLINDRICAL_SURFACE('',#797,0.00400354611044703);
#699=CYLINDRICAL_SURFACE('',#801,0.001);
#700=CYLINDRICAL_SURFACE('',#803,0.001);
#701=CYLINDRICAL_SURFACE('',#806,0.001);
#702=CYLINDRICAL_SURFACE('',#812,0.0175);
#703=ADVANCED_FACE('',(#636,#637,#638,#639,#640),#694,.T.);
#704=ADVANCED_FACE('',(#641),#12,.T.);
#705=ADVANCED_FACE('',(#642),#13,.T.);
#706=ADVANCED_FACE('',(#643,#644),#14,.F.);
#707=ADVANCED_FACE('',(#645,#646),#15,.F.);
#708=ADVANCED_FACE('',(#647),#16,.T.);
#709=ADVANCED_FACE('',(#648),#17,.T.);
#710=ADVANCED_FACE('',(#649),#18,.F.);
#711=ADVANCED_FACE('',(#650),#19,.T.);
#712=ADVANCED_FACE('',(#651),#20,.F.);
#713=ADVANCED_FACE('',(#652),#21,.T.);
#714=ADVANCED_FACE('',(#653),#22,.F.);
#715=ADVANCED_FACE('',(#654,#655,#656),#695,.F.);
#716=ADVANCED_FACE('',(#657),#23,.T.);
#717=ADVANCED_FACE('',(#658),#696,.T.);
#718=ADVANCED_FACE('',(#659),#24,.F.);
#719=ADVANCED_FACE('',(#660),#25,.T.);
#720=ADVANCED_FACE('',(#661),#697,.T.);
#721=ADVANCED_FACE('',(#662),#26,.F.);
#722=ADVANCED_FACE('',(#663),#27,.T.);
#723=ADVANCED_FACE('',(#664),#698,.T.);
#724=ADVANCED_FACE('',(#665),#28,.F.);
#725=ADVANCED_FACE('',(#666,#667),#699,.F.);
#726=ADVANCED_FACE('',(#668,#669),#700,.F.);
#727=ADVANCED_FACE('',(#670,#671),#701,.F.);
#728=ADVANCED_FACE('',(#672,#673),#29,.F.);
#729=ADVANCED_FACE('',(#674),#30,.T.);
#730=ADVANCED_FACE('',(#675,#676),#31,.F.);
#731=ADVANCED_FACE('',(#677,#678),#702,.F.);
#732=ADVANCED_FACE('',(#679,#680),#32,.T.);
#733=ADVANCED_FACE('',(#681),#33,.T.);
#734=ADVANCED_FACE('',(#682),#34,.T.);
#735=ADVANCED_FACE('',(#683),#35,.F.);
#736=ADVANCED_FACE('',(#684),#36,.F.);
#737=ADVANCED_FACE('',(#685),#37,.T.);
#738=ADVANCED_FACE('',(#686),#38,.T.);
#739=ADVANCED_FACE('',(#687),#39,.F.);
#740=ADVANCED_FACE('',(#688,#689),#40,.T.);
#741=ADVANCED_FACE('',(#690,#691),#41,.T.);
#742=ADVANCED_FACE('',(#692,#693),#42,.T.);
#743=CLOSED_SHELL('',(#703,#704,#705,#706,#707,#708,#709,#710,#711,#712,
#713,#714,#715,#716,#717,#718,#719,#720,#721,#722,#723,#724,#725,#726,#727,
#728,#729,#730,#731,#732,#733,#734,#735,#736,#737,#738,#739,#740,#741,#742));
#744=STYLED_ITEM('',(#745),#752);
#745=PRESENTATION_STYLE_ASSIGNMENT((#746));
#746=SURFACE_STYLE_USAGE(.BOTH.,#747);
#747=SURFACE_SIDE_STYLE('',(#748));
#748=SURFACE_STYLE_FILL_AREA(#749);
#749=FILL_AREA_STYLE('',(#750));
#750=FILL_AREA_STYLE_COLOUR('',#751);
#751=COLOUR_RGB('',0.615686274509804,0.811764705882353,0.929411764705882);
#752=MANIFOLD_SOLID_BREP('DisplayCase',#743);
#753=SHAPE_DEFINITION_REPRESENTATION(#1250,#754);
#754=SHAPE_REPRESENTATION('DisplayCase',(#755),#1245);
#755=AXIS2_PLACEMENT_3D('',#1035,#825,#826);
#756=AXIS2_PLACEMENT_3D('',#1036,#827,#828);
#757=AXIS2_PLACEMENT_3D('',#1040,#830,#831);
#758=AXIS2_PLACEMENT_3D('',#1044,#833,#834);
#759=AXIS2_PLACEMENT_3D('',#1048,#836,#837);
#760=AXIS2_PLACEMENT_3D('',#1052,#839,#840);
#761=AXIS2_PLACEMENT_3D('',#1053,#841,#842);
#762=AXIS2_PLACEMENT_3D('',#1058,#844,#845);
#763=AXIS2_PLACEMENT_3D('',#1064,#848,#849);
#764=AXIS2_PLACEMENT_3D('',#1068,#851,#852);
#765=AXIS2_PLACEMENT_3D('',#1072,#854,#855);
#766=AXIS2_PLACEMENT_3D('',#1076,#857,#858);
#767=AXIS2_PLACEMENT_3D('',#1077,#859,#860);
#768=AXIS2_PLACEMENT_3D('',#1100,#872,#873);
#769=AXIS2_PLACEMENT_3D('',#1103,#875,#876);
#770=AXIS2_PLACEMENT_3D('',#1114,#883,#884);
#771=AXIS2_PLACEMENT_3D('',#1115,#885,#886);
#772=AXIS2_PLACEMENT_3D('',#1121,#889,#890);
#773=AXIS2_PLACEMENT_3D('',#1122,#891,#892);
#774=AXIS2_PLACEMENT_3D('',#1123,#893,#894);
#775=AXIS2_PLACEMENT_3D('',#1129,#897,#898);
#776=AXIS2_PLACEMENT_3D('',#1130,#899,#900);
#777=AXIS2_PLACEMENT_3D('',#1136,#904,#905);
#778=AXIS2_PLACEMENT_3D('',#1145,#911,#912);
#779=AXIS2_PLACEMENT_3D('',#1149,#915,#916);
#780=AXIS2_PLACEMENT_3D('',#1153,#919,#920);
#781=AXIS2_PLACEMENT_3D('',#1155,#922,#923);
#782=AXIS2_PLACEMENT_3D('',#1159,#926,#927);
#783=AXIS2_PLACEMENT_3D('',#1161,#929,#930);
#784=AXIS2_PLACEMENT_3D('',#1165,#932,#933);
#785=AXIS2_PLACEMENT_3D('',#1169,#935,#936);
#786=AXIS2_PLACEMENT_3D('',#1170,#937,#938);
#787=AXIS2_PLACEMENT_3D('',#1171,#939,#940);
#788=AXIS2_PLACEMENT_3D('',#1173,#941,#942);
#789=AXIS2_PLACEMENT_3D('',#1177,#945,#946);
#790=AXIS2_PLACEMENT_3D('',#1180,#948,#949);
#791=AXIS2_PLACEMENT_3D('',#1181,#950,#951);
#792=AXIS2_PLACEMENT_3D('',#1183,#953,#954);
#793=AXIS2_PLACEMENT_3D('',#1187,#957,#958);
#794=AXIS2_PLACEMENT_3D('',#1190,#960,#961);
#795=AXIS2_PLACEMENT_3D('',#1191,#962,#963);
#796=AXIS2_PLACEMENT_3D('',#1193,#965,#966);
#797=AXIS2_PLACEMENT_3D('',#1199,#970,#971);
#798=AXIS2_PLACEMENT_3D('',#1203,#973,#974);
#799=AXIS2_PLACEMENT_3D('',#1204,#975,#976);
#800=AXIS2_PLACEMENT_3D('',#1205,#977,#978);
#801=AXIS2_PLACEMENT_3D('',#1208,#981,#982);
#802=AXIS2_PLACEMENT_3D('',#1209,#983,#984);
#803=AXIS2_PLACEMENT_3D('',#1211,#985,#986);
#804=AXIS2_PLACEMENT_3D('',#1212,#987,#988);
#805=AXIS2_PLACEMENT_3D('',#1214,#989,#990);
#806=AXIS2_PLACEMENT_3D('',#1216,#991,#992);
#807=AXIS2_PLACEMENT_3D('',#1217,#993,#994);
#808=AXIS2_PLACEMENT_3D('',#1219,#995,#996);
#809=AXIS2_PLACEMENT_3D('',#1220,#997,#998);
#810=AXIS2_PLACEMENT_3D('',#1221,#999,#1000);
#811=AXIS2_PLACEMENT_3D('',#1222,#1001,#1002);
#812=AXIS2_PLACEMENT_3D('',#1224,#1003,#1004);
#813=AXIS2_PLACEMENT_3D('',#1225,#1005,#1006);
#814=AXIS2_PLACEMENT_3D('',#1227,#1007,#1008);
#815=AXIS2_PLACEMENT_3D('',#1228,#1009,#1010);
#816=AXIS2_PLACEMENT_3D('',#1231,#1013,#1014);
#817=AXIS2_PLACEMENT_3D('',#1232,#1015,#1016);
#818=AXIS2_PLACEMENT_3D('',#1233,#1017,#1018);
#819=AXIS2_PLACEMENT_3D('',#1236,#1021,#1022);
#820=AXIS2_PLACEMENT_3D('',#1238,#1024,#1025);
#821=AXIS2_PLACEMENT_3D('',#1240,#1027,#1028);
#822=AXIS2_PLACEMENT_3D('',#1241,#1029,#1030);
#823=AXIS2_PLACEMENT_3D('',#1242,#1031,#1032);
#824=AXIS2_PLACEMENT_3D('',#1243,#1033,#1034);
#825=DIRECTION('',(0.,0.,1.));
#826=DIRECTION('',(1.,0.,0.));
#827=DIRECTION('',(0.,0.,-1.));
#828=DIRECTION('',(-1.,0.,0.));
#829=DIRECTION('',(0.,0.,1.));
#830=DIRECTION('',(0.,0.,1.));
#831=DIRECTION('',(1.,0.,0.));
#832=DIRECTION('',(0.,0.,1.));
#833=DIRECTION('',(0.,0.,1.));
#834=DIRECTION('',(1.,0.,0.));
#835=DIRECTION('',(0.,0.,-1.));
#836=DIRECTION('',(0.,0.,1.));
#837=DIRECTION('',(1.,0.,0.));
#838=DIRECTION('',(0.,0.,-1.));
#839=DIRECTION('',(0.,0.,1.));
#840=DIRECTION('',(1.,0.,0.));
#841=DIRECTION('',(0.,0.,1.));
#842=DIRECTION('',(1.,0.,0.));
#843=DIRECTION('',(0.,0.,-1.));
#844=DIRECTION('',(0.,-3.46944695195362E-16,1.));
#845=DIRECTION('',(0.,-1.,-3.46944695195362E-16));
#846=DIRECTION('',(0.,0.,-1.));
#847=DIRECTION('',(0.,0.,1.));
#848=DIRECTION('',(0.,0.,1.));
#849=DIRECTION('',(1.,0.,0.));
#850=DIRECTION('',(0.,0.,1.));
#851=DIRECTION('',(0.,0.,1.));
#852=DIRECTION('',(1.,0.,0.));
#853=DIRECTION('',(0.,0.,1.));
#854=DIRECTION('',(0.,0.,1.));
#855=DIRECTION('',(1.,0.,0.));
#856=DIRECTION('',(0.,0.,1.));
#857=DIRECTION('',(0.,0.,1.));
#858=DIRECTION('',(1.,0.,0.));
#859=DIRECTION('',(0.,0.,1.));
#860=DIRECTION('',(1.,0.,0.));
#861=DIRECTION('',(1.,0.,0.));
#862=DIRECTION('',(0.,-1.,0.));
#863=DIRECTION('',(-1.,0.,0.));
#864=DIRECTION('',(0.,-1.,0.));
#865=DIRECTION('',(0.521555757344622,0.853217200940463,0.));
#866=DIRECTION('',(-0.521555757344622,0.853217200940463,0.));
#867=DIRECTION('',(0.,-1.,0.));
#868=DIRECTION('',(-1.,0.,0.));
#869=DIRECTION('',(0.,-1.,0.));
#870=DIRECTION('',(1.,0.,0.));
#871=DIRECTION('',(-0.521555757344622,0.853217200940463,0.));
#872=DIRECTION('',(0.,0.,1.));
#873=DIRECTION('',(1.,0.,0.));
#874=DIRECTION('',(0.521555757344622,0.853217200940462,0.));
#875=DIRECTION('',(0.,-1.,0.));
#876=DIRECTION('',(0.,0.,-1.));
#877=DIRECTION('',(2.16840434497101E-16,0.,-1.));
#878=DIRECTION('',(-1.,0.,-1.23908819712629E-16));
#879=DIRECTION('',(6.50521303491303E-16,0.,-1.));
#880=DIRECTION('',(0.,0.,-1.));
#881=DIRECTION('',(1.,0.,0.));
#882=DIRECTION('',(0.,0.,-1.));
#883=DIRECTION('',(0.,0.,1.));
#884=DIRECTION('',(1.,0.,0.));
#885=DIRECTION('',(0.,0.,1.));
#886=DIRECTION('',(1.,0.,0.));
#887=DIRECTION('',(0.866025403784439,-0.5,0.));
#888=DIRECTION('',(0.866025403784439,-0.5,0.));
#889=DIRECTION('',(0.,0.,1.));
#890=DIRECTION('',(1.,0.,0.));
#891=DIRECTION('',(0.,0.,1.));
#892=DIRECTION('',(1.,0.,0.));
#893=DIRECTION('',(0.,0.,1.));
#894=DIRECTION('',(1.,0.,0.));
#895=DIRECTION('',(0.,1.,0.));
#896=DIRECTION('',(0.,1.,0.));
#897=DIRECTION('',(0.,0.,1.));
#898=DIRECTION('',(1.,0.,0.));
#899=DIRECTION('',(-0.853217200940463,0.521555757344622,0.));
#900=DIRECTION('',(-0.521555757344622,-0.853217200940463,0.));
#901=DIRECTION('',(0.521555757344622,0.853217200940462,0.));
#902=DIRECTION('',(0.,0.,-1.));
#903=DIRECTION('',(0.,0.,-1.));
#904=DIRECTION('',(0.,1.,0.));
#905=DIRECTION('',(0.,0.,1.));
#906=DIRECTION('',(2.16840434497101E-16,0.,-1.));
#907=DIRECTION('',(1.,0.,0.));
#908=DIRECTION('',(0.,0.,-1.));
#909=DIRECTION('',(6.50521303491303E-16,0.,-1.));
#910=DIRECTION('',(-1.,0.,-1.23908819712629E-16));
#911=DIRECTION('',(-0.853217200940463,-0.521555757344622,0.));
#912=DIRECTION('',(0.521555757344622,-0.853217200940463,0.));
#913=DIRECTION('',(-0.521555757344622,0.853217200940463,0.));
#914=DIRECTION('',(0.,0.,-1.));
#915=DIRECTION('',(1.,0.,0.));
#916=DIRECTION('',(0.,0.,-1.));
#917=DIRECTION('',(0.,1.,0.));
#918=DIRECTION('',(0.,0.,-1.));
#919=DIRECTION('',(-0.853217200940463,0.521555757344622,0.));
#920=DIRECTION('',(-0.521555757344622,-0.853217200940463,0.));
#921=DIRECTION('',(0.521555757344622,0.853217200940463,0.));
#922=DIRECTION('',(-0.853217200940463,-0.521555757344622,0.));
#923=DIRECTION('',(0.521555757344622,-0.853217200940463,0.));
#924=DIRECTION('',(0.521555757344622,-0.853217200940463,0.));
#925=DIRECTION('',(0.,0.,-1.));
#926=DIRECTION('',(1.,0.,0.));
#927=DIRECTION('',(0.,0.,-1.));
#928=DIRECTION('',(0.,-1.,0.));
#929=DIRECTION('',(0.,0.,-1.));
#930=DIRECTION('',(-1.,0.,0.));
#931=DIRECTION('',(0.,0.,-1.));
#932=DIRECTION('',(0.,0.,1.));
#933=DIRECTION('',(1.,0.,0.));
#934=DIRECTION('',(0.,0.,-1.));
#935=DIRECTION('',(0.,-3.46944695195362E-16,1.));
#936=DIRECTION('',(0.,-1.,-3.46944695195362E-16));
#937=DIRECTION('',(0.,0.,1.));
#938=DIRECTION('',(1.,0.,0.));
#939=DIRECTION('',(0.,0.,1.));
#940=DIRECTION('',(1.,0.,0.));
#941=DIRECTION('',(-0.5,-0.866025403784439,0.));
#942=DIRECTION('',(0.866025403784439,-0.5,0.));
#943=DIRECTION('',(0.,0.,1.));
#944=DIRECTION('',(0.866025403784439,-0.5,0.));
#945=DIRECTION('',(0.,0.,1.));
#946=DIRECTION('',(1.,0.,0.));
#947=DIRECTION('',(0.,0.,1.));
#948=DIRECTION('',(0.,0.,1.));
#949=DIRECTION('',(1.,0.,0.));
#950=DIRECTION('',(-0.5,-0.866025403784439,0.));
#951=DIRECTION('',(0.866025403784439,-0.5,0.));
#952=DIRECTION('',(0.866025403784439,-0.5,0.));
#953=DIRECTION('',(1.,0.,0.));
#954=DIRECTION('',(0.,0.,-1.));
#955=DIRECTION('',(0.,0.,1.));
#956=DIRECTION('',(0.,1.,0.));
#957=DIRECTION('',(0.,0.,1.));
#958=DIRECTION('',(1.,0.,0.));
#959=DIRECTION('',(0.,0.,1.));
#960=DIRECTION('',(0.,0.,1.));
#961=DIRECTION('',(1.,0.,0.));
#962=DIRECTION('',(1.,0.,0.));
#963=DIRECTION('',(0.,0.,-1.));
#964=DIRECTION('',(0.,1.,0.));
#965=DIRECTION('',(-0.5,0.866025403784439,0.));
#966=DIRECTION('',(-0.866025403784439,-0.5,0.));
#967=DIRECTION('',(0.,0.,1.));
#968=DIRECTION('',(-0.866025403784439,-0.5,0.));
#969=DIRECTION('',(-0.866025403784439,-0.5,0.));
#970=DIRECTION('',(0.,0.,1.));
#971=DIRECTION('',(1.,0.,0.));
#972=DIRECTION('',(0.,0.,1.));
#973=DIRECTION('',(0.,0.,1.));
#974=DIRECTION('',(1.,0.,0.));
#975=DIRECTION('',(0.,0.,1.));
#976=DIRECTION('',(1.,0.,0.));
#977=DIRECTION('',(-0.5,0.866025403784439,0.));
#978=DIRECTION('',(-0.866025403784439,-0.5,0.));
#979=DIRECTION('',(-0.866025403784439,-0.5,0.));
#980=DIRECTION('',(-0.866025403784439,-0.5,0.));
#981=DIRECTION('',(0.,0.,1.));
#982=DIRECTION('',(1.,0.,0.));
#983=DIRECTION('',(0.,0.,1.));
#984=DIRECTION('',(1.,0.,0.));
#985=DIRECTION('',(0.,0.,1.));
#986=DIRECTION('',(1.,0.,0.));
#987=DIRECTION('',(0.,0.,1.));
#988=DIRECTION('',(1.,0.,0.));
#989=DIRECTION('',(0.,0.,1.));
#990=DIRECTION('',(1.,0.,0.));
#991=DIRECTION('',(0.,0.,1.));
#992=DIRECTION('',(1.,0.,0.));
#993=DIRECTION('',(0.,0.,1.));
#994=DIRECTION('',(1.,0.,0.));
#995=DIRECTION('',(0.,0.,1.));
#996=DIRECTION('',(1.,0.,0.));
#997=DIRECTION('',(0.,0.,1.));
#998=DIRECTION('',(1.,0.,0.));
#999=DIRECTION('',(0.,0.,-1.));
#1000=DIRECTION('',(1.,0.,0.));
#1001=DIRECTION('',(0.,0.,-1.));
#1002=DIRECTION('',(-1.,0.,0.));
#1003=DIRECTION('',(0.,0.,1.));
#1004=DIRECTION('',(1.,0.,0.));
#1005=DIRECTION('',(0.,0.,-1.));
#1006=DIRECTION('',(-1.,0.,0.));
#1007=DIRECTION('',(0.,0.,-1.));
#1008=DIRECTION('',(1.,0.,0.));
#1009=DIRECTION('',(-1.23908819712629E-16,0.,1.));
#1010=DIRECTION('',(1.,0.,1.23908819712629E-16));
#1011=DIRECTION('',(0.,-1.,0.));
#1012=DIRECTION('',(0.,-1.,0.));
#1013=DIRECTION('',(-1.,0.,-2.16840434497101E-16));
#1014=DIRECTION('',(-2.16840434497101E-16,0.,1.));
#1015=DIRECTION('',(-1.,0.,-6.50521303491303E-16));
#1016=DIRECTION('',(-6.50521303491303E-16,0.,1.));
#1017=DIRECTION('',(0.,-1.,-4.33680868994202E-16));
#1018=DIRECTION('',(0.,4.33680868994202E-16,-1.));
#1019=DIRECTION('',(-1.,0.,0.));
#1020=DIRECTION('',(-1.,0.,0.));
#1021=DIRECTION('',(0.,0.,1.));
#1022=DIRECTION('',(1.,0.,0.));
#1023=DIRECTION('',(-1.,0.,0.));
#1024=DIRECTION('',(0.,-1.,-4.33680868994202E-16));
#1025=DIRECTION('',(0.,4.33680868994202E-16,-1.));
#1026=DIRECTION('',(-1.,0.,0.));
#1027=DIRECTION('',(0.,-3.46944695195362E-16,1.));
#1028=DIRECTION('',(0.,-1.,-3.46944695195362E-16));
#1029=DIRECTION('',(0.,0.,1.));
#1030=DIRECTION('',(1.,0.,0.));
#1031=DIRECTION('',(0.,0.,1.));
#1032=DIRECTION('',(1.,0.,0.));
#1033=DIRECTION('',(0.,0.,1.));
#1034=DIRECTION('',(1.,0.,0.));
#1035=CARTESIAN_POINT('',(0.,0.,0.));
#1036=CARTESIAN_POINT('',(4.06663480797011E-18,-2.42861286636753E-17,0.007));
#1037=CARTESIAN_POINT('',(0.0167349939951952,-0.0142807554415297,-0.001));
#1038=CARTESIAN_POINT('',(0.0167349939951952,-0.0142807554415297,-0.001));
#1039=CARTESIAN_POINT('',(0.0167349939951952,-0.0142807554415297,0.001));
#1040=CARTESIAN_POINT('',(4.06663480797011E-18,-2.42861286636753E-17,0.001));
#1041=CARTESIAN_POINT('',(0.0207349939951952,-0.00735255221125422,0.001));
#1042=CARTESIAN_POINT('',(0.0207349939951952,-0.00735255221125421,-0.001));
#1043=CARTESIAN_POINT('',(0.0207349939951952,-0.00735255221125421,-0.001));
#1044=CARTESIAN_POINT('',(-2.60208521396521E-18,2.16840434497101E-18,-0.001));
#1045=CARTESIAN_POINT('',(0.0105675813840866,-0.0192957566239499,0.007));
#1046=CARTESIAN_POINT('',(0.0105675813840866,-0.0192957566239499,0.007));
#1047=CARTESIAN_POINT('',(0.0105675813840867,-0.0192957566239499,-0.002));
#1048=CARTESIAN_POINT('',(-2.60208521396521E-18,2.16840434497101E-18,-0.002));
#1049=CARTESIAN_POINT('',(-0.0105675813840867,-0.0192957566239499,-0.002));
#1050=CARTESIAN_POINT('',(-0.0105675813840866,-0.0192957566239499,0.007));
#1051=CARTESIAN_POINT('',(-0.0105675813840866,-0.0192957566239499,0.007));
#1052=CARTESIAN_POINT('',(4.06663480797011E-18,-2.42861286636753E-17,0.007));
#1053=CARTESIAN_POINT('',(4.06663480797011E-18,-2.42861286636753E-17,0.));
#1054=CARTESIAN_POINT('',(0.0219644599296227,-0.00125,0.));
#1055=CARTESIAN_POINT('',(0.0219644599296227,0.00125,1.0842021724855E-19));
#1056=CARTESIAN_POINT('',(0.0219644599296227,-0.00125,0.007));
#1057=CARTESIAN_POINT('',(0.0219644599296227,-0.00125,0.0025));
#1058=CARTESIAN_POINT('',(4.06663480797011E-18,-2.42861286636753E-17,0.0025));
#1059=CARTESIAN_POINT('',(0.0219644599296227,0.00125,0.0025));
#1060=CARTESIAN_POINT('',(0.0219644599296227,0.00125,0.007));
#1061=CARTESIAN_POINT('',(0.004,0.0216333076527839,-0.001));
#1062=CARTESIAN_POINT('',(0.004,0.0216333076527839,-0.001));
#1063=CARTESIAN_POINT('',(0.004,0.0216333076527839,0.001));
#1064=CARTESIAN_POINT('',(4.06663480797011E-18,-2.42861286636753E-17,0.001));
#1065=CARTESIAN_POINT('',(-0.004,0.0216333076527839,0.001));
#1066=CARTESIAN_POINT('',(-0.004,0.0216333076527839,-0.001));
#1067=CARTESIAN_POINT('',(-0.004,0.0216333076527839,-0.001));
#1068=CARTESIAN_POINT('',(-2.60208521396521E-18,2.16840434497101E-18,-0.001));
#1069=CARTESIAN_POINT('',(-0.0207349939951952,-0.00735255221125422,-0.001));
#1070=CARTESIAN_POINT('',(-0.0207349939951952,-0.00735255221125422,-0.001));
#1071=CARTESIAN_POINT('',(-0.0207349939951952,-0.00735255221125422,0.001));
#1072=CARTESIAN_POINT('',(4.06663480797011E-18,-2.42861286636753E-17,0.001));
#1073=CARTESIAN_POINT('',(-0.0167349939951952,-0.0142807554415297,0.001));
#1074=CARTESIAN_POINT('',(-0.0167349939951952,-0.0142807554415297,-0.001));
#1075=CARTESIAN_POINT('',(-0.0167349939951952,-0.0142807554415297,-0.001));
#1076=CARTESIAN_POINT('',(-2.60208521396521E-18,2.16840434497101E-18,-0.001));
#1077=CARTESIAN_POINT('',(-0.00224317459011403,0.00153638658424077,0.007));
#1078=CARTESIAN_POINT('',(0.,-0.02249,0.007));
#1079=CARTESIAN_POINT('',(0.007,-0.02249,0.007));
#1080=CARTESIAN_POINT('',(0.007115,-0.02249,0.007));
#1081=CARTESIAN_POINT('',(0.007,0.030752,0.007));
#1082=CARTESIAN_POINT('',(0.007,-0.02399,0.007));
#1083=CARTESIAN_POINT('',(0.,-0.02399,0.007));
#1084=CARTESIAN_POINT('',(0.008615,-0.02399,0.007));
#1085=CARTESIAN_POINT('',(0.008615,-0.02324,0.007));
#1086=CARTESIAN_POINT('',(0.008615,-0.02249,0.007));
#1087=CARTESIAN_POINT('',(0.00959129069204333,-0.020892878311975,0.007));
#1088=CARTESIAN_POINT('',(-0.00959129069204333,-0.020892878311975,0.007));
#1089=CARTESIAN_POINT('',(-0.008615,-0.02249,0.007));
#1090=CARTESIAN_POINT('',(-0.008615,-0.02324,0.007));
#1091=CARTESIAN_POINT('',(-0.008615,-0.02399,0.007));
#1092=CARTESIAN_POINT('',(0.,-0.02399,0.007));
#1093=CARTESIAN_POINT('',(-0.007,-0.02399,0.007));
#1094=CARTESIAN_POINT('',(-0.007,0.030752,0.007));
#1095=CARTESIAN_POINT('',(-0.007,-0.02249,0.007));
#1096=CARTESIAN_POINT('',(0.,-0.02249,0.007));
#1097=CARTESIAN_POINT('',(-0.007115,-0.02249,0.007));
#1098=CARTESIAN_POINT('',(-0.00777986355429127,-0.0214023444371742,0.007));
#1099=CARTESIAN_POINT('',(-0.012115,-0.0143104603350137,0.007));
#1100=CARTESIAN_POINT('',(5.74053187100322E-19,4.33680868994202E-18,0.007));
#1101=CARTESIAN_POINT('',(0.012115,-0.0143104603350137,0.007));
#1102=CARTESIAN_POINT('',(0.00777986355429127,-0.0214023444371742,0.007));
#1103=CARTESIAN_POINT('',(0.,-0.02399,0.007));
#1104=CARTESIAN_POINT('',(0.007,-0.02399,0.005));
#1105=CARTESIAN_POINT('',(0.007,-0.02399,0.003));
#1106=CARTESIAN_POINT('',(-8.67361737988404E-19,-0.02399,0.003));
#1107=CARTESIAN_POINT('',(-0.007,-0.02399,0.003));
#1108=CARTESIAN_POINT('',(-0.007,-0.02399,0.005));
#1109=CARTESIAN_POINT('',(-0.008615,-0.02399,0.007));
#1110=CARTESIAN_POINT('',(-0.008615,-0.02399,-0.002));
#1111=CARTESIAN_POINT('',(0.,-0.02399,-0.002));
#1112=CARTESIAN_POINT('',(0.008615,-0.02399,-0.002));
#1113=CARTESIAN_POINT('',(0.008615,-0.02399,0.007));
#1114=CARTESIAN_POINT('',(-8.86527611754923E-7,0.00338,-0.001));
#1115=CARTESIAN_POINT('',(0.0231661795512337,-0.013375,-0.001));
#1116=CARTESIAN_POINT('',(0.0241661795512337,-0.013375,-0.001));
#1117=CARTESIAN_POINT('',(0.0189505867732144,-0.0155599285283338,-0.001));
#1118=CARTESIAN_POINT('',(0.0211661795512337,-0.0168391016151378,-0.001));
#1119=CARTESIAN_POINT('',(0.0229505867732144,-0.00863172529805822,-0.001));
#1120=CARTESIAN_POINT('',(0.0251661795512337,-0.00991089838486223,-0.001));
#1121=CARTESIAN_POINT('',(0.0231661795512337,-0.013375,-0.001));
#1122=CARTESIAN_POINT('',(-8.86527611754923E-7,0.00338,-0.001));
#1123=CARTESIAN_POINT('',(-8.67361737988404E-19,0.02675,-0.001));
#1124=CARTESIAN_POINT('',(0.000999999999999999,0.02675,-0.001));
#1125=CARTESIAN_POINT('',(0.004,0.024191653826392,-0.001));
#1126=CARTESIAN_POINT('',(0.004,0.02675,-0.001));
#1127=CARTESIAN_POINT('',(-0.004,0.024191653826392,-0.001));
#1128=CARTESIAN_POINT('',(-0.004,0.02675,-0.001));
#1129=CARTESIAN_POINT('',(-8.67361737988404E-19,0.02675,-0.001));
#1130=CARTESIAN_POINT('',(0.00777986355429127,-0.0214023444371742,0.007));
#1131=CARTESIAN_POINT('',(0.00777986355429127,-0.0214023444371742,0.));
#1132=CARTESIAN_POINT('',(0.007115,-0.02249,0.));
#1133=CARTESIAN_POINT('',(0.012115,-0.0143104603350137,0.));
#1134=CARTESIAN_POINT('',(0.007115,-0.02249,0.007));
#1135=CARTESIAN_POINT('',(0.012115,-0.0143104603350137,0.007));
#1136=CARTESIAN_POINT('',(0.,-0.02249,0.007));
#1137=CARTESIAN_POINT('',(0.007,-0.02249,0.005));
#1138=CARTESIAN_POINT('',(0.007,-0.02249,0.003));
#1139=CARTESIAN_POINT('',(0.,-0.02249,0.));
#1140=CARTESIAN_POINT('',(-0.007115,-0.02249,0.));
#1141=CARTESIAN_POINT('',(-0.007115,-0.02249,0.007));
#1142=CARTESIAN_POINT('',(-0.007,-0.02249,0.005));
#1143=CARTESIAN_POINT('',(-0.007,-0.02249,0.003));
#1144=CARTESIAN_POINT('',(-8.67361737988404E-19,-0.02249,0.003));
#1145=CARTESIAN_POINT('',(-0.00777986355429127,-0.0214023444371742,0.007));
#1146=CARTESIAN_POINT('',(-0.00777986355429127,-0.0214023444371742,0.));
#1147=CARTESIAN_POINT('',(-0.012115,-0.0143104603350137,0.));
#1148=CARTESIAN_POINT('',(-0.012115,-0.0143104603350137,0.007));
#1149=CARTESIAN_POINT('',(0.008615,-0.02324,0.007));
#1150=CARTESIAN_POINT('',(0.008615,-0.02324,-0.002));
#1151=CARTESIAN_POINT('',(0.008615,-0.02249,-0.002));
#1152=CARTESIAN_POINT('',(0.008615,-0.02249,0.007));
#1153=CARTESIAN_POINT('',(0.00959129069204333,-0.020892878311975,0.007));
#1154=CARTESIAN_POINT('',(0.00959129069204333,-0.020892878311975,-0.002));
#1155=CARTESIAN_POINT('',(-0.00959129069204333,-0.020892878311975,0.007));
#1156=CARTESIAN_POINT('',(-0.00959129069204333,-0.020892878311975,-0.002));
#1157=CARTESIAN_POINT('',(-0.008615,-0.02249,-0.002));
#1158=CARTESIAN_POINT('',(-0.008615,-0.02249,0.007));
#1159=CARTESIAN_POINT('',(-0.008615,-0.02324,0.007));
#1160=CARTESIAN_POINT('',(-0.008615,-0.02324,-0.002));
#1161=CARTESIAN_POINT('',(5.74053187100322E-19,4.33680868994202E-18,0.007));
#1162=CARTESIAN_POINT('',(0.0187082869338697,-0.00125,0.007));
#1163=CARTESIAN_POINT('',(0.0187082869338697,-0.00125,0.));
#1164=CARTESIAN_POINT('',(0.0187082869338697,-0.00125,0.0025));
#1165=CARTESIAN_POINT('',(5.74053187100322E-19,4.33680868994202E-18,0.));
#1166=CARTESIAN_POINT('',(0.0187082869338697,0.00125,1.0842021724855E-19));
#1167=CARTESIAN_POINT('',(0.0187082869338697,0.00125,0.007));
#1168=CARTESIAN_POINT('',(0.0187082869338697,0.00125,0.0025));
#1169=CARTESIAN_POINT('',(5.74053187100322E-19,4.33680868994202E-18,0.0025));
#1170=CARTESIAN_POINT('',(2.30877666307713E-18,-3.46944695195361E-18,0.));
#1171=CARTESIAN_POINT('',(2.30877666307713E-18,-3.46944695195361E-18,-0.001));
#1172=CARTESIAN_POINT('',(0.01875,-3.46944695195361E-18,-0.001));
#1173=CARTESIAN_POINT('',(0.0189505867732144,-0.0155599285283338,-0.001));
#1174=CARTESIAN_POINT('',(0.0211661795512337,-0.0168391016151378,-0.001));
#1175=CARTESIAN_POINT('',(0.0211661795512337,-0.0168391016151378,0.001));
#1176=CARTESIAN_POINT('',(0.0189505867732144,-0.0155599285283338,0.001));
#1177=CARTESIAN_POINT('',(0.0231661795512337,-0.013375,-0.001));
#1178=CARTESIAN_POINT('',(0.0251661795512337,-0.00991089838486223,-0.001));
#1179=CARTESIAN_POINT('',(0.0251661795512337,-0.00991089838486223,0.001));
#1180=CARTESIAN_POINT('',(0.0231661795512337,-0.013375,0.001));
#1181=CARTESIAN_POINT('',(0.0229505867732144,-0.00863172529805822,-0.001));
#1182=CARTESIAN_POINT('',(0.0229505867732144,-0.00863172529805822,0.001));
#1183=CARTESIAN_POINT('',(0.004,0.024191653826392,-0.001));
#1184=CARTESIAN_POINT('',(0.004,0.02675,-0.001));
#1185=CARTESIAN_POINT('',(0.004,0.02675,0.001));
#1186=CARTESIAN_POINT('',(0.004,0.024191653826392,0.001));
#1187=CARTESIAN_POINT('',(-8.67361737988404E-19,0.02675,-0.001));
#1188=CARTESIAN_POINT('',(-0.004,0.02675,-0.001));
#1189=CARTESIAN_POINT('',(-0.004,0.02675,0.001));
#1190=CARTESIAN_POINT('',(-8.67361737988404E-19,0.02675,0.001));
#1191=CARTESIAN_POINT('',(-0.004,0.024191653826392,-0.001));
#1192=CARTESIAN_POINT('',(-0.004,0.024191653826392,0.001));
#1193=CARTESIAN_POINT('',(-0.0229505867732144,-0.00863172529805824,-0.001));
#1194=CARTESIAN_POINT('',(-0.0251661795512337,-0.00991089838486226,-0.001));
#1195=CARTESIAN_POINT('',(-0.0251661795512337,-0.00991089838486226,-0.001));
#1196=CARTESIAN_POINT('',(-0.0251661795512337,-0.00991089838486226,0.001));
#1197=CARTESIAN_POINT('',(-0.0229505867732144,-0.00863172529805824,0.001));
#1198=CARTESIAN_POINT('',(-0.0229505867732144,-0.00863172529805824,-0.001));
#1199=CARTESIAN_POINT('',(-0.0231644064960106,-0.0133780710217311,-0.001));
#1200=CARTESIAN_POINT('',(-0.021372464124977,-0.0169582000693181,-0.001));
#1201=CARTESIAN_POINT('',(-0.021372464124977,-0.0169582000693181,-0.001));
#1202=CARTESIAN_POINT('',(-0.021372464124977,-0.0169582000693181,0.001));
#1203=CARTESIAN_POINT('',(-0.0231644064960106,-0.0133780710217311,0.001));
#1204=CARTESIAN_POINT('',(-0.0231644064960106,-0.0133780710217311,-0.001));
#1205=CARTESIAN_POINT('',(-0.0190537290600861,-0.0156194777554239,-0.001));
#1206=CARTESIAN_POINT('',(-0.0190537290600861,-0.0156194777554239,0.001));
#1207=CARTESIAN_POINT('',(-0.0190537290600861,-0.0156194777554239,-0.001));
#1208=CARTESIAN_POINT('',(0.0231661795512337,-0.013375,-0.001));
#1209=CARTESIAN_POINT('',(0.0231661795512337,-0.013375,0.001));
#1210=CARTESIAN_POINT('',(0.0241661795512337,-0.013375,0.001));
#1211=CARTESIAN_POINT('',(-0.0231644064960102,-0.0133780710217318,-0.001));
#1212=CARTESIAN_POINT('',(-0.0231644064960102,-0.0133780710217318,-0.001));
#1213=CARTESIAN_POINT('',(-0.0221644064960102,-0.0133780710217318,-0.001));
#1214=CARTESIAN_POINT('',(-0.0231644064960102,-0.0133780710217318,0.001));
#1215=CARTESIAN_POINT('',(-0.0221644064960102,-0.0133780710217318,0.001));
#1216=CARTESIAN_POINT('',(-8.67361737988404E-19,0.02675,-0.001));
#1217=CARTESIAN_POINT('',(-8.67361737988404E-19,0.02675,0.001));
#1218=CARTESIAN_POINT('',(0.000999999999999999,0.02675,0.001));
#1219=CARTESIAN_POINT('',(-8.86527611754923E-7,0.00338,-0.001));
#1220=CARTESIAN_POINT('',(-8.86527611754923E-7,0.00338,0.));
#1221=CARTESIAN_POINT('',(-8.86527611949212E-7,0.00338,-0.001));
#1222=CARTESIAN_POINT('',(0.,-1.07156594925393E-18,-0.001));
#1223=CARTESIAN_POINT('',(-0.0175,-1.07156594925393E-18,-0.001));
#1224=CARTESIAN_POINT('',(0.,-1.07156594925393E-18,-0.002));
#1225=CARTESIAN_POINT('',(0.,-1.07156594925393E-18,-0.002));
#1226=CARTESIAN_POINT('',(-0.0175,-1.07156594925393E-18,-0.002));
#1227=CARTESIAN_POINT('',(-8.86527611949212E-7,0.00338,-0.002));
#1228=CARTESIAN_POINT('',(-8.67361737988404E-19,0.030752,0.003));
#1229=CARTESIAN_POINT('',(-0.007,0.030752,0.003));
#1230=CARTESIAN_POINT('',(0.007,0.030752,0.003));
#1231=CARTESIAN_POINT('',(0.007,0.030752,0.005));
#1232=CARTESIAN_POINT('',(-0.007,0.030752,0.005));
#1233=CARTESIAN_POINT('',(0.038,-0.00125,0.00125));
#1234=CARTESIAN_POINT('',(0.038,-0.00125,0.));
#1235=CARTESIAN_POINT('',(0.038,-0.00125,0.0025));
#1236=CARTESIAN_POINT('',(0.038,4.33680868994202E-19,0.));
#1237=CARTESIAN_POINT('',(0.038,0.00125,1.0842021724855E-19));
#1238=CARTESIAN_POINT('',(0.038,0.00125,0.00125));
#1239=CARTESIAN_POINT('',(0.038,0.00125,0.0025));
#1240=CARTESIAN_POINT('',(0.038,-6.50521303491303E-19,0.0025));
#1241=CARTESIAN_POINT('',(-8.86527611754923E-7,0.00338,0.001));
#1242=CARTESIAN_POINT('',(-8.86527611754923E-7,0.00338,0.001));
#1243=CARTESIAN_POINT('',(-8.86527611754923E-7,0.00338,0.001));
#1244=MECHANICAL_DESIGN_GEOMETRIC_PRESENTATION_REPRESENTATION('',(#744),
#1245);
#1245=(
GEOMETRIC_REPRESENTATION_CONTEXT(3)
GLOBAL_UNCERTAINTY_ASSIGNED_CONTEXT((#1246))
GLOBAL_UNIT_ASSIGNED_CONTEXT((#1249,#1248,#1247))
REPRESENTATION_CONTEXT('DisplayCase','TOP_LEVEL_ASSEMBLY_PART')
);
#1246=UNCERTAINTY_MEASURE_WITH_UNIT(LENGTH_MEASURE(1.E-8),#1249,
'DISTANCE_ACCURACY_VALUE','Maximum Tolerance applied to model');
#1247=(
NAMED_UNIT(*)
SI_UNIT($,.STERADIAN.)
SOLID_ANGLE_UNIT()
);
#1248=(
NAMED_UNIT(*)
PLANE_ANGLE_UNIT()
SI_UNIT($,.RADIAN.)
);
#1249=(
LENGTH_UNIT()
NAMED_UNIT(*)
SI_UNIT($,.METRE.)
);
#1250=PRODUCT_DEFINITION_SHAPE('','',#1251);
#1251=PRODUCT_DEFINITION('','',#1253,#1252);
#1252=PRODUCT_DEFINITION_CONTEXT('',#1259,'design');
#1253=PRODUCT_DEFINITION_FORMATION_WITH_SPECIFIED_SOURCE('','',#1255,
 .NOT_KNOWN.);
#1254=PRODUCT_RELATED_PRODUCT_CATEGORY('','',(#1255));
#1255=PRODUCT('DisplayCase','DisplayCase','DisplayCase',(#1257));
#1256=PRODUCT_CATEGORY('','');
#1257=PRODUCT_CONTEXT('',#1259,'mechanical');
#1258=APPLICATION_PROTOCOL_DEFINITION('international standard',
'ap242_managed_model_based_3d_engineering',2020,#1259);
#1259=APPLICATION_CONTEXT('managed model based 3d engineering');
ENDSEC;
END-ISO-10303-21;
