ISO-10303-21;
HEADER;
/* Generated by software containing ST-Developer
 * from STEP Tools, Inc. (www.steptools.com) 
 */
/* OPTION: using custom renumber hook */

FILE_DESCRIPTION(
/* description */ ('STEP AP242 Edition 2',
'CAx-IF Rec.Pracs.---Representation and Presentation of Product Manufa
cturing Information (PMI)---4.0---2014-10-13',
'CAx-IF Rec.Pracs.---3D Tessellated Geometry---0.4---2014-09-14','2;1',
'CAx-IF Rec.Pracs.---User Defined Attributes---1.5---2016-08-15'),
/* implementation_level */ '2;1');

FILE_NAME(
/* name */ 'psArtDeco - Base',
/* time_stamp */ '2026-08-11T23:25:32Z',
/* author */ (''),
/* organization */ (''),
/* preprocessor_version */ 'ST-DEVELOPER v20',
/* originating_system */ 'ONSHAPE BY PTC INC, 1.219',
/* authorisation */ '  ');

FILE_SCHEMA (('AP242_MANAGED_MODEL_BASED_3D_ENGINEERING_MIM_LF { 1 0 10303 442 3 1 4 }'));
ENDSEC;

DATA;
#10=SHAPE_REPRESENTATION_RELATIONSHIP('','',#974,#11);
#11=ADVANCED_BREP_SHAPE_REPRESENTATION('',(#972),#1707);
#12=B_SPLINE_CURVE_WITH_KNOTS('',3,(#1402,#1403,#1404,#1405,#1406),
 .UNSPECIFIED.,.F.,.F.,(4,1,4),(0.005118811973629,0.00590024925516408,0.00668168653669916),
 .UNSPECIFIED.);
#13=B_SPLINE_CURVE_WITH_KNOTS('',3,(#1408,#1409,#1410,#1411,#1412),
 .UNSPECIFIED.,.F.,.F.,(4,1,4),(0.00511881197362896,0.00590024925516404,
0.00668168653669912),.UNSPECIFIED.);
#14=B_SPLINE_CURVE_WITH_KNOTS('',3,(#1416,#1417,#1418,#1419,#1420),
 .UNSPECIFIED.,.F.,.F.,(4,1,4),(0.00366179091195984,0.00444375651903495,
0.00522572212611005),.UNSPECIFIED.);
#15=B_SPLINE_CURVE_WITH_KNOTS('',3,(#1425,#1426,#1427,#1428,#1429),
 .UNSPECIFIED.,.F.,.F.,(4,1,4),(0.00560856256120028,0.00638998606010298,
0.00717140955900568),.UNSPECIFIED.);
#16=B_SPLINE_CURVE_WITH_KNOTS('',3,(#1439,#1440,#1441,#1442,#1443),
 .UNSPECIFIED.,.F.,.F.,(4,1,4),(0.005118811973629,0.00590024925516408,0.00668168653669916),
 .UNSPECIFIED.);
#17=B_SPLINE_CURVE_WITH_KNOTS('',3,(#1447,#1448,#1449,#1450,#1451),
 .UNSPECIFIED.,.F.,.F.,(4,1,4),(0.0056572744388454,0.0064386853306895,0.00722009622253361),
 .UNSPECIFIED.);
#18=B_SPLINE_CURVE_WITH_KNOTS('',3,(#1453,#1454,#1455,#1456,#1457),
 .UNSPECIFIED.,.F.,.F.,(4,1,4),(0.00560856256120017,0.00638998606010286,
0.00717140955900554),.UNSPECIFIED.);
#19=B_SPLINE_CURVE_WITH_KNOTS('',3,(#1462,#1463,#1464,#1465,#1466),
 .UNSPECIFIED.,.F.,.F.,(4,1,4),(0.0056085625612002,0.00638998606010289,
0.00717140955900557),.UNSPECIFIED.);
#20=B_SPLINE_CURVE_WITH_KNOTS('',3,(#1470,#1471,#1472,#1473,#1474),
 .UNSPECIFIED.,.F.,.F.,(4,1,4),(0.0056085625612002,0.00638998606010291,
0.00717140955900562),.UNSPECIFIED.);
#21=B_SPLINE_CURVE_WITH_KNOTS('',3,(#1479,#1480,#1481,#1482,#1483),
 .UNSPECIFIED.,.F.,.F.,(4,1,4),(0.00366179091195981,0.00444375651903491,
0.00522572212611002),.UNSPECIFIED.);
#22=B_SPLINE_CURVE_WITH_KNOTS('',3,(#1493,#1494,#1495,#1496,#1497),
 .UNSPECIFIED.,.F.,.F.,(4,1,4),(0.00565727443884534,0.00643868533068941,
0.00722009622253348),.UNSPECIFIED.);
#23=B_SPLINE_CURVE_WITH_KNOTS('',3,(#1501,#1502,#1503,#1504,#1505),
 .UNSPECIFIED.,.F.,.F.,(4,1,4),(0.00565727443884537,0.00643868533068948,
0.00722009622253359),.UNSPECIFIED.);
#24=B_SPLINE_CURVE_WITH_KNOTS('',3,(#1507,#1508,#1509,#1510,#1511),
 .UNSPECIFIED.,.F.,.F.,(4,1,4),(0.00366179091195984,0.00444375651903494,
0.00522572212611005),.UNSPECIFIED.);
#25=B_SPLINE_CURVE_WITH_KNOTS('',3,(#1515,#1516,#1517,#1518,#1519),
 .UNSPECIFIED.,.F.,.F.,(4,1,4),(0.00366179091195981,0.00444375651903491,
0.00522572212611002),.UNSPECIFIED.);
#26=B_SPLINE_CURVE_WITH_KNOTS('',3,(#1564,#1565,#1566,#1567,#1568),
 .UNSPECIFIED.,.F.,.F.,(4,1,4),(0.00565727443884547,0.00643868533068959,
0.00722009622253371),.UNSPECIFIED.);
#27=B_SPLINE_CURVE_WITH_KNOTS('',3,(#1572,#1573,#1574,#1575,#1576),
 .UNSPECIFIED.,.F.,.F.,(4,1,4),(0.00511881197362896,0.00590024925516404,
0.00668168653669912),.UNSPECIFIED.);
#28=TOROIDAL_SURFACE('',#989,0.036,0.00100000000000001);
#29=TOROIDAL_SURFACE('',#991,0.035,0.00100000000000001);
#30=TOROIDAL_SURFACE('',#996,0.036,0.00100000000000001);
#31=TOROIDAL_SURFACE('',#998,0.035,0.00100000000000001);
#32=TOROIDAL_SURFACE('',#1001,0.035,0.00100000000000001);
#33=TOROIDAL_SURFACE('',#1006,0.036,0.00100000000000001);
#34=TOROIDAL_SURFACE('',#1008,0.035,0.00100000000000001);
#35=TOROIDAL_SURFACE('',#1016,0.036,0.00100000000000001);
#36=TOROIDAL_SURFACE('',#1026,0.042,0.001);
#37=LINE('',#1376,#107);
#38=LINE('',#1379,#108);
#39=LINE('',#1381,#109);
#40=LINE('',#1383,#110);
#41=LINE('',#1385,#111);
#42=LINE('',#1387,#112);
#43=LINE('',#1389,#113);
#44=LINE('',#1393,#114);
#45=LINE('',#1398,#115);
#46=LINE('',#1433,#116);
#47=LINE('',#1437,#117);
#48=LINE('',#1487,#118);
#49=LINE('',#1491,#119);
#50=LINE('',#1524,#120);
#51=LINE('',#1525,#121);
#52=LINE('',#1529,#122);
#53=LINE('',#1532,#123);
#54=LINE('',#1534,#124);
#55=LINE('',#1536,#125);
#56=LINE('',#1537,#126);
#57=LINE('',#1539,#127);
#58=LINE('',#1541,#128);
#59=LINE('',#1542,#129);
#60=LINE('',#1544,#130);
#61=LINE('',#1546,#131);
#62=LINE('',#1547,#132);
#63=LINE('',#1549,#133);
#64=LINE('',#1551,#134);
#65=LINE('',#1552,#135);
#66=LINE('',#1554,#136);
#67=LINE('',#1556,#137);
#68=LINE('',#1558,#138);
#69=LINE('',#1562,#139);
#70=LINE('',#1589,#140);
#71=LINE('',#1592,#141);
#72=LINE('',#1594,#142);
#73=LINE('',#1596,#143);
#74=LINE('',#1600,#144);
#75=LINE('',#1603,#145);
#76=LINE('',#1608,#146);
#77=LINE('',#1612,#147);
#78=LINE('',#1615,#148);
#79=LINE('',#1617,#149);
#80=LINE('',#1619,#150);
#81=LINE('',#1623,#151);
#82=LINE('',#1626,#152);
#83=LINE('',#1631,#153);
#84=LINE('',#1635,#154);
#85=LINE('',#1640,#155);
#86=LINE('',#1643,#156);
#87=LINE('',#1647,#157);
#88=LINE('',#1651,#158);
#89=LINE('',#1652,#159);
#90=LINE('',#1654,#160);
#91=LINE('',#1658,#161);
#92=LINE('',#1663,#162);
#93=LINE('',#1666,#163);
#94=LINE('',#1670,#164);
#95=LINE('',#1674,#165);
#96=LINE('',#1675,#166);
#97=LINE('',#1677,#167);
#98=LINE('',#1681,#168);
#99=LINE('',#1684,#169);
#100=LINE('',#1685,#170);
#101=LINE('',#1686,#171);
#102=LINE('',#1687,#172);
#103=LINE('',#1689,#173);
#104=LINE('',#1691,#174);
#105=LINE('',#1694,#175);
#106=LINE('',#1696,#176);
#107=VECTOR('',#1100,1.);
#108=VECTOR('',#1101,1.);
#109=VECTOR('',#1102,1.);
#110=VECTOR('',#1103,1.);
#111=VECTOR('',#1104,1.);
#112=VECTOR('',#1105,1.);
#113=VECTOR('',#1106,1.);
#114=VECTOR('',#1111,1.);
#115=VECTOR('',#1114,1.);
#116=VECTOR('',#1129,1.);
#117=VECTOR('',#1132,1.);
#118=VECTOR('',#1151,1.);
#119=VECTOR('',#1154,1.);
#120=VECTOR('',#1167,1.);
#121=VECTOR('',#1168,1.);
#122=VECTOR('',#1173,1.);
#123=VECTOR('',#1174,1.);
#124=VECTOR('',#1175,1.);
#125=VECTOR('',#1176,1.);
#126=VECTOR('',#1177,1.);
#127=VECTOR('',#1178,1.);
#128=VECTOR('',#1179,1.);
#129=VECTOR('',#1180,1.);
#130=VECTOR('',#1181,1.);
#131=VECTOR('',#1182,1.);
#132=VECTOR('',#1183,1.);
#133=VECTOR('',#1184,1.);
#134=VECTOR('',#1185,1.);
#135=VECTOR('',#1186,1.);
#136=VECTOR('',#1187,1.);
#137=VECTOR('',#1188,1.);
#138=VECTOR('',#1191,1.);
#139=VECTOR('',#1194,1.);
#140=VECTOR('',#1219,1.);
#141=VECTOR('',#1220,1.);
#142=VECTOR('',#1221,1.);
#143=VECTOR('',#1222,1.);
#144=VECTOR('',#1227,1.);
#145=VECTOR('',#1232,1.);
#146=VECTOR('',#1239,1.);
#147=VECTOR('',#1246,1.);
#148=VECTOR('',#1247,1.);
#149=VECTOR('',#1248,1.);
#150=VECTOR('',#1249,1.);
#151=VECTOR('',#1254,1.);
#152=VECTOR('',#1259,1.);
#153=VECTOR('',#1266,1.);
#154=VECTOR('',#1273,1.);
#155=VECTOR('',#1276,1.);
#156=VECTOR('',#1281,1.);
#157=VECTOR('',#1284,1.);
#158=VECTOR('',#1289,1.);
#159=VECTOR('',#1290,1.);
#160=VECTOR('',#1293,1.);
#161=VECTOR('',#1300,1.);
#162=VECTOR('',#1303,1.);
#163=VECTOR('',#1308,1.);
#164=VECTOR('',#1311,1.);
#165=VECTOR('',#1316,1.);
#166=VECTOR('',#1317,1.);
#167=VECTOR('',#1320,1.);
#168=VECTOR('',#1327,1.);
#169=VECTOR('',#1328,1.);
#170=VECTOR('',#1329,1.);
#171=VECTOR('',#1330,1.);
#172=VECTOR('',#1331,1.);
#173=VECTOR('',#1334,1.);
#174=VECTOR('',#1337,1.);
#175=VECTOR('',#1342,1.);
#176=VECTOR('',#1345,1.);
#177=PLANE('',#982);
#178=PLANE('',#1013);
#179=PLANE('',#1024);
#180=PLANE('',#1027);
#181=PLANE('',#1028);
#182=PLANE('',#1031);
#183=PLANE('',#1034);
#184=PLANE('',#1037);
#185=PLANE('',#1038);
#186=PLANE('',#1041);
#187=PLANE('',#1044);
#188=PLANE('',#1047);
#189=PLANE('',#1050);
#190=PLANE('',#1053);
#191=PLANE('',#1054);
#192=PLANE('',#1057);
#193=PLANE('',#1060);
#194=PLANE('',#1063);
#195=PLANE('',#1064);
#196=PLANE('',#1067);
#197=PLANE('',#1068);
#198=PLANE('',#1069);
#199=PLANE('',#1070);
#200=PLANE('',#1071);
#201=PLANE('',#1072);
#202=PLANE('',#1073);
#203=PLANE('',#1074);
#204=PLANE('',#1077);
#205=ORIENTED_EDGE('',*,*,#475,.T.);
#206=ORIENTED_EDGE('',*,*,#476,.F.);
#207=ORIENTED_EDGE('',*,*,#477,.T.);
#208=ORIENTED_EDGE('',*,*,#478,.F.);
#209=ORIENTED_EDGE('',*,*,#479,.F.);
#210=ORIENTED_EDGE('',*,*,#480,.F.);
#211=ORIENTED_EDGE('',*,*,#481,.F.);
#212=ORIENTED_EDGE('',*,*,#482,.F.);
#213=ORIENTED_EDGE('',*,*,#483,.T.);
#214=ORIENTED_EDGE('',*,*,#484,.T.);
#215=ORIENTED_EDGE('',*,*,#485,.F.);
#216=ORIENTED_EDGE('',*,*,#486,.F.);
#217=ORIENTED_EDGE('',*,*,#487,.T.);
#218=ORIENTED_EDGE('',*,*,#488,.F.);
#219=ORIENTED_EDGE('',*,*,#489,.F.);
#220=ORIENTED_EDGE('',*,*,#490,.F.);
#221=ORIENTED_EDGE('',*,*,#491,.T.);
#222=ORIENTED_EDGE('',*,*,#492,.T.);
#223=ORIENTED_EDGE('',*,*,#493,.F.);
#224=ORIENTED_EDGE('',*,*,#492,.F.);
#225=ORIENTED_EDGE('',*,*,#494,.T.);
#226=ORIENTED_EDGE('',*,*,#495,.T.);
#227=ORIENTED_EDGE('',*,*,#496,.F.);
#228=ORIENTED_EDGE('',*,*,#497,.T.);
#229=ORIENTED_EDGE('',*,*,#498,.T.);
#230=ORIENTED_EDGE('',*,*,#499,.F.);
#231=ORIENTED_EDGE('',*,*,#497,.F.);
#232=ORIENTED_EDGE('',*,*,#500,.T.);
#233=ORIENTED_EDGE('',*,*,#501,.T.);
#234=ORIENTED_EDGE('',*,*,#502,.F.);
#235=ORIENTED_EDGE('',*,*,#501,.F.);
#236=ORIENTED_EDGE('',*,*,#503,.T.);
#237=ORIENTED_EDGE('',*,*,#504,.T.);
#238=ORIENTED_EDGE('',*,*,#505,.F.);
#239=ORIENTED_EDGE('',*,*,#506,.F.);
#240=ORIENTED_EDGE('',*,*,#507,.T.);
#241=ORIENTED_EDGE('',*,*,#508,.T.);
#242=ORIENTED_EDGE('',*,*,#509,.F.);
#243=ORIENTED_EDGE('',*,*,#510,.F.);
#244=ORIENTED_EDGE('',*,*,#511,.T.);
#245=ORIENTED_EDGE('',*,*,#512,.T.);
#246=ORIENTED_EDGE('',*,*,#513,.F.);
#247=ORIENTED_EDGE('',*,*,#507,.F.);
#248=ORIENTED_EDGE('',*,*,#514,.T.);
#249=ORIENTED_EDGE('',*,*,#515,.T.);
#250=ORIENTED_EDGE('',*,*,#516,.F.);
#251=ORIENTED_EDGE('',*,*,#515,.F.);
#252=ORIENTED_EDGE('',*,*,#517,.T.);
#253=ORIENTED_EDGE('',*,*,#518,.T.);
#254=ORIENTED_EDGE('',*,*,#519,.F.);
#255=ORIENTED_EDGE('',*,*,#490,.T.);
#256=ORIENTED_EDGE('',*,*,#520,.T.);
#257=ORIENTED_EDGE('',*,*,#521,.F.);
#258=ORIENTED_EDGE('',*,*,#522,.F.);
#259=ORIENTED_EDGE('',*,*,#523,.T.);
#260=ORIENTED_EDGE('',*,*,#524,.T.);
#261=ORIENTED_EDGE('',*,*,#488,.T.);
#262=ORIENTED_EDGE('',*,*,#525,.F.);
#263=ORIENTED_EDGE('',*,*,#526,.F.);
#264=ORIENTED_EDGE('',*,*,#477,.F.);
#265=ORIENTED_EDGE('',*,*,#475,.F.);
#266=ORIENTED_EDGE('',*,*,#527,.T.);
#267=ORIENTED_EDGE('',*,*,#528,.F.);
#268=ORIENTED_EDGE('',*,*,#529,.F.);
#269=ORIENTED_EDGE('',*,*,#530,.T.);
#270=ORIENTED_EDGE('',*,*,#531,.F.);
#271=ORIENTED_EDGE('',*,*,#532,.T.);
#272=ORIENTED_EDGE('',*,*,#533,.T.);
#273=ORIENTED_EDGE('',*,*,#499,.T.);
#274=ORIENTED_EDGE('',*,*,#534,.F.);
#275=ORIENTED_EDGE('',*,*,#535,.T.);
#276=ORIENTED_EDGE('',*,*,#536,.T.);
#277=ORIENTED_EDGE('',*,*,#509,.T.);
#278=ORIENTED_EDGE('',*,*,#537,.F.);
#279=ORIENTED_EDGE('',*,*,#538,.T.);
#280=ORIENTED_EDGE('',*,*,#539,.T.);
#281=ORIENTED_EDGE('',*,*,#513,.T.);
#282=ORIENTED_EDGE('',*,*,#540,.F.);
#283=ORIENTED_EDGE('',*,*,#541,.T.);
#284=ORIENTED_EDGE('',*,*,#542,.T.);
#285=ORIENTED_EDGE('',*,*,#521,.T.);
#286=ORIENTED_EDGE('',*,*,#511,.F.);
#287=ORIENTED_EDGE('',*,*,#543,.T.);
#288=ORIENTED_EDGE('',*,*,#544,.T.);
#289=ORIENTED_EDGE('',*,*,#545,.F.);
#290=ORIENTED_EDGE('',*,*,#544,.F.);
#291=ORIENTED_EDGE('',*,*,#546,.T.);
#292=ORIENTED_EDGE('',*,*,#547,.T.);
#293=ORIENTED_EDGE('',*,*,#548,.F.);
#294=ORIENTED_EDGE('',*,*,#549,.F.);
#295=ORIENTED_EDGE('',*,*,#547,.F.);
#296=ORIENTED_EDGE('',*,*,#550,.F.);
#297=ORIENTED_EDGE('',*,*,#518,.F.);
#298=ORIENTED_EDGE('',*,*,#551,.F.);
#299=ORIENTED_EDGE('',*,*,#504,.F.);
#300=ORIENTED_EDGE('',*,*,#552,.F.);
#301=ORIENTED_EDGE('',*,*,#495,.F.);
#302=ORIENTED_EDGE('',*,*,#553,.T.);
#303=ORIENTED_EDGE('',*,*,#553,.F.);
#304=ORIENTED_EDGE('',*,*,#554,.T.);
#305=ORIENTED_EDGE('',*,*,#526,.T.);
#306=ORIENTED_EDGE('',*,*,#554,.F.);
#307=ORIENTED_EDGE('',*,*,#555,.F.);
#308=ORIENTED_EDGE('',*,*,#556,.T.);
#309=ORIENTED_EDGE('',*,*,#557,.T.);
#310=ORIENTED_EDGE('',*,*,#558,.T.);
#311=ORIENTED_EDGE('',*,*,#557,.F.);
#312=ORIENTED_EDGE('',*,*,#559,.T.);
#313=ORIENTED_EDGE('',*,*,#560,.T.);
#314=ORIENTED_EDGE('',*,*,#494,.F.);
#315=ORIENTED_EDGE('',*,*,#491,.F.);
#316=ORIENTED_EDGE('',*,*,#522,.T.);
#317=ORIENTED_EDGE('',*,*,#542,.F.);
#318=ORIENTED_EDGE('',*,*,#561,.T.);
#319=ORIENTED_EDGE('',*,*,#562,.F.);
#320=ORIENTED_EDGE('',*,*,#563,.T.);
#321=ORIENTED_EDGE('',*,*,#555,.T.);
#322=ORIENTED_EDGE('',*,*,#564,.T.);
#323=ORIENTED_EDGE('',*,*,#540,.T.);
#324=ORIENTED_EDGE('',*,*,#512,.F.);
#325=ORIENTED_EDGE('',*,*,#545,.T.);
#326=ORIENTED_EDGE('',*,*,#548,.T.);
#327=ORIENTED_EDGE('',*,*,#560,.F.);
#328=ORIENTED_EDGE('',*,*,#565,.T.);
#329=ORIENTED_EDGE('',*,*,#562,.T.);
#330=ORIENTED_EDGE('',*,*,#549,.T.);
#331=ORIENTED_EDGE('',*,*,#559,.F.);
#332=ORIENTED_EDGE('',*,*,#556,.F.);
#333=ORIENTED_EDGE('',*,*,#563,.F.);
#334=ORIENTED_EDGE('',*,*,#565,.F.);
#335=ORIENTED_EDGE('',*,*,#561,.F.);
#336=ORIENTED_EDGE('',*,*,#541,.F.);
#337=ORIENTED_EDGE('',*,*,#564,.F.);
#338=ORIENTED_EDGE('',*,*,#558,.F.);
#339=ORIENTED_EDGE('',*,*,#566,.F.);
#340=ORIENTED_EDGE('',*,*,#567,.T.);
#341=ORIENTED_EDGE('',*,*,#568,.T.);
#342=ORIENTED_EDGE('',*,*,#569,.T.);
#343=ORIENTED_EDGE('',*,*,#568,.F.);
#344=ORIENTED_EDGE('',*,*,#570,.T.);
#345=ORIENTED_EDGE('',*,*,#571,.T.);
#346=ORIENTED_EDGE('',*,*,#546,.F.);
#347=ORIENTED_EDGE('',*,*,#543,.F.);
#348=ORIENTED_EDGE('',*,*,#510,.T.);
#349=ORIENTED_EDGE('',*,*,#539,.F.);
#350=ORIENTED_EDGE('',*,*,#572,.T.);
#351=ORIENTED_EDGE('',*,*,#573,.F.);
#352=ORIENTED_EDGE('',*,*,#574,.T.);
#353=ORIENTED_EDGE('',*,*,#566,.T.);
#354=ORIENTED_EDGE('',*,*,#575,.T.);
#355=ORIENTED_EDGE('',*,*,#537,.T.);
#356=ORIENTED_EDGE('',*,*,#508,.F.);
#357=ORIENTED_EDGE('',*,*,#516,.T.);
#358=ORIENTED_EDGE('',*,*,#519,.T.);
#359=ORIENTED_EDGE('',*,*,#571,.F.);
#360=ORIENTED_EDGE('',*,*,#576,.T.);
#361=ORIENTED_EDGE('',*,*,#573,.T.);
#362=ORIENTED_EDGE('',*,*,#550,.T.);
#363=ORIENTED_EDGE('',*,*,#570,.F.);
#364=ORIENTED_EDGE('',*,*,#567,.F.);
#365=ORIENTED_EDGE('',*,*,#574,.F.);
#366=ORIENTED_EDGE('',*,*,#576,.F.);
#367=ORIENTED_EDGE('',*,*,#572,.F.);
#368=ORIENTED_EDGE('',*,*,#538,.F.);
#369=ORIENTED_EDGE('',*,*,#575,.F.);
#370=ORIENTED_EDGE('',*,*,#569,.F.);
#371=ORIENTED_EDGE('',*,*,#577,.F.);
#372=ORIENTED_EDGE('',*,*,#578,.T.);
#373=ORIENTED_EDGE('',*,*,#579,.T.);
#374=ORIENTED_EDGE('',*,*,#517,.F.);
#375=ORIENTED_EDGE('',*,*,#514,.F.);
#376=ORIENTED_EDGE('',*,*,#506,.T.);
#377=ORIENTED_EDGE('',*,*,#536,.F.);
#378=ORIENTED_EDGE('',*,*,#580,.T.);
#379=ORIENTED_EDGE('',*,*,#581,.F.);
#380=ORIENTED_EDGE('',*,*,#582,.T.);
#381=ORIENTED_EDGE('',*,*,#583,.T.);
#382=ORIENTED_EDGE('',*,*,#584,.T.);
#383=ORIENTED_EDGE('',*,*,#534,.T.);
#384=ORIENTED_EDGE('',*,*,#498,.F.);
#385=ORIENTED_EDGE('',*,*,#502,.T.);
#386=ORIENTED_EDGE('',*,*,#505,.T.);
#387=ORIENTED_EDGE('',*,*,#583,.F.);
#388=ORIENTED_EDGE('',*,*,#585,.T.);
#389=ORIENTED_EDGE('',*,*,#577,.T.);
#390=ORIENTED_EDGE('',*,*,#586,.T.);
#391=ORIENTED_EDGE('',*,*,#579,.F.);
#392=ORIENTED_EDGE('',*,*,#587,.T.);
#393=ORIENTED_EDGE('',*,*,#581,.T.);
#394=ORIENTED_EDGE('',*,*,#551,.T.);
#395=ORIENTED_EDGE('',*,*,#578,.F.);
#396=ORIENTED_EDGE('',*,*,#585,.F.);
#397=ORIENTED_EDGE('',*,*,#582,.F.);
#398=ORIENTED_EDGE('',*,*,#587,.F.);
#399=ORIENTED_EDGE('',*,*,#580,.F.);
#400=ORIENTED_EDGE('',*,*,#535,.F.);
#401=ORIENTED_EDGE('',*,*,#584,.F.);
#402=ORIENTED_EDGE('',*,*,#586,.F.);
#403=ORIENTED_EDGE('',*,*,#588,.F.);
#404=ORIENTED_EDGE('',*,*,#589,.T.);
#405=ORIENTED_EDGE('',*,*,#590,.T.);
#406=ORIENTED_EDGE('',*,*,#503,.F.);
#407=ORIENTED_EDGE('',*,*,#500,.F.);
#408=ORIENTED_EDGE('',*,*,#496,.T.);
#409=ORIENTED_EDGE('',*,*,#533,.F.);
#410=ORIENTED_EDGE('',*,*,#591,.T.);
#411=ORIENTED_EDGE('',*,*,#592,.F.);
#412=ORIENTED_EDGE('',*,*,#593,.T.);
#413=ORIENTED_EDGE('',*,*,#594,.T.);
#414=ORIENTED_EDGE('',*,*,#595,.T.);
#415=ORIENTED_EDGE('',*,*,#531,.T.);
#416=ORIENTED_EDGE('',*,*,#520,.F.);
#417=ORIENTED_EDGE('',*,*,#489,.T.);
#418=ORIENTED_EDGE('',*,*,#493,.T.);
#419=ORIENTED_EDGE('',*,*,#594,.F.);
#420=ORIENTED_EDGE('',*,*,#596,.T.);
#421=ORIENTED_EDGE('',*,*,#588,.T.);
#422=ORIENTED_EDGE('',*,*,#597,.T.);
#423=ORIENTED_EDGE('',*,*,#590,.F.);
#424=ORIENTED_EDGE('',*,*,#598,.T.);
#425=ORIENTED_EDGE('',*,*,#592,.T.);
#426=ORIENTED_EDGE('',*,*,#552,.T.);
#427=ORIENTED_EDGE('',*,*,#589,.F.);
#428=ORIENTED_EDGE('',*,*,#596,.F.);
#429=ORIENTED_EDGE('',*,*,#593,.F.);
#430=ORIENTED_EDGE('',*,*,#598,.F.);
#431=ORIENTED_EDGE('',*,*,#591,.F.);
#432=ORIENTED_EDGE('',*,*,#532,.F.);
#433=ORIENTED_EDGE('',*,*,#595,.F.);
#434=ORIENTED_EDGE('',*,*,#597,.F.);
#435=ORIENTED_EDGE('',*,*,#599,.T.);
#436=ORIENTED_EDGE('',*,*,#600,.T.);
#437=ORIENTED_EDGE('',*,*,#486,.T.);
#438=ORIENTED_EDGE('',*,*,#601,.T.);
#439=ORIENTED_EDGE('',*,*,#528,.T.);
#440=ORIENTED_EDGE('',*,*,#602,.F.);
#441=ORIENTED_EDGE('',*,*,#482,.T.);
#442=ORIENTED_EDGE('',*,*,#603,.F.);
#443=ORIENTED_EDGE('',*,*,#485,.T.);
#444=ORIENTED_EDGE('',*,*,#604,.T.);
#445=ORIENTED_EDGE('',*,*,#529,.T.);
#446=ORIENTED_EDGE('',*,*,#601,.F.);
#447=ORIENTED_EDGE('',*,*,#602,.T.);
#448=ORIENTED_EDGE('',*,*,#527,.F.);
#449=ORIENTED_EDGE('',*,*,#605,.F.);
#450=ORIENTED_EDGE('',*,*,#483,.F.);
#451=ORIENTED_EDGE('',*,*,#605,.T.);
#452=ORIENTED_EDGE('',*,*,#530,.F.);
#453=ORIENTED_EDGE('',*,*,#604,.F.);
#454=ORIENTED_EDGE('',*,*,#484,.F.);
#455=ORIENTED_EDGE('',*,*,#481,.T.);
#456=ORIENTED_EDGE('',*,*,#524,.F.);
#457=ORIENTED_EDGE('',*,*,#606,.F.);
#458=ORIENTED_EDGE('',*,*,#603,.T.);
#459=ORIENTED_EDGE('',*,*,#487,.F.);
#460=ORIENTED_EDGE('',*,*,#600,.F.);
#461=ORIENTED_EDGE('',*,*,#607,.T.);
#462=ORIENTED_EDGE('',*,*,#525,.T.);
#463=ORIENTED_EDGE('',*,*,#599,.F.);
#464=ORIENTED_EDGE('',*,*,#606,.T.);
#465=ORIENTED_EDGE('',*,*,#523,.F.);
#466=ORIENTED_EDGE('',*,*,#607,.F.);
#467=ORIENTED_EDGE('',*,*,#608,.T.);
#468=ORIENTED_EDGE('',*,*,#478,.T.);
#469=ORIENTED_EDGE('',*,*,#608,.F.);
#470=ORIENTED_EDGE('',*,*,#479,.T.);
#471=ORIENTED_EDGE('',*,*,#609,.T.);
#472=ORIENTED_EDGE('',*,*,#476,.T.);
#473=ORIENTED_EDGE('',*,*,#609,.F.);
#474=ORIENTED_EDGE('',*,*,#480,.T.);
#475=EDGE_CURVE('',#610,#610,#701,.T.);
#476=EDGE_CURVE('',#611,#611,#702,.F.);
#477=EDGE_CURVE('',#612,#612,#703,.T.);
#478=EDGE_CURVE('',#613,#613,#704,.F.);
#479=EDGE_CURVE('',#614,#614,#705,.T.);
#480=EDGE_CURVE('',#615,#615,#706,.T.);
#481=EDGE_CURVE('',#616,#617,#37,.T.);
#482=EDGE_CURVE('',#618,#616,#38,.T.);
#483=EDGE_CURVE('',#618,#619,#39,.T.);
#484=EDGE_CURVE('',#619,#620,#40,.T.);
#485=EDGE_CURVE('',#621,#620,#41,.T.);
#486=EDGE_CURVE('',#622,#621,#42,.T.);
#487=EDGE_CURVE('',#622,#623,#43,.T.);
#488=EDGE_CURVE('',#617,#623,#707,.T.);
#489=EDGE_CURVE('',#624,#625,#44,.F.);
#490=EDGE_CURVE('',#626,#624,#708,.T.);
#491=EDGE_CURVE('',#626,#627,#45,.F.);
#492=EDGE_CURVE('',#627,#625,#709,.T.);
#493=EDGE_CURVE('',#625,#628,#12,.T.);
#494=EDGE_CURVE('',#627,#629,#13,.T.);
#495=EDGE_CURVE('',#629,#628,#710,.T.);
#496=EDGE_CURVE('',#630,#631,#14,.T.);
#497=EDGE_CURVE('',#630,#632,#711,.T.);
#498=EDGE_CURVE('',#632,#633,#15,.T.);
#499=EDGE_CURVE('',#631,#633,#712,.T.);
#500=EDGE_CURVE('',#630,#634,#46,.F.);
#501=EDGE_CURVE('',#634,#635,#713,.T.);
#502=EDGE_CURVE('',#632,#635,#47,.F.);
#503=EDGE_CURVE('',#634,#636,#16,.T.);
#504=EDGE_CURVE('',#636,#637,#714,.T.);
#505=EDGE_CURVE('',#635,#637,#17,.T.);
#506=EDGE_CURVE('',#638,#639,#18,.T.);
#507=EDGE_CURVE('',#638,#640,#715,.T.);
#508=EDGE_CURVE('',#640,#641,#19,.T.);
#509=EDGE_CURVE('',#639,#641,#716,.T.);
#510=EDGE_CURVE('',#642,#643,#20,.T.);
#511=EDGE_CURVE('',#642,#644,#717,.T.);
#512=EDGE_CURVE('',#644,#645,#21,.T.);
#513=EDGE_CURVE('',#643,#645,#718,.T.);
#514=EDGE_CURVE('',#638,#646,#48,.F.);
#515=EDGE_CURVE('',#646,#647,#719,.T.);
#516=EDGE_CURVE('',#640,#647,#49,.F.);
#517=EDGE_CURVE('',#646,#648,#22,.T.);
#518=EDGE_CURVE('',#648,#649,#720,.T.);
#519=EDGE_CURVE('',#647,#649,#23,.T.);
#520=EDGE_CURVE('',#624,#650,#24,.T.);
#521=EDGE_CURVE('',#651,#650,#721,.T.);
#522=EDGE_CURVE('',#626,#651,#25,.T.);
#523=EDGE_CURVE('',#652,#653,#722,.T.);
#524=EDGE_CURVE('',#653,#617,#50,.T.);
#525=EDGE_CURVE('',#652,#623,#51,.T.);
#526=EDGE_CURVE('',#654,#654,#723,.T.);
#527=EDGE_CURVE('',#655,#656,#52,.T.);
#528=EDGE_CURVE('',#657,#656,#53,.T.);
#529=EDGE_CURVE('',#658,#657,#54,.T.);
#530=EDGE_CURVE('',#658,#655,#55,.T.);
#531=EDGE_CURVE('',#659,#650,#56,.T.);
#532=EDGE_CURVE('',#659,#660,#57,.F.);
#533=EDGE_CURVE('',#660,#631,#58,.T.);
#534=EDGE_CURVE('',#661,#633,#59,.T.);
#535=EDGE_CURVE('',#661,#662,#60,.F.);
#536=EDGE_CURVE('',#662,#639,#61,.T.);
#537=EDGE_CURVE('',#663,#641,#62,.T.);
#538=EDGE_CURVE('',#663,#664,#63,.F.);
#539=EDGE_CURVE('',#664,#643,#64,.T.);
#540=EDGE_CURVE('',#665,#645,#65,.T.);
#541=EDGE_CURVE('',#665,#666,#66,.F.);
#542=EDGE_CURVE('',#666,#651,#67,.T.);
#543=EDGE_CURVE('',#642,#667,#68,.F.);
#544=EDGE_CURVE('',#667,#668,#724,.T.);
#545=EDGE_CURVE('',#644,#668,#69,.F.);
#546=EDGE_CURVE('',#667,#669,#26,.T.);
#547=EDGE_CURVE('',#669,#670,#725,.T.);
#548=EDGE_CURVE('',#668,#670,#27,.T.);
#549=EDGE_CURVE('',#670,#629,#726,.T.);
#550=EDGE_CURVE('',#649,#669,#727,.T.);
#551=EDGE_CURVE('',#637,#648,#728,.T.);
#552=EDGE_CURVE('',#628,#636,#729,.T.);
#553=EDGE_CURVE('',#671,#671,#730,.T.);
#554=EDGE_CURVE('',#672,#672,#731,.T.);
#555=EDGE_CURVE('',#673,#674,#70,.T.);
#556=EDGE_CURVE('',#673,#675,#71,.F.);
#557=EDGE_CURVE('',#675,#676,#72,.T.);
#558=EDGE_CURVE('',#676,#674,#73,.T.);
#559=EDGE_CURVE('',#675,#677,#732,.T.);
#560=EDGE_CURVE('',#677,#629,#74,.T.);
#561=EDGE_CURVE('',#666,#676,#733,.T.);
#562=EDGE_CURVE('',#678,#670,#75,.T.);
#563=EDGE_CURVE('',#678,#673,#734,.F.);
#564=EDGE_CURVE('',#674,#665,#735,.F.);
#565=EDGE_CURVE('',#677,#678,#76,.T.);
#566=EDGE_CURVE('',#679,#680,#77,.T.);
#567=EDGE_CURVE('',#679,#681,#78,.F.);
#568=EDGE_CURVE('',#681,#682,#79,.T.);
#569=EDGE_CURVE('',#682,#680,#80,.T.);
#570=EDGE_CURVE('',#681,#683,#736,.T.);
#571=EDGE_CURVE('',#683,#669,#81,.T.);
#572=EDGE_CURVE('',#664,#682,#737,.T.);
#573=EDGE_CURVE('',#684,#649,#82,.T.);
#574=EDGE_CURVE('',#684,#679,#738,.F.);
#575=EDGE_CURVE('',#680,#663,#739,.F.);
#576=EDGE_CURVE('',#683,#684,#83,.T.);
#577=EDGE_CURVE('',#685,#686,#84,.T.);
#578=EDGE_CURVE('',#685,#687,#740,.T.);
#579=EDGE_CURVE('',#687,#648,#85,.T.);
#580=EDGE_CURVE('',#662,#686,#741,.T.);
#581=EDGE_CURVE('',#688,#637,#86,.T.);
#582=EDGE_CURVE('',#688,#689,#742,.F.);
#583=EDGE_CURVE('',#689,#690,#87,.T.);
#584=EDGE_CURVE('',#690,#661,#743,.F.);
#585=EDGE_CURVE('',#689,#685,#88,.F.);
#586=EDGE_CURVE('',#686,#690,#89,.T.);
#587=EDGE_CURVE('',#687,#688,#90,.T.);
#588=EDGE_CURVE('',#691,#692,#91,.T.);
#589=EDGE_CURVE('',#691,#693,#744,.T.);
#590=EDGE_CURVE('',#693,#636,#92,.T.);
#591=EDGE_CURVE('',#660,#692,#745,.T.);
#592=EDGE_CURVE('',#694,#628,#93,.T.);
#593=EDGE_CURVE('',#694,#695,#746,.F.);
#594=EDGE_CURVE('',#695,#696,#94,.T.);
#595=EDGE_CURVE('',#696,#659,#747,.F.);
#596=EDGE_CURVE('',#695,#691,#95,.F.);
#597=EDGE_CURVE('',#692,#696,#96,.T.);
#598=EDGE_CURVE('',#693,#694,#97,.T.);
#599=EDGE_CURVE('',#697,#698,#98,.T.);
#600=EDGE_CURVE('',#698,#622,#99,.T.);
#601=EDGE_CURVE('',#621,#657,#100,.T.);
#602=EDGE_CURVE('',#618,#656,#101,.T.);
#603=EDGE_CURVE('',#697,#616,#102,.T.);
#604=EDGE_CURVE('',#620,#658,#103,.T.);
#605=EDGE_CURVE('',#619,#655,#104,.T.);
#606=EDGE_CURVE('',#697,#653,#105,.T.);
#607=EDGE_CURVE('',#698,#652,#106,.T.);
#608=EDGE_CURVE('',#699,#699,#748,.T.);
#609=EDGE_CURVE('',#700,#700,#749,.T.);
#610=VERTEX_POINT('',#1363);
#611=VERTEX_POINT('',#1365);
#612=VERTEX_POINT('',#1368);
#613=VERTEX_POINT('',#1370);
#614=VERTEX_POINT('',#1373);
#615=VERTEX_POINT('',#1375);
#616=VERTEX_POINT('',#1377);
#617=VERTEX_POINT('',#1378);
#618=VERTEX_POINT('',#1380);
#619=VERTEX_POINT('',#1382);
#620=VERTEX_POINT('',#1384);
#621=VERTEX_POINT('',#1386);
#622=VERTEX_POINT('',#1388);
#623=VERTEX_POINT('',#1390);
#624=VERTEX_POINT('',#1394);
#625=VERTEX_POINT('',#1395);
#626=VERTEX_POINT('',#1397);
#627=VERTEX_POINT('',#1399);
#628=VERTEX_POINT('',#1407);
#629=VERTEX_POINT('',#1413);
#630=VERTEX_POINT('',#1421);
#631=VERTEX_POINT('',#1422);
#632=VERTEX_POINT('',#1424);
#633=VERTEX_POINT('',#1430);
#634=VERTEX_POINT('',#1434);
#635=VERTEX_POINT('',#1436);
#636=VERTEX_POINT('',#1444);
#637=VERTEX_POINT('',#1446);
#638=VERTEX_POINT('',#1458);
#639=VERTEX_POINT('',#1459);
#640=VERTEX_POINT('',#1461);
#641=VERTEX_POINT('',#1467);
#642=VERTEX_POINT('',#1475);
#643=VERTEX_POINT('',#1476);
#644=VERTEX_POINT('',#1478);
#645=VERTEX_POINT('',#1484);
#646=VERTEX_POINT('',#1488);
#647=VERTEX_POINT('',#1490);
#648=VERTEX_POINT('',#1498);
#649=VERTEX_POINT('',#1500);
#650=VERTEX_POINT('',#1512);
#651=VERTEX_POINT('',#1514);
#652=VERTEX_POINT('',#1522);
#653=VERTEX_POINT('',#1523);
#654=VERTEX_POINT('',#1527);
#655=VERTEX_POINT('',#1530);
#656=VERTEX_POINT('',#1531);
#657=VERTEX_POINT('',#1533);
#658=VERTEX_POINT('',#1535);
#659=VERTEX_POINT('',#1538);
#660=VERTEX_POINT('',#1540);
#661=VERTEX_POINT('',#1543);
#662=VERTEX_POINT('',#1545);
#663=VERTEX_POINT('',#1548);
#664=VERTEX_POINT('',#1550);
#665=VERTEX_POINT('',#1553);
#666=VERTEX_POINT('',#1555);
#667=VERTEX_POINT('',#1559);
#668=VERTEX_POINT('',#1561);
#669=VERTEX_POINT('',#1569);
#670=VERTEX_POINT('',#1571);
#671=VERTEX_POINT('',#1583);
#672=VERTEX_POINT('',#1586);
#673=VERTEX_POINT('',#1590);
#674=VERTEX_POINT('',#1591);
#675=VERTEX_POINT('',#1593);
#676=VERTEX_POINT('',#1595);
#677=VERTEX_POINT('',#1599);
#678=VERTEX_POINT('',#1604);
#679=VERTEX_POINT('',#1613);
#680=VERTEX_POINT('',#1614);
#681=VERTEX_POINT('',#1616);
#682=VERTEX_POINT('',#1618);
#683=VERTEX_POINT('',#1622);
#684=VERTEX_POINT('',#1627);
#685=VERTEX_POINT('',#1636);
#686=VERTEX_POINT('',#1637);
#687=VERTEX_POINT('',#1639);
#688=VERTEX_POINT('',#1644);
#689=VERTEX_POINT('',#1646);
#690=VERTEX_POINT('',#1648);
#691=VERTEX_POINT('',#1659);
#692=VERTEX_POINT('',#1660);
#693=VERTEX_POINT('',#1662);
#694=VERTEX_POINT('',#1667);
#695=VERTEX_POINT('',#1669);
#696=VERTEX_POINT('',#1671);
#697=VERTEX_POINT('',#1682);
#698=VERTEX_POINT('',#1683);
#699=VERTEX_POINT('',#1700);
#700=VERTEX_POINT('',#1704);
#701=CIRCLE('',#977,0.0015);
#702=CIRCLE('',#978,0.0015);
#703=CIRCLE('',#980,0.0015);
#704=CIRCLE('',#981,0.0015);
#705=CIRCLE('',#983,0.003);
#706=CIRCLE('',#984,0.003);
#707=CIRCLE('',#985,0.043);
#708=CIRCLE('',#987,0.036);
#709=CIRCLE('',#988,0.036);
#710=CIRCLE('',#990,0.035);
#711=CIRCLE('',#992,0.036);
#712=CIRCLE('',#993,0.035);
#713=CIRCLE('',#995,0.036);
#714=CIRCLE('',#997,0.035);
#715=CIRCLE('',#999,0.036);
#716=CIRCLE('',#1000,0.035);
#717=CIRCLE('',#1002,0.036);
#718=CIRCLE('',#1003,0.035);
#719=CIRCLE('',#1005,0.036);
#720=CIRCLE('',#1007,0.035);
#721=CIRCLE('',#1009,0.035);
#722=CIRCLE('',#1011,0.043);
#723=CIRCLE('',#1012,0.043);
#724=CIRCLE('',#1015,0.036);
#725=CIRCLE('',#1017,0.035);
#726=CIRCLE('',#1019,0.035);
#727=CIRCLE('',#1020,0.035);
#728=CIRCLE('',#1021,0.035);
#729=CIRCLE('',#1022,0.035);
#730=CIRCLE('',#1023,0.035);
#731=CIRCLE('',#1025,0.042);
#732=CIRCLE('',#1029,0.001);
#733=CIRCLE('',#1030,0.001);
#734=CIRCLE('',#1032,0.001);
#735=CIRCLE('',#1033,0.001);
#736=CIRCLE('',#1039,0.001);
#737=CIRCLE('',#1040,0.001);
#738=CIRCLE('',#1042,0.001);
#739=CIRCLE('',#1043,0.001);
#740=CIRCLE('',#1048,0.001);
#741=CIRCLE('',#1049,0.001);
#742=CIRCLE('',#1051,0.001);
#743=CIRCLE('',#1052,0.001);
#744=CIRCLE('',#1058,0.001);
#745=CIRCLE('',#1059,0.001);
#746=CIRCLE('',#1061,0.001);
#747=CIRCLE('',#1062,0.001);
#748=CIRCLE('',#1075,0.003);
#749=CIRCLE('',#1078,0.003);
#750=EDGE_LOOP('',(#205));
#751=EDGE_LOOP('',(#206));
#752=EDGE_LOOP('',(#207));
#753=EDGE_LOOP('',(#208));
#754=EDGE_LOOP('',(#209));
#755=EDGE_LOOP('',(#210));
#756=EDGE_LOOP('',(#211,#212,#213,#214,#215,#216,#217,#218));
#757=EDGE_LOOP('',(#219,#220,#221,#222));
#758=EDGE_LOOP('',(#223,#224,#225,#226));
#759=EDGE_LOOP('',(#227,#228,#229,#230));
#760=EDGE_LOOP('',(#231,#232,#233,#234));
#761=EDGE_LOOP('',(#235,#236,#237,#238));
#762=EDGE_LOOP('',(#239,#240,#241,#242));
#763=EDGE_LOOP('',(#243,#244,#245,#246));
#764=EDGE_LOOP('',(#247,#248,#249,#250));
#765=EDGE_LOOP('',(#251,#252,#253,#254));
#766=EDGE_LOOP('',(#255,#256,#257,#258));
#767=EDGE_LOOP('',(#259,#260,#261,#262));
#768=EDGE_LOOP('',(#263));
#769=EDGE_LOOP('',(#264));
#770=EDGE_LOOP('',(#265));
#771=EDGE_LOOP('',(#266,#267,#268,#269));
#772=EDGE_LOOP('',(#270,#271,#272,#273,#274,#275,#276,#277,#278,#279,#280,
#281,#282,#283,#284,#285));
#773=EDGE_LOOP('',(#286,#287,#288,#289));
#774=EDGE_LOOP('',(#290,#291,#292,#293));
#775=EDGE_LOOP('',(#294,#295,#296,#297,#298,#299,#300,#301));
#776=EDGE_LOOP('',(#302));
#777=EDGE_LOOP('',(#303));
#778=EDGE_LOOP('',(#304));
#779=EDGE_LOOP('',(#305));
#780=EDGE_LOOP('',(#306));
#781=EDGE_LOOP('',(#307,#308,#309,#310));
#782=EDGE_LOOP('',(#311,#312,#313,#314,#315,#316,#317,#318));
#783=EDGE_LOOP('',(#319,#320,#321,#322,#323,#324,#325,#326));
#784=EDGE_LOOP('',(#327,#328,#329,#330));
#785=EDGE_LOOP('',(#331,#332,#333,#334));
#786=EDGE_LOOP('',(#335,#336,#337,#338));
#787=EDGE_LOOP('',(#339,#340,#341,#342));
#788=EDGE_LOOP('',(#343,#344,#345,#346,#347,#348,#349,#350));
#789=EDGE_LOOP('',(#351,#352,#353,#354,#355,#356,#357,#358));
#790=EDGE_LOOP('',(#359,#360,#361,#362));
#791=EDGE_LOOP('',(#363,#364,#365,#366));
#792=EDGE_LOOP('',(#367,#368,#369,#370));
#793=EDGE_LOOP('',(#371,#372,#373,#374,#375,#376,#377,#378));
#794=EDGE_LOOP('',(#379,#380,#381,#382,#383,#384,#385,#386));
#795=EDGE_LOOP('',(#387,#388,#389,#390));
#796=EDGE_LOOP('',(#391,#392,#393,#394));
#797=EDGE_LOOP('',(#395,#396,#397,#398));
#798=EDGE_LOOP('',(#399,#400,#401,#402));
#799=EDGE_LOOP('',(#403,#404,#405,#406,#407,#408,#409,#410));
#800=EDGE_LOOP('',(#411,#412,#413,#414,#415,#416,#417,#418));
#801=EDGE_LOOP('',(#419,#420,#421,#422));
#802=EDGE_LOOP('',(#423,#424,#425,#426));
#803=EDGE_LOOP('',(#427,#428,#429,#430));
#804=EDGE_LOOP('',(#431,#432,#433,#434));
#805=EDGE_LOOP('',(#435,#436,#437,#438,#439,#440,#441,#442));
#806=EDGE_LOOP('',(#443,#444,#445,#446));
#807=EDGE_LOOP('',(#447,#448,#449,#450));
#808=EDGE_LOOP('',(#451,#452,#453,#454));
#809=EDGE_LOOP('',(#455,#456,#457,#458));
#810=EDGE_LOOP('',(#459,#460,#461,#462));
#811=EDGE_LOOP('',(#463,#464,#465,#466));
#812=EDGE_LOOP('',(#467));
#813=EDGE_LOOP('',(#468));
#814=EDGE_LOOP('',(#469));
#815=EDGE_LOOP('',(#470));
#816=EDGE_LOOP('',(#471));
#817=EDGE_LOOP('',(#472));
#818=EDGE_LOOP('',(#473));
#819=EDGE_LOOP('',(#474));
#820=FACE_BOUND('',#750,.T.);
#821=FACE_BOUND('',#751,.T.);
#822=FACE_BOUND('',#752,.T.);
#823=FACE_BOUND('',#753,.T.);
#824=FACE_BOUND('',#754,.T.);
#825=FACE_BOUND('',#755,.T.);
#826=FACE_BOUND('',#756,.T.);
#827=FACE_BOUND('',#757,.T.);
#828=FACE_BOUND('',#758,.T.);
#829=FACE_BOUND('',#759,.T.);
#830=FACE_BOUND('',#760,.T.);
#831=FACE_BOUND('',#761,.T.);
#832=FACE_BOUND('',#762,.T.);
#833=FACE_BOUND('',#763,.T.);
#834=FACE_BOUND('',#764,.T.);
#835=FACE_BOUND('',#765,.T.);
#836=FACE_BOUND('',#766,.T.);
#837=FACE_BOUND('',#767,.T.);
#838=FACE_BOUND('',#768,.T.);
#839=FACE_BOUND('',#769,.T.);
#840=FACE_BOUND('',#770,.T.);
#841=FACE_BOUND('',#771,.T.);
#842=FACE_BOUND('',#772,.T.);
#843=FACE_BOUND('',#773,.T.);
#844=FACE_BOUND('',#774,.T.);
#845=FACE_BOUND('',#775,.T.);
#846=FACE_BOUND('',#776,.T.);
#847=FACE_BOUND('',#777,.T.);
#848=FACE_BOUND('',#778,.T.);
#849=FACE_BOUND('',#779,.T.);
#850=FACE_BOUND('',#780,.T.);
#851=FACE_BOUND('',#781,.T.);
#852=FACE_BOUND('',#782,.T.);
#853=FACE_BOUND('',#783,.T.);
#854=FACE_BOUND('',#784,.T.);
#855=FACE_BOUND('',#785,.T.);
#856=FACE_BOUND('',#786,.T.);
#857=FACE_BOUND('',#787,.T.);
#858=FACE_BOUND('',#788,.T.);
#859=FACE_BOUND('',#789,.T.);
#860=FACE_BOUND('',#790,.T.);
#861=FACE_BOUND('',#791,.T.);
#862=FACE_BOUND('',#792,.T.);
#863=FACE_BOUND('',#793,.T.);
#864=FACE_BOUND('',#794,.T.);
#865=FACE_BOUND('',#795,.T.);
#866=FACE_BOUND('',#796,.T.);
#867=FACE_BOUND('',#797,.T.);
#868=FACE_BOUND('',#798,.T.);
#869=FACE_BOUND('',#799,.T.);
#870=FACE_BOUND('',#800,.T.);
#871=FACE_BOUND('',#801,.T.);
#872=FACE_BOUND('',#802,.T.);
#873=FACE_BOUND('',#803,.T.);
#874=FACE_BOUND('',#804,.T.);
#875=FACE_BOUND('',#805,.T.);
#876=FACE_BOUND('',#806,.T.);
#877=FACE_BOUND('',#807,.T.);
#878=FACE_BOUND('',#808,.T.);
#879=FACE_BOUND('',#809,.T.);
#880=FACE_BOUND('',#810,.T.);
#881=FACE_BOUND('',#811,.T.);
#882=FACE_BOUND('',#812,.T.);
#883=FACE_BOUND('',#813,.T.);
#884=FACE_BOUND('',#814,.T.);
#885=FACE_BOUND('',#815,.T.);
#886=FACE_BOUND('',#816,.T.);
#887=FACE_BOUND('',#817,.T.);
#888=FACE_BOUND('',#818,.T.);
#889=FACE_BOUND('',#819,.T.);
#890=CYLINDRICAL_SURFACE('',#976,0.0015);
#891=CYLINDRICAL_SURFACE('',#979,0.0015);
#892=CYLINDRICAL_SURFACE('',#986,0.036);
#893=CYLINDRICAL_SURFACE('',#994,0.036);
#894=CYLINDRICAL_SURFACE('',#1004,0.036);
#895=CYLINDRICAL_SURFACE('',#1010,0.043);
#896=CYLINDRICAL_SURFACE('',#1014,0.036);
#897=CYLINDRICAL_SURFACE('',#1018,0.035);
#898=CYLINDRICAL_SURFACE('',#1035,0.001);
#899=CYLINDRICAL_SURFACE('',#1036,0.001);
#900=CYLINDRICAL_SURFACE('',#1045,0.001);
#901=CYLINDRICAL_SURFACE('',#1046,0.001);
#902=CYLINDRICAL_SURFACE('',#1055,0.001);
#903=CYLINDRICAL_SURFACE('',#1056,0.001);
#904=CYLINDRICAL_SURFACE('',#1065,0.001);
#905=CYLINDRICAL_SURFACE('',#1066,0.001);
#906=CYLINDRICAL_SURFACE('',#1076,0.003);
#907=CYLINDRICAL_SURFACE('',#1079,0.003);
#908=ADVANCED_FACE('',(#820,#821),#890,.F.);
#909=ADVANCED_FACE('',(#822,#823),#891,.F.);
#910=ADVANCED_FACE('',(#824,#825,#826),#177,.F.);
#911=ADVANCED_FACE('',(#827),#892,.T.);
#912=ADVANCED_FACE('',(#828),#28,.F.);
#913=ADVANCED_FACE('',(#829),#29,.T.);
#914=ADVANCED_FACE('',(#830),#893,.T.);
#915=ADVANCED_FACE('',(#831),#30,.F.);
#916=ADVANCED_FACE('',(#832),#31,.T.);
#917=ADVANCED_FACE('',(#833),#32,.T.);
#918=ADVANCED_FACE('',(#834),#894,.T.);
#919=ADVANCED_FACE('',(#835),#33,.F.);
#920=ADVANCED_FACE('',(#836),#34,.T.);
#921=ADVANCED_FACE('',(#837,#838),#895,.T.);
#922=ADVANCED_FACE('',(#839,#840,#841,#842),#178,.F.);
#923=ADVANCED_FACE('',(#843),#896,.T.);
#924=ADVANCED_FACE('',(#844),#35,.F.);
#925=ADVANCED_FACE('',(#845,#846),#897,.T.);
#926=ADVANCED_FACE('',(#847,#848),#179,.F.);
#927=ADVANCED_FACE('',(#849,#850),#36,.T.);
#928=ADVANCED_FACE('',(#851),#180,.F.);
#929=ADVANCED_FACE('',(#852),#181,.T.);
#930=ADVANCED_FACE('',(#853),#182,.F.);
#931=ADVANCED_FACE('',(#854),#183,.F.);
#932=ADVANCED_FACE('',(#855),#898,.T.);
#933=ADVANCED_FACE('',(#856),#899,.T.);
#934=ADVANCED_FACE('',(#857),#184,.F.);
#935=ADVANCED_FACE('',(#858),#185,.T.);
#936=ADVANCED_FACE('',(#859),#186,.F.);
#937=ADVANCED_FACE('',(#860),#187,.F.);
#938=ADVANCED_FACE('',(#861),#900,.T.);
#939=ADVANCED_FACE('',(#862),#901,.T.);
#940=ADVANCED_FACE('',(#863),#188,.T.);
#941=ADVANCED_FACE('',(#864),#189,.F.);
#942=ADVANCED_FACE('',(#865),#190,.F.);
#943=ADVANCED_FACE('',(#866),#191,.F.);
#944=ADVANCED_FACE('',(#867),#902,.T.);
#945=ADVANCED_FACE('',(#868),#903,.T.);
#946=ADVANCED_FACE('',(#869),#192,.T.);
#947=ADVANCED_FACE('',(#870),#193,.F.);
#948=ADVANCED_FACE('',(#871),#194,.F.);
#949=ADVANCED_FACE('',(#872),#195,.F.);
#950=ADVANCED_FACE('',(#873),#904,.T.);
#951=ADVANCED_FACE('',(#874),#905,.T.);
#952=ADVANCED_FACE('',(#875),#196,.F.);
#953=ADVANCED_FACE('',(#876),#197,.F.);
#954=ADVANCED_FACE('',(#877),#198,.T.);
#955=ADVANCED_FACE('',(#878),#199,.T.);
#956=ADVANCED_FACE('',(#879),#200,.F.);
#957=ADVANCED_FACE('',(#880),#201,.T.);
#958=ADVANCED_FACE('',(#881),#202,.T.);
#959=ADVANCED_FACE('',(#882,#883),#203,.T.);
#960=ADVANCED_FACE('',(#884,#885),#906,.F.);
#961=ADVANCED_FACE('',(#886,#887),#204,.T.);
#962=ADVANCED_FACE('',(#888,#889),#907,.F.);
#963=CLOSED_SHELL('',(#908,#909,#910,#911,#912,#913,#914,#915,#916,#917,
#918,#919,#920,#921,#922,#923,#924,#925,#926,#927,#928,#929,#930,#931,#932,
#933,#934,#935,#936,#937,#938,#939,#940,#941,#942,#943,#944,#945,#946,#947,
#948,#949,#950,#951,#952,#953,#954,#955,#956,#957,#958,#959,#960,#961,#962));
#964=STYLED_ITEM('',(#965),#972);
#965=PRESENTATION_STYLE_ASSIGNMENT((#966));
#966=SURFACE_STYLE_USAGE(.BOTH.,#967);
#967=SURFACE_SIDE_STYLE('',(#968));
#968=SURFACE_STYLE_FILL_AREA(#969);
#969=FILL_AREA_STYLE('',(#970));
#970=FILL_AREA_STYLE_COLOUR('',#971);
#971=COLOUR_RGB('',0.231372549019608,0.380392156862745,0.705882352941177);
#972=MANIFOLD_SOLID_BREP('Base',#963);
#973=SHAPE_DEFINITION_REPRESENTATION(#1712,#974);
#974=SHAPE_REPRESENTATION('Base',(#975),#1707);
#975=AXIS2_PLACEMENT_3D('',#1360,#1080,#1081);
#976=AXIS2_PLACEMENT_3D('',#1361,#1082,#1083);
#977=AXIS2_PLACEMENT_3D('',#1362,#1084,#1085);
#978=AXIS2_PLACEMENT_3D('',#1364,#1086,#1087);
#979=AXIS2_PLACEMENT_3D('',#1366,#1088,#1089);
#980=AXIS2_PLACEMENT_3D('',#1367,#1090,#1091);
#981=AXIS2_PLACEMENT_3D('',#1369,#1092,#1093);
#982=AXIS2_PLACEMENT_3D('',#1371,#1094,#1095);
#983=AXIS2_PLACEMENT_3D('',#1372,#1096,#1097);
#984=AXIS2_PLACEMENT_3D('',#1374,#1098,#1099);
#985=AXIS2_PLACEMENT_3D('',#1391,#1107,#1108);
#986=AXIS2_PLACEMENT_3D('',#1392,#1109,#1110);
#987=AXIS2_PLACEMENT_3D('',#1396,#1112,#1113);
#988=AXIS2_PLACEMENT_3D('',#1400,#1115,#1116);
#989=AXIS2_PLACEMENT_3D('',#1401,#1117,#1118);
#990=AXIS2_PLACEMENT_3D('',#1414,#1119,#1120);
#991=AXIS2_PLACEMENT_3D('',#1415,#1121,#1122);
#992=AXIS2_PLACEMENT_3D('',#1423,#1123,#1124);
#993=AXIS2_PLACEMENT_3D('',#1431,#1125,#1126);
#994=AXIS2_PLACEMENT_3D('',#1432,#1127,#1128);
#995=AXIS2_PLACEMENT_3D('',#1435,#1130,#1131);
#996=AXIS2_PLACEMENT_3D('',#1438,#1133,#1134);
#997=AXIS2_PLACEMENT_3D('',#1445,#1135,#1136);
#998=AXIS2_PLACEMENT_3D('',#1452,#1137,#1138);
#999=AXIS2_PLACEMENT_3D('',#1460,#1139,#1140);
#1000=AXIS2_PLACEMENT_3D('',#1468,#1141,#1142);
#1001=AXIS2_PLACEMENT_3D('',#1469,#1143,#1144);
#1002=AXIS2_PLACEMENT_3D('',#1477,#1145,#1146);
#1003=AXIS2_PLACEMENT_3D('',#1485,#1147,#1148);
#1004=AXIS2_PLACEMENT_3D('',#1486,#1149,#1150);
#1005=AXIS2_PLACEMENT_3D('',#1489,#1152,#1153);
#1006=AXIS2_PLACEMENT_3D('',#1492,#1155,#1156);
#1007=AXIS2_PLACEMENT_3D('',#1499,#1157,#1158);
#1008=AXIS2_PLACEMENT_3D('',#1506,#1159,#1160);
#1009=AXIS2_PLACEMENT_3D('',#1513,#1161,#1162);
#1010=AXIS2_PLACEMENT_3D('',#1520,#1163,#1164);
#1011=AXIS2_PLACEMENT_3D('',#1521,#1165,#1166);
#1012=AXIS2_PLACEMENT_3D('',#1526,#1169,#1170);
#1013=AXIS2_PLACEMENT_3D('',#1528,#1171,#1172);
#1014=AXIS2_PLACEMENT_3D('',#1557,#1189,#1190);
#1015=AXIS2_PLACEMENT_3D('',#1560,#1192,#1193);
#1016=AXIS2_PLACEMENT_3D('',#1563,#1195,#1196);
#1017=AXIS2_PLACEMENT_3D('',#1570,#1197,#1198);
#1018=AXIS2_PLACEMENT_3D('',#1577,#1199,#1200);
#1019=AXIS2_PLACEMENT_3D('',#1578,#1201,#1202);
#1020=AXIS2_PLACEMENT_3D('',#1579,#1203,#1204);
#1021=AXIS2_PLACEMENT_3D('',#1580,#1205,#1206);
#1022=AXIS2_PLACEMENT_3D('',#1581,#1207,#1208);
#1023=AXIS2_PLACEMENT_3D('',#1582,#1209,#1210);
#1024=AXIS2_PLACEMENT_3D('',#1584,#1211,#1212);
#1025=AXIS2_PLACEMENT_3D('',#1585,#1213,#1214);
#1026=AXIS2_PLACEMENT_3D('',#1587,#1215,#1216);
#1027=AXIS2_PLACEMENT_3D('',#1588,#1217,#1218);
#1028=AXIS2_PLACEMENT_3D('',#1597,#1223,#1224);
#1029=AXIS2_PLACEMENT_3D('',#1598,#1225,#1226);
#1030=AXIS2_PLACEMENT_3D('',#1601,#1228,#1229);
#1031=AXIS2_PLACEMENT_3D('',#1602,#1230,#1231);
#1032=AXIS2_PLACEMENT_3D('',#1605,#1233,#1234);
#1033=AXIS2_PLACEMENT_3D('',#1606,#1235,#1236);
#1034=AXIS2_PLACEMENT_3D('',#1607,#1237,#1238);
#1035=AXIS2_PLACEMENT_3D('',#1609,#1240,#1241);
#1036=AXIS2_PLACEMENT_3D('',#1610,#1242,#1243);
#1037=AXIS2_PLACEMENT_3D('',#1611,#1244,#1245);
#1038=AXIS2_PLACEMENT_3D('',#1620,#1250,#1251);
#1039=AXIS2_PLACEMENT_3D('',#1621,#1252,#1253);
#1040=AXIS2_PLACEMENT_3D('',#1624,#1255,#1256);
#1041=AXIS2_PLACEMENT_3D('',#1625,#1257,#1258);
#1042=AXIS2_PLACEMENT_3D('',#1628,#1260,#1261);
#1043=AXIS2_PLACEMENT_3D('',#1629,#1262,#1263);
#1044=AXIS2_PLACEMENT_3D('',#1630,#1264,#1265);
#1045=AXIS2_PLACEMENT_3D('',#1632,#1267,#1268);
#1046=AXIS2_PLACEMENT_3D('',#1633,#1269,#1270);
#1047=AXIS2_PLACEMENT_3D('',#1634,#1271,#1272);
#1048=AXIS2_PLACEMENT_3D('',#1638,#1274,#1275);
#1049=AXIS2_PLACEMENT_3D('',#1641,#1277,#1278);
#1050=AXIS2_PLACEMENT_3D('',#1642,#1279,#1280);
#1051=AXIS2_PLACEMENT_3D('',#1645,#1282,#1283);
#1052=AXIS2_PLACEMENT_3D('',#1649,#1285,#1286);
#1053=AXIS2_PLACEMENT_3D('',#1650,#1287,#1288);
#1054=AXIS2_PLACEMENT_3D('',#1653,#1291,#1292);
#1055=AXIS2_PLACEMENT_3D('',#1655,#1294,#1295);
#1056=AXIS2_PLACEMENT_3D('',#1656,#1296,#1297);
#1057=AXIS2_PLACEMENT_3D('',#1657,#1298,#1299);
#1058=AXIS2_PLACEMENT_3D('',#1661,#1301,#1302);
#1059=AXIS2_PLACEMENT_3D('',#1664,#1304,#1305);
#1060=AXIS2_PLACEMENT_3D('',#1665,#1306,#1307);
#1061=AXIS2_PLACEMENT_3D('',#1668,#1309,#1310);
#1062=AXIS2_PLACEMENT_3D('',#1672,#1312,#1313);
#1063=AXIS2_PLACEMENT_3D('',#1673,#1314,#1315);
#1064=AXIS2_PLACEMENT_3D('',#1676,#1318,#1319);
#1065=AXIS2_PLACEMENT_3D('',#1678,#1321,#1322);
#1066=AXIS2_PLACEMENT_3D('',#1679,#1323,#1324);
#1067=AXIS2_PLACEMENT_3D('',#1680,#1325,#1326);
#1068=AXIS2_PLACEMENT_3D('',#1688,#1332,#1333);
#1069=AXIS2_PLACEMENT_3D('',#1690,#1335,#1336);
#1070=AXIS2_PLACEMENT_3D('',#1692,#1338,#1339);
#1071=AXIS2_PLACEMENT_3D('',#1693,#1340,#1341);
#1072=AXIS2_PLACEMENT_3D('',#1695,#1343,#1344);
#1073=AXIS2_PLACEMENT_3D('',#1697,#1346,#1347);
#1074=AXIS2_PLACEMENT_3D('',#1698,#1348,#1349);
#1075=AXIS2_PLACEMENT_3D('',#1699,#1350,#1351);
#1076=AXIS2_PLACEMENT_3D('',#1701,#1352,#1353);
#1077=AXIS2_PLACEMENT_3D('',#1702,#1354,#1355);
#1078=AXIS2_PLACEMENT_3D('',#1703,#1356,#1357);
#1079=AXIS2_PLACEMENT_3D('',#1705,#1358,#1359);
#1080=DIRECTION('',(0.,0.,1.));
#1081=DIRECTION('',(1.,0.,0.));
#1082=DIRECTION('',(-6.7762635780344E-18,1.,0.));
#1083=DIRECTION('',(-1.,-6.7762635780344E-18,0.));
#1084=DIRECTION('',(-6.7762635780344E-18,1.,0.));
#1085=DIRECTION('',(-1.,-6.7762635780344E-18,0.));
#1086=DIRECTION('',(6.7762635780344E-18,-1.,0.));
#1087=DIRECTION('',(1.,6.7762635780344E-18,0.));
#1088=DIRECTION('',(-6.7762635780344E-18,1.,0.));
#1089=DIRECTION('',(-1.,-6.7762635780344E-18,0.));
#1090=DIRECTION('',(-6.7762635780344E-18,1.,0.));
#1091=DIRECTION('',(-1.,-6.7762635780344E-18,0.));
#1092=DIRECTION('',(6.7762635780344E-18,-1.,0.));
#1093=DIRECTION('',(1.,6.7762635780344E-18,0.));
#1094=DIRECTION('',(-6.7762635780344E-18,1.,0.));
#1095=DIRECTION('',(-1.,-6.7762635780344E-18,0.));
#1096=DIRECTION('',(6.7762635780344E-18,-1.,0.));
#1097=DIRECTION('',(1.,6.7762635780344E-18,0.));
#1098=DIRECTION('',(6.7762635780344E-18,-1.,0.));
#1099=DIRECTION('',(1.,6.7762635780344E-18,0.));
#1100=DIRECTION('',(0.,0.,-1.));
#1101=DIRECTION('',(1.,6.7762635780344E-18,0.));
#1102=DIRECTION('',(0.,0.,1.));
#1103=DIRECTION('',(1.,6.7762635780344E-18,0.));
#1104=DIRECTION('',(0.,0.,1.));
#1105=DIRECTION('',(1.,6.7762635780344E-18,0.));
#1106=DIRECTION('',(0.,0.,-1.));
#1107=DIRECTION('',(-6.7762635780344E-18,1.,0.));
#1108=DIRECTION('',(-1.,-6.7762635780344E-18,0.));
#1109=DIRECTION('',(-6.7762635780344E-18,1.,0.));
#1110=DIRECTION('',(-1.,-6.7762635780344E-18,0.));
#1111=DIRECTION('',(-6.7762635780344E-18,1.,0.));
#1112=DIRECTION('',(-6.7762635780344E-18,1.,0.));
#1113=DIRECTION('',(-1.,-6.7762635780344E-18,0.));
#1114=DIRECTION('',(-6.7762635780344E-18,1.,0.));
#1115=DIRECTION('',(-6.7762635780344E-18,1.,0.));
#1116=DIRECTION('',(-1.,-6.7762635780344E-18,0.));
#1117=DIRECTION('',(-6.7762635780344E-18,1.,0.));
#1118=DIRECTION('',(-1.,-6.7762635780344E-18,0.));
#1119=DIRECTION('',(-6.7762635780344E-18,1.,0.));
#1120=DIRECTION('',(-1.,-6.7762635780344E-18,0.));
#1121=DIRECTION('',(-6.7762635780344E-18,1.,0.));
#1122=DIRECTION('',(-1.,-6.7762635780344E-18,0.));
#1123=DIRECTION('',(-6.7762635780344E-18,1.,0.));
#1124=DIRECTION('',(-1.,-6.7762635780344E-18,0.));
#1125=DIRECTION('',(-6.7762635780344E-18,1.,0.));
#1126=DIRECTION('',(-1.,-6.7762635780344E-18,0.));
#1127=DIRECTION('',(-6.7762635780344E-18,1.,0.));
#1128=DIRECTION('',(-1.,-6.7762635780344E-18,0.));
#1129=DIRECTION('',(-6.7762635780344E-18,1.,0.));
#1130=DIRECTION('',(-6.7762635780344E-18,1.,0.));
#1131=DIRECTION('',(-1.,-6.7762635780344E-18,0.));
#1132=DIRECTION('',(-6.7762635780344E-18,1.,0.));
#1133=DIRECTION('',(-6.7762635780344E-18,1.,0.));
#1134=DIRECTION('',(-1.,-6.7762635780344E-18,0.));
#1135=DIRECTION('',(-6.7762635780344E-18,1.,0.));
#1136=DIRECTION('',(-1.,-6.7762635780344E-18,0.));
#1137=DIRECTION('',(-6.7762635780344E-18,1.,0.));
#1138=DIRECTION('',(-1.,-6.7762635780344E-18,0.));
#1139=DIRECTION('',(-6.7762635780344E-18,1.,0.));
#1140=DIRECTION('',(-1.,-6.7762635780344E-18,0.));
#1141=DIRECTION('',(-6.7762635780344E-18,1.,0.));
#1142=DIRECTION('',(-1.,-6.7762635780344E-18,0.));
#1143=DIRECTION('',(-6.7762635780344E-18,1.,0.));
#1144=DIRECTION('',(-1.,-6.7762635780344E-18,0.));
#1145=DIRECTION('',(-6.7762635780344E-18,1.,0.));
#1146=DIRECTION('',(-1.,-6.7762635780344E-18,0.));
#1147=DIRECTION('',(-6.7762635780344E-18,1.,0.));
#1148=DIRECTION('',(-1.,-6.7762635780344E-18,0.));
#1149=DIRECTION('',(-6.7762635780344E-18,1.,0.));
#1150=DIRECTION('',(-1.,-6.7762635780344E-18,0.));
#1151=DIRECTION('',(-6.7762635780344E-18,1.,0.));
#1152=DIRECTION('',(-6.7762635780344E-18,1.,0.));
#1153=DIRECTION('',(-1.,-6.7762635780344E-18,0.));
#1154=DIRECTION('',(-6.7762635780344E-18,1.,0.));
#1155=DIRECTION('',(-6.7762635780344E-18,1.,0.));
#1156=DIRECTION('',(-1.,-6.7762635780344E-18,0.));
#1157=DIRECTION('',(-6.7762635780344E-18,1.,0.));
#1158=DIRECTION('',(-1.,-6.7762635780344E-18,0.));
#1159=DIRECTION('',(-6.7762635780344E-18,1.,0.));
#1160=DIRECTION('',(-1.,-6.7762635780344E-18,0.));
#1161=DIRECTION('',(-6.7762635780344E-18,1.,0.));
#1162=DIRECTION('',(-1.,-6.7762635780344E-18,0.));
#1163=DIRECTION('',(-6.7762635780344E-18,1.,0.));
#1164=DIRECTION('',(-1.,-6.7762635780344E-18,0.));
#1165=DIRECTION('',(-6.7762635780344E-18,1.,0.));
#1166=DIRECTION('',(-1.,-6.7762635780344E-18,0.));
#1167=DIRECTION('',(6.7762635780344E-18,-1.,0.));
#1168=DIRECTION('',(6.7762635780344E-18,-1.,0.));
#1169=DIRECTION('',(-6.7762635780344E-18,1.,0.));
#1170=DIRECTION('',(-1.,-6.7762635780344E-18,0.));
#1171=DIRECTION('',(6.7762635780344E-18,-1.,0.));
#1172=DIRECTION('',(1.,6.7762635780344E-18,0.));
#1173=DIRECTION('',(0.,0.,-1.));
#1174=DIRECTION('',(-1.,-6.7762635780344E-18,0.));
#1175=DIRECTION('',(0.,0.,-1.));
#1176=DIRECTION('',(-1.,-6.7762635780344E-18,0.));
#1177=DIRECTION('',(-1.,-6.7762635780344E-18,2.10666939992772E-17));
#1178=DIRECTION('',(1.83697019872103E-16,1.24477942515279E-33,1.));
#1179=DIRECTION('',(-1.,-6.7762635780344E-18,2.10666939992772E-17));
#1180=DIRECTION('',(-4.01656459580904E-17,-2.72173003794033E-34,1.));
#1181=DIRECTION('',(1.,6.7762635780344E-18,-1.22464679914735E-16));
#1182=DIRECTION('',(-4.01656459580904E-17,-2.72173003794033E-34,1.));
#1183=DIRECTION('',(1.,6.7762635780344E-18,1.01397985915458E-16));
#1184=DIRECTION('',(-6.12323399573677E-17,-4.14926475050931E-34,-1.));
#1185=DIRECTION('',(1.,6.7762635780344E-18,1.01397985915458E-16));
#1186=DIRECTION('',(1.62630325872826E-16,1.1020259538959E-33,-1.));
#1187=DIRECTION('',(-1.,-6.7762635780344E-18,0.));
#1188=DIRECTION('',(1.62630325872826E-16,1.1020259538959E-33,-1.));
#1189=DIRECTION('',(-6.7762635780344E-18,1.,0.));
#1190=DIRECTION('',(-1.,-6.7762635780344E-18,0.));
#1191=DIRECTION('',(-6.7762635780344E-18,1.,0.));
#1192=DIRECTION('',(-6.7762635780344E-18,1.,0.));
#1193=DIRECTION('',(-1.,-6.7762635780344E-18,0.));
#1194=DIRECTION('',(-6.7762635780344E-18,1.,0.));
#1195=DIRECTION('',(-6.7762635780344E-18,1.,0.));
#1196=DIRECTION('',(-1.,-6.7762635780344E-18,0.));
#1197=DIRECTION('',(-6.7762635780344E-18,1.,0.));
#1198=DIRECTION('',(-1.,-6.7762635780344E-18,0.));
#1199=DIRECTION('',(-6.7762635780344E-18,1.,0.));
#1200=DIRECTION('',(-1.,-6.7762635780344E-18,0.));
#1201=DIRECTION('',(-6.7762635780344E-18,1.,0.));
#1202=DIRECTION('',(-1.,-6.7762635780344E-18,0.));
#1203=DIRECTION('',(-6.7762635780344E-18,1.,0.));
#1204=DIRECTION('',(-1.,-6.7762635780344E-18,0.));
#1205=DIRECTION('',(-6.7762635780344E-18,1.,0.));
#1206=DIRECTION('',(-1.,-6.7762635780344E-18,0.));
#1207=DIRECTION('',(-6.7762635780344E-18,1.,0.));
#1208=DIRECTION('',(-1.,-6.7762635780344E-18,0.));
#1209=DIRECTION('',(-6.7762635780344E-18,1.,0.));
#1210=DIRECTION('',(-1.,-6.7762635780344E-18,0.));
#1211=DIRECTION('',(6.7762635780344E-18,-1.,0.));
#1212=DIRECTION('',(1.,6.7762635780344E-18,0.));
#1213=DIRECTION('',(-6.7762635780344E-18,1.,0.));
#1214=DIRECTION('',(-1.,-6.7762635780344E-18,0.));
#1215=DIRECTION('',(-6.7762635780344E-18,1.,0.));
#1216=DIRECTION('',(-1.,-6.7762635780344E-18,0.));
#1217=DIRECTION('',(0.,0.,-1.));
#1218=DIRECTION('',(-1.,0.,0.));
#1219=DIRECTION('',(-6.7762635780344E-18,1.,0.));
#1220=DIRECTION('',(-1.,-6.7762635780344E-18,0.));
#1221=DIRECTION('',(-6.7762635780344E-18,1.,0.));
#1222=DIRECTION('',(-1.,-6.7762635780344E-18,0.));
#1223=DIRECTION('',(1.,6.7762635780344E-18,1.62630325872826E-16));
#1224=DIRECTION('',(1.62630325872826E-16,0.,-1.));
#1225=DIRECTION('',(1.,6.7762635780344E-18,1.62630325872826E-16));
#1226=DIRECTION('',(1.62630325872826E-16,0.,-1.));
#1227=DIRECTION('',(1.62630325872826E-16,1.1020259538959E-33,-1.));
#1228=DIRECTION('',(1.,6.7762635780344E-18,1.62630325872826E-16));
#1229=DIRECTION('',(1.62630325872826E-16,0.,-1.));
#1230=DIRECTION('',(1.,6.7762635780344E-18,1.62630325872826E-16));
#1231=DIRECTION('',(1.62630325872826E-16,0.,-1.));
#1232=DIRECTION('',(1.62630325872826E-16,1.1020259538959E-33,-1.));
#1233=DIRECTION('',(1.,6.7762635780344E-18,1.62630325872826E-16));
#1234=DIRECTION('',(1.62630325872826E-16,0.,-1.));
#1235=DIRECTION('',(1.,6.7762635780344E-18,1.62630325872826E-16));
#1236=DIRECTION('',(1.62630325872826E-16,0.,-1.));
#1237=DIRECTION('',(-6.7762635780344E-18,1.,0.));
#1238=DIRECTION('',(-1.,-6.7762635780344E-18,0.));
#1239=DIRECTION('',(-1.,-6.7762635780344E-18,0.));
#1240=DIRECTION('',(-1.,-6.7762635780344E-18,0.));
#1241=DIRECTION('',(6.7762635780344E-18,-1.,0.));
#1242=DIRECTION('',(-1.,-6.7762635780344E-18,0.));
#1243=DIRECTION('',(6.7762635780344E-18,-1.,0.));
#1244=DIRECTION('',(1.,6.7762635780344E-18,-6.12323399573677E-17));
#1245=DIRECTION('',(-6.12323399573677E-17,0.,-1.));
#1246=DIRECTION('',(-6.7762635780344E-18,1.,0.));
#1247=DIRECTION('',(-6.12323399573677E-17,-4.14926475050931E-34,-1.));
#1248=DIRECTION('',(-6.7762635780344E-18,1.,0.));
#1249=DIRECTION('',(-6.12323399573677E-17,-4.14926475050931E-34,-1.));
#1250=DIRECTION('',(-1.01397985915458E-16,-6.87099478844964E-34,1.));
#1251=DIRECTION('',(1.,0.,1.01397985915458E-16));
#1252=DIRECTION('',(-1.01397985915458E-16,-6.87099478844964E-34,1.));
#1253=DIRECTION('',(1.,0.,1.01397985915458E-16));
#1254=DIRECTION('',(1.,6.7762635780344E-18,1.01397985915458E-16));
#1255=DIRECTION('',(-1.01397985915458E-16,-6.87099478844964E-34,1.));
#1256=DIRECTION('',(1.,0.,1.01397985915458E-16));
#1257=DIRECTION('',(-1.01397985915458E-16,-6.87099478844964E-34,1.));
#1258=DIRECTION('',(1.,0.,1.01397985915458E-16));
#1259=DIRECTION('',(1.,6.7762635780344E-18,1.01397985915458E-16));
#1260=DIRECTION('',(-1.01397985915458E-16,-6.87099478844964E-34,1.));
#1261=DIRECTION('',(1.,0.,1.01397985915458E-16));
#1262=DIRECTION('',(-1.01397985915458E-16,-6.87099478844964E-34,1.));
#1263=DIRECTION('',(1.,0.,1.01397985915458E-16));
#1264=DIRECTION('',(-6.7762635780344E-18,1.,0.));
#1265=DIRECTION('',(-6.12323399573677E-17,-7.70371977754894E-34,-1.));
#1266=DIRECTION('',(-6.12323399573677E-17,-4.14926475050931E-34,-1.));
#1267=DIRECTION('',(-6.12323399573677E-17,-4.14926475050931E-34,-1.));
#1268=DIRECTION('',(-1.,0.,6.12323399573677E-17));
#1269=DIRECTION('',(-6.12323399573677E-17,-4.14926475050931E-34,-1.));
#1270=DIRECTION('',(-1.,0.,6.12323399573677E-17));
#1271=DIRECTION('',(-1.,-6.7762635780344E-18,-4.01656459580905E-17));
#1272=DIRECTION('',(-4.01656459580905E-17,0.,1.));
#1273=DIRECTION('',(-6.7762635780344E-18,1.,0.));
#1274=DIRECTION('',(-1.,-6.7762635780344E-18,-4.01656459580905E-17));
#1275=DIRECTION('',(-4.01656459580905E-17,0.,1.));
#1276=DIRECTION('',(-4.01656459580904E-17,-2.72173003794033E-34,1.));
#1277=DIRECTION('',(-1.,-6.7762635780344E-18,-4.01656459580905E-17));
#1278=DIRECTION('',(-4.01656459580905E-17,0.,1.));
#1279=DIRECTION('',(-1.,-6.7762635780344E-18,-4.01656459580905E-17));
#1280=DIRECTION('',(-4.01656459580905E-17,0.,1.));
#1281=DIRECTION('',(-4.01656459580904E-17,-2.72173003794033E-34,1.));
#1282=DIRECTION('',(-1.,-6.7762635780344E-18,-4.01656459580905E-17));
#1283=DIRECTION('',(-4.01656459580905E-17,0.,1.));
#1284=DIRECTION('',(-6.7762635780344E-18,1.,0.));
#1285=DIRECTION('',(-1.,-6.7762635780344E-18,-4.01656459580905E-17));
#1286=DIRECTION('',(-4.01656459580905E-17,0.,1.));
#1287=DIRECTION('',(1.22464679914735E-16,8.29852950101862E-34,1.));
#1288=DIRECTION('',(1.,0.,-1.22464679914735E-16));
#1289=DIRECTION('',(1.,6.7762635780344E-18,-1.22464679914735E-16));
#1290=DIRECTION('',(1.,6.7762635780344E-18,-1.22464679914735E-16));
#1291=DIRECTION('',(-6.7762635780344E-18,1.,0.));
#1292=DIRECTION('',(1.,6.7762635780344E-18,-1.22464679914735E-16));
#1293=DIRECTION('',(1.,6.7762635780344E-18,-1.22464679914735E-16));
#1294=DIRECTION('',(1.,6.7762635780344E-18,-1.22464679914735E-16));
#1295=DIRECTION('',(-1.22464679914735E-16,0.,-1.));
#1296=DIRECTION('',(1.,6.7762635780344E-18,-1.22464679914735E-16));
#1297=DIRECTION('',(-1.22464679914735E-16,0.,-1.));
#1298=DIRECTION('',(-2.10666939992772E-17,-1.42753471256898E-34,-1.));
#1299=DIRECTION('',(-1.,0.,2.10666939992772E-17));
#1300=DIRECTION('',(-6.7762635780344E-18,1.,0.));
#1301=DIRECTION('',(-2.10666939992772E-17,-1.42753471256898E-34,-1.));
#1302=DIRECTION('',(-1.,0.,2.10666939992772E-17));
#1303=DIRECTION('',(-1.,-6.7762635780344E-18,2.10666939992772E-17));
#1304=DIRECTION('',(-2.10666939992772E-17,-1.42753471256898E-34,-1.));
#1305=DIRECTION('',(-1.,0.,2.10666939992772E-17));
#1306=DIRECTION('',(-2.10666939992772E-17,-1.42753471256898E-34,-1.));
#1307=DIRECTION('',(-1.,0.,2.10666939992772E-17));
#1308=DIRECTION('',(-1.,-6.7762635780344E-18,2.10666939992772E-17));
#1309=DIRECTION('',(-2.10666939992772E-17,-1.42753471256898E-34,-1.));
#1310=DIRECTION('',(-1.,0.,2.10666939992772E-17));
#1311=DIRECTION('',(-6.7762635780344E-18,1.,0.));
#1312=DIRECTION('',(-2.10666939992772E-17,-1.42753471256898E-34,-1.));
#1313=DIRECTION('',(-1.,0.,2.10666939992772E-17));
#1314=DIRECTION('',(-1.,-6.7762635780344E-18,1.83697019872103E-16));
#1315=DIRECTION('',(1.83697019872103E-16,0.,1.));
#1316=DIRECTION('',(1.83697019872103E-16,1.24477942515279E-33,1.));
#1317=DIRECTION('',(1.83697019872103E-16,1.24477942515279E-33,1.));
#1318=DIRECTION('',(-6.7762635780344E-18,1.,0.));
#1319=DIRECTION('',(1.83697019872103E-16,1.54074395550979E-33,1.));
#1320=DIRECTION('',(1.83697019872103E-16,1.24477942515279E-33,1.));
#1321=DIRECTION('',(1.83697019872103E-16,1.24477942515279E-33,1.));
#1322=DIRECTION('',(1.,0.,-1.83697019872103E-16));
#1323=DIRECTION('',(1.83697019872103E-16,1.24477942515279E-33,1.));
#1324=DIRECTION('',(1.,0.,-1.83697019872103E-16));
#1325=DIRECTION('',(0.,0.,-1.));
#1326=DIRECTION('',(-1.,0.,0.));
#1327=DIRECTION('',(1.,6.7762635780344E-18,0.));
#1328=DIRECTION('',(6.7762635780344E-18,-1.,0.));
#1329=DIRECTION('',(-6.7762635780344E-18,1.,0.));
#1330=DIRECTION('',(-6.7762635780344E-18,1.,0.));
#1331=DIRECTION('',(6.7762635780344E-18,-1.,0.));
#1332=DIRECTION('',(1.,6.7762635780344E-18,0.));
#1333=DIRECTION('',(-6.7762635780344E-18,1.,0.));
#1334=DIRECTION('',(-6.7762635780344E-18,1.,0.));
#1335=DIRECTION('',(1.,6.7762635780344E-18,0.));
#1336=DIRECTION('',(-6.7762635780344E-18,1.,0.));
#1337=DIRECTION('',(-6.7762635780344E-18,1.,0.));
#1338=DIRECTION('',(0.,0.,-1.));
#1339=DIRECTION('',(-1.,0.,0.));
#1340=DIRECTION('',(-1.,-6.7762635780344E-18,0.));
#1341=DIRECTION('',(6.7762635780344E-18,-1.,0.));
#1342=DIRECTION('',(0.,0.,-1.));
#1343=DIRECTION('',(-1.,-6.7762635780344E-18,0.));
#1344=DIRECTION('',(6.7762635780344E-18,-1.,0.));
#1345=DIRECTION('',(0.,0.,-1.));
#1346=DIRECTION('',(6.7762635780344E-18,-1.,0.));
#1347=DIRECTION('',(1.,6.7762635780344E-18,0.));
#1348=DIRECTION('',(6.7762635780344E-18,-1.,0.));
#1349=DIRECTION('',(1.,6.7762635780344E-18,0.));
#1350=DIRECTION('',(6.7762635780344E-18,-1.,0.));
#1351=DIRECTION('',(1.,6.7762635780344E-18,0.));
#1352=DIRECTION('',(6.7762635780344E-18,-1.,0.));
#1353=DIRECTION('',(1.,6.7762635780344E-18,0.));
#1354=DIRECTION('',(6.7762635780344E-18,-1.,0.));
#1355=DIRECTION('',(1.,6.7762635780344E-18,0.));
#1356=DIRECTION('',(6.7762635780344E-18,-1.,0.));
#1357=DIRECTION('',(1.,6.7762635780344E-18,0.));
#1358=DIRECTION('',(6.7762635780344E-18,-1.,0.));
#1359=DIRECTION('',(1.,6.7762635780344E-18,0.));
#1360=CARTESIAN_POINT('',(0.,0.,0.));
#1361=CARTESIAN_POINT('',(0.018,-0.0830343879818266,-0.00125));
#1362=CARTESIAN_POINT('',(0.018,-0.0730323879818265,-0.00125));
#1363=CARTESIAN_POINT('',(0.0165,-0.0730323879818265,-0.00125));
#1364=CARTESIAN_POINT('',(0.018,-0.0800323879818266,-0.00125));
#1365=CARTESIAN_POINT('',(0.0195,-0.0800323879818266,-0.00125));
#1366=CARTESIAN_POINT('',(-0.018,-0.0830343879818266,-0.00125));
#1367=CARTESIAN_POINT('',(-0.018,-0.0730323879818265,-0.00125));
#1368=CARTESIAN_POINT('',(-0.0195,-0.0730323879818265,-0.00125));
#1369=CARTESIAN_POINT('',(-0.018,-0.0800323879818266,-0.00125));
#1370=CARTESIAN_POINT('',(-0.0165,-0.0800323879818266,-0.00125));
#1371=CARTESIAN_POINT('',(-0.0215,-0.0830323879818266,0.));
#1372=CARTESIAN_POINT('',(-0.018,-0.0830323879818266,-0.00125));
#1373=CARTESIAN_POINT('',(-0.015,-0.0830323879818266,-0.00125));
#1374=CARTESIAN_POINT('',(0.018,-0.0830323879818266,-0.00125));
#1375=CARTESIAN_POINT('',(0.021,-0.0830323879818266,-0.00125));
#1376=CARTESIAN_POINT('',(-0.00397234549745917,-0.0830323879818266,-0.0249080619816976));
#1377=CARTESIAN_POINT('',(-0.00397234549745917,-0.0830323879818266,-0.007));
#1378=CARTESIAN_POINT('',(-0.00397234549745917,-0.0830323879818266,-0.0428161239633951));
#1379=CARTESIAN_POINT('',(-8.60585474410369E-18,-0.0830323879818266,-0.007));
#1380=CARTESIAN_POINT('',(-0.0076804784562811,-0.0830323879818266,-0.007));
#1381=CARTESIAN_POINT('',(-0.0076804784562811,-0.0830323879818266,-0.0025));
#1382=CARTESIAN_POINT('',(-0.0076804784562811,-0.0830323879818266,0.));
#1383=CARTESIAN_POINT('',(-7.73849300611529E-18,-0.0830323879818266,0.));
#1384=CARTESIAN_POINT('',(0.00768047845628109,-0.0830323879818266,0.));
#1385=CARTESIAN_POINT('',(0.00768047845628109,-0.0830323879818266,-0.0025));
#1386=CARTESIAN_POINT('',(0.00768047845628109,-0.0830323879818266,-0.007));
#1387=CARTESIAN_POINT('',(-8.60585474410369E-18,-0.0830323879818266,-0.007));
#1388=CARTESIAN_POINT('',(0.00271792057901621,-0.0830323879818266,-0.007));
#1389=CARTESIAN_POINT('',(0.00271792057901621,-0.0830323879818266,-0.0249570088067172));
#1390=CARTESIAN_POINT('',(0.00271792057901621,-0.0830323879818266,-0.0429140176134344));
#1391=CARTESIAN_POINT('',(5.14868009883031E-18,-0.0830323879818266,0.));
#1392=CARTESIAN_POINT('',(4.92634362123101E-18,-0.0502213151776324,0.));
#1393=CARTESIAN_POINT('',(0.0359687364248455,-0.0502213151776324,0.0015));
#1394=CARTESIAN_POINT('',(0.0359687364248455,-0.0740323879818265,0.0015));
#1395=CARTESIAN_POINT('',(0.0359687364248454,-0.0760323879818265,0.0015));
#1396=CARTESIAN_POINT('',(5.087693726628E-18,-0.0740323879818265,0.));
#1397=CARTESIAN_POINT('',(0.0015,-0.0740323879818265,0.0359687364248454));
#1398=CARTESIAN_POINT('',(0.0015,-0.0502213151776324,0.0359687364248454));
#1399=CARTESIAN_POINT('',(0.0015,-0.0760323879818265,0.0359687364248454));
#1400=CARTESIAN_POINT('',(5.10124625378407E-18,-0.0760323879818265,0.));
#1401=CARTESIAN_POINT('',(6.93889390390723E-18,-0.0770323879818265,0.));
#1402=CARTESIAN_POINT('',(0.0359687364248454,-0.0760323879818265,0.0015));
#1403=CARTESIAN_POINT('',(0.0357072816155195,-0.0760323879818265,0.0015));
#1404=CARTESIAN_POINT('',(0.0351861989306527,-0.0762470460081733,0.0015));
#1405=CARTESIAN_POINT('',(0.0349678423698117,-0.0767711412949028,0.0015));
#1406=CARTESIAN_POINT('',(0.0349678423698117,-0.0770323879818265,0.0015));
#1407=CARTESIAN_POINT('',(0.0349678423698117,-0.0770323879818265,0.0015));
#1408=CARTESIAN_POINT('',(0.0015,-0.0760323879818265,0.0359687364248454));
#1409=CARTESIAN_POINT('',(0.0015,-0.0760323879818265,0.0357072816155195));
#1410=CARTESIAN_POINT('',(0.0015,-0.0762470460081733,0.0351861989306527));
#1411=CARTESIAN_POINT('',(0.0015,-0.0767711412949029,0.0349678423698117));
#1412=CARTESIAN_POINT('',(0.0015,-0.0770323879818265,0.0349678423698117));
#1413=CARTESIAN_POINT('',(0.0015,-0.0770323879818265,0.0349678423698117));
#1414=CARTESIAN_POINT('',(5.1080225173621E-18,-0.0770323879818265,0.));
#1415=CARTESIAN_POINT('',(6.93889390390723E-18,-0.0740323879818265,0.));
#1416=CARTESIAN_POINT('',(0.0359687364248454,-0.0740323879818265,-0.0015));
#1417=CARTESIAN_POINT('',(0.0359687364248454,-0.0737693222308831,-0.0015));
#1418=CARTESIAN_POINT('',(0.0357515432823893,-0.0732487210309308,-0.0015));
#1419=CARTESIAN_POINT('',(0.0352285475055255,-0.0730323879818265,-0.0015));
#1420=CARTESIAN_POINT('',(0.0349678423698117,-0.0730323879818265,-0.0015));
#1421=CARTESIAN_POINT('',(0.0359687364248455,-0.0740323879818265,-0.0015));
#1422=CARTESIAN_POINT('',(0.0349678423698117,-0.0730323879818265,-0.0015));
#1423=CARTESIAN_POINT('',(5.087693726628E-18,-0.0740323879818265,0.));
#1424=CARTESIAN_POINT('',(0.0015,-0.0740323879818265,-0.0359687364248455));
#1425=CARTESIAN_POINT('',(0.0015,-0.0740323879818265,-0.0359687364248454));
#1426=CARTESIAN_POINT('',(0.0015,-0.0737713665788027,-0.0359687364248454));
#1427=CARTESIAN_POINT('',(0.0015,-0.0732468889113139,-0.0357504665760258));
#1428=CARTESIAN_POINT('',(0.0015,-0.0730323879818265,-0.035229076400857));
#1429=CARTESIAN_POINT('',(0.0015,-0.0730323879818265,-0.0349678423698118));
#1430=CARTESIAN_POINT('',(0.0015,-0.0730323879818265,-0.0349678423698117));
#1431=CARTESIAN_POINT('',(5.08091746304996E-18,-0.0730323879818265,0.));
#1432=CARTESIAN_POINT('',(4.92634362123101E-18,-0.0502213151776324,0.));
#1433=CARTESIAN_POINT('',(0.0359687364248455,-0.0502213151776324,-0.0015));
#1434=CARTESIAN_POINT('',(0.0359687364248454,-0.0760323879818265,-0.0015));
#1435=CARTESIAN_POINT('',(5.10124625378407E-18,-0.0760323879818265,0.));
#1436=CARTESIAN_POINT('',(0.0015,-0.0760323879818265,-0.0359687364248454));
#1437=CARTESIAN_POINT('',(0.0015,-0.0502213151776324,-0.0359687364248454));
#1438=CARTESIAN_POINT('',(6.93889390390723E-18,-0.0770323879818265,0.));
#1439=CARTESIAN_POINT('',(0.0359687364248454,-0.0760323879818265,-0.0015));
#1440=CARTESIAN_POINT('',(0.0357072816155195,-0.0760323879818265,-0.0015));
#1441=CARTESIAN_POINT('',(0.0351861989306527,-0.0762470460081733,-0.0015));
#1442=CARTESIAN_POINT('',(0.0349678423698117,-0.0767711412949028,-0.0015));
#1443=CARTESIAN_POINT('',(0.0349678423698117,-0.0770323879818265,-0.0015));
#1444=CARTESIAN_POINT('',(0.0349678423698117,-0.0770323879818265,-0.0015));
#1445=CARTESIAN_POINT('',(5.1080225173621E-18,-0.0770323879818265,0.));
#1446=CARTESIAN_POINT('',(0.0015,-0.0770323879818265,-0.0349678423698117));
#1447=CARTESIAN_POINT('',(0.0015,-0.0760323879818265,-0.0359687364248454));
#1448=CARTESIAN_POINT('',(0.0015,-0.0760323879818265,-0.0357065069431385));
#1449=CARTESIAN_POINT('',(0.0015,-0.0762502909112061,-0.0351839887480036));
#1450=CARTESIAN_POINT('',(0.0015,-0.0767698384886818,-0.0349678423698117));
#1451=CARTESIAN_POINT('',(0.0015,-0.0770323879818265,-0.0349678423698117));
#1452=CARTESIAN_POINT('',(6.93889390390723E-18,-0.0740323879818265,0.));
#1453=CARTESIAN_POINT('',(-0.0015,-0.0740323879818265,-0.0359687364248454));
#1454=CARTESIAN_POINT('',(-0.0015,-0.0737713665788027,-0.0359687364248454));
#1455=CARTESIAN_POINT('',(-0.0015,-0.0732468889113139,-0.0357504665760258));
#1456=CARTESIAN_POINT('',(-0.0015,-0.0730323879818265,-0.035229076400857));
#1457=CARTESIAN_POINT('',(-0.0015,-0.0730323879818265,-0.0349678423698117));
#1458=CARTESIAN_POINT('',(-0.0015,-0.0740323879818265,-0.0359687364248454));
#1459=CARTESIAN_POINT('',(-0.0015,-0.0730323879818265,-0.0349678423698117));
#1460=CARTESIAN_POINT('',(5.087693726628E-18,-0.0740323879818265,0.));
#1461=CARTESIAN_POINT('',(-0.0359687364248454,-0.0740323879818265,-0.0015));
#1462=CARTESIAN_POINT('',(-0.0359687364248454,-0.0740323879818265,-0.0015));
#1463=CARTESIAN_POINT('',(-0.0359687364248454,-0.0737713665788027,-0.0015));
#1464=CARTESIAN_POINT('',(-0.0357504665760258,-0.0732468889113139,-0.0015));
#1465=CARTESIAN_POINT('',(-0.035229076400857,-0.0730323879818265,-0.0015));
#1466=CARTESIAN_POINT('',(-0.0349678423698117,-0.0730323879818265,-0.0015));
#1467=CARTESIAN_POINT('',(-0.0349678423698117,-0.0730323879818265,-0.0015));
#1468=CARTESIAN_POINT('',(5.08091746304996E-18,-0.0730323879818265,0.));
#1469=CARTESIAN_POINT('',(6.93889390390723E-18,-0.0740323879818265,0.));
#1470=CARTESIAN_POINT('',(-0.0359687364248454,-0.0740323879818265,0.0015));
#1471=CARTESIAN_POINT('',(-0.0359687364248454,-0.0737713665788027,0.0015));
#1472=CARTESIAN_POINT('',(-0.0357504665760257,-0.0732468889113139,0.0015));
#1473=CARTESIAN_POINT('',(-0.035229076400857,-0.0730323879818265,0.0015));
#1474=CARTESIAN_POINT('',(-0.0349678423698117,-0.0730323879818265,0.0015));
#1475=CARTESIAN_POINT('',(-0.0359687364248454,-0.0740323879818265,0.0015));
#1476=CARTESIAN_POINT('',(-0.0349678423698117,-0.0730323879818265,0.0015));
#1477=CARTESIAN_POINT('',(5.087693726628E-18,-0.0740323879818265,0.));
#1478=CARTESIAN_POINT('',(-0.0015,-0.0740323879818265,0.0359687364248454));
#1479=CARTESIAN_POINT('',(-0.0015,-0.0740323879818265,0.0359687364248454));
#1480=CARTESIAN_POINT('',(-0.0015,-0.0737693222308831,0.0359687364248454));
#1481=CARTESIAN_POINT('',(-0.0015,-0.0732487210309309,0.0357515432823894));
#1482=CARTESIAN_POINT('',(-0.0015,-0.0730323879818265,0.0352285475055255));
#1483=CARTESIAN_POINT('',(-0.0015,-0.0730323879818265,0.0349678423698117));
#1484=CARTESIAN_POINT('',(-0.0015,-0.0730323879818265,0.0349678423698117));
#1485=CARTESIAN_POINT('',(5.08091746304996E-18,-0.0730323879818265,0.));
#1486=CARTESIAN_POINT('',(4.92634362123101E-18,-0.0502213151776324,0.));
#1487=CARTESIAN_POINT('',(-0.0015,-0.0502213151776324,-0.0359687364248454));
#1488=CARTESIAN_POINT('',(-0.0015,-0.0760323879818265,-0.0359687364248454));
#1489=CARTESIAN_POINT('',(5.10124625378407E-18,-0.0760323879818265,0.));
#1490=CARTESIAN_POINT('',(-0.0359687364248454,-0.0760323879818265,-0.0015));
#1491=CARTESIAN_POINT('',(-0.0359687364248454,-0.0502213151776324,-0.0015));
#1492=CARTESIAN_POINT('',(6.93889390390723E-18,-0.0770323879818265,0.));
#1493=CARTESIAN_POINT('',(-0.0015,-0.0760323879818265,-0.0359687364248454));
#1494=CARTESIAN_POINT('',(-0.0015,-0.0760323879818265,-0.0357065069431385));
#1495=CARTESIAN_POINT('',(-0.0015,-0.0762502909112061,-0.0351839887480035));
#1496=CARTESIAN_POINT('',(-0.0015,-0.0767698384886818,-0.0349678423698117));
#1497=CARTESIAN_POINT('',(-0.0015,-0.0770323879818265,-0.0349678423698117));
#1498=CARTESIAN_POINT('',(-0.0015,-0.0770323879818265,-0.0349678423698117));
#1499=CARTESIAN_POINT('',(5.1080225173621E-18,-0.0770323879818265,0.));
#1500=CARTESIAN_POINT('',(-0.0349678423698117,-0.0770323879818265,-0.0015));
#1501=CARTESIAN_POINT('',(-0.0359687364248454,-0.0760323879818265,-0.0015));
#1502=CARTESIAN_POINT('',(-0.0357065069431385,-0.0760323879818265,-0.0015));
#1503=CARTESIAN_POINT('',(-0.0351839887480036,-0.0762502909112061,-0.0015));
#1504=CARTESIAN_POINT('',(-0.0349678423698117,-0.0767698384886818,-0.0015));
#1505=CARTESIAN_POINT('',(-0.0349678423698117,-0.0770323879818265,-0.0015));
#1506=CARTESIAN_POINT('',(6.93889390390723E-18,-0.0740323879818265,0.));
#1507=CARTESIAN_POINT('',(0.0359687364248454,-0.0740323879818265,0.0015));
#1508=CARTESIAN_POINT('',(0.0359687364248454,-0.0737693222308831,0.0015));
#1509=CARTESIAN_POINT('',(0.0357515432823893,-0.0732487210309309,0.0015));
#1510=CARTESIAN_POINT('',(0.0352285475055255,-0.0730323879818265,0.0015));
#1511=CARTESIAN_POINT('',(0.0349678423698117,-0.0730323879818265,0.0015));
#1512=CARTESIAN_POINT('',(0.0349678423698117,-0.0730323879818265,0.0015));
#1513=CARTESIAN_POINT('',(5.08091746304996E-18,-0.0730323879818265,0.));
#1514=CARTESIAN_POINT('',(0.0015,-0.0730323879818265,0.0349678423698117));
#1515=CARTESIAN_POINT('',(0.0015,-0.0740323879818265,0.0359687364248454));
#1516=CARTESIAN_POINT('',(0.0015,-0.0737693222308831,0.0359687364248454));
#1517=CARTESIAN_POINT('',(0.0015,-0.0732487210309309,0.0357515432823894));
#1518=CARTESIAN_POINT('',(0.0015,-0.0730323879818265,0.0352285475055255));
#1519=CARTESIAN_POINT('',(0.0015,-0.0730323879818265,0.0349678423698117));
#1520=CARTESIAN_POINT('',(4.92634362123101E-18,-0.0502213151776324,0.));
#1521=CARTESIAN_POINT('',(5.1283513080962E-18,-0.0800323879818266,0.));
#1522=CARTESIAN_POINT('',(0.00271792057901621,-0.0800323879818266,-0.0429140176134344));
#1523=CARTESIAN_POINT('',(-0.00397234549745917,-0.0800323879818266,-0.0428161239633951));
#1524=CARTESIAN_POINT('',(-0.00397234549745917,-0.0800323879818266,-0.0428161239633951));
#1525=CARTESIAN_POINT('',(0.00271792057901621,-0.0800323879818266,-0.0429140176134344));
#1526=CARTESIAN_POINT('',(5.12157504451817E-18,-0.0790323879818266,0.));
#1527=CARTESIAN_POINT('',(-0.043,-0.0790323879818266,0.));
#1528=CARTESIAN_POINT('',(-0.0175,-0.0730323879818265,0.));
#1529=CARTESIAN_POINT('',(-0.0076804784562811,-0.0730323879818265,-0.0025));
#1530=CARTESIAN_POINT('',(-0.0076804784562811,-0.0730323879818265,0.));
#1531=CARTESIAN_POINT('',(-0.0076804784562811,-0.0730323879818265,-0.007));
#1532=CARTESIAN_POINT('',(-8.67361737988404E-18,-0.0730323879818265,-0.007));
#1533=CARTESIAN_POINT('',(0.00768047845628109,-0.0730323879818265,-0.007));
#1534=CARTESIAN_POINT('',(0.00768047845628109,-0.0730323879818265,-0.0025));
#1535=CARTESIAN_POINT('',(0.00768047845628109,-0.0730323879818265,0.));
#1536=CARTESIAN_POINT('',(-7.80625564189563E-18,-0.0730323879818265,0.));
#1537=CARTESIAN_POINT('',(0.035,-0.0730323879818265,0.0015));
#1538=CARTESIAN_POINT('',(0.036,-0.0730323879818265,0.0015));
#1539=CARTESIAN_POINT('',(0.036,-0.0730323879818265,-9.82779056315751E-18));
#1540=CARTESIAN_POINT('',(0.036,-0.0730323879818265,-0.0015));
#1541=CARTESIAN_POINT('',(0.035,-0.0730323879818265,-0.0015));
#1542=CARTESIAN_POINT('',(0.0015,-0.0730323879818265,-0.035));
#1543=CARTESIAN_POINT('',(0.0015,-0.0730323879818265,-0.036));
#1544=CARTESIAN_POINT('',(-0.0175,-0.0730323879818265,-0.036));
#1545=CARTESIAN_POINT('',(-0.0015,-0.0730323879818265,-0.036));
#1546=CARTESIAN_POINT('',(-0.0015,-0.0730323879818265,-0.035));
#1547=CARTESIAN_POINT('',(-0.035,-0.0730323879818265,-0.0015));
#1548=CARTESIAN_POINT('',(-0.036,-0.0730323879818265,-0.0015));
#1549=CARTESIAN_POINT('',(-0.036,-0.0730323879818265,1.1327982892113E-18));
#1550=CARTESIAN_POINT('',(-0.036,-0.0730323879818265,0.0015));
#1551=CARTESIAN_POINT('',(-0.035,-0.0730323879818265,0.0015));
#1552=CARTESIAN_POINT('',(-0.0015,-0.0730323879818265,0.035));
#1553=CARTESIAN_POINT('',(-0.0015,-0.0730323879818265,0.036));
#1554=CARTESIAN_POINT('',(-0.0175,-0.0730323879818265,0.036));
#1555=CARTESIAN_POINT('',(0.0015,-0.0730323879818265,0.036));
#1556=CARTESIAN_POINT('',(0.0015,-0.0730323879818265,0.035));
#1557=CARTESIAN_POINT('',(4.92634362123101E-18,-0.0502213151776324,0.));
#1558=CARTESIAN_POINT('',(-0.0359687364248454,-0.0502213151776324,0.0015));
#1559=CARTESIAN_POINT('',(-0.0359687364248454,-0.0760323879818265,0.0015));
#1560=CARTESIAN_POINT('',(5.10124625378407E-18,-0.0760323879818265,0.));
#1561=CARTESIAN_POINT('',(-0.0015,-0.0760323879818265,0.0359687364248454));
#1562=CARTESIAN_POINT('',(-0.0015,-0.0502213151776324,0.0359687364248454));
#1563=CARTESIAN_POINT('',(6.93889390390723E-18,-0.0770323879818265,0.));
#1564=CARTESIAN_POINT('',(-0.0359687364248454,-0.0760323879818265,0.0015));
#1565=CARTESIAN_POINT('',(-0.0357065069431385,-0.0760323879818265,0.0015));
#1566=CARTESIAN_POINT('',(-0.0351839887480036,-0.0762502909112061,0.0015));
#1567=CARTESIAN_POINT('',(-0.0349678423698117,-0.0767698384886818,0.0015));
#1568=CARTESIAN_POINT('',(-0.0349678423698117,-0.0770323879818265,0.0015));
#1569=CARTESIAN_POINT('',(-0.0349678423698117,-0.0770323879818265,0.0015));
#1570=CARTESIAN_POINT('',(5.1080225173621E-18,-0.0770323879818265,0.));
#1571=CARTESIAN_POINT('',(-0.0015,-0.0770323879818265,0.0349678423698117));
#1572=CARTESIAN_POINT('',(-0.0015,-0.0760323879818265,0.0359687364248454));
#1573=CARTESIAN_POINT('',(-0.0015,-0.0760323879818265,0.0357072816155195));
#1574=CARTESIAN_POINT('',(-0.0015,-0.0762470460081733,0.0351861989306527));
#1575=CARTESIAN_POINT('',(-0.0015,-0.0767711412949029,0.0349678423698117));
#1576=CARTESIAN_POINT('',(-0.0015,-0.0770323879818265,0.0349678423698117));
#1577=CARTESIAN_POINT('',(4.92634362123101E-18,-0.0502213151776324,0.));
#1578=CARTESIAN_POINT('',(5.1080225173621E-18,-0.0770323879818265,0.));
#1579=CARTESIAN_POINT('',(5.1080225173621E-18,-0.0770323879818265,0.));
#1580=CARTESIAN_POINT('',(5.1080225173621E-18,-0.0770323879818265,0.));
#1581=CARTESIAN_POINT('',(5.1080225173621E-18,-0.0770323879818265,0.));
#1582=CARTESIAN_POINT('',(5.11479878094014E-18,-0.0780323879818266,0.));
#1583=CARTESIAN_POINT('',(-0.035,-0.0780323879818266,0.));
#1584=CARTESIAN_POINT('',(-0.0385,-0.0780323879818266,0.));
#1585=CARTESIAN_POINT('',(5.11479878094014E-18,-0.0780323879818266,0.));
#1586=CARTESIAN_POINT('',(-0.042,-0.0780323879818266,0.));
#1587=CARTESIAN_POINT('',(6.93889390390723E-18,-0.0790323879818266,0.));
#1588=CARTESIAN_POINT('',(3.71339244076285E-18,-0.0770323879818265,0.037));
#1589=CARTESIAN_POINT('',(-0.0015,-0.0770323879818265,0.037));
#1590=CARTESIAN_POINT('',(-0.0015,-0.0760323879818265,0.037));
#1591=CARTESIAN_POINT('',(-0.0015,-0.0740323879818265,0.037));
#1592=CARTESIAN_POINT('',(3.70661617718482E-18,-0.0760323879818265,0.037));
#1593=CARTESIAN_POINT('',(0.0015,-0.0760323879818265,0.037));
#1594=CARTESIAN_POINT('',(0.0015,-0.0770323879818265,0.037));
#1595=CARTESIAN_POINT('',(0.0015,-0.0740323879818265,0.037));
#1596=CARTESIAN_POINT('',(3.69306365002875E-18,-0.0740323879818265,0.037));
#1597=CARTESIAN_POINT('',(0.0015,-0.0770323879818265,0.035));
#1598=CARTESIAN_POINT('',(0.0015,-0.0760323879818265,0.036));
#1599=CARTESIAN_POINT('',(0.0015,-0.0770323879818265,0.036));
#1600=CARTESIAN_POINT('',(0.0015,-0.0770323879818265,0.035));
#1601=CARTESIAN_POINT('',(0.0015,-0.0740323879818265,0.036));
#1602=CARTESIAN_POINT('',(-0.0015,-0.0770323879818265,0.035));
#1603=CARTESIAN_POINT('',(-0.0015,-0.0770323879818265,0.035));
#1604=CARTESIAN_POINT('',(-0.0015,-0.0770323879818265,0.036));
#1605=CARTESIAN_POINT('',(-0.0015,-0.0760323879818265,0.036));
#1606=CARTESIAN_POINT('',(-0.0015,-0.0740323879818265,0.036));
#1607=CARTESIAN_POINT('',(7.46088566891749E-18,-0.0770323879818265,0.00231176122964985));
#1608=CARTESIAN_POINT('',(7.46088566891749E-18,-0.0770323879818265,0.036));
#1609=CARTESIAN_POINT('',(7.45410940533946E-18,-0.0760323879818265,0.036));
#1610=CARTESIAN_POINT('',(3.69306365002875E-18,-0.0740323879818265,0.036));
#1611=CARTESIAN_POINT('',(-0.037,-0.0770323879818265,5.45699725417519E-18));
#1612=CARTESIAN_POINT('',(-0.037,-0.0770323879818265,-0.0015));
#1613=CARTESIAN_POINT('',(-0.037,-0.0760323879818265,-0.0015));
#1614=CARTESIAN_POINT('',(-0.037,-0.0740323879818265,-0.0015));
#1615=CARTESIAN_POINT('',(-0.037,-0.0760323879818265,5.45699725417519E-18));
#1616=CARTESIAN_POINT('',(-0.037,-0.0760323879818265,0.0015));
#1617=CARTESIAN_POINT('',(-0.037,-0.0770323879818265,0.0015));
#1618=CARTESIAN_POINT('',(-0.037,-0.0740323879818265,0.0015));
#1619=CARTESIAN_POINT('',(-0.037,-0.0740323879818265,5.45699725417519E-18));
#1620=CARTESIAN_POINT('',(-0.035,-0.0770323879818265,0.0015));
#1621=CARTESIAN_POINT('',(-0.036,-0.0760323879818265,0.0015));
#1622=CARTESIAN_POINT('',(-0.036,-0.0770323879818265,0.0015));
#1623=CARTESIAN_POINT('',(-0.035,-0.0770323879818265,0.0015));
#1624=CARTESIAN_POINT('',(-0.036,-0.0740323879818265,0.0015));
#1625=CARTESIAN_POINT('',(-0.035,-0.0770323879818265,-0.0015));
#1626=CARTESIAN_POINT('',(-0.035,-0.0770323879818265,-0.0015));
#1627=CARTESIAN_POINT('',(-0.036,-0.0770323879818265,-0.0015));
#1628=CARTESIAN_POINT('',(-0.036,-0.0760323879818265,-0.0015));
#1629=CARTESIAN_POINT('',(-0.036,-0.0740323879818265,-0.0015));
#1630=CARTESIAN_POINT('',(-0.00231176122964985,-0.0770323879818265,7.08044845342141E-18));
#1631=CARTESIAN_POINT('',(-0.036,-0.0770323879818265,9.14325814237246E-18));
#1632=CARTESIAN_POINT('',(-0.036,-0.0760323879818265,9.14325814237246E-18));
#1633=CARTESIAN_POINT('',(-0.036,-0.0740323879818265,5.39576491421782E-18));
#1634=CARTESIAN_POINT('',(-0.0015,-0.0770323879818265,-0.035));
#1635=CARTESIAN_POINT('',(-0.0015,-0.0770323879818265,-0.037));
#1636=CARTESIAN_POINT('',(-0.0015,-0.0760323879818265,-0.037));
#1637=CARTESIAN_POINT('',(-0.0015,-0.0740323879818265,-0.037));
#1638=CARTESIAN_POINT('',(-0.0015,-0.0760323879818265,-0.036));
#1639=CARTESIAN_POINT('',(-0.0015,-0.0770323879818265,-0.036));
#1640=CARTESIAN_POINT('',(-0.0015,-0.0770323879818265,-0.035));
#1641=CARTESIAN_POINT('',(-0.0015,-0.0740323879818265,-0.036));
#1642=CARTESIAN_POINT('',(0.0015,-0.0770323879818265,-0.035));
#1643=CARTESIAN_POINT('',(0.0015,-0.0770323879818265,-0.035));
#1644=CARTESIAN_POINT('',(0.0015,-0.0770323879818265,-0.036));
#1645=CARTESIAN_POINT('',(0.0015,-0.0760323879818265,-0.036));
#1646=CARTESIAN_POINT('',(0.0015,-0.0760323879818265,-0.037));
#1647=CARTESIAN_POINT('',(0.0015,-0.0770323879818265,-0.037));
#1648=CARTESIAN_POINT('',(0.0015,-0.0740323879818265,-0.037));
#1649=CARTESIAN_POINT('',(0.0015,-0.0740323879818265,-0.036));
#1650=CARTESIAN_POINT('',(-7.20060206758753E-18,-0.0770323879818265,-0.037));
#1651=CARTESIAN_POINT('',(-7.20737833116556E-18,-0.0760323879818265,-0.037));
#1652=CARTESIAN_POINT('',(-7.22093085832163E-18,-0.0740323879818265,-0.037));
#1653=CARTESIAN_POINT('',(-6.70001123792533E-18,-0.0770323879818265,-0.00231176122964985));
#1654=CARTESIAN_POINT('',(-1.08256306158274E-17,-0.0770323879818265,-0.036));
#1655=CARTESIAN_POINT('',(-1.08324068794055E-17,-0.0760323879818265,-0.036));
#1656=CARTESIAN_POINT('',(-7.0984661784069E-18,-0.0740323879818265,-0.036));
#1657=CARTESIAN_POINT('',(0.035,-0.0770323879818265,-0.0015));
#1658=CARTESIAN_POINT('',(0.037,-0.0770323879818265,-0.0015));
#1659=CARTESIAN_POINT('',(0.037,-0.0760323879818265,-0.0015));
#1660=CARTESIAN_POINT('',(0.037,-0.0740323879818265,-0.0015));
#1661=CARTESIAN_POINT('',(0.036,-0.0760323879818265,-0.0015));
#1662=CARTESIAN_POINT('',(0.036,-0.0770323879818265,-0.0015));
#1663=CARTESIAN_POINT('',(0.035,-0.0770323879818265,-0.0015));
#1664=CARTESIAN_POINT('',(0.036,-0.0740323879818265,-0.0015));
#1665=CARTESIAN_POINT('',(0.035,-0.0770323879818265,0.0015));
#1666=CARTESIAN_POINT('',(0.035,-0.0770323879818265,0.0015));
#1667=CARTESIAN_POINT('',(0.036,-0.0770323879818265,0.0015));
#1668=CARTESIAN_POINT('',(0.036,-0.0760323879818265,0.0015));
#1669=CARTESIAN_POINT('',(0.037,-0.0760323879818265,0.0015));
#1670=CARTESIAN_POINT('',(0.037,-0.0770323879818265,0.0015));
#1671=CARTESIAN_POINT('',(0.037,-0.0740323879818265,0.0015));
#1672=CARTESIAN_POINT('',(0.036,-0.0740323879818265,0.0015));
#1673=CARTESIAN_POINT('',(0.037,-0.0770323879818265,-9.9881904110204E-18));
#1674=CARTESIAN_POINT('',(0.037,-0.0760323879818265,-9.9881904110204E-18));
#1675=CARTESIAN_POINT('',(0.037,-0.0740323879818265,-9.9881904110204E-18));
#1676=CARTESIAN_POINT('',(0.00231176122964986,-0.0770323879818265,-7.36355755244978E-18));
#1677=CARTESIAN_POINT('',(0.036,-0.0770323879818265,-1.35519866193029E-17));
#1678=CARTESIAN_POINT('',(0.036,-0.0760323879818265,-1.35519866193029E-17));
#1679=CARTESIAN_POINT('',(0.036,-0.0740323879818265,-9.8044933911483E-18));
#1680=CARTESIAN_POINT('',(-8.60584119157654E-18,-0.0830343879818266,-0.007));
#1681=CARTESIAN_POINT('',(-8.62618353483779E-18,-0.0800323879818266,-0.007));
#1682=CARTESIAN_POINT('',(-0.00397234549745917,-0.0800323879818266,-0.007));
#1683=CARTESIAN_POINT('',(0.00271792057901621,-0.0800323879818266,-0.007));
#1684=CARTESIAN_POINT('',(0.00271792057901621,-0.0800323879818266,-0.007));
#1685=CARTESIAN_POINT('',(0.00768047845628109,-0.0830343879818266,-0.007));
#1686=CARTESIAN_POINT('',(-0.0076804784562811,-0.0830343879818266,-0.007));
#1687=CARTESIAN_POINT('',(-0.00397234549745917,-0.0800323879818266,-0.007));
#1688=CARTESIAN_POINT('',(0.00768047845628109,-0.0830343879818266,-0.0025));
#1689=CARTESIAN_POINT('',(0.00768047845628109,-0.0830343879818266,0.));
#1690=CARTESIAN_POINT('',(-0.0076804784562811,-0.0830343879818266,-0.0025));
#1691=CARTESIAN_POINT('',(-0.0076804784562811,-0.0830343879818266,0.));
#1692=CARTESIAN_POINT('',(-7.73847945358813E-18,-0.0830343879818266,0.));
#1693=CARTESIAN_POINT('',(-0.00397234549745917,-0.0800323879818266,-0.0249080619816976));
#1694=CARTESIAN_POINT('',(-0.00397234549745917,-0.0800323879818266,-0.0249080619816976));
#1695=CARTESIAN_POINT('',(0.00271792057901621,-0.0800323879818266,-0.0249570088067172));
#1696=CARTESIAN_POINT('',(0.00271792057901621,-0.0800323879818266,-0.0249570088067172));
#1697=CARTESIAN_POINT('',(7.4812144596516E-18,-0.0800323879818266,0.));
#1698=CARTESIAN_POINT('',(7.4812144596516E-18,-0.0800323879818266,4.29911932827848E-5));
#1699=CARTESIAN_POINT('',(-0.018,-0.0800323879818266,-0.00125));
#1700=CARTESIAN_POINT('',(-0.015,-0.0800323879818266,-0.00125));
#1701=CARTESIAN_POINT('',(-0.018,-0.0800323879818266,-0.00125));
#1702=CARTESIAN_POINT('',(7.4812144596516E-18,-0.0800323879818266,4.29911932827848E-5));
#1703=CARTESIAN_POINT('',(0.018,-0.0800323879818266,-0.00125));
#1704=CARTESIAN_POINT('',(0.021,-0.0800323879818266,-0.00125));
#1705=CARTESIAN_POINT('',(0.018,-0.0800323879818266,-0.00125));
#1706=MECHANICAL_DESIGN_GEOMETRIC_PRESENTATION_REPRESENTATION('',(#964),
#1707);
#1707=(
GEOMETRIC_REPRESENTATION_CONTEXT(3)
GLOBAL_UNCERTAINTY_ASSIGNED_CONTEXT((#1708))
GLOBAL_UNIT_ASSIGNED_CONTEXT((#1711,#1710,#1709))
REPRESENTATION_CONTEXT('Base','TOP_LEVEL_ASSEMBLY_PART')
);
#1708=UNCERTAINTY_MEASURE_WITH_UNIT(LENGTH_MEASURE(2.E-5),#1711,
'DISTANCE_ACCURACY_VALUE','Maximum Tolerance applied to model');
#1709=(
NAMED_UNIT(*)
SI_UNIT($,.STERADIAN.)
SOLID_ANGLE_UNIT()
);
#1710=(
NAMED_UNIT(*)
PLANE_ANGLE_UNIT()
SI_UNIT($,.RADIAN.)
);
#1711=(
LENGTH_UNIT()
NAMED_UNIT(*)
SI_UNIT($,.METRE.)
);
#1712=PRODUCT_DEFINITION_SHAPE('','',#1713);
#1713=PRODUCT_DEFINITION('','',#1715,#1714);
#1714=PRODUCT_DEFINITION_CONTEXT('',#1721,'design');
#1715=PRODUCT_DEFINITION_FORMATION_WITH_SPECIFIED_SOURCE('','',#1717,
 .NOT_KNOWN.);
#1716=PRODUCT_RELATED_PRODUCT_CATEGORY('','',(#1717));
#1717=PRODUCT('Base','Base','Base',(#1719));
#1718=PRODUCT_CATEGORY('','');
#1719=PRODUCT_CONTEXT('',#1721,'mechanical');
#1720=APPLICATION_PROTOCOL_DEFINITION('international standard',
'ap242_managed_model_based_3d_engineering',2020,#1721);
#1721=APPLICATION_CONTEXT('managed model based 3d engineering');
ENDSEC;
END-ISO-10303-21;
